<svg xmlns="http://www.w3.org/2000/svg" viewBox="0 0 692.43 223.14"><defs><style>.cls-1{fill:#e61f3d;}.cls-2{fill:#1d1d1b;}.cls-3{fill:#fff;}.cls-4{fill:#e6223d;}</style></defs><g id="Calque_2" data-name="Calque 2"><g id="Calque_1-2" data-name="Calque 1"><path class="cls-1" d="M170,86.37c15.91,0,26.5,9.72,26.5,24.13s-10.59,24.12-26.5,24.12H152.17V86.37Zm0,39.39c10,0,16.63-5.9,16.63-15.26S180,95.23,170,95.23h-8v30.53Z"/><path class="cls-1" d="M238.65,134.62h-9.51v-3.24a15.29,15.29,0,0,1-11.3,4.32c-8.64,0-14.41-6.19-14.41-15.12V98.69h9.51v19.87c0,5,2.88,8.42,7.27,8.42,5.4,0,8.93-3.6,8.93-12.38V98.69h9.51Z"/><path class="cls-1" d="M274.29,120l8.78,2.23c-2,8.21-9.43,13.47-18,13.47-10.51,0-19.23-7.71-19.23-19s8.72-19.08,19.23-19.08a18.47,18.47,0,0,1,18,13.25l-9.14,2.59c-1.3-5-4.68-7.13-8.86-7.13-6,0-10,4.25-10,10.37s4,10.29,10,10.29C269.25,127,272.63,125,274.29,120Z"/><path class="cls-1" d="M325.48,112.73v21.89H316V114.74c0-5-2.88-8.42-7.27-8.42-5.4,0-8.93,3.6-8.93,12.38v15.92h-9.5V82.77h9.5v19.16a15.3,15.3,0,0,1,11.31-4.32C319.72,97.61,325.48,103.8,325.48,112.73Z"/><path class="cls-1" d="M368.6,119.21H341.24c.94,5.18,4.61,8.35,9,8.35,2.81,0,6.34-.36,8.93-4.75l8.5,1.8c-3.17,7.49-9.58,11.09-17.43,11.09-10.15,0-18.43-7.71-18.43-19s8.28-19.08,18.58-19.08c9.57,0,17.86,7.41,18.21,18.36Zm-27.07-6.7h17.35a8.35,8.35,0,0,0-8.49-6.62A9,9,0,0,0,341.53,112.51Z"/><path class="cls-1" d="M382.35,123.17c.51,3.67,3.68,4.89,7.42,4.89,3.53,0,5.62-1.58,5.62-3.6,0-1.29-.87-2.59-4-3.24l-7.35-1.51c-6.48-1.37-10.15-5-10.15-10.22,0-6.92,5.62-11.88,14.69-11.88,8.5,0,14.4,4.39,15.62,10.65l-9.07,1.8c-.36-2.88-2.88-5-6.84-5s-4.9,1.88-4.9,3.53c0,1.16.44,2.38,3.25,3l8.56,1.87c6.34,1.37,9.44,5.33,9.44,10.15,0,7.92-6.41,12-15.77,12-7.92,0-15.2-3.1-16.13-10.59Z"/><path class="cls-1" d="M417.85,123.17c.5,3.67,3.67,4.89,7.42,4.89,3.53,0,5.61-1.58,5.61-3.6,0-1.29-.86-2.59-4-3.24l-7.34-1.51c-6.48-1.37-10.15-5-10.15-10.22,0-6.92,5.61-11.88,14.68-11.88,8.5,0,14.41,4.39,15.63,10.65l-9.07,1.8c-.36-2.88-2.88-5-6.84-5s-4.9,1.88-4.9,3.53c0,1.16.43,2.38,3.24,3l8.57,1.87c6.34,1.37,9.43,5.33,9.43,10.15,0,7.92-6.41,12-15.77,12-7.92,0-15.19-3.1-16.13-10.59Z"/><path class="cls-1" d="M463.54,107h23.4v8.86h-23.4v18.72h-9.8V86.37h36v8.86H463.54Z"/><path class="cls-1" d="M520.78,98.47l-.51,9.15h-2.09c-8.78,0-12.81,5.4-12.81,15.41v11.59h-9.51V98.69h9.51v6.55c2.88-4.18,7-7.06,12.89-7.06A7.33,7.33,0,0,1,520.78,98.47Z"/><path class="cls-1" d="M562.54,134.62H553v-2.81a18.36,18.36,0,0,1-11.88,3.89c-9.14,0-17.64-7.71-17.64-19s8.5-19.08,17.64-19.08a18,18,0,0,1,11.88,4V98.69h9.51ZM553,116.69a10.44,10.44,0,0,0-10.22-10.8c-5.76,0-10.08,4.17-10.08,10.8s4.32,10.73,10.08,10.73A10.38,10.38,0,0,0,553,116.69Z"/><path class="cls-1" d="M607.83,112.73v21.89h-9.51V114.74c0-5-2.88-8.42-7.27-8.42-5.4,0-8.93,3.6-8.93,12.39v15.91h-9.51V98.69h9.51v3.24a15.3,15.3,0,0,1,11.31-4.32C602.07,97.61,607.83,103.8,607.83,112.73Z"/><path class="cls-1" d="M642.53,120l8.78,2.23c-2,8.21-9.43,13.47-18,13.47-10.51,0-19.22-7.71-19.22-19s8.71-19.08,19.22-19.08a18.45,18.45,0,0,1,18,13.25l-9.14,2.59c-1.3-5-4.68-7.13-8.86-7.13-6,0-10,4.25-10,10.37s4,10.3,10,10.3C637.49,127,640.87,125,642.53,120Z"/><path class="cls-1" d="M692.43,119.21H665.06c.94,5.18,4.61,8.35,9,8.35,2.81,0,6.34-.36,8.93-4.75l8.5,1.8c-3.17,7.49-9.58,11.09-17.43,11.09-10.15,0-18.43-7.71-18.43-19s8.28-19.08,18.58-19.08c9.57,0,17.86,7.41,18.22,18.36Zm-27.08-6.7H682.7a8.35,8.35,0,0,0-8.49-6.62A9,9,0,0,0,665.35,112.51Z"/><path class="cls-2" d="M162.39,154.45a2.14,2.14,0,0,0,1.51-.48,1.64,1.64,0,0,0,.54-1.25,1.68,1.68,0,0,0-.54-1.28,2.14,2.14,0,0,0-1.51-.47h-7.46v36.76h7.46a2.22,2.22,0,0,0,1.5-.45,1.69,1.69,0,0,0,.55-1.28,1.65,1.65,0,0,0-.55-1.27,2.22,2.22,0,0,0-1.5-.45h-4V154.45Z"/><path class="cls-2" d="M204,153h-7.22a2.13,2.13,0,0,0-1.49.45,1.73,1.73,0,0,0,0,2.54,2.17,2.17,0,0,0,1.5.46h3.75l-2,18.44L194,159h-2l0-.14,0,.14h-2.06l-4.4,15.81-2.06-18.39h3.72a2.23,2.23,0,0,0,1.52-.45,1.66,1.66,0,0,0,.56-1.28,1.62,1.62,0,0,0-.56-1.27,2.18,2.18,0,0,0-1.52-.45H179.8a2.13,2.13,0,0,0-1.49.45,1.62,1.62,0,0,0-.56,1.27,1.6,1.6,0,0,0,.56,1.27,2.13,2.13,0,0,0,1.49.46h.06l2.89,25.3h1.92l.11.94.26-.94h2l4.87-17.36,5,17.36h2l.25.89.1-.89h2l2.73-25.3h0a2.23,2.23,0,0,0,1.52-.45,1.73,1.73,0,0,0,0-2.55A2.18,2.18,0,0,0,204,153Z"/><path class="cls-2" d="M227.27,159.33a11.32,11.32,0,0,0-8.28,3.4,11.47,11.47,0,0,0,0,16.34,11.76,11.76,0,0,0,16.53,0,11.48,11.48,0,0,0,0-16.37A11.36,11.36,0,0,0,227.27,159.33Zm0,3.48a7.9,7.9,0,0,1,5.82,2.37,8,8,0,0,1,0,11.45,8.29,8.29,0,0,1-11.64,0,8,8,0,0,1,0-11.43A7.91,7.91,0,0,1,227.25,162.81Z"/><path class="cls-2" d="M275.25,178.24h-.9V165.32A6.31,6.31,0,0,0,272.5,161a5.09,5.09,0,0,0-3.93-1.62,6,6,0,0,0-3.08.91,9.63,9.63,0,0,0-2.12,1.77,6.19,6.19,0,0,0-1.62-1.74,5.18,5.18,0,0,0-3.08-.94,6.78,6.78,0,0,0-4.26,1.69v-1h-4.36a2.12,2.12,0,0,0-1.51.47,1.66,1.66,0,0,0-.55,1.26,1.68,1.68,0,0,0,.55,1.27,2.14,2.14,0,0,0,1.51.48h.9v14.73h-.9a2.14,2.14,0,0,0-1.5.46A1.62,1.62,0,0,0,248,180a1.65,1.65,0,0,0,.55,1.25,2.12,2.12,0,0,0,1.51.48h5.26a2.14,2.14,0,0,0,1.51-.48,1.71,1.71,0,0,0,0-2.52,2.17,2.17,0,0,0-1.5-.46h-.9v-12a10.73,10.73,0,0,1,2.64-2.89,2.21,2.21,0,0,1,3.17.22,2.9,2.9,0,0,1,.72,2.07v16h4.36a2.17,2.17,0,0,0,1.52-.48,1.68,1.68,0,0,0,.54-1.25,1.62,1.62,0,0,0-.56-1.27,2.14,2.14,0,0,0-1.5-.46h-.88v-12a10.13,10.13,0,0,1,2.38-2.76c1.35-.91,2.48-.91,3.38.07a2.72,2.72,0,0,1,.71,2V181.7h4.36a2.14,2.14,0,0,0,1.51-.48,1.73,1.73,0,0,0,0-2.52A2.17,2.17,0,0,0,275.25,178.24Z"/><path class="cls-2" d="M306.34,176.54a11.06,11.06,0,0,1-3.66,1.78,15.26,15.26,0,0,1-4.38.69,8.93,8.93,0,0,1-6.11-2.13,8.49,8.49,0,0,1-2.78-4.8H309.2v-.74a11.7,11.7,0,0,0-3.27-8.66,11.41,11.41,0,0,0-8.43-3.35,11.59,11.59,0,0,0-8.33,3.26,10.56,10.56,0,0,0-3.39,7.85,11.55,11.55,0,0,0,3.59,8.52,12.3,12.3,0,0,0,8.92,3.51,18.23,18.23,0,0,0,6.11-1.06,11,11,0,0,0,4.26-2.35,1.84,1.84,0,0,0,.59-1.3,1.73,1.73,0,0,0-.49-1.21A1.67,1.67,0,0,0,306.34,176.54Zm-14.25-11.9a8.9,8.9,0,0,1,10.85,0,7.54,7.54,0,0,1,2.6,3.93H289.49A7.66,7.66,0,0,1,292.09,164.64Z"/><path class="cls-2" d="M343.44,178.24h-.9V166.67a6.78,6.78,0,0,0-1.18-3.73,7.5,7.5,0,0,0-2.65-2.57,9.5,9.5,0,0,0-4.42-1,9.36,9.36,0,0,0-4.05.86,12,12,0,0,0-2.63,1.81v-2h-4.36a2.12,2.12,0,0,0-1.51.47,1.66,1.66,0,0,0-.55,1.26,1.68,1.68,0,0,0,.55,1.27,2.14,2.14,0,0,0,1.51.48h.9v14.73h-1.46a2.17,2.17,0,0,0-1.5.46,1.71,1.71,0,0,0,0,2.52,2.14,2.14,0,0,0,1.51.48h6.38a2.14,2.14,0,0,0,1.51-.48,1.73,1.73,0,0,0,0-2.52,2.17,2.17,0,0,0-1.5-.46h-1.46V167a15.6,15.6,0,0,1,3.66-3.49,6.12,6.12,0,0,1,3-.69A4.88,4.88,0,0,1,337.8,164a3.88,3.88,0,0,1,1.28,3v11.24h-.88a2.19,2.19,0,0,0-1.52.46,1.62,1.62,0,0,0-.56,1.27,1.65,1.65,0,0,0,.55,1.25,2.18,2.18,0,0,0,1.53.48h5.24a2.12,2.12,0,0,0,1.51-.48,1.71,1.71,0,0,0,0-2.52A2.17,2.17,0,0,0,343.44,178.24Z"/><rect class="cls-2" x="401.12" y="149.99" width="4.39" height="6.55"/><path class="cls-2" d="M412.52,178.24h-6.94V160h-8.41a2.14,2.14,0,0,0-1.53.47,1.69,1.69,0,0,0-.55,1.28,1.66,1.66,0,0,0,.57,1.26,2.2,2.2,0,0,0,1.51.47h4.95v14.73h-6.93a2.17,2.17,0,0,0-1.5.46,1.71,1.71,0,0,0,0,2.52,2.14,2.14,0,0,0,1.51.48h17.33a2.18,2.18,0,0,0,1.53-.48,1.71,1.71,0,0,0,0-2.52A2.21,2.21,0,0,0,412.52,178.24Z"/><path class="cls-2" d="M449.36,178.24h-.9V166.67a6.78,6.78,0,0,0-1.18-3.73,7.5,7.5,0,0,0-2.65-2.57,9.5,9.5,0,0,0-4.42-1,9.36,9.36,0,0,0-4,.86,12,12,0,0,0-2.63,1.81v-2h-4.36a2.12,2.12,0,0,0-1.51.47,1.66,1.66,0,0,0-.55,1.26,1.68,1.68,0,0,0,.55,1.27,2.14,2.14,0,0,0,1.51.48h.9v14.73h-1.46a2.17,2.17,0,0,0-1.5.46,1.71,1.71,0,0,0,0,2.52,2.14,2.14,0,0,0,1.51.48H435a2.14,2.14,0,0,0,1.51-.48,1.73,1.73,0,0,0,0-2.52,2.17,2.17,0,0,0-1.5-.46h-1.46V167a15.6,15.6,0,0,1,3.66-3.49,6.12,6.12,0,0,1,3-.69,4.88,4.88,0,0,1,3.54,1.23,3.88,3.88,0,0,1,1.28,3v11.24h-.88a2.19,2.19,0,0,0-1.52.46A1.62,1.62,0,0,0,442,180a1.65,1.65,0,0,0,.55,1.25,2.18,2.18,0,0,0,1.53.48h5.24a2.12,2.12,0,0,0,1.51-.48,1.71,1.71,0,0,0,0-2.52A2.17,2.17,0,0,0,449.36,178.24Z"/><path class="cls-2" d="M518.55,177.18a13.91,13.91,0,0,1-3.4,1.26,16.47,16.47,0,0,1-4.1.57,5.42,5.42,0,0,1-3.51-1,2.81,2.81,0,0,1-1.09-2.27V163.51h9.87a2.14,2.14,0,0,0,1.51-.48,1.74,1.74,0,0,0,0-2.52,2.09,2.09,0,0,0-1.51-.48h-9.87v-5a2.14,2.14,0,0,0-.48-1.51,1.75,1.75,0,0,0-2.52,0A2.09,2.09,0,0,0,503,155v5h-2.86a2.12,2.12,0,0,0-1.51.47,1.66,1.66,0,0,0-.55,1.26,1.68,1.68,0,0,0,.55,1.27,2.14,2.14,0,0,0,1.51.48H503v12.27a6,6,0,0,0,2.31,4.92,9.31,9.31,0,0,0,5.91,1.77,19.58,19.58,0,0,0,5.74-.93,10.13,10.13,0,0,0,3.93-1.85,1.68,1.68,0,0,0,.52-1.19,1.72,1.72,0,0,0-2.83-1.32Z"/><path class="cls-2" d="M553.49,176.54a11.06,11.06,0,0,1-3.66,1.78,15.26,15.26,0,0,1-4.38.69,8.93,8.93,0,0,1-6.11-2.13,8.49,8.49,0,0,1-2.78-4.8h19.79v-.74a11.7,11.7,0,0,0-3.27-8.66,11.42,11.42,0,0,0-8.43-3.35,11.61,11.61,0,0,0-8.34,3.26,10.59,10.59,0,0,0-3.38,7.85,11.55,11.55,0,0,0,3.59,8.52,12.3,12.3,0,0,0,8.92,3.51,18.23,18.23,0,0,0,6.11-1.06,10.91,10.91,0,0,0,4.25-2.35,1.81,1.81,0,0,0,.6-1.3,1.73,1.73,0,0,0-.49-1.21A1.67,1.67,0,0,0,553.49,176.54Zm-14.25-11.9a8.9,8.9,0,0,1,10.85,0,7.6,7.6,0,0,1,2.6,3.93H536.64A7.6,7.6,0,0,1,539.24,164.64Z"/><path class="cls-2" d="M589.3,175.68a11.05,11.05,0,0,1-4,2.54,13.38,13.38,0,0,1-4.4.79,8,8,0,0,1-5.92-2.25,7.65,7.65,0,0,1-2.27-5.73,8.73,8.73,0,0,1,2.08-5.77c1.37-1.65,3.35-2.45,6-2.45a8.42,8.42,0,0,1,5,1.34,4,4,0,0,1,1.88,2.6,2,2,0,0,0,.53,1.37,1.73,1.73,0,0,0,2.46-.07,2.26,2.26,0,0,0,.48-1.52V162.1a2.13,2.13,0,0,0-.48-1.53,1.76,1.76,0,0,0-2.52,0,1.65,1.65,0,0,0-.38.73,12.09,12.09,0,0,0-6.89-2,11.4,11.4,0,0,0-11.7,11.72,11.09,11.09,0,0,0,3.26,8.18,11.31,11.31,0,0,0,8.3,3.24,15.82,15.82,0,0,0,8.86-2.62c1.87-1.21,2.7-2.19,2.7-3.16a1.65,1.65,0,0,0-.49-1.2A1.74,1.74,0,0,0,589.3,175.68Z"/><path class="cls-2" d="M626.41,178.24H625V166.86a7.11,7.11,0,0,0-1.19-3.91,7.59,7.59,0,0,0-3-2.74,10.28,10.28,0,0,0-8.37,0A10.75,10.75,0,0,0,610,162V151h-5.34a2.12,2.12,0,0,0-1.51.47,1.67,1.67,0,0,0-.55,1.25,1.69,1.69,0,0,0,.55,1.28,2.12,2.12,0,0,0,1.51.48h1.88v23.79H605a2.14,2.14,0,0,0-1.5.46A1.62,1.62,0,0,0,603,180a1.68,1.68,0,0,0,.54,1.25,2.17,2.17,0,0,0,1.52.48h6.38a2.14,2.14,0,0,0,1.51-.48,1.73,1.73,0,0,0,0-2.52,2.17,2.17,0,0,0-1.5-.46H610V166.89a24.57,24.57,0,0,1,3.28-3.19,5.47,5.47,0,0,1,3.23-.92A5.3,5.3,0,0,1,620.2,164a3.89,3.89,0,0,1,1.29,3v11.24h-1.44a2.19,2.19,0,0,0-1.52.46,1.71,1.71,0,0,0,0,2.52,2.18,2.18,0,0,0,1.53.48h6.36a2.1,2.1,0,0,0,1.53-.49,1.69,1.69,0,0,0,.52-1.24,1.66,1.66,0,0,0-.53-1.26A2.13,2.13,0,0,0,626.41,178.24Z"/><path class="cls-2" d="M645.29,151a2.15,2.15,0,0,0-1.51.47,1.71,1.71,0,0,0-.54,1.28,1.68,1.68,0,0,0,.54,1.25,2.16,2.16,0,0,0,1.51.48h4v29.83h-4a2.15,2.15,0,0,0-1.51.47,1.68,1.68,0,0,0-.54,1.25,1.64,1.64,0,0,0,.56,1.28,2.18,2.18,0,0,0,1.49.45h7.46V151Z"/><path class="cls-2" d="M123.85,175.67a50.3,50.3,0,0,0-5.33-10.46,12.83,12.83,0,0,1-2.36-6.89c2-4.54,4-9.91,1.54-15.18-1.2-2.6-5.38-9-18.17-12.45l-1,3.56c11.29,3,14.8,8.31,15.78,10.44,2,4.35-.25,9.29-2.25,13.65-1.16,2.53-2.25,4.92-2.44,7.06-.51,6,6.83,13.71,7.67,14.57a1.85,1.85,0,0,0,2.38.23l3.45-2.4A1.83,1.83,0,0,0,123.85,175.67Z"/><path class="cls-2" d="M25.39,134.25c-11.3,3-14.8,8.31-15.79,10.44-2,4.35.26,9.29,2.25,13.65,1.16,2.53,2.26,4.92,2.44,7.06.52,6-6.83,13.71-7.67,14.57a1.81,1.81,0,0,1-1.32.56,1.86,1.86,0,0,1-1-.33L.79,177.8a1.84,1.84,0,0,1-.68-2.13,50.57,50.57,0,0,1,5.32-10.46,12.67,12.67,0,0,0,2.36-6.89c-2-4.54-4-9.91-1.53-15.18,1.2-2.6,5.37-9,18.17-12.45Z"/><path class="cls-3" d="M109.89,183.63c-2.66-15.35-8-33.14-12.16-47.16l-.88-2.95H26.49c-13.89,44.12-18,73.35-11.29,80.65,9.45,10.25,17.91,3.6,27.71-4.1,6.11-4.79,12.42-9.75,19-9.75,6.06,0,12.09,4.62,18.47,9.52,11.48,8.8,19.6,13.88,27.54,4.64,2.69-3.14,3.72-8.49,3.62-15.14A117.21,117.21,0,0,0,109.89,183.63Z"/><path class="cls-2" d="M110.71,169.46c-3.16-14.43-7.75-30.13-12.4-44.37C86.82,89.94,63.32,60.25,63.08,60L63,59.87A44.68,44.68,0,0,0,61.92,0a44.66,44.66,0,0,0-1.19,59.77l-.19.18c-.24.3-23.74,30-35.22,65.14C13.7,160.62,2.05,205.35,12.49,216.67c4.32,4.69,8.55,6.47,12.67,6.47,7.09,0,13.82-5.29,20-10.17,5.87-4.61,11.41-9,16.73-9,4.81,0,10.36,4.25,16.23,8.75,9.7,7.44,21.77,16.7,32.58,4.12C117.75,208.71,115.5,189.68,110.71,169.46Zm-2.78,45c-7.94,9.24-16.06,4.16-27.54-4.64-6.38-4.9-12.41-9.52-18.47-9.52-6.59,0-12.9,5-19,9.75-9.8,7.7-18.26,14.35-27.71,4.1-6.73-7.3-2.6-36.53,11.29-80.65H96.85l.88,2.95c4.18,14,9.5,31.81,12.16,47.16a117.21,117.21,0,0,1,1.66,15.71C111.65,206,110.62,211.34,107.93,214.48Z"/><ellipse class="cls-4" cx="61.94" cy="132.56" rx="23.69" ry="19.76"/><path class="cls-2" d="M60.69,157.86a3.87,3.87,0,0,1-1.62.71,6.32,6.32,0,0,1-2.16-.06,7.2,7.2,0,0,1-2-.75,3.54,3.54,0,0,1-1.18-1.23L51,158a7.66,7.66,0,0,0,5.49,3.63,8.89,8.89,0,0,0,1.53.14,7.43,7.43,0,0,0,4.63-1.5Z"/><polygon class="cls-4" points="108.99 92.94 61.92 59.94 108.99 26.95 108.99 92.94"/><polygon class="cls-4" points="14.85 26.95 61.92 59.94 14.85 92.94 14.85 26.95"/></g></g></svg>