<?xml version="1.0" encoding="UTF-8" standalone="no"?>
<svg
   xmlns:dc="http://purl.org/dc/elements/1.1/"
   xmlns:cc="http://creativecommons.org/ns#"
   xmlns:rdf="http://www.w3.org/1999/02/22-rdf-syntax-ns#"
   xmlns:svg="http://www.w3.org/2000/svg"
   xmlns="http://www.w3.org/2000/svg"
   xmlns:sodipodi="http://sodipodi.sourceforge.net/DTD/sodipodi-0.dtd"
   xmlns:inkscape="http://www.inkscape.org/namespaces/inkscape"
   width="700pt"
   height="700pt"
   viewBox="0 0 700 700"
   version="1.1"
   id="svg2462"
   sodipodi:version="0.32"
   inkscape:version="0.46"
   sodipodi:docname="duchessfr_700x700.svg"
   inkscape:output_extension="org.inkscape.output.svg.inkscape">
  <metadata
     id="metadata2497">
    <rdf:RDF>
      <cc:Work
         rdf:about="">
        <dc:format>image/svg+xml</dc:format>
        <dc:type
           rdf:resource="http://purl.org/dc/dcmitype/StillImage" />
      </cc:Work>
    </rdf:RDF>
  </metadata>
  <defs
     id="defs2495">
    <inkscape:perspective
       sodipodi:type="inkscape:persp3d"
       inkscape:vp_x="0 : 437.5 : 1"
       inkscape:vp_y="0 : 1000 : 0"
       inkscape:vp_z="875 : 437.5 : 1"
       inkscape:persp3d-origin="437.5 : 291.66667 : 1"
       id="perspective2499" />
  </defs>
  <sodipodi:namedview
     inkscape:window-height="785"
     inkscape:window-width="1187"
     inkscape:pageshadow="2"
     inkscape:pageopacity="0.0"
     guidetolerance="10.0"
     gridtolerance="10.0"
     objecttolerance="10.0"
     borderopacity="1.0"
     bordercolor="#666666"
     pagecolor="#ffffff"
     id="base"
     showgrid="false"
     inkscape:zoom="0.125"
     inkscape:cx="597.60998"
     inkscape:cy="751.72567"
     inkscape:window-x="40"
     inkscape:window-y="0"
     inkscape:current-layer="svg2462" />
  <path
     fill="#fefefe"
     d=" M 0.00 0.00 L 700.00 0.00 L 700.00 700.00 L 0.00 700.00 L 0.00 0.00 Z"
     id="path2464" />
  <path
     fill="#040202"
     d="M 367.6,29.09 C 368.305,28.255 370.0425,26.4125 371.04125,26.365 C 372.04,26.3175 373.9,26.465 374.85,26.41 C 376.38,27.7225 377.56813,28.5525 378.10141,29.266563 C 378.63469,29.980625 378.91313,30.57875 379.42375,31.4275 C 380.445,33.125 382.395,35.825 384.37,39.26 C 386.99,44.81 388.45,46.14 391.09,51.68 C 391.88,53.79 395.52,60.27 396.35,62.36 C 398.13,66.28 399.33,69.7 401.07,73.65 C 401.68,75.32 403.91,81 404.55,82.66 C 405.09,84.1 407.25,90.33 407.8,91.77 C 408.72,94.31 409.82,98.91 410.6,101.5 C 410.87,104.81 411.1,105.67 411.82,108.92 L 419.33,101.75 L 428.47,92.66 L 436.08142,86.204264 L 442.4272,81.292792 L 449.25162,76.80132 L 456.81888,72.618427 C 457.32888,72.453427 460.47884,70.536333 464.19697,68.904582 C 467.91511,67.27283 471.35289,65.926421 471.87289,65.771421 L 480.85125,62.8575 L 486.3501,61.324264 L 490.33535,60.492965 L 495.21863,59.72 L 500.23863,59.34 L 504.16794,59.403972 L 506.79431,60.116472 L 508.855,61.111815 L 510.56005,62.341472 L 512.32363,64.725051 L 514.12465,68.413896 L 515.98426,72.444163 L 518.10034,79.498478 L 520.71,87.247107 L 523.34,97.07 L 526.39,108.42 L 529.93,122.32 L 532.37,134.83 L 534.23,148.11 C 534.83,153.37 534.87,161.64 534.81,166.94 L 533.92,182.72 C 533.64,184.72 532.63,193.94 532.31,195.93 C 531.5,198.88 529.96,206.65 529.23,209.62 C 527.84,214.78 527.95,215.52 526.24,220.58 L 522.87,230.26 L 519.96,237.91 L 517.195,244.265 L 514.63,249.62 L 511.56875,254.24 L 509.41142,257.08858 L 506.74143,258.8 L 504.15911,259.54358 L 495.9099,259.57 L 485.535,259.06 L 474.54,258.15 C 471.96,257.59 466.53,257.21 463.95,256.68 C 462.21,256.45 453.07,254.44 451.35,254.2 L 439.28,251.12 L 429.11,247.8 L 420.14137,244.17426 L 410.63164,238.98414 L 399.88,232 C 399.65428,232.45601 402.48103,236.87721 403.94196,239.60138 L 407.84,246.87 L 413.44,256.38 L 419.27,266.46 L 424.64,275.49 C 425.69158,277.80793 428.492,282.84738 429.71,285.08 C 431.1,288.22 433.87,293.19 435.22,296.36 C 436.6,299.6 439.27,304.6 440.82,307.78 C 442.49,311.48 445.99,317.78 447.6,321.51 C 450.55956,328.35047 449.83383,325.62849 452.86,332.44 C 453.65,334.54 456.72,342.01 457.61,344.08 C 458.31,345.74 461.6,354.02 462.28,355.71 L 466.66,367.35 C 468.85037,372.06858 470.88242,377.4084 472.72,382.27 L 475.8,391.66 C 475.95,392.22 478.65,399.75 478.8,400.32 C 479.84,403.3 480.75,406.73 481.76,409.72 L 484.15,416.49 C 485.45,420.1 488.05,423.13 490.54,426.15 L 499.48,434.1 C 504.23,437.68 505.64,439.5 510.15,443.36 C 511.7,444.42 518.79,449.97 520.3,451.11 C 521.56,452.15 530.42,459.58 531.72,460.59 L 540.68,468.29 C 545.145,471.785 550.53,476.8925 555.805,482.12125 C 561.08,487.35 563.445,491.1 567.47,495.08 C 569.75667,498.235 572.04333,501.39 574.33,504.545 C 574.75,506.23333 575.17,507.92167 575.59,509.61 C 575.14667,511.47667 575.10333,511.74333 574.66,513.61 C 571.555,517.965 567.505,523.4325 563.75125,527.21 C 559.9975,530.9875 556.14,534.675 552.62,538.67 C 552.44,540.47 552.27,542.28 552.09,544.1 C 551.48,548.72 552.79,550.27 551.11,554.69 C 550.76,555.19 548.87,559.41 548.53,559.91 C 548.13,563.9 551.57,566.4 553.08,569.71 C 554.84,573.9 555.4,578.47 555.63,582.99 C 555.66,584.55 555.93,586.64 557.71,587.16 C 561.79,588.18 566.37,587.67 570.04,590.02 C 572.03,591.2 573.96,592.61 575.35,594.51 C 576.09,596.56 575.46,598.78 575.18,600.87 C 572.11,603.6 568.82,606.07 565.77,608.81 C 564.25,609.96 556.72,615.91 555.17,617.02 C 549.53,621.38 549.94,621.03 543.88,624.8 C 540.7,626.58 536.97,625.25 533.76,624.29 C 530.55,622.77 526.14,620.4 522.75,619.35 C 522.43,620.04 521.41,632.61 521.1,633.29 L 517.62,648.12 C 517.37,648.61 514.47,659.61 514.23,660.1 C 512.285,663.55 510.235,667.025 507.815,670.18 C 505.395,673.335 502.605,676.17 499.18,678.34 C 494.505,680.135 489.3875,681.07 484.315,680.96625 C 479.2425,680.8625 474.215,679.72 469.72,677.36 C 465.145,674.525 461.17,670.9675 457.3425,667.23375 C 453.515,663.5 447.835,658.79 443.85,655.25 C 438.91,651.39 438.2,650.71 432.61,647.89 C 430.05,646.74 424.69,643.97 422.19,642.72 C 418.48049,641.05268 412.24797,638.06997 408.47,636.56 C 408.47,636.56 401.89412,633.68019 395.46,632.33 C 392.23289,631.6528 386.78039,630.1653 382.13466,629.6471 C 377.48894,629.1289 368.05,629.18 368.05,629.18 L 353.45,629.76 L 341.01,631.56 L 329.37,634.16 C 328.15,634.63 320.13,637.91 318.93,638.42 C 315.80773,639.51099 310.40761,642.47933 307.46,643.97 C 301.35,647.03 301.09,647.74 295.26,651.29 C 289.75,653.8 285.34,658.12 279.9,660.74 C 274.56808,664.03706 268.73976,666.38473 263.17,669.23 C 258.84,670.94 254.3675,672.385 249.80625,673.30875 C 245.245,674.2325 240.595,674.635 235.91,674.26 L 227.23,672.7 L 221.7959,670.0168 C 220.51734,669.02906 218.49429,666.55734 217.49375,665.085 C 216.49321,663.61266 214.31453,659.15937 212.97649,654.8875 C 211.63845,650.61562 211.2522,646.68874 210.97,645.16 C 210.07272,640.29916 210.51667,635.13333 210.29,630.12 C 210.02,628.29 211.7,615.27 211.38,613.46 L 200.28,614.43 L 190.79,614.61 C 189.5,614.13 181.39,613.31 180.09,612.9 C 177.13,611.69 174.31,610.16 171.64,608.41 C 168.74,606.1 167.87,606.09 166.41,602.66 C 166.28,600.66 164.65,599.07 164.63,597.09 C 165.06,596.01 165.47,591.73 165.87,590.66 C 171.59,586.89 179.05,588.23 185.1,585.23 C 186.92,584.16 187.46,581.98 188.38,580.22 C 188.93,574.19 189.06,568.07 188.32,562.05 L 183.73,556.53 C 183.73,554.89 183.74,551.66 183.8,550.03 C 184.5,547.03 184.85,543.91 184.53,540.85 L 176.89,527.27 L 171.23,517.18 C 170.23,515.02 165.02,507.59 164.28,505.34 C 164.1,502.13 163.39,502.11 164.44,499.05 C 169.79,492.08 168.13,495.01 175.16,490.09 C 181.97,485.05 181.19,485.42 188.62,481.35 C 190.57,480.29 202.15,472.5 204.13,471.5 C 205.93,470.66 213.71,465.79 215.51,464.97 C 216.41,464.5 225.71,459.25 226.62,458.8 C 228.05,458.21 235.47,453.19 236.89,452.58 L 246.47,446.24 C 249.56,443.7 251.86,439.48 253.9,435.98 C 254.33,435.01 257.56,428.85 258,427.9 L 261.36,416.6 C 262.88,413.36 264.54,406.42 265.84,403.09 C 266.3,401.85 269.54,393.4 270,392.17 C 271.51564,385.97511 272.961,383.37638 274.94,377.34 C 276.37503,373.5391 279.15822,366.60192 280.83,362.9 C 284.52,353.61 283.3,357.07 287.45,347.98 C 287.69,347.46 292.15,336.82 292.38,336.3 C 293.54,333.22 294.95,329.86 296.39,326.91 C 297.36,324.56 299.16,319.43 300.16,317.1 C 302.06182,312.31334 302.73717,310.88755 304.95,306.24 C 305.83,304.35 309.81,296.02 310.56,294.08 L 315.81,282.58 L 320.85,271.32 L 325.61,261.47 C 327.39245,258.73884 328.58819,254.95317 330.17,252.06 C 331.22,249.76 333.48,245.87 334.49,243.55 L 338.37,235.01 L 342.25,224.88 C 341.745,225.265 341.63244,224.83221 339.82532,225.95755 C 338.0182,227.0829 334.51652,229.76637 334.02152,230.16137 L 328.79426,233.60858 L 322.14132,237.53437 L 315.23716,241.03357 L 308.47442,244.10853 L 300.86716,247.12142 L 291.13284,250.22 L 280.97711,253.04426 L 270.70416,255.24 L 259.8798,256.77716 L 250.64784,257.75892 L 243.53721,258.31642 L 237.7,258.49 L 233.56206,258.4 L 229.35132,258.19284 L 225.67819,257.76568 L 222.995,256.77284 L 220.52897,255.02645 L 218.62863,253.28005 L 216.21591,249.85806 L 213.86,245.46 L 210.91,239.11 L 207.76,231.17 L 204.81,223.05 L 201.77,213.19 L 198.78,201.28 C 198.57,200.25 196.76,189.63 196.54,188.61 L 195.32,176.48 L 195.35,162.89 C 195.56,161.51 195.76,151.74 195.98,150.36 C 196.51,148.44 197.3,139.29 197.83,137.37 C 198.12,136.02 199.43,127.68 199.78,126.35 C 199.99,125.26 201.61,117.98 201.82,116.89 C 202.55642,113.9573 203.69865,108.2295 204.56,105.33 L 207.71,94.81 L 210.55,86.6 L 212.82625,80.80875 L 215.52711,75.672893 C 216.33241,74.66545 217.13771,73.658008 217.94301,72.650565 C 218.60394,72.289429 219.26486,71.928293 219.92579,71.567157 C 220.71394,71.481455 221.5021,70.971489 222.29025,70.885787 C 223.85475,71.023409 223.86362,70.878189 225.42812,71.015811 L 230.54589,71.711523 L 237.9701,73.54863 L 247.22863,76.044314 L 256.76284,79.011421 L 265.12,81.65 L 274.54,84.94 L 283.46,88.58 L 292.2,92.47 L 300.52,96.96 L 308.47,101.79 L 315.21,106.54 L 320.69,110.68 L 325.53,114.81 L 328.32,115.94 C 328.55,109.98 328.09,112.07 328.58,106.13 L 329.58,98.17 L 332.28,88.79 C 332.98,87.16 334.05,83.52 334.71,81.87 L 338.57,73.22 C 339.78966,70.146217 340.76039,68.990165 342.49,66.19 L 345.86,59.6 C 346.73,58.1 348.84,54.62 349.74,53.14 C 353.53,47.23 350.76,52.41 354.36,46.38 C 355.04,45.38 358.92,40.37 359.6,39.36 C 360.72,37.84 362.68,35.54 363.81,34.01 C 366.03,31.22 364.97,31.5 367.6,29.09 z"
     id="path2466"
     sodipodi:nodetypes="cscssccccccccccccccsccccccccccccccccccccccccccccccccccccccccccsscccccscccccccccccccccccsccccsccccccccccccccccccscscsccccsscccccccccsccszssccccccccccccccccccccccccccccccccccccccccccccccscccccccccccccccccccccccccccccccccccccccccccccccccccccccccccccccccccc" />
  <path
     fill="#ae0000"
     d="M 456.59,85.921421 L 466.58618,79.689233 L 477.10282,74.557442 L 488.23014,71.143019 L 495.53908,70.132757 L 500.28873,70.702893 L 503.23632,71.795455 L 505.33746,74.970808 L 508.59975,82.544069 L 513.37651,97.230586 C 514.52248,100.75396 515.73575,107.34531 517.92605,115.0251 C 520.11635,122.70489 521.86647,130.66 522.51147,134.31 C 523.96147,141.91 524.66,149.66 524.99,157.34 C 525.62,165 524.66,172.31 524.25,180 C 523.55,187.5 522.18,194.91 521.08,202.36 C 519.49,210.25 516.8,217.87 514.21,225.48 C 511.66,231.93 509.75,238.85 505.41,244.4 C 503.98,246.4 501.48,247.24 499.11,247.38 C 490.13,247.89 481.18,246.74 472.26,245.96 C 466.02,245.345 459.835,244.315 453.71625,242.97125 C 447.5975,241.6275 441.545,239.97 435.57,238.1 C 427.74,235.67 420.73,231.25 413.83,226.94 C 408.39,223.35 402.76,219.61 398.97,214.19 C 397.05,211.4 399.23,208.18 400.2,205.47 C 402.025,201.325 403.0375,196.8425 403.18125,192.33875 C 403.325,187.835 402.6,183.31 400.95,179.08 C 398.86,174.5 395.84,170.44 393.33,166.11 C 396.2,159.67 399.48,153.4 403.15,147.38 C 407.45,140.85 411.02,133.88 415.37,127.38 C 420.62,119.095 426.515,111.0075 433.3025,103.835 C 440.09,96.6625 447.77,90.546421 456.59,85.921421 z"
     id="path2468"
     sodipodi:nodetypes="cccccccccssccccccccsccccsccccsc" />
  <path
     fill="#ae0000"
     d="M 225.65137,84.42868 L 228.16589,83.404315 L 230.64761,82.802994 L 234.20253,82.900152 L 240.0202,84.12868 L 252.92832,87.858529 L 266.74375,93.190625 L 287.385,102.0625 L 302.64,111.75 C 305.83,114.36 310.40188,118.4825 314.81719,122.75328 C 319.2325,127.02406 323.49125,131.44312 326.055,134.64625 C 331.1825,141.0525 335.93,147.795 340.79,154.36 C 342.77,157.69 346.32,160.93 345.6,165.13 C 343.22,168.465 340.79,171.885 338.80125,175.51125 C 336.8125,179.1375 335.265,182.97 334.65,187.13 C 334.26,190.99 334.57,195.73 335.23,199.56 C 336.35,203.67 338.25,206.51 339.91,210.41 C 336.525,213.115 331.2625,216.55187 325.91313,219.86938 C 320.56375,223.18687 314.53496,226.37673 310.595,228.2125 L 295.77,235.12 C 291.28,236.555 283.73204,239.50269 279.15108,240.57625 L 268.79567,243.00308 L 259.57162,244.58137 L 249.88887,246.12086 C 248.50089,246.34154 244.36001,246.85248 241.41407,247.0573 C 238.46812,247.26211 236.43045,246.99395 235.27764,246.99434 C 232.97202,246.99512 234.62118,246.72745 231.80868,246.53995 L 228.48647,245.04904 C 227.16647,244.00779 225.74863,242.79421 224.71863,241.53421 L 221.15453,234.84687 L 217.59044,225.61395 L 214.51,214.95 L 210.2225,197.99625 L 207.72,180.63 C 207.17,171.31 207.77,173.98 207.55,164.66 C 207.45,161.8 207.795,153.755 208.25625,148.51875 C 208.7175,143.2825 209.695,132.855 210.06,130.03 C 210.94,123.78 212.19,120.19 213.87,114.07 L 217.01437,103.60117 L 219.20898,96.757437 L 221.86192,90.507144 L 223.94917,86.802435 L 225.65137,84.42868 z"
     id="path2470"
     sodipodi:nodetypes="cccccccccssccscccsscsccssscscccccccsccccccc" />
  <path
     fill="#ae0000"
     d="M 362.19,171.1 C 368.93,169.49 376.54,170.42 381.93,175.06 C 387.305,178.995 390.22,185.415 390.55625,191.97 C 390.8925,198.525 388.65,205.215 383.71,209.69 C 378.31,215.61 369.41,216.32 362,214.74 C 356.89,213.77 353.12,209.78 349.94,205.95 C 345.4,200.44 345.79,192.67 346.7,186.02 C 348.92,178.94 354.54,172.3 362.19,171.1 z"
     id="path2472"
     sodipodi:nodetypes="ccsccccc" />
  <path
     fill="#ae0000"
     d="M 359.63,357.89 C 364.295,357.24 369.0225,356.76 373.74375,356.6975 C 378.465,356.635 383.18,356.99 387.82,358.01 C 393.83,359.345 399.88,360.9525 405.66125,363.18375 C 411.4425,365.415 416.955,368.27 421.89,372.1 C 426.055,375.67 430.225,379.4825 433.78,383.745 C 437.335,388.0075 440.275,392.72 441.98,398.09 C 443.96,404.88 444.91,412.02 444.39,419.08 C 443.23,427.035 440.08,434.445 435.61875,441.02125 C 431.1575,447.5975 425.385,453.34 418.98,457.96 C 414.41,461.195 409.4775,463.96 404.2925,466.085 C 399.1075,468.21 393.67,469.695 388.09,470.37 C 380.08,470.72 372,470.82 364.03,469.91 C 358.035,468.955 351.9525,467.8075 346.10875,466.005 C 340.265,464.2025 334.66,461.745 329.62,458.17 C 325.585,455.33 321.6375,452.19 318.17875,448.6175 C 314.72,445.045 311.75,441.04 309.67,436.47 C 307.1,430.85 305.0925,424.82 304.085,418.66625 C 303.0775,412.5125 303.07,406.235 304.5,400.12 C 305.87,395.72 307.8175,391.505 310.23375,387.5725 C 312.65,383.64 315.535,379.99 318.78,376.72 C 322.35,372.84 326.38,369.3 331.2,367.06 C 335.685,364.88 340.315,362.945 345.0625,361.37625 C 349.81,359.8075 354.675,358.605 359.63,357.89 z"
     id="path2474"
     sodipodi:nodetypes="cscscsccscsccscscscsccsc" />
  <path
     fill="#9f969d"
     d="M 329.09,375.4 C 330.04875,374.70625 331.04438,374.07937 332.07063,373.5159 C 333.09688,372.95242 334.15375,372.45234 335.235,372.01219 C 336.31625,371.57203 337.42188,371.1918 338.54563,370.86801 C 339.66938,370.54422 340.81125,370.27688 341.965,370.0625 C 343.11875,369.84812 344.28437,369.68672 345.45562,369.5748 C 346.62687,369.46289 347.80375,369.40047 348.98,369.38406 C 350.15625,369.36766 351.33188,369.39727 352.50063,369.46941 C 353.66938,369.54156 354.04233,369.65625 355.19108,369.81 L 356.87589,370.30021 L 358.44798,371.24123 C 358.68974,371.38595 359.95882,372.57318 359.95882,372.57318 L 361.0615,374.09864 L 361.93877,375.56774 L 362.50351,377.12839 L 362.84285,378.46364 L 363.04959,380.70912 L 363.03092,382.56014 L 362.82456,384.79703 L 362.36959,386.92892 L 361.52014,389.56797 L 359.51909,392.89804 C 358.88287,393.65866 357.63989,394.9449 356.93144,395.60888 C 356.22298,396.27286 355.48553,396.87809 354.73334,397.40372 C 353.98116,397.92934 352.9976,398.48089 352.01222,399.18289 C 351.02684,399.88489 350.26506,400.06111 349.28019,400.5123 C 349.28019,400.5123 347.58068,400.97894 346.42255,401.31276 C 345.26443,401.64658 344.91234,401.66043 344.05202,401.82352 L 341.29874,402.17403 C 340.54576,402.17256 339.50859,402.15178 339.15067,402.18325 C 338.79276,402.21472 337.79151,402.13791 336.94814,402.09905 C 336.10477,402.06018 335.36293,402.0029 334.50949,401.96071 C 333.65605,401.91852 333.05839,401.72159 332.26501,401.59671 C 331.47163,401.47183 330.70796,401.3063 329.97333,401.10155 C 329.2387,400.8968 328.60355,400.58238 327.96864,400.2583 C 327.33372,399.93423 326.81173,399.54415 326.07798,399.0754 L 324.71186,397.65858 L 323.68385,396.41082 L 322.90943,395.07853 L 322.135,393.74625 L 321.49044,391.71566 L 321.35304,389.51603 L 321.52905,386.86365 L 322.02193,384.97024 L 322.57117,383.24589 L 323.54303,381.52154 L 324.57125,379.96625 C 325.14465,379.09892 325.77192,378.27669 326.52386,377.52244 C 327.2758,376.76819 328.13,376.0675 329.09,375.4 z"
     id="path2476"
     sodipodi:nodetypes="csssssssccsccccccccccsssssszssscssscccccccccccssc" />
  <path
     fill="#fefefe"
     d="M 341.62,373.01 C 343.0425,372.705 344.57375,372.44187 346.13344,372.29875 C 347.69313,372.15562 349.28125,372.1325 350.8175,372.3075 C 352.35375,372.4825 353.83812,372.85562 355.19031,373.505 C 356.5425,374.15438 357.7625,375.08 358.77,376.36 C 359.6525,377.625 360.195,379.00562 360.45625,380.43516 C 360.7175,381.86469 360.6975,383.34312 360.455,384.80375 C 360.2125,386.26437 359.7475,387.70719 359.11875,389.06547 C 358.49,390.42375 357.6975,391.6975 356.8,392.82 C 355.7325,394.0825 354.49625,395.17563 353.14078,396.09609 C 351.78531,397.01656 350.31063,397.76438 348.76625,398.33625 C 347.22188,398.90812 345.60781,399.30406 343.97359,399.52078 C 342.33938,399.7375 340.685,399.775 339.06,399.63 C 337.025,399.445 334.895,399.17 332.895,398.56625 C 330.895,397.9625 329.025,397.03 327.51,395.53 C 326.23,394.36 325.2875,392.7875 324.8475,391.1 C 324.4075,389.4125 324.47,387.61 325.2,385.98 C 325.8575,384.2475 326.76875,382.66125 327.87672,381.23375 C 328.98469,379.80625 330.28938,378.5375 331.73375,377.44 C 332.45594,376.89125 333.21305,376.38531 333.99795,375.92375 C 334.78285,375.46219 335.59555,375.045 336.42891,374.67375 C 337.26227,374.3025 338.11629,373.97719 338.98385,373.69937 C 339.85141,373.42156 340.7325,373.19125 341.62,373.01 z"
     id="path2478"
     sodipodi:nodetypes="cssscssscssscscscsssssc" />
  <path
     fill="#fefefe"
     d="M 456.89,409.36 C 457.41,409.01 459.27,405.91 459.8,405.56 C 461.59,405.54 463.37,405.53 465.17,405.55 C 467.06399,406.5205 468.06001,408.24084 469.26,409.92 C 469.94,411.56 470.63,413.21 471.35,414.85 C 472.36468,417.83365 473.2002,420.87152 474.1,423.89 C 474.74,426.22 475.42,428.54 476.15,430.85 C 477.08229,434.2888 478.03111,437.72247 478.81,441.2 C 479.97133,445.05947 481.4009,452.15763 482.55,456.02 C 485.45,465.03 484.42,462.14 486.58,471.36 C 487.68,475.66 488.38,477.95 489.29,482.3 C 490.06231,485.28249 491.92473,491.89173 492.49,494.92 C 492.95,496.81 494.91,504.73 495.37,506.63 L 498.55,519.05 C 499.16066,521.70827 500.67008,530.32795 501.52,532.92 L 504.33,548.52 L 506.05,561.87 C 506.92,565.77 507.21,573.03 508.13,576.93 C 508.43,580.31 508.63,583.69 508.88,587.08 C 509.68,591.36 509.91,597.33 510.32,601.64 C 510.79,606.97 510.795,611.9225 510.54375,616.87 C 510.2925,621.8175 510.185,629.96 509.63,635.27 L 507.78,647.69 L 503.05,659.13 C 502.045,661 500.22054,664.69743 497.88625,666.1525 L 492.5,669.51 L 485.88,669.69 C 484.925,669.17 481.09,669.0175 478.47125,668.04375 C 475.8525,667.07 472.05,664.475 471.16,663.87 C 468.63,661.66 466.13,659.41 463.56,657.26 L 463.32,656.9 L 452.55,646.68 C 450.99,645.91 441.85,638.71 440.32,637.93 C 438.05656,636.87516 430.58207,632.64391 428.3,631.63 C 425.69328,630.37662 419.77981,627.82773 417.01,627.02 C 414.80578,626.11473 407.75655,623.72714 405.53,622.88 C 400.55,621.47 397.54,620.97 392.46,620 C 387.2,618.88 382.15,619.05 376.89,617.99 C 370.5,617.96 367.72,617.84 361.34,618.05 C 357.36,618.68 350.1,618.78 346.12,619.38 C 342.44,620.05 337.54,621.07 333.87,621.8 L 322.47,624.26 L 312.86,628.57 L 304,633.07 L 294.96,638.43 C 290.80238,640.89514 289.98,642.48 284.5,645.61 C 283.43,646.25 277.56,649.7 276.49,650.35 C 273.33533,652.22725 267.68308,655.13162 264.43,656.83 C 261.00981,658.17427 259.17365,659.71517 255.6,660.66 L 247.26,662.865 L 240.92,663.47 L 233.03,662.16 L 227.79,658.13 L 224.36,653.725 L 222.13,647.32 L 220.74,640.11 L 220.15,632.1 C 220.42,629.25 220.665,626.495 220.565,623.3475 C 220.465,620.2 221.22,615.06 221.71,612.24 C 221.98,610.22 223.39,602.19 223.66,600.17 C 224.08,598.5 225.59,589.21 225.91,587.52 C 226.79,583.97 226.61,582.75 227.37,579.18 C 227.95,576.63 228.66,573.71 229.01,571.12 C 229.4158,567.37985 230.94751,563.74826 231.33,560.03 L 233.77,548.51 L 236.9,536.96 C 237.76417,534.38353 238.76984,528.93932 239.48,526.32 C 240.49659,522.27881 241.03942,520.62144 241.93,516.55 C 242.75,513.62 243.36,511.04 244.22,508.13 C 244.5663,505.3834 245.4003,502.75776 246.24,500.13 C 246.71576,496.66841 247.99898,493.37449 249.07,490.06 C 249.91,486.97 251.04,483.97 251.88,480.88 C 253.15351,477.66894 253.25438,475.93577 254.4,472.68 C 254.69782,470.6065 256.41322,464.74633 257.23,462.84 C 258.59085,459.06968 259.49061,457.58455 260.76,453.79 C 262.31644,450.20463 262.75091,447.69758 263.95,443.98 C 264.85091,442.05316 266.69432,436.90947 267.13,434.84 C 268.01816,432.90862 269.50553,429.34529 270.02,427.29 C 270.9,425.05 272.85,421.16 273.53,418.86 C 275.59,414.63 274.7,414.1 279.8,412.66 C 281.91,412.48 284.02,412.64 286.13,412.67 C 288.94,413.92 291.85,415.83 292.47,419.08 L 294.89,429.42 C 295.9875,431.5525 296.75687,435.92438 297.65672,438.43297 C 298.55656,440.94156 300.78687,444.78687 302.40625,447.46625 C 304.02563,450.14563 305.63406,453.35906 307.69016,455.90391 C 309.74625,458.44875 313.05,461.525 314.86,463.13 C 317.9925,465.8025 320.325,467.78688 322.11156,469.15344 C 323.89812,470.52 326.62016,472.24359 331.2875,474.27 L 340.1343,477.56383 L 349.11,479.87 L 358.765,481.93 L 369.62,483.19 L 378.105,483.815 L 388.59,483.24 L 398.625,481.48 L 405.86,479.32 L 413.145,476.7425 L 419.63,473.365 L 427.4,467.81 L 434.92,461.6025 L 442.04,453.795 L 445.88,446.98 C 446.34,445.9 450.81,436.44 451.3,435.38 L 454.76,421.44 C 455.19,416.47 455.5,414.21 456.89,409.36 z"
     id="path2480"
     sodipodi:nodetypes="ccccccccccccccccccccscccsccscccccccccccccccczcccsccccccccscccccccccccccccccccccccccssscszccccccccccccccccc" />
  <path
     fill="#fefefe"
     d="M 513.02,465.57 C 515.74,465.1 518.8,464.94 520.87,467.12 C 525.66,471.65 530.92,475.71 535.23,480.75 C 538.605,484.58 542.3675,488.09 545.93625,491.76125 C 549.505,495.4325 552.88,499.265 555.48,503.74 L 557.07,508.32 L 555.19,513.81 C 552.24,518.7 546.47,523.41 541.91,526.93 C 540.11,528.77 538.28,530.58 536.34,532.26 C 533.465,532.69 531.4275,532.5325 529.76,532.9475 C 528.0925,533.3625 525.195,534.75 523.8,537.47 C 522.85,538.04 519.89,542.22 518.93,542.79 C 518.17,541.6 513.83,529.22 513.1,528.04 L 509.73,515.33 C 507.78,508.65 506.85,499.81 504.76,493.18 L 504.55,487.01 C 505.90881,484.01029 508.72287,476.95626 509.92,473.89 L 513.02,465.57 z"
     id="path2482"
     sodipodi:nodetypes="cccscccccscccccccc" />
  <path
     fill="#fefefe"
     d="M 224.86,473.08 C 226.24,472.68 227.65,472.54 229.08,472.65 C 232.41,476.07 234.41,480.54 236.31,484.86 C 237.14,488.325 237.1675,488.1475 236.38,491.53 C 235.5925,494.9125 234.39,501.455 233.56,504.76 C 231.93,510.74 230.12,515.47 228.36,521.42 C 226.61,528.6 226.79,529.38 224.63,536.46 C 223.85,536.44 221.86,545.62 221.08,545.61 C 219.84,542.87 218.59,539.56 216.57,537.34 C 216.1,537.01 210.37,535.16 209.91,534.83 C 205.4,532.89 203.67,534.36 198.94,534.68 C 197.61,534.99 187.98,520.68 187.23,519.82 C 180.67,511.76 184.92,515.56 179.41,506.8 C 179.51,504.06 181.48,502.07 183.06,500.05 C 183.36,499.86 190.78,493.87 191.08,493.67 C 196.24,489.06 195.35,491.04 200.77,486.77 C 205.05,484.31 204.84,484.48 209.1,481.99 L 217.46,476.53 C 219.3864,475.50027 222.90157,474.048 224.86,473.08 z"
     id="path2484"
     sodipodi:nodetypes="cccsccccccccccccccc" />
  <path
     fill="#9f969d"
     d=" M 347.99 503.81 C 360.30 502.84 372.68 503.68 385.03 503.34 C 404.18 503.99 423.35 503.57 442.51 503.69 C 443.08 506.08 443.55 508.51 443.54 510.98 C 443.50 540.22 443.47 569.45 443.55 598.68 C 440.74 599.30 437.86 599.47 435.00 599.31 C 430.00 599.45 425.00 599.47 420.01 599.34 C 416.95 599.41 413.90 599.37 410.86 599.22 C 404.89 599.46 398.91 599.50 392.93 599.40 C 380.26 598.93 367.57 599.83 354.90 599.28 C 350.93 598.94 346.95 598.35 342.97 598.76 C 338.96 599.30 334.96 597.89 330.99 598.81 C 326.00 599.19 320.98 598.86 316.01 598.45 C 311.56 598.92 306.99 599.29 302.66 597.86 C 317.77 598.19 332.88 598.22 348.00 597.83 C 348.00 566.49 348.02 535.15 347.99 503.81 Z"
     id="path2486" />
  <path
     fill="#19307b"
     d=" M 301.52 503.95 C 317.00 503.63 332.50 503.91 347.99 503.81 C 348.02 535.15 348.00 566.49 348.00 597.83 C 332.88 598.22 317.77 598.19 302.66 597.86 C 302.37 597.86 301.80 597.86 301.51 597.86 C 301.47 566.55 301.44 535.25 301.52 503.95 Z"
     id="path2488" />
  <path
     fill="#fefefe"
     d=" M 348.93 503.83 C 356.60 503.27 364.30 503.70 371.98 503.58 C 379.78 503.70 387.60 503.14 395.37 504.02 C 395.30 535.35 395.26 566.69 395.39 598.02 C 389.29 598.84 383.14 598.29 377.01 598.45 C 367.60 598.41 358.19 598.66 348.78 598.22 C 349.20 566.76 348.86 535.29 348.93 503.83 Z"
     id="path2490" />
  <path
     fill="#eb2a3a"
     d=" M 395.37 504.02 C 410.90 504.50 426.46 504.07 442.00 504.24 C 442.10 535.38 442.17 566.52 441.97 597.66 C 426.45 597.87 410.88 597.18 395.39 598.02 C 395.26 566.69 395.30 535.35 395.37 504.02 Z"
     id="path2492" />
</svg>
