<svg xmlns="http://www.w3.org/2000/svg" xmlns:xlink="http://www.w3.org/1999/xlink" viewBox="0 0 200.75 200.75"><defs><style>.cls-1,.cls-8{fill:none;}.cls-2{fill:#f8bdab;}.cls-3,.cls-7,.cls-9{fill:#fff;}.cls-3,.cls-7,.cls-8{stroke:#1e1e1c;}.cls-3,.cls-7{stroke-miterlimit:10;}.cls-3,.cls-8{stroke-width:2.25px;}.cls-4{fill:#e61f3d;}.cls-5{clip-path:url(#clip-path);}.cls-6{fill:#1e1e1c;}.cls-7{stroke-width:1.89px;}.cls-8{stroke-linejoin:round;}.cls-10{fill:#fbfdfe;}</style><clipPath id="clip-path"><rect class="cls-1" x="54.79" y="31.61" width="101.88" height="77.68"/></clipPath></defs><g id="Calque_2" data-name="Calque 2"><g id="Calque_1-2" data-name="Calque 1"><path class="cls-2" d="M100.37,0A100.38,100.38,0,1,0,200.75,100.37,100.37,100.37,0,0,0,100.37,0Z"/><path d="M33.25,43.1c3.46-4.56,8.28-5.07,12-2.27s4.5,7.57,1,12.13L43,57.27,30,47.41Zm11.59,8.82c2.77-3.65,2.07-7.36-.8-9.54s-6.66-1.87-9.43,1.78l-2.09,2.76,10.23,7.76Z"/><path d="M64.74,26.75c2.53,3.67,2,7.67-1.37,10S56,38.17,53.49,34.5l-5.21-7.57,1.59-1.09,5.2,7.57c1.92,2.79,4.8,3.49,7.25,1.81s2.76-4.59.84-7.38L58,20.28l1.59-1.09Z"/><path d="M88.22,19.76l1.9-.08a7.75,7.75,0,0,1-6,7.42,8.47,8.47,0,1,1-4.57-16.32,7.79,7.79,0,0,1,8.94,3.11l-1.64,1a5.88,5.88,0,0,0-6.81-2.39,6.52,6.52,0,0,0-4.49,8.19,6.52,6.52,0,0,0,8.08,4.66A5.87,5.87,0,0,0,88.22,19.76Z"/><path d="M113.22,24.82l-1.92-.11.42-7.34-9.78-.55-.42,7.34-1.92-.11.92-16.29,1.92.11-.4,7.22,9.77.55.41-7.22,1.92.11Z"/><path d="M133.09,31.12,122,26.87l5.83-15.24,11.1,4.24-.62,1.62L129,13.93l-2,5.17,8.65,3.3L135,24l-8.65-3.31-2,5.21,9.33,3.57Z"/><path d="M156.87,32.69l-1.79-.83a4,4,0,0,0-1.39-5.15C152,25.38,150,25.4,149,26.79c-.89,1.16-.56,2.25.47,3.43L151.76,33c1.5,1.76,2.27,3.8.68,5.86-1.81,2.36-4.86,2.38-7.76.16-2.74-2.11-3.86-5.21-2.29-7.9l1.86.9c-1.11,2-.41,4.2,1.6,5.75s3.91,1.43,5,0c.93-1.22.64-2.2-.55-3.65l-2.43-2.87c-1.38-1.64-2.16-3.63-.57-5.69,1.7-2.23,4.68-2.3,7.44-.18C157.34,27.4,158.06,30.22,156.87,32.69Z"/><path d="M171.66,50.14l-1.49-1.28a4,4,0,0,0,.08-5.34c-1.3-1.76-3.16-2.26-4.57-1.22-1.17.87-1.15,2-.5,3.43l1.47,3.33c1,2.11,1.14,4.28-1,5.83-2.38,1.77-5.33.94-7.5-2s-2.28-6.07,0-8.22l1.53,1.37c-1.62,1.66-1.54,3.93,0,6s3.36,2.45,4.81,1.38c1.24-.91,1.23-1.94.48-3.65l-1.54-3.44c-.88-2-1.08-4.08,1-5.63,2.26-1.66,5.14-.92,7.21,1.88C173.57,45.19,173.48,48.1,171.66,50.14Z"/><path d="M11.73,116.84l4-2.2-.79-8.57-4.29-1.44-.19-2.06,16.93,5.79.16,1.77L11.92,118.9Zm13.32-7.37-8.36-2.8.65,7.06Z"/><path d="M20,143.05l-.62-1.54,8-14.74-12,4.84-.72-1.78,15.14-6.1.62,1.54L22.3,140.06l12.16-4.89.72,1.78Z"/><path d="M35.73,165.5l-1-1.29L38,147.76,28,155.93l-1.22-1.5,12.68-10.28,1,1.28L37,162l10.18-8.26,1.21,1.49Z"/><path d="M45,173.69l10.1-12.82,1.51,1.2-10.1,12.82Z"/><path d="M63.17,185.08l-1.67-.81.77-17.79,1.88.92-.66,14.91,11.34-9.7,1.89.92Z"/><path d="M92.06,193.53l-11.71-2.14,2.93-16L95,177.48l-.31,1.7-9.8-1.79-1,5.44,9.1,1.66-.31,1.7-9.1-1.66-1,5.49,9.82,1.79Z"/><path d="M115.35,193.14l-6.8-6.45-3,.26.58,7-1.91.16-1.37-16.26,7.52-.63c3.18-.27,5.47,1.39,5.71,4.18s-1.74,4.85-4.92,5.11l-.3,0,6.88,6.44ZM111,184.73c2-.18,3.3-1.46,3.15-3.2s-1.6-2.8-3.64-2.63l-5.61.47.49,5.83Z"/><path d="M135.41,174.87l-1.65,1.07a4,4,0,0,0-5.09-1.59c-2.06.75-3.07,2.39-2.47,4,.5,1.37,1.6,1.67,3.15,1.44l3.61-.46c2.3-.32,4.43.12,5.32,2.56,1,2.79-.6,5.38-4,6.64-3.25,1.18-6.46.47-7.89-2.3l1.75-1.09c1.13,2,3.34,2.6,5.72,1.73s3.3-2.53,2.68-4.22c-.53-1.45-1.51-1.73-3.37-1.5l-3.73.51c-2.13.29-4.22-.11-5.11-2.56-1-2.63.56-5.19,3.83-6.38C131.2,171.64,134,172.54,135.41,174.87Z"/><path d="M160.64,173.32,156.75,171l-7,5,.92,4.43L149,181.65l-3.54-17.53,1.44-1,15.44,9Zm-13.07-7.78,1.79,8.63,5.77-4.13Z"/><path d="M169.6,164.64l-12.07-11,1.3-1.42,12.06,11Z"/><path d="M184.21,144.05,175,145.89l-1.51,2.59,6,3.53-1,1.67-14.09-8.25,3.82-6.52c1.61-2.76,4.3-3.67,6.71-2.26s3,4.22,1.34,7l-.14.26,9.22-1.92Zm-9.37-1.31c1-1.77.72-3.54-.8-4.42s-3.21-.3-4.25,1.46L167,144.64l5.05,3Z"/><path d="M192.65,119.85l-3.07,11.5-15.76-4.21,3.06-11.48,1.67.44L176,125.73l5.34,1.42,2.39-8.94,1.67.45L183,127.6l5.39,1.44,2.58-9.65Z"/><path class="cls-3" d="M103.45,65.05c3.2,4,8.63,7.7,22.84,39.18,8.29,18.36,17.61,55.87.4,58.6-7.7,1.22-14.48-11.61-23.27-11.61-9.53,0-18.89,19.46-29.37,8.1-5.9-6.4,1-33.31,8.07-54.83S103.45,65.05,103.45,65.05Z"/><polygon class="cls-4" points="132.53 83.68 103.78 63.52 132.53 43.37 132.53 83.68"/><polygon class="cls-4" points="75.02 43.37 103.78 63.52 75.02 83.68 75.02 43.37"/><g class="cls-5"><path class="cls-6" d="M103.45,65.05c3.2,4,8.63,7.7,22.84,39.18,8.29,18.36,17.61,55.87.4,58.6-7.7,1.22-14.48-11.61-23.27-11.61-9.53,0-18.89,19.46-29.37,8.1-5.9-6.4,1-33.31,8.07-54.83S103.45,65.05,103.45,65.05Z"/></g><ellipse class="cls-4" cx="104.49" cy="108.7" rx="14.47" ry="12.07"/><path class="cls-7" d="M103.15,124.89a3.79,3.79,0,0,1-3,.64,3.74,3.74,0,0,1-2.69-1.73"/><path class="cls-8" d="M80.7,108.64c-7,1.89-9.56,5.24-10.37,7-2.2,4.76,2.48,10,2.76,13.22s-4.37,8-4.37,8l-2.11-1.47a30.53,30.53,0,0,1,3.12-6.13,8.53,8.53,0,0,0,1.64-5.1"/><ellipse class="cls-6" cx="70.18" cy="131.91" rx="4.54" ry="2.07" transform="translate(-79 123.44) rotate(-58.74)"/><path class="cls-8" d="M126.29,104.23c3.6,5.34,9.9,15.52,17.54,15.52,5.87,0,10-8.59,11.1-11.64.67-1.81,10.91-1.78,10.91-1.78s-1.16,4-8.64,4a22.15,22.15,0,0,1-3.06-.05"/><path class="cls-6" d="M155.63,109.13c.27,1.1,2.46,1.52,4.9.92s4.18-2,3.91-3.09a7.27,7.27,0,0,0-4.9-.92C157.11,106.63,155.35,108,155.63,109.13Z"/><path class="cls-9" d="M166.89,83c-1.12-1.46-1.67-2-2.79-2s-1.63.92-2.51,2-1.16,1.63-2.62,1.71-2.24-1.41-3.14-2.57a2.41,2.41,0,0,0-2.28-1.1,2.81,2.81,0,0,0-2.23,1.59,3.86,3.86,0,0,1-1.8,1.91v1.65h19.31s-.08-.75-.08-1.68A4.47,4.47,0,0,1,166.89,83Z"/><path class="cls-4" d="M168.75,81.38A1.76,1.76,0,0,0,167,79.63H151.27a1.76,1.76,0,0,0-1.75,1.75v3.14a3.86,3.86,0,0,0,1.8-1.91A2.81,2.81,0,0,1,153.55,81a2.41,2.41,0,0,1,2.28,1.1c.9,1.16,1.68,2.65,3.14,2.57s1.74-.64,2.62-1.71,1.39-2,2.51-2,1.67.52,2.79,2a4.47,4.47,0,0,0,1.86,1.51V81.38Z"/><path class="cls-9" d="M168.38,90.62C167,88.72,166.36,88,165,88s-2,1.19-3,2.58-1.41,2.12-3.17,2.22S156.11,91,155,89.5a2.81,2.81,0,0,0-2.75-1.43,3.39,3.39,0,0,0-2.7,2.07c-1.31,2.59-2.49,2.7-3.5,2.7a2.31,2.31,0,0,1-1.29-.38v2.28h28.62s-.11-1-.12-2.35a2.56,2.56,0,0,1-1.51.46C171.16,92.85,169.73,92.52,168.38,90.62Z"/><path class="cls-4" d="M144.77,88.59v3.87a2.31,2.31,0,0,0,1.29.38c1,0,2.19-.11,3.5-2.7a3.39,3.39,0,0,1,2.7-2.07A2.81,2.81,0,0,1,155,89.5c1.1,1.51,2,3.45,3.8,3.34s2.1-.83,3.17-2.22,1.68-2.55,3-2.58,2,.68,3.37,2.58,2.78,2.23,3.38,2.23a2.56,2.56,0,0,0,1.51-.46v-3.8a2.61,2.61,0,0,0-2.09-2.54H146.86A2.6,2.6,0,0,0,144.77,88.59Z"/><path class="cls-9" d="M172.35,101.64c-.6,0-2-.32-3.37-2.23s-2-2.6-3.38-2.58-2,1.2-3,2.58-1.4,2.12-3.17,2.22-2.7-1.83-3.8-3.34a2.81,2.81,0,0,0-2.75-1.43,3.39,3.39,0,0,0-2.7,2.07c-1.31,2.59-2.49,2.7-3.5,2.7s-1.89-.53-3.52-2.81a5.41,5.41,0,0,0-2.25-2l-.41-.16a3.38,3.38,0,0,0-.37,1.52v8h37.27s-.16-1.52-.16-3.38V98.22a3.12,3.12,0,0,0-.18-1.07,15.08,15.08,0,0,0-1.41,2.08C174.2,101.36,173.22,101.64,172.35,101.64Z"/><path class="cls-4" d="M173.83,94.84H143.48a3.39,3.39,0,0,0-3,1.86l.41.16a5.41,5.41,0,0,1,2.25,2c1.63,2.28,2.51,2.81,3.52,2.81s2.19-.11,3.5-2.7a3.39,3.39,0,0,1,2.7-2.07,2.81,2.81,0,0,1,2.75,1.43c1.1,1.51,2,3.45,3.8,3.34s2.1-.83,3.17-2.22,1.69-2.55,3-2.58,2,.68,3.38,2.58,2.77,2.23,3.37,2.23c.87,0,1.85-.28,3.27-2.41A15.08,15.08,0,0,1,177,97.15,3.38,3.38,0,0,0,173.83,94.84Z"/><path class="cls-10" d="M162.35,67.3a3.33,3.33,0,1,1-6.66,0c0-1.84,3.33-8.44,3.33-8.44S162.35,65.46,162.35,67.3Z"/><line class="cls-3" x1="159.14" y1="79.63" x2="159.14" y2="71.88"/><ellipse class="cls-6" cx="103.3" cy="46.39" rx="7.38" ry="18.66"/></g></g></svg>