<svg xmlns="http://www.w3.org/2000/svg" xmlns:xlink="http://www.w3.org/1999/xlink" viewBox="0 0 200.75 200.75"><defs><style>.cls-1,.cls-8{fill:none;}.cls-2{fill:#a3badb;}.cls-3,.cls-7{fill:#fff;stroke-miterlimit:10;}.cls-3,.cls-7,.cls-8{stroke:#1e1e1c;}.cls-3,.cls-8{stroke-width:2.33px;}.cls-4{fill:#1e1e1c;}.cls-5{clip-path:url(#clip-path);}.cls-6{fill:#e61f3d;}.cls-7{stroke-width:1.95px;}.cls-8{stroke-linejoin:round;}</style><clipPath id="clip-path"><rect class="cls-1" x="51.6" y="30.21" width="105.17" height="80.19"/></clipPath></defs><g id="Calque_2" data-name="Calque 2"><g id="Calque_1-2" data-name="Calque 1"><path class="cls-2" d="M100.37,0A100.38,100.38,0,1,0,200.75,100.37,100.37,100.37,0,0,0,100.37,0Z"/><path d="M31.17,43.1c3.46-4.56,8.28-5.07,12-2.27s4.5,7.57,1,12.13l-3.27,4.31-13-9.86Zm11.6,8.82c2.76-3.65,2.06-7.36-.81-9.54s-6.65-1.87-9.42,1.78l-2.09,2.76,10.23,7.76Z"/><path d="M62.67,26.75c2.53,3.67,2,7.67-1.37,10s-7.36,1.43-9.89-2.24l-5.2-7.57,1.58-1.09L53,33.41c1.92,2.79,4.8,3.49,7.25,1.81s2.75-4.59.83-7.38l-5.2-7.56,1.58-1.09Z"/><path d="M86.14,19.76l1.9-.08a7.75,7.75,0,0,1-6,7.42,8.47,8.47,0,0,1-4.56-16.32,7.77,7.77,0,0,1,8.93,3.11l-1.63,1A5.9,5.9,0,0,0,78,12.51a6.53,6.53,0,0,0-4.49,8.19,6.53,6.53,0,0,0,8.09,4.66A5.85,5.85,0,0,0,86.14,19.76Z"/><path d="M111.15,24.82l-1.92-.11.41-7.34-9.78-.55-.41,7.34-1.92-.11.92-16.29,1.92.11L100,15.09l9.78.55.41-7.22,1.92.11Z"/><path d="M131,31.12l-11.13-4.25,5.83-15.24,11.1,4.24-.61,1.62-9.31-3.56-2,5.17,8.64,3.3L133,24l-8.64-3.31-2,5.21,9.32,3.57Z"/><path d="M154.82,32.7l-1.8-.83a4,4,0,0,0-1.38-5.15c-1.74-1.33-3.67-1.3-4.74.09-.89,1.16-.55,2.24.47,3.43L149.7,33c1.5,1.77,2.27,3.8.69,5.87-1.81,2.35-4.87,2.37-7.76.15s-3.87-5.21-2.29-7.9l1.85.9c-1.1,2-.4,4.21,1.61,5.75s3.9,1.43,5,0c.94-1.21.65-2.2-.55-3.64l-2.42-2.88c-1.38-1.64-2.17-3.62-.58-5.69,1.71-2.22,4.68-2.3,7.45-.18C155.29,27.41,156,30.23,154.82,32.7Z"/><path d="M169.59,50.14l-1.5-1.29a4,4,0,0,0,.09-5.33c-1.31-1.76-3.16-2.26-4.58-1.22-1.17.87-1.15,2-.49,3.42l1.47,3.34c.95,2.11,1.13,4.28-1,5.83-2.39,1.77-5.33.94-7.5-2s-2.28-6.07,0-8.23l1.54,1.38c-1.62,1.66-1.55,3.93,0,6s3.36,2.45,4.81,1.38c1.23-.91,1.23-1.94.47-3.66l-1.54-3.43c-.87-2-1.08-4.08,1-5.63,2.25-1.66,5.13-.92,7.21,1.88C171.5,45.19,171.41,48.1,169.59,50.14Z"/><path d="M44,162.93l6.75,5.82-1.13,1.31-6.75-5.82-4.67,5.42-1.46-1.25L47.4,156.05l8.86,7.63L55.13,165l-7.4-6.38Z"/><path d="M65.07,187l-2.56-9-2.7-1.3-3,6.29L55,182.14l7.12-14.69,6.8,3.29c2.87,1.39,4,4,2.77,6.52s-4,3.27-6.84,1.88l-.27-.13,2.64,9.05Zm.57-9.45c1.84.89,3.58.44,4.35-1.14s0-3.23-1.8-4.12l-5.06-2.45-2.55,5.26Z"/><path d="M90.86,193.61l-1.1-4.39-8.48-1.44-2.5,3.77-2-.35,10-14.86,1.75.3L92.91,194Zm-3.68-14.76-4.86,7.35,7,1.19Z"/><path d="M118.27,192.44l-1.64.19L104.53,181,106,193.87l-1.91.23-1.91-16.21,1.65-.19L116,189.47l-1.53-13,1.91-.23Z"/><path d="M141.16,178.23l1.87-.35a7.74,7.74,0,0,1-4.83,8.22,8.48,8.48,0,0,1-6.93-15.48,7.8,7.8,0,0,1,9.31,1.77l-1.48,1.24a5.89,5.89,0,0,0-7.09-1.36,6.67,6.67,0,0,0,5.45,12.18A5.86,5.86,0,0,0,141.16,178.23Z"/><path d="M164.43,168.09l-9.08,7.71-10.56-12.44,9.06-7.69L155,157l-7.59,6.45,3.57,4.22,7.06-6,1.12,1.31-7.06,6,3.61,4.26,7.62-6.47Z"/><path class="cls-3" d="M101.83,64.74c3.3,4.07,8.9,8,23.58,40.44,8.55,19,18.17,57.67.4,60.49-8,1.26-14.94-12-24-12-9.83,0-19.5,20.09-30.31,8.36-6.1-6.61,1.07-34.38,8.33-56.6S101.83,64.74,101.83,64.74Z"/><circle class="cls-4" cx="90.02" cy="107.92" r="2.48"/><circle class="cls-4" cx="114.98" cy="107.92" r="2.48"/><g class="cls-5"><path class="cls-4" d="M101.83,64.74c3.3,4.07,8.9,8,23.58,40.44,8.55,19,18.17,57.67.4,60.49-8,1.26-14.94-12-24-12-9.83,0-19.5,20.09-30.31,8.36-6.1-6.61,1.07-34.38,8.33-56.6S101.83,64.74,101.83,64.74Z"/></g><ellipse class="cls-6" cx="102.9" cy="109.8" rx="14.94" ry="12.46"/><path class="cls-7" d="M101.52,126.51a4.26,4.26,0,0,1-5.89-1.13"/><path class="cls-8" d="M127.46,109.74c7.25,2,9.87,5.4,10.71,7.22,2.27,4.91-2.57,10.31-2.86,13.65s4.51,8.27,4.51,8.27l2.18-1.51a30.78,30.78,0,0,0-3.22-6.32,8.74,8.74,0,0,1-1.68-5.27"/><ellipse class="cls-4" cx="138.32" cy="133.76" rx="2.13" ry="4.69" transform="translate(-49.33 91.21) rotate(-31.26)"/><path class="cls-8" d="M78.34,109.74c-7.25,2-9.86,5.4-10.7,7.22-2.27,4.91,2.56,10.31,2.85,13.65S66,138.88,66,138.88l-2.18-1.51A30.78,30.78,0,0,1,67,131.05a8.8,8.8,0,0,0,1.69-5.27"/><ellipse class="cls-4" cx="67.49" cy="133.76" rx="4.69" ry="2.13" transform="translate(-81.87 122.03) rotate(-58.74)"/><ellipse class="cls-4" cx="101.68" cy="45.47" rx="7.61" ry="19.27"/><polygon class="cls-6" points="131.71 83.97 102.02 63.16 131.71 42.36 131.71 83.97"/><polygon class="cls-6" points="72.34 42.36 102.02 63.16 72.34 83.97 72.34 42.36"/></g></g></svg>