<svg xmlns="http://www.w3.org/2000/svg" xmlns:xlink="http://www.w3.org/1999/xlink" viewBox="0 0 200.75 200.75"><defs><style>.cls-1,.cls-10,.cls-3{fill:none;}.cls-2{fill:#8ac9ad;}.cls-10,.cls-3,.cls-4,.cls-8{stroke:#1e1e1c;}.cls-3{stroke-linejoin:round;}.cls-3,.cls-4{stroke-width:2.22px;}.cls-4,.cls-8{fill:#fff;}.cls-10,.cls-4,.cls-8{stroke-miterlimit:10;}.cls-5{fill:#1e1e1c;}.cls-6{clip-path:url(#clip-path);}.cls-7{fill:#e61f3d;}.cls-10,.cls-8{stroke-width:1.87px;}.cls-9{fill:#fac863;}</style><clipPath id="clip-path"><rect class="cls-1" x="55.03" y="36.01" width="100.63" height="76.73"/></clipPath></defs><g id="Calque_2" data-name="Calque 2"><g id="Calque_1-2" data-name="Calque 1"><path class="cls-2" d="M100.37,0A100.38,100.38,0,1,0,200.75,100.37,100.37,100.37,0,0,0,100.37,0Z"/><path d="M31.17,43.1c3.46-4.56,8.28-5.07,12-2.27s4.5,7.57,1,12.13l-3.27,4.31-13-9.86Zm11.6,8.82c2.76-3.65,2.06-7.36-.81-9.54s-6.65-1.87-9.42,1.78l-2.09,2.76,10.23,7.76Z"/><path d="M62.67,26.75c2.53,3.67,2,7.67-1.37,10s-7.36,1.43-9.89-2.24l-5.2-7.57,1.58-1.09L53,33.41c1.92,2.79,4.8,3.49,7.25,1.81s2.75-4.59.83-7.38l-5.2-7.56,1.58-1.09Z"/><path d="M86.14,19.76l1.9-.08a7.75,7.75,0,0,1-6,7.42,8.47,8.47,0,0,1-4.56-16.32,7.77,7.77,0,0,1,8.93,3.11l-1.63,1A5.9,5.9,0,0,0,78,12.51a6.53,6.53,0,0,0-4.49,8.19,6.53,6.53,0,0,0,8.09,4.66A5.85,5.85,0,0,0,86.14,19.76Z"/><path d="M111.15,24.82l-1.92-.1.41-7.35-9.78-.55-.41,7.34-1.92-.11.92-16.29,1.92.11L100,15.09l9.78.55.41-7.22,1.92.11Z"/><path d="M131,31.13l-11.13-4.26,5.83-15.24,11.1,4.24-.61,1.62-9.31-3.56-2,5.17,8.64,3.3L133,24l-8.64-3.31-2,5.21,9.33,3.57Z"/><path d="M154.82,32.7l-1.8-.83a4,4,0,0,0-1.38-5.15c-1.74-1.33-3.67-1.3-4.74.09-.89,1.16-.55,2.24.47,3.43L149.7,33c1.5,1.77,2.27,3.8.69,5.87-1.81,2.35-4.87,2.37-7.76.15s-3.87-5.21-2.29-7.9l1.85.9c-1.1,2-.4,4.21,1.61,5.75s3.9,1.43,5,0c.94-1.21.65-2.2-.55-3.64l-2.42-2.88c-1.38-1.64-2.17-3.62-.58-5.69,1.71-2.22,4.68-2.3,7.45-.18C155.29,27.41,156,30.23,154.82,32.7Z"/><path d="M169.59,50.14l-1.5-1.29a4,4,0,0,0,.09-5.33c-1.31-1.76-3.16-2.26-4.58-1.22-1.17.87-1.15,2-.49,3.42l1.47,3.34c.95,2.11,1.13,4.28-1,5.83-2.39,1.77-5.33.94-7.5-2s-2.28-6.07,0-8.22l1.54,1.37c-1.62,1.66-1.55,3.93,0,6s3.36,2.45,4.81,1.38c1.23-.91,1.23-1.94.47-3.65l-1.54-3.44c-.87-2-1.08-4.08,1-5.63,2.25-1.66,5.13-.92,7.21,1.88C171.5,45.19,171.41,48.1,169.59,50.14Z"/><path d="M57.25,183.37l.64-4.48-7.31-4.54-3.73,2.55-1.76-1.09,14.82-10,1.51.94L59,184.47Zm2.17-15.06-7.28,5,6,3.74Z"/><path d="M80.63,175c3.34,1,4.87,3.57,4,6.45s-3.52,4.26-6.87,3.29l-5-1.45-1.72,5.94-1.85-.54L73.8,173Zm-2.34,8.07c2.24.66,4-.28,4.55-2.15s-.45-3.6-2.69-4.26l-5-1.44-1.86,6.41Z"/><path d="M105,194l-11.91-.21.29-16.31,11.88.21,0,1.73-10-.18-.09,5.53,9.25.16,0,1.73-9.25-.16-.1,5.58,10,.17Zm-6.13-18.25,2-3.38,2.16,0-2.54,3.37Z"/><path d="M127.93,189.84l-7.76-5.25-2.91.73L119,192.1l-1.87.48-4-15.83,7.33-1.85c3.09-.79,5.62.48,6.31,3.2s-.93,5.06-4,5.84l-.29.07,7.84,5.23Zm-5.64-7.6c2-.5,3-2,2.58-3.67s-2-2.5-4-2L115.39,178l1.44,5.67Z"/><path d="M150.4,169.63a8.44,8.44,0,1,1-11.58-2.95A8.36,8.36,0,0,1,150.4,169.63Zm-1.67,1a6.49,6.49,0,1,0-2.15,9A6.5,6.5,0,0,0,148.73,170.63Z"/><path class="cls-3" d="M84,109.09c-5.49,4.64-9.63,4.81-11.51,4.48-5.11-.9-6.71-7.64-9.18-9.69s-9-1-9-1v2.54a29.77,29.77,0,0,0,6.72.92,8.43,8.43,0,0,1,5.07,1.55"/><path class="cls-4" d="M103.1,69c3.16,3.9,8.51,7.61,22.55,38.7,8.19,18.14,17.4,55.18.39,57.88-7.6,1.21-14.3-11.47-23-11.47-9.41,0-18.66,19.23-29,8-5.83-6.32,1-32.89,8-54.15S103.1,69,103.1,69Z"/><circle class="cls-5" cx="91.8" cy="110.37" r="2.37"/><circle class="cls-5" cx="115.68" cy="110.37" r="2.37"/><g class="cls-6"><path class="cls-5" d="M103.1,69c3.16,3.9,8.51,7.61,22.55,38.7,8.19,18.14,17.4,55.18.39,57.88-7.6,1.21-14.3-11.47-23-11.47-9.41,0-18.66,19.23-29,8-5.83-6.32,1-32.89,8-54.15S103.1,69,103.1,69Z"/></g><ellipse class="cls-7" cx="107.49" cy="112.16" rx="14.29" ry="11.92"/><path class="cls-8" d="M102.8,128.15a3.81,3.81,0,0,1-3,.64,3.73,3.73,0,0,1-2.65-1.72"/><ellipse class="cls-5" cx="59.29" cy="104.33" rx="2.04" ry="4.48" transform="translate(-56.17 137.04) rotate(-76.21)"/><path class="cls-3" d="M127.62,112.1c6.94,1.87,9.44,5.17,10.24,6.91,2.18,4.7-2.45,9.86-2.73,13.06s4.32,7.92,4.32,7.92l2.09-1.45a29.74,29.74,0,0,0-3.08-6,8.41,8.41,0,0,1-1.62-5"/><ellipse class="cls-5" cx="138.01" cy="135.09" rx="2.04" ry="4.48" transform="translate(-50.07 91.24) rotate(-31.26)"/><ellipse class="cls-5" cx="102.95" cy="50.61" rx="7.29" ry="18.43"/><polygon class="cls-9" points="114.57 61.18 107.68 69.75 102.5 56.04 96.84 69.75 90.44 61.18 90.07 61.82 90.07 76.73 115.53 76.73 115.53 63.36 114.57 61.18"/><line class="cls-8" x1="56.62" y1="92.94" x2="60.41" y2="115.31"/><line class="cls-8" x1="57.46" y1="116" x2="63.4" y2="114.86"/><path class="cls-9" d="M56.38,93c5-.66,8.93-8.48,10.45-12.8L42.55,82.26C45.18,86.1,51.46,93.63,56.38,93Z"/><path class="cls-10" d="M67.07,75.3c.62,4.74-2,16.54-10.69,17.69-8.47,1.11-14.26-9.6-14.88-14.34"/></g></g></svg>