<svg xmlns="http://www.w3.org/2000/svg" viewBox="0 0 200.75 200.75"><defs><style>.cls-1{fill:#a3badb;}.cls-2{fill:#1d1d1b;}.cls-3{fill:#fff;}.cls-4{fill:#e61f3d;}.cls-5{fill:#931925;}</style></defs><g id="Calque_2" data-name="Calque 2"><g id="Calque_1-2" data-name="Calque 1"><path class="cls-1" d="M100.37,0A100.38,100.38,0,1,0,200.75,100.37,100.37,100.37,0,0,0,100.37,0Z"/><path d="M52.06,37.59l1.87-1.82.79,1.44L52.87,39,55,42.72l-1.2,1.18-2.16-3.71L48.4,43.38l2.16,3.72-1.21,1.17-2.16-3.71-1.86,1.82L44.52,45l1.86-1.82-2.32-4L42.17,41l-.79-1.44,1.85-1.8-2.31-4,1.2-1.17,2.31,4,3.28-3.2-2.33-4,1.2-1.18,2.33,4,1.88-1.84.78,1.46-1.85,1.8Zm-6.8.35,2.33,4,3.27-3.2-2.34-4Z"/><path d="M75,29.53l-3.55-2.8-7.6,4,.33,4.51-1.83,1-1.2-17.84,1.57-.83,14.11,11ZM63.09,20.1l.64,8.79L70,25.56Z"/><path d="M86.16,9.49c5.64-1,9.5,1.95,10.28,6.51s-1.88,8.6-7.52,9.57l-5.33.92L80.83,10.4ZM88.6,23.85c4.51-.78,6.53-4,5.92-7.52s-3.58-5.91-8.1-5.13l-3.4.58,2.17,12.65Z"/><path d="M123.11,18.56a8.44,8.44,0,1,1-16.65-2.73,8.44,8.44,0,1,1,16.65,2.73Zm-1.92-.32a6.49,6.49,0,1,0-12.81-2.1,6.49,6.49,0,1,0,12.81,2.1Z"/><path d="M143.28,18.49c3.08,1.63,4.06,4.48,2.66,7.13s-4.3,3.46-7.39,1.84L134,25l-2.89,5.48-1.7-.9L137,15.17Zm-3.92,7.44c2.07,1.09,4,.53,4.9-1.19s.28-3.63-1.78-4.72l-4.59-2.42-3.12,5.91Z"/><path d="M161.72,34.5,151.49,44.91l-1.39-1.36,10.23-10.41L156,28.88l1.21-1.23,10,9.85L166,38.74Z"/><path d="M25.73,153.25l2.68-3.64-4.3-7.45-4.5.48-1-1.79L36.37,139l.88,1.54L26.76,155.05Zm9-12.25L26,142l3.54,6.14Z"/><path d="M57.43,162.89c4.67,3.32,5.33,8.12,2.65,11.89s-7.43,4.74-12.1,1.43l-4.41-3.13L53,159.76ZM49,174.76c3.73,2.65,7.42,1.83,9.51-1.11s1.65-6.71-2.08-9.36l-2.82-2-7.43,10.47Z"/><path d="M81.47,184.5c-1.43,4.22-5,6.19-8.83,4.88s-5.54-5-4.11-9.26l2.94-8.7,1.83.61-3,8.7c-1.09,3.21.07,5.94,2.89,6.9s5.32-.54,6.41-3.75l2.94-8.7,1.83.62Z"/><path d="M105.75,188.4l1.83.49a7.73,7.73,0,0,1-7.93,5.29,8.48,8.48,0,1,1,.52-17,7.8,7.8,0,0,1,7.6,5.65l-1.87.48a5.87,5.87,0,0,0-5.79-4.32,6.67,6.67,0,0,0-.41,13.34A5.88,5.88,0,0,0,105.75,188.4Z"/><path d="M132.9,188.88l-1.86.51-1.93-7.1-9.45,2.58L121.6,192l-1.86.51-4.29-15.74,1.85-.51,1.91,7,9.44-2.58-1.9-7,1.85-.5Z"/><path d="M155,177.42l-10.18,6.17-8.46-14,10.17-6.16.89,1.48-8.52,5.16,2.87,4.73,7.91-4.8.9,1.48-7.92,4.79,2.89,4.77,8.54-5.17Z"/><path d="M163.61,153l-1,1.69a4,4,0,0,0-5.27.81c-1.52,1.58-1.71,3.49-.45,4.71,1.06,1,2.17.8,3.46-.08l3-2c1.93-1.3,4-1.84,5.91,0,2.14,2.06,1.82,5.1-.72,7.74-2.4,2.49-5.6,3.25-8.1,1.39l1.1-1.75c1.9,1.33,4.14.87,5.89-.95s1.87-3.72.57-5c-1.11-1.07-2.12-.9-3.69.13l-3.13,2.09c-1.79,1.19-3.85,1.75-5.72-.06-2-2-1.77-4.91.65-7.42C158.41,152,161.29,151.57,163.61,153Z"/><path d="M174.4,136l-.56,1.89a4,4,0,0,0-4.91,2.1c-1.08,1.91-.78,3.81.75,4.67,1.27.72,2.3.24,3.33-.94l2.45-2.71c1.54-1.73,3.44-2.78,5.71-1.5,2.59,1.47,3,4.49,1.24,7.67-1.7,3-4.61,4.55-7.5,3.37l.63-2c2.18.81,4.22-.19,5.47-2.4s.87-4.07-.7-4.95c-1.34-.76-2.27-.34-3.53,1.05l-2.51,2.81c-1.43,1.6-3.29,2.65-5.56,1.37-2.44-1.38-2.93-4.32-1.22-7.35C169.1,136.29,171.79,135.18,174.4,136Z"/><path class="cls-2" d="M138.57,135.35a30.64,30.64,0,0,0-3.21-6.31,7.54,7.54,0,0,1-1.42-4.15c1.21-2.73,2.39-6,.92-9.14-.72-1.57-3.24-5.44-11-7.51l-.58,2.14c6.81,1.84,8.92,5,9.51,6.3,1.22,2.62-.15,5.6-1.35,8.23a14,14,0,0,0-1.47,4.25c-.31,3.6,4.11,8.27,4.62,8.79a1.13,1.13,0,0,0,.8.33,1,1,0,0,0,.63-.2l2.09-1.44A1.12,1.12,0,0,0,138.57,135.35Z"/><path class="cls-2" d="M79.22,110.38c-6.81,1.84-8.92,5-9.52,6.3-1.21,2.62.16,5.6,1.36,8.23a14,14,0,0,1,1.47,4.25c.31,3.6-4.12,8.27-4.62,8.79a1.13,1.13,0,0,1-.8.33,1,1,0,0,1-.63-.2l-2.09-1.44a1.12,1.12,0,0,1-.41-1.29A30.64,30.64,0,0,1,67.19,129a7.6,7.6,0,0,0,1.42-4.15c-1.22-2.73-2.39-6-.92-9.14.72-1.57,3.24-5.44,11-7.51Z"/><path class="cls-3" d="M130.15,140.15c-1.6-9.25-4.8-20-7.33-28.43-.18-.6-.35-1.19-.53-1.77H79.88c-8.37,26.59-10.86,44.21-6.8,48.61,5.69,6.18,10.8,2.17,16.7-2.47,3.68-2.89,7.48-5.88,11.46-5.88,3.65,0,7.29,2.79,11.13,5.74,6.92,5.3,11.82,8.36,16.6,2.79,1.63-1.88,2.24-5.11,2.19-9.12A70.73,70.73,0,0,0,130.15,140.15Z"/><path class="cls-2" d="M100,66.12c-2.37,3.1-14.56,19.57-20.83,38.74-7,21.42-14,48.38-7.73,55.21,2.61,2.82,5.16,3.9,7.64,3.9,4.27,0,8.33-3.19,12.08-6.13,3.53-2.78,6.87-5.41,10.08-5.41,2.9,0,6.24,2.57,9.78,5.28,5.85,4.48,13.13,10.06,19.64,2.48,4.23-4.92,2.88-16.39,0-28.58-1.91-8.7-4.67-18.16-7.48-26.75-6.39-19.56-19-36.33-21-38.91M129,158.74c-4.78,5.57-9.68,2.51-16.6-2.79-3.84-2.95-7.48-5.74-11.13-5.74-4,0-7.78,3-11.46,5.88-5.9,4.64-11,8.65-16.7,2.47-4.06-4.4-1.57-22,6.8-48.61h42.41c.18.58.35,1.17.53,1.77,2.53,8.45,5.73,19.18,7.33,28.43a70.73,70.73,0,0,1,1,9.47C131.21,153.63,130.6,156.86,129,158.74Z"/><ellipse class="cls-4" cx="101.25" cy="109.37" rx="14.28" ry="11.91"/><path class="cls-2" d="M100.5,124.62a2.44,2.44,0,0,1-1,.43,4,4,0,0,1-1.3,0,4.42,4.42,0,0,1-1.23-.45,2.17,2.17,0,0,1-.71-.74l-1.64.89A4.65,4.65,0,0,0,98,126.9a5.82,5.82,0,0,0,.92.08,4.45,4.45,0,0,0,2.79-.91Z"/><path class="cls-2" d="M101.9,65.55a26.92,26.92,0,0,0-.66-36.09,26.93,26.93,0,0,0-.72,36Z"/><path class="cls-4" d="M128,86.68a18.19,18.19,0,0,1,1.24,5.14,2.12,2.12,0,0,1-1.66,2.35,2,2,0,0,1-2.38-1.35,4,4,0,0,1,0-1.72c.28-1.47.66-2.93,1-4.49a2.22,2.22,0,0,1-1.08-1.53,2.08,2.08,0,0,1,.81-2,.78.78,0,0,0,.3-.51c0-3.87,0-7.75,0-11.63a2.1,2.1,0,0,0,0-.26l-4,1.56-20.45,8a2.28,2.28,0,0,1-1.74,0L74.05,70.12a.6.6,0,0,1-.2-.08c-.19-.15-.36-.32-.54-.48.19-.16.36-.4.58-.48,5-1.8,10.06-3.57,15.09-5.35l10.93-3.85a2.4,2.4,0,0,1,1.75,0l26.08,9.19c.59.21.61.28.37.85a1.22,1.22,0,0,0-.07.47q0,6,0,12a.89.89,0,0,0,.23.6,2.07,2.07,0,0,1-.15,3.58Z"/><path class="cls-5" d="M99.88,71.4c-3.17-.1-6.54,3.87-9.65,9.38h21.85C108.32,74.16,105.74,71.58,99.88,71.4Z"/></g></g></svg>