<?xml version="1.0" encoding="UTF-8" standalone="no"?>
<!-- Created with Inkscape (http://www.inkscape.org/) -->
<svg
   xmlns:dc="http://purl.org/dc/elements/1.1/"
   xmlns:cc="http://creativecommons.org/ns#"
   xmlns:rdf="http://www.w3.org/1999/02/22-rdf-syntax-ns#"
   xmlns:svg="http://www.w3.org/2000/svg"
   xmlns="http://www.w3.org/2000/svg"
   xmlns:xlink="http://www.w3.org/1999/xlink"
   xmlns:sodipodi="http://sodipodi.sourceforge.net/DTD/sodipodi-0.dtd"
   xmlns:inkscape="http://www.inkscape.org/namespaces/inkscape"
   id="svg2440"
   sodipodi:version="0.32"
   inkscape:version="0.46"
   width="168"
   height="243"
   version="1.0"
   sodipodi:docname="chapeau_etudiant.svg"
   inkscape:output_extension="org.inkscape.output.svg.inkscape">
  <metadata
     id="metadata2445">
    <rdf:RDF>
      <cc:Work
         rdf:about="">
        <dc:format>image/svg+xml</dc:format>
        <dc:type
           rdf:resource="http://purl.org/dc/dcmitype/StillImage" />
      </cc:Work>
    </rdf:RDF>
  </metadata>
  <defs
     id="defs2443">
    <inkscape:perspective
       sodipodi:type="inkscape:persp3d"
       inkscape:vp_x="0 : 526.18109 : 1"
       inkscape:vp_y="0 : 1000 : 0"
       inkscape:vp_z="744.09448 : 526.18109 : 1"
       inkscape:persp3d-origin="372.04724 : 350.78739 : 1"
       id="perspective2447" />
  </defs>
  <sodipodi:namedview
     inkscape:window-height="675"
     inkscape:window-width="1023"
     inkscape:pageshadow="2"
     inkscape:pageopacity="0.0"
     guidetolerance="10.0"
     gridtolerance="10.0"
     objecttolerance="10.0"
     borderopacity="1.0"
     bordercolor="#666666"
     pagecolor="#ffffff"
     id="base"
     showgrid="false"
     inkscape:zoom="5.6568542"
     inkscape:cx="85.998839"
     inkscape:cy="170.99747"
     inkscape:window-x="265"
     inkscape:window-y="77"
     inkscape:current-layer="svg2440" />
  <image
     xlink:href="chapeau_etudiant.png"
     sodipodi:absref="W:\data\2010-08\MK-JDuchess\chapeau_etudiant.png"
     width="168"
     height="243"
     id="image2449"
     x="0"
     y="0" />
  <g
     id="g2451">
    <path
       style="fill:#fdfdfd"
       d="M 0,121.5 L 0,0 L 84,0 L 168,0 L 168,121.5 L 168,243 L 84,243 L 0,243 L 0,121.5 z"
       id="path2467" />
    <path
       style="fill:#9fa1a3"
       d="M 127.32915,124.68823 C 126.49562,122.90012 125.35625,118.78999 124.24725,116.20279 L 122.76121,111.85234 L 111.80478,115.92359 L 101,119.80642 L 90.331873,123.38141 C 88.279228,124.01618 86.486088,124.44154 84.89148,124.69098 C 83.296873,124.94041 81.900799,125.01391 80.642288,124.94495 C 79.383777,124.87599 78.262829,124.66457 77.218474,124.34417 C 76.174119,124.02376 75.206356,123.59436 74.254215,123.08944 L 65.747735,118.57848 L 57.241255,114.06751 L 49.06734,109.2802 L 42.800694,105.66807 L 37.12132,102.08456 C 37.12132,102.08456 33.133318,98.924081 32.484834,98.327202 C 31.836351,97.730324 30.834967,96.976055 30.5,96.16083 C 30.130948,95.26265 30.445039,92.1304 30.475609,91.159837 C 30.56626,88.281744 30.804771,83.330415 30.804771,83.330415 L 31.109543,70.5 L 17.612158,63.718489 C 3.2536197,56.504307 1.1050224,54.39256 4.6453093,50.974035 C 6.4255219,49.255049 25.604878,43.903979 35,42.50503 C 37.475,42.136498 42.425,41.006038 46,39.992896 C 49.575,38.979754 58.125,36.963711 65,35.512801 C 71.875,34.061891 79.100954,33.314589 80.841614,32.771828 C 84.931132,31.496664 93.002866,32.695753 105.36883,38.12637 C 113.77373,41.817452 120.81647,44.767404 144,54.307588 C 161.0251,61.313536 165.47373,63.643996 166.89472,66.301221 C 168.11563,68.58432 168.0816,69.22651 166.62166,71.454663 C 165.70439,72.854598 164.40177,73.995766 163.72695,73.99059 C 160.57115,73.966387 144.60918,80.695209 143.37074,82.571812 C 142.61875,83.711308 141.71364,88.726947 141.35939,93.717676 L 140.7153,102.79173 L 136.53393,104.7663 C 134.42864,105.94954 132.82143,107.04483 131.95702,106.78303 C 130.15337,106.23678 132.35204,112.33667 133.75041,115.83204 C 136.87166,123.63394 137.59827,124.08933 134.68555,126.82569 C 131.49959,129.81874 128.4645,126.90342 127.32915,124.68823 z"
       id="path2465"
       sodipodi:nodetypes="cccccssssscccccssscccssssssssssscccsssc" />
    <path
       style="fill:#d0c315"
       d="M 129.20491,124.44888 C 126.70639,117.38304 127.29983,119.32942 127.29983,119.32942 L 125.58986,115.6132 C 125.58986,115.6132 125.23621,112.60878 124.46972,111.63377 C 123.83625,110.82796 123.60468,109.38012 123.52636,108.36145 C 123.34803,106.04205 123.62838,106.57864 123.68784,103.54233 C 123.81388,97.10508 124.73321,82.106199 124.73321,82.106199 L 124.06265,78.724367 L 121.2525,76.237956 L 113.21829,70.928886 L 100.45074,63.766546 L 88.906155,57.512349 L 92.856585,55.269134 L 100.34255,58.682773 L 110.84095,64.205603 L 121.50087,69.23797 C 121.50087,69.23797 125.25872,72.078086 127.74139,73.740007 C 130.01795,75.263951 129.89286,75.237969 130.85325,77.440781 C 131.2972,78.459058 131.51185,76.310649 131.42014,80.953239 C 131.34757,84.626869 129.05011,97.139811 128.88936,102.28147 C 128.72998,107.37921 128.9423,106.07845 128.9423,106.07845 L 129.82322,108.75303 L 131.71965,114.16198 C 131.71965,114.16198 133.68698,118.33586 134.07555,119.97314 C 134.46412,121.61042 135.93377,122.78429 135.37081,124.37009 C 135.04944,125.27535 133.75947,126.40339 132.30215,126.85233 C 131.0576,127.23572 130.00219,126.7036 129.20491,124.44888 z"
       id="path2463"
       sodipodi:nodetypes="cccsssccccccccccsssscccssss" />
    <path
       style="fill:#596063"
       d="M 32.684089,96.5 C 32.235338,95.95 32.093201,90.030423 32.368229,83.345385 C 32.801976,72.802406 32.644973,70.993532 31.18414,69.70324 C 30.257863,68.885099 24.045464,65.492763 17.378809,62.164717 C 0.32219463,53.649922 0.25198137,52.401918 16.579919,47.964878 C 22.585964,46.332764 30.425,44.507159 34,43.907979 C 37.575,43.308798 43.425,41.991318 47,40.980246 C 61.973225,36.745558 83.268452,32.764947 87.700123,33.372376 C 90.136045,33.706256 97.61253,36.292332 104.31454,39.119212 C 111.01654,41.946092 120.55,45.951344 125.5,48.019771 C 167.25813,65.468997 167.83967,65.784201 165.71892,69.819071 C 164.85251,71.467469 162.0877,72.974565 156.15869,75.03035 C 143.5177,79.413396 141.62712,80.772529 140.82412,86.054341 C 140.45239,88.499454 140.108,92.75 140.05881,95.5 L 139.71036,101.53729 L 129.3064,106.77026 L 130.41733,91.204892 L 131.07603,78.490939 C 131.11755,77.689543 129.92174,76.122774 129.47361,75.407906 C 129.02547,74.693039 111.32857,64.625365 110.64561,63.937746 L 93.596186,54.547162 L 88.990245,55.957406 L 83.819466,55.752999 L 104.14318,66.443974 L 111.83944,70.684772 L 118.07406,74.838103 L 121.48024,77.400444 C 123.20277,78.696234 123.69662,78.668064 123.53489,81.061632 C 123.27469,84.912466 123.48239,82.993866 123.59449,84.791296 C 123.7066,86.588725 123.016,88.920202 123.08055,90.664587 C 123.20965,94.153357 122.8736,99.965362 122.85864,101.20093 L 122.75925,109.40684 C 122.72938,111.87277 113.19502,114.08305 107.64645,116.08434 C 92.786262,121.57972 84.588048,123.97711 81.5,123.88433 C 64.102399,117.58412 47.187521,107.97154 32.684089,96.5 z"
       id="path2461"
       sodipodi:nodetypes="cssssssssssssscccsscccccccssssssccc" />
    <path
       style="fill:#03429b"
       d="M 66.908493,116.60988 C 60.533164,113.24944 53.068768,109.0375 50.320946,107.25 C 47.573124,105.4625 44.955193,104 44.503321,104 C 44.05145,104 41.212978,102.13607 38.195606,99.85793 L 32.709474,95.715861 L 33.284177,83.55278 C 33.600264,76.863085 33.461434,70.739517 32.975666,69.944849 C 32.489897,69.150182 26.334149,65.575 19.296225,62 C 2.7073321,53.573468 2.5628826,52.745756 17,48.842372 C 22.775,47.280977 30.425,45.511867 34,44.911016 C 37.575,44.310164 43.425,42.989614 47,41.976459 C 61.631399,37.82992 83.4695,33.793293 87.950332,34.407064 C 90.398015,34.74234 97.598015,37.3104 103.95033,40.113865 C 110.30265,42.91733 119.775,46.922205 125,49.013588 C 130.225,51.104971 137.65,54.173356 141.5,55.832223 C 145.35,57.491089 152.1,60.361362 156.5,62.210607 C 163.33868,65.084786 164.54458,65.952793 164.80712,68.190032 C 165.07187,70.446097 164.58896,70.970541 161.30712,71.991111 C 155.80438,73.702323 142.70013,79.065465 141.33548,80.16485 C 140.69499,80.680837 139.87223,85.01733 139.50712,89.801504 C 139.14201,94.585677 138.64898,99.20633 138.4115,100.06962 C 137.95187,101.7405 131.12595,105.45928 130.20643,104.53976 C 129.90615,104.23949 130.47886,98.657859 131.47912,92.136148 C 133.25548,80.554213 132.90006,79.481259 131.04533,75.69532 C 130.0963,73.758124 125.4011,72.453916 122.46094,70.539587 C 119.52078,68.625259 117.58611,67.0674 114.50725,65.435438 L 93.641391,54.375422 L 87.658507,58.605782 L 104.3897,67.544396 L 116.71358,75.04311 L 121.54969,78.350525 L 123.20382,86.784463 C 123.96227,90.651556 122.01171,101.03502 122.00755,104.13337 C 122.00153,108.61834 121.64325,109.87875 120.25,110.31621 C 119.2875,110.61842 114.225,112.48509 109,114.46437 C 93.848463,120.20392 84.727822,122.98414 81.5,122.84711 C 79.85,122.77706 73.283822,119.97031 66.908493,116.60988 z"
       id="path2459"
       sodipodi:nodetypes="csscccsssssssssssssssssssscccccsssssc" />
    <path
       style="fill:#003d9a"
       d="M 69.029813,112.89757 C 62.654484,109.53713 58.902399,107.44651 56.154577,105.65901 C 48.490831,100.81263 50.069395,102.0888 43.498907,98.26694 L 37.305668,93.948094 L 37.880371,81.785013 C 38.196458,75.095318 44.102162,68.22452 39.339627,65.702208 C 35.825189,63.840908 34.112324,62.92335 27.0744,59.34835 C 10.485507,50.921818 17.765678,59.109717 17.883883,52.908236 C 17.997891,46.926967 30.425,45.511867 34,44.911016 C 37.575,44.310164 43.425,42.989614 47,41.976459 C 61.631399,37.82992 83.4695,33.793293 87.950332,34.407064 C 90.398015,34.74234 97.598015,37.3104 103.95033,40.113865 C 110.30265,42.91733 119.775,46.922205 125,49.013588 C 130.225,51.104971 137.65,54.173356 141.5,55.832223 C 145.35,57.491089 152.1,60.361362 156.5,62.210607 C 163.33868,65.084786 164.54458,65.952793 164.80712,68.190032 C 165.07187,70.446097 164.58896,70.970541 161.30712,71.991111 C 155.80438,73.702323 142.70013,79.065465 141.33548,80.16485 C 140.69499,80.680837 139.87223,85.01733 139.50712,89.801504 C 139.14201,94.585677 138.64898,99.20633 138.4115,100.06962 C 137.94852,101.75268 131.12284,105.45618 130.19463,104.52796 C 129.88786,104.22119 130.3907,98.914403 131.31205,92.735099 C 136.72663,68.135696 119.88507,57.330076 96.295798,52.256955 C 95.858109,52.94063 93.8125,54.28022 91.75,55.233821 C 89.6875,56.187423 88,57.372439 88,57.86719 C 106.45146,66.376341 79.78646,83.76469 84.212211,85.53033 C 90.613849,86.332871 92.888865,86.423455 98.424621,85.5 C 105.9524,83.634143 117.84116,91.061073 110.87062,96.708749 C 110.51106,99.0724 107.28861,101.09901 105.57753,104.48258 C 93.652099,115.7978 83.14814,118.09532 69.029813,112.89757 z M 74.5,80.878735 C 80.939078,83.598249 68.031014,78.417973 74.5,80.878735 z M 85.5,40 C 81.125243,43.639746 89.991853,42.286032 85.5,40 z"
       id="path2457"
       sodipodi:nodetypes="cccccssssssssssssssssccscccccccccc" />
    <path
       style="fill:#08295b"
       d="M 66.908493,116.60988 C 60.533164,113.24944 53.068768,109.0375 50.320946,107.25 C 47.573124,105.4625 44.955193,104 44.503321,104 C 44.05145,104 41.212978,102.13607 38.195606,99.85793 L 32.709474,95.715861 L 33.284177,83.55278 C 33.600264,76.863085 33.461434,70.739517 32.975666,69.944849 C 32.489897,69.150182 26.334149,65.575 19.296225,62 C 2.7073321,53.573468 2.5628826,52.745756 17,48.842372 C 22.775,47.280977 30.425,45.511867 34,44.911016 C 37.575,44.310164 43.425,42.989614 47,41.976459 C 61.631399,37.82992 83.4695,33.793293 87.950332,34.407064 C 90.398015,34.74234 97.598015,37.3104 103.95033,40.113865 C 110.30265,42.91733 119.775,46.922205 125,49.013588 C 130.225,51.104971 137.65,54.173356 141.5,55.832223 C 145.35,57.491089 152.1,60.361362 156.5,62.210607 C 163.33868,65.084786 164.54458,65.952793 164.80712,68.190032 C 165.07187,70.446097 164.58896,70.970541 161.30712,71.991111 C 155.80438,73.702323 142.70013,79.065465 141.33548,80.16485 C 140.69499,80.680837 139.87223,85.01733 139.50712,89.801504 C 139.14201,94.585677 138.64898,99.20633 138.4115,100.06962 C 137.94852,101.75268 131.12284,105.45618 130.19463,104.52796 C 129.88786,104.22119 130.43963,98.851484 131.42079,92.595278 C 132.40195,86.339073 132.92661,80.344119 132.5867,79.273159 C 132.0737,77.656863 132.69358,77.110774 136.23434,76.059705 C 138.58045,75.363265 140.95,74.441887 141.5,74.012198 C 142.05,73.582509 144.075,72.925232 146,72.551581 C 149.62843,71.847289 156.02821,68.937916 155.96246,68.022596 C 155.92463,67.495921 136.00699,57.98279 117.5,49.652024 C 112,47.176246 102.40279,43.572761 96.172872,41.64428 C 83.179317,37.622106 85.443682,37.480972 57,44.085845 C 47.925,46.19314 35.55,48.864488 29.5,50.022175 C 19.535359,51.928941 15.857388,53.219255 17.066667,54.384065 C 17.305,54.613635 24.925,58.398339 34,62.79452 C 43.075,67.190701 52.207484,71.960371 54.294409,73.393788 C 56.381334,74.827205 58.362468,76 58.696928,76 C 59.031389,76 64.973905,78.337982 71.902519,81.195515 C 87.340893,87.562686 91.332573,87.772614 107.34102,83.059277 C 113.30358,81.303732 120.76307,79.446354 121.54101,79.147831 C 122.4741,78.789769 121.70292,84.611169 122.70173,87.001655 C 117.11407,99.014035 119.13739,81.04449 122.89143,89.637681 C 122.88542,94.122651 121.64325,109.87875 120.25,110.31621 C 119.2875,110.61842 114.225,112.48509 109,114.46437 C 93.848463,120.20392 84.727822,122.98414 81.5,122.84711 C 79.85,122.77706 73.283822,119.97031 66.908493,116.60988 z M 77.661599,104 C 79.024106,91.683935 78.973214,91.574098 70.268471,88.044026 C 62.956804,85.078893 45.096235,75.964728 44.404756,74.845893 C 44.117222,74.380652 42.558524,74 40.940983,74 C 38.052104,74 38,74.094968 38,79.360429 C 38,82.308665 37.720789,86.757925 37.379531,89.247675 L 36.759061,93.774493 L 41.629531,96.556444 C 44.308289,98.086518 47.177668,99.907605 48.005929,100.6033 C 48.834191,101.299 53.109191,103.66504 57.505929,105.86116 C 61.902668,108.05727 67.075,110.99942 69,112.39926 C 75.318037,116.99365 76.333015,116.00942 77.661599,104 z M 80.167519,57.404782 C 76.307674,54.701241 77.79154,52.742747 84,52.346447 C 87.025,52.153355 90.806072,51.883912 92.402383,51.747685 C 96.603442,51.389173 96.633098,53.369292 92.449328,54.882163 C 90.480388,55.594141 88.625668,56.811918 88.327729,57.588334 C 87.600686,59.482979 82.986378,59.379187 80.167519,57.404782 z"
       id="path2455"
       sodipodi:nodetypes="csscccsssssssssssssssssssssssssssssssssccsssccsssscccsssccssssc" />
    <path
       style="fill:#09101f"
       d="M 75.795017,89.041862 C 57.074228,80.315749 51.93684,77.768269 48.752058,75.632053 C 44.87719,73.032958 37.839918,70.754131 36.839971,71.774653 C 35.87032,72.764254 35.475081,93.341647 36.39707,94.833457 C 36.803315,95.490774 38.878952,96.917922 41.009597,98.004896 C 43.140241,99.09187 46.597209,101.1561 48.691748,102.59207 C 50.786287,104.02805 54.893097,106.27104 57.817992,107.57651 C 60.742888,108.88197 65.229156,111.36274 67.787475,113.08933 C 71.853117,115.8332 78.282769,117.09605 81.262563,116.4873 C 81.812563,116.37493 82.931492,99.826457 83.100889,97.213807 M 66,115.6289 C 44.749996,104.25263 34.581513,97.957783 33.686327,95.624964 C 33.40253,94.885402 33.521312,89.154737 33.950286,82.890153 C 34.37926,76.625569 34.380869,70.816701 33.953861,69.981557 C 33.526853,69.146413 27.033357,65.408993 19.523868,61.676178 C 6.5786652,55.241379 4.71058,53.646049 8.0595191,51.88571 C 10.36057,50.676184 27.975523,46.05977 34.070766,45.068849 C 37.134688,44.570739 45.234688,42.788286 52.070766,41.107843 C 76.452685,35.114287 84.441696,33.837879 89.72356,35.092034 C 94.175738,36.149184 121.02735,47.459333 121.02459,49.881601 C 121.02447,49.985847 120.74792,49.823755 117.80353,48.815755 C 114.85914,47.807755 108.10882,44.681853 104.12132,43.350999 C 96.14632,40.68929 86.6,36.996113 85.5,36.872423 C 83.216063,36.615604 76.743048,37.901672 59.182916,42.101141 C 52.408519,43.721224 40.112405,46.388385 31.858217,48.028167 C 15.578,51.262403 12.258009,52.424408 13.882421,54.319739 C 15.068399,55.703514 29.501879,63.075121 36,65.615844 C 39.753857,67.083578 48.68054,71.958272 55,75.991387 C 56.463732,76.925549 74.346431,85.065167 80.323223,87.120376 C 81.973223,87.687753 84.494955,88.7414 85.494951,89.245753 C 86.749418,89.87845 87.73519,90.345473 91.174616,89.442932 L 106.84784,85.330117 L 122.01762,81.779997 C 122.98161,81.554399 123.03963,96.013523 122.8172,92.677239 C 122.27688,84.572965 122.00898,100.97739 122.00579,104.00531 C 122.0002,109.31183 122.94331,109.55216 119.81066,110.66103 C 118.02316,111.29376 111.675,113.2284 107,114.96024 C 94.039596,119.76137 83.719244,122.98095 81.5,122.91532 C 80.4,122.88279 73.425,119.6039 66,115.6289 z M 104.33186,92.2789 L 114.13764,89.837665 L 121.40626,88.741219 L 121.44778,84.957339 L 114.22071,86.512544 L 103.78025,88.877914 L 91.030423,92.456888 L 91.442384,95.481924 M 131.59236,93.380835 L 132.52174,85.033774 L 140.13909,82.997775 L 139.17678,92.143228 L 138.65833,100.36142 L 135.48823,102.92276 L 130.26992,104.60415 L 131.59236,93.380835 z M 134.06067,78.705475 L 149.33997,73.418036 C 151.36637,72.716796 155.40996,71.242969 158.13554,69.40879 C 162.06712,66.763033 163.20715,66.37624 163.65256,67.53696 C 164.62829,70.079688 163.2867,71.69179 159.71217,72.271857 C 157.80814,72.580838 150.59653,75.072848 145.41483,77.593597 C 140.62023,79.92603 136.72103,80.942316 134.37403,81.249403 L 134.06067,78.705475 z M 149.27825,62.48234 C 147.29022,61.089869 133.54918,54.744516 123.2398,50.45828 C 120.8967,49.484107 111.23959,44.936589 111.50229,44.673891 C 112.12314,44.053046 131.22514,51.655577 137,54.609893 C 139.475,55.876059 144.0875,58.031915 147.25,59.400683 C 150.4125,60.769451 153,62.364248 153,62.944676 C 153,64.409841 151.82105,64.263385 149.27825,62.48234 z M 80.666667,56.333333 C 79.28796,54.954627 80.074354,53.888824 82.0157,54.504983 C 83.124335,54.85685 85.595694,54.628478 87.50761,53.997488 C 89.419526,53.366499 91.774961,53.019069 92.74191,53.22542 C 94.101941,53.515657 93.775393,53.985443 91.29966,55.300302 C 89.702952,56.148312 87.360468,56.722335 85.25928,56.926472 C 83.158091,57.13061 81.298197,56.964863 80.666667,56.333333 z"
       id="path2453"
       sodipodi:nodetypes="cssssssssccsssssssssssssssssssscssssssccccccccscccccccccssssssccsssssccsssssc" />
  </g>
</svg>
