<svg xmlns="http://www.w3.org/2000/svg" viewBox="0 0 516.08 223.14"><defs><style>.cls-1{fill:#e6243d;}.cls-2{fill:#1e1e1c;}.cls-3{fill:#fff;}</style></defs><g id="Calque_2" data-name="Calque 2"><g id="Calque_1-2" data-name="Calque 1"><path class="cls-1" d="M180.06,65.38c19.79,0,32.95,12.09,32.95,30s-13.16,30-32.95,30H157.94v-60Zm0,49c12.44,0,20.68-7.34,20.68-19s-8.24-19-20.68-19h-9.94v38Z"/><path class="cls-1" d="M265.47,125.37H253.66v-4c-3.5,3.5-8.15,5.38-14.06,5.38-10.75,0-17.91-7.71-17.91-18.81V80.69h11.82v24.72c0,6.26,3.58,10.47,9,10.47,6.72,0,11.11-4.48,11.11-15.4V80.69h11.81Z"/><path class="cls-1" d="M309.79,107.2,320.72,110c-2.51,10.21-11.73,16.75-22.39,16.75-13.07,0-23.9-9.58-23.9-23.64s10.83-23.73,23.9-23.73a23,23,0,0,1,22.39,16.47l-11.37,3.23c-1.62-6.27-5.82-8.87-11-8.87-7.43,0-12.44,5.29-12.44,12.9s5,12.8,12.44,12.8C303.53,115.88,307.73,113.37,309.79,107.2Z"/><path class="cls-1" d="M373.45,98.15v27.22H361.64V100.66c0-6.27-3.59-10.48-9.05-10.48-6.71,0-11.1,4.48-11.1,15.4v19.79H329.67V60.9h11.82V84.72c3.49-3.49,8.15-5.37,14.06-5.37C366.29,79.35,373.45,87.05,373.45,98.15Z"/><path class="cls-1" d="M427.09,106.21h-34c1.17,6.45,5.73,10.39,11.19,10.39,3.5,0,7.88-.45,11.11-5.91l10.56,2.24c-3.94,9.31-11.91,13.79-21.67,13.79-12.62,0-22.92-9.58-22.92-23.64s10.3-23.73,23.1-23.73c11.91,0,22.21,9.22,22.66,22.83Zm-33.67-8.33H415a10.39,10.39,0,0,0-10.57-8.23A11.21,11.21,0,0,0,393.42,97.88Z"/><path class="cls-1" d="M444.19,111.14c.62,4.56,4.56,6.08,9.22,6.08,4.39,0,7-2,7-4.47,0-1.61-1.07-3.23-4.92-4l-9.14-1.88c-8.05-1.7-12.62-6.27-12.62-12.72,0-8.59,7-14.77,18.27-14.77,10.56,0,17.9,5.46,19.43,13.25l-11.29,2.24c-.44-3.58-3.58-6.18-8.5-6.18-4.75,0-6.09,2.33-6.09,4.39,0,1.43.54,3,4,3.76l10.65,2.33c7.88,1.7,11.73,6.62,11.73,12.62,0,9.85-8,15-19.61,15-9.84,0-18.89-3.85-20.05-13.17Z"/><path class="cls-1" d="M488.33,111.14c.62,4.56,4.56,6.08,9.22,6.08,4.39,0,7-2,7-4.47,0-1.61-1.07-3.23-4.92-4l-9.13-1.88c-8.06-1.7-12.63-6.27-12.63-12.72,0-8.59,7-14.77,18.27-14.77,10.56,0,17.9,5.46,19.43,13.25l-11.29,2.24c-.44-3.58-3.58-6.18-8.5-6.18-4.75,0-6.09,2.33-6.09,4.39,0,1.43.54,3,4,3.76l10.65,2.33c7.88,1.7,11.73,6.62,11.73,12.62,0,9.85-8,15-19.61,15-9.84,0-18.89-3.85-20.05-13.17Z"/><path class="cls-2" d="M171.25,151.31a3.06,3.06,0,0,0,2.15-.67,2.35,2.35,0,0,0,.77-1.76,2.39,2.39,0,0,0-.77-1.8,3,3,0,0,0-2.15-.68H160.38v53.87h10.87a3.16,3.16,0,0,0,2.14-.64,2.35,2.35,0,0,0,.78-1.8,2.29,2.29,0,0,0-.79-1.79,3.12,3.12,0,0,0-2.13-.65h-6V151.31Z"/><path class="cls-2" d="M221.53,173.93a3,3,0,0,0-.68,2.15v10.44H203.73V154.19h5.85a3.13,3.13,0,0,0,2.14-.64,2.46,2.46,0,0,0,0-3.59,3.13,3.13,0,0,0-2.14-.65H193a3.13,3.13,0,0,0-2.14.65,2.46,2.46,0,0,0,0,3.59,3.13,3.13,0,0,0,2.14.64h5.85v32.33H193a3.08,3.08,0,0,0-2.14.65,2.43,2.43,0,0,0,0,3.55,3,3,0,0,0,2.16.68h32.79V176.08a3,3,0,0,0-.69-2.19A2.5,2.5,0,0,0,221.53,173.93Z"/><path class="cls-2" d="M269.91,159.73h-7.84a3,3,0,0,0-2.15.68,2.34,2.34,0,0,0-.77,1.76,2.37,2.37,0,0,0,.77,1.8,3,3,0,0,0,2.15.67h2.26l-10,20.35-10.13-20.35h2.26a3.06,3.06,0,0,0,2.15-.67,2.44,2.44,0,0,0,0-3.56,3,3,0,0,0-2.15-.68H238.6a3.63,3.63,0,0,0-1.51.24,2.26,2.26,0,0,0-1,.9,2.56,2.56,0,0,0-.37,1.33,2.38,2.38,0,0,0,.77,1.77,3.06,3.06,0,0,0,2.15.67h.24L251.7,190.4l-4.58,9.35h-8.38a3.13,3.13,0,0,0-2.14.64,2.46,2.46,0,0,0,0,3.59,3.13,3.13,0,0,0,2.14.64h16.58a3.06,3.06,0,0,0,2.15-.67,2.38,2.38,0,0,0,.77-1.77,2.35,2.35,0,0,0-.78-1.79,3.15,3.15,0,0,0-2.14-.64h-2.88l17.24-35.11a5.58,5.58,0,0,0,1.63-.17,2.29,2.29,0,0,0,1.09-.86,2.34,2.34,0,0,0,.47-1.41,2.37,2.37,0,0,0-.77-1.79A3.08,3.08,0,0,0,269.91,159.73Z"/><path class="cls-2" d="M297.56,158.7a16.6,16.6,0,0,0-12.12,5,16.82,16.82,0,0,0,0,23.89,17.21,17.21,0,0,0,24.18,0,16.79,16.79,0,0,0,0-23.93A16.62,16.62,0,0,0,297.56,158.7Zm0,4.91a11.73,11.73,0,0,1,8.64,3.52,11.94,11.94,0,0,1,0,17,12.31,12.31,0,0,1-17.27,0,11.89,11.89,0,0,1,0-17A11.73,11.73,0,0,1,297.52,163.61Z"/><path class="cls-2" d="M357.55,186.52h-1.44V169.4a9.83,9.83,0,0,0-1.72-5.43,11,11,0,0,0-3.85-3.75,13.86,13.86,0,0,0-6.46-1.52,13.55,13.55,0,0,0-5.91,1.27,17.91,17.91,0,0,0-4,2.79v-3h-6.31a3,3,0,0,0-2.15.68,2.34,2.34,0,0,0-.77,1.76,2.41,2.41,0,0,0,.77,1.8,3.08,3.08,0,0,0,2.15.67h1.43v21.88H327a3.08,3.08,0,0,0-2.14.65,2.42,2.42,0,0,0,0,3.55,3,3,0,0,0,2.15.68h9.39a3,3,0,0,0,2.15-.68,2.34,2.34,0,0,0,.77-1.76,2.29,2.29,0,0,0-.79-1.79,3.07,3.07,0,0,0-2.13-.65h-2.26V169.84c2.38-2.77,4.21-4.52,5.45-5.2a9.12,9.12,0,0,1,4.45-1,7.27,7.27,0,0,1,5.27,1.84,5.82,5.82,0,0,1,1.92,4.43v16.64h-1.4a3.13,3.13,0,0,0-2.17.65,2.41,2.41,0,0,0,0,3.55,3.08,3.08,0,0,0,2.19.68h7.71a3,3,0,0,0,2.15-.68,2.43,2.43,0,0,0,0-3.55A3.07,3.07,0,0,0,357.55,186.52Z"/><path class="cls-2" d="M379.06,146.4a3,3,0,0,0-2.15.68,2.44,2.44,0,0,0,0,3.56,3,3,0,0,0,2.15.67H385v44.08h-5.95a3,3,0,0,0-2.15.68,2.3,2.3,0,0,0-.77,1.76,2.34,2.34,0,0,0,.78,1.8,3.13,3.13,0,0,0,2.14.64h10.86V146.4Z"/><path class="cls-2" d="M123.85,175.67a50.3,50.3,0,0,0-5.33-10.46,12.83,12.83,0,0,1-2.36-6.89c2-4.54,4-9.91,1.54-15.18-1.2-2.6-5.38-9-18.17-12.45l-1,3.56c11.29,3,14.8,8.31,15.78,10.44,2,4.35-.25,9.29-2.25,13.65-1.16,2.53-2.25,4.92-2.44,7.06-.51,6,6.83,13.71,7.67,14.57a1.85,1.85,0,0,0,2.38.23l3.45-2.4A1.83,1.83,0,0,0,123.85,175.67Z"/><path class="cls-2" d="M25.39,134.25c-11.3,3-14.8,8.31-15.79,10.44-2,4.35.26,9.29,2.25,13.65,1.16,2.53,2.26,4.92,2.44,7.06.52,6-6.83,13.71-7.67,14.57a1.81,1.81,0,0,1-1.32.56,1.86,1.86,0,0,1-1-.33L.79,177.8a1.84,1.84,0,0,1-.68-2.13,50.57,50.57,0,0,1,5.32-10.46,12.67,12.67,0,0,0,2.36-6.89c-2-4.54-4-9.91-1.53-15.18,1.2-2.6,5.37-9,18.17-12.45Z"/><path class="cls-3" d="M109.89,183.63c-2.66-15.35-8-33.14-12.16-47.16l-.88-2.95H26.49c-13.89,44.12-18,73.35-11.29,80.65,9.45,10.25,17.91,3.6,27.71-4.1,6.11-4.79,12.42-9.75,19-9.75,6.06,0,12.09,4.62,18.47,9.52,11.48,8.8,19.6,13.88,27.54,4.64,2.69-3.14,3.72-8.49,3.62-15.14A117.21,117.21,0,0,0,109.89,183.63Z"/><path class="cls-2" d="M110.71,169.46c-3.16-14.43-7.75-30.13-12.4-44.37C86.82,89.94,63.32,60.25,63.08,60L63,59.87A44.68,44.68,0,0,0,61.92,0a44.66,44.66,0,0,0-1.19,59.77l-.19.18c-.24.3-23.74,30-35.22,65.14C13.7,160.62,2.05,205.35,12.49,216.67c4.32,4.69,8.55,6.47,12.67,6.47,7.09,0,13.82-5.29,20-10.17,5.87-4.61,11.41-9,16.73-9,4.81,0,10.36,4.25,16.23,8.75,9.7,7.44,21.77,16.7,32.58,4.12C117.75,208.71,115.5,189.68,110.71,169.46Zm-2.78,45c-7.94,9.24-16.06,4.16-27.54-4.64-6.38-4.9-12.41-9.52-18.47-9.52-6.59,0-12.9,5-19,9.75-9.8,7.7-18.26,14.35-27.71,4.1-6.73-7.3-2.6-36.53,11.29-80.65H96.85l.88,2.95c4.18,14,9.5,31.81,12.16,47.16a117.21,117.21,0,0,1,1.66,15.71C111.65,206,110.62,211.34,107.93,214.48Z"/><ellipse class="cls-1" cx="61.94" cy="132.56" rx="23.69" ry="19.76"/><path class="cls-2" d="M60.69,157.86a3.87,3.87,0,0,1-1.62.71,6.32,6.32,0,0,1-2.16-.06,7.2,7.2,0,0,1-2-.75,3.54,3.54,0,0,1-1.18-1.23L51,158a7.66,7.66,0,0,0,5.49,3.63,8.89,8.89,0,0,0,1.53.14,7.43,7.43,0,0,0,4.63-1.5Z"/><polygon class="cls-1" points="108.99 92.94 61.92 59.94 108.99 26.95 108.99 92.94"/><polygon class="cls-1" points="14.85 26.95 61.92 59.94 14.85 92.94 14.85 26.95"/></g></g></svg>