<?xml version="1.0" encoding="UTF-8" standalone="no"?>
<svg
   xmlns:dc="http://purl.org/dc/elements/1.1/"
   xmlns:cc="http://creativecommons.org/ns#"
   xmlns:rdf="http://www.w3.org/1999/02/22-rdf-syntax-ns#"
   xmlns:svg="http://www.w3.org/2000/svg"
   xmlns="http://www.w3.org/2000/svg"
   xmlns:sodipodi="http://sodipodi.sourceforge.net/DTD/sodipodi-0.dtd"
   xmlns:inkscape="http://www.inkscape.org/namespaces/inkscape"
   width="875"
   height="875"
   viewBox="0 0 700 700"
   version="1.1"
   id="svg2462"
   sodipodi:version="0.32"
   inkscape:version="0.48.1 r9760"
   sodipodi:docname="duchess_800x800pt.svg"
   inkscape:output_extension="org.inkscape.output.svg.inkscape">
  <metadata
     id="metadata2497">
    <rdf:RDF>
      <cc:Work
         rdf:about="">
        <dc:format>image/svg+xml</dc:format>
        <dc:type
           rdf:resource="http://purl.org/dc/dcmitype/StillImage" />
        <dc:title />
      </cc:Work>
    </rdf:RDF>
  </metadata>
  <defs
     id="defs2495">
    <inkscape:perspective
       sodipodi:type="inkscape:persp3d"
       inkscape:vp_x="0 : 437.5 : 1"
       inkscape:vp_y="0 : 1000 : 0"
       inkscape:vp_z="875 : 437.5 : 1"
       inkscape:persp3d-origin="437.5 : 291.66667 : 1"
       id="perspective2499" />
  </defs>
  <sodipodi:namedview
     inkscape:window-height="676"
     inkscape:window-width="1152"
     inkscape:pageshadow="2"
     inkscape:pageopacity="0.0"
     guidetolerance="10.0"
     gridtolerance="10.0"
     objecttolerance="10.0"
     borderopacity="1.0"
     bordercolor="#666666"
     pagecolor="#ffffff"
     id="base"
     showgrid="false"
     inkscape:zoom="0.5"
     inkscape:cx="554.42892"
     inkscape:cy="145.81818"
     inkscape:window-x="40"
     inkscape:window-y="0"
     inkscape:current-layer="svg2462"
     inkscape:snap-global="false"
     inkscape:window-maximized="0"
     units="pt" />
  <path
     d="M 0,0 700,0 700,700 0,700 0,0 z"
     id="path2464"
     inkscape:connector-curvature="0"
     style="fill:#fefefe" />
  <path
     d="m 367.6,29.09 c 0.705,-0.835 2.4425,-2.6775 3.44125,-2.725 0.99875,-0.0475 2.85875,0.1 3.80875,0.045 1.53,1.3125 2.71813,2.1425 3.25141,2.85656 0.53328,0.71406 0.81172,1.31219 1.32234,2.16094 1.02125,1.6975 2.97125,4.3975 4.94625,7.8325 2.62,5.55 4.08,6.88 6.72,12.42 0.79,2.11 4.43,8.59 5.26,10.68 1.78,3.92 2.98,7.34 4.72,11.29 0.61,1.67 2.84,7.35 3.48,9.01 0.54,1.44 2.7,7.67 3.25,9.11 0.92,2.54 2.02,7.14 2.8,9.73 0.27,3.31 0.5,4.17 1.22,7.42 l 7.51,-7.17 9.14,-9.09 7.61142,-6.45574 6.34578,-4.91147 6.82442,-4.49147 7.56726,-4.18289 c 0.51,-0.165 3.65996,-2.0821 7.37809,-3.71385 3.71814,-1.63175 7.15592,-2.97816 7.67592,-3.13316 l 8.97836,-2.91392 5.49885,-1.53324 3.98525,-0.8313 4.88328,-0.77296 5.02,-0.38 3.92931,0.064 2.62637,0.7125 2.06069,0.99534 1.70505,1.22966 1.76358,2.38358 1.80102,3.68884 1.85961,4.03027 2.11608,7.05432 2.60966,7.74862 2.63,9.8229 3.05,11.35 3.54,13.9 2.44,12.51 1.86,13.28 c 0.6,5.26 0.64,13.53 0.58,18.83 l -0.89,15.78 c -0.28,2 -1.29,11.22 -1.61,13.21 -0.81,2.95 -2.35,10.72 -3.08,13.69 -1.39,5.16 -1.28,5.9 -2.99,10.96 l -3.37,9.68 -2.91,7.65 -2.765,6.355 -2.565,5.355 -3.06125,4.62 -2.15733,2.84858 -2.66999,1.71142 -2.58232,0.74358 -8.24921,0.0264 -10.3749,-0.51 -10.995,-0.91 c -2.58,-0.56 -8.01,-0.94 -10.59,-1.47 -1.74,-0.23 -10.88,-2.24 -12.6,-2.48 l -12.07,-3.08 -10.17,-3.32 -8.96863,-3.62574 -9.50973,-5.19012 L 399.88,232 c -0.22572,0.45601 2.60103,4.87721 4.06196,7.60138 l 3.89804,7.26862 5.6,9.51 5.83,10.08 5.37,9.03 c 1.05158,2.31793 3.852,7.35738 5.07,9.59 1.39,3.14 4.16,8.11 5.51,11.28 1.38,3.24 4.05,8.24 5.6,11.42 1.67,3.7 5.17,10 6.78,13.73 2.95956,6.84047 2.23383,4.11849 5.26,10.93 0.79,2.1 3.86,9.57 4.75,11.64 0.7,1.66 3.99,9.94 4.67,11.63 l 4.38,11.64 c 2.19037,4.71858 4.22242,10.0584 6.06,14.92 l 3.08,9.39 c 0.15,0.56 2.85,8.09 3,8.66 1.04,2.98 1.95,6.41 2.96,9.4 l 5.2596,9.66597 c 3.64799,5.21452 7.40909,12.15798 3.5204,6.76403 l 7.33555,9.82846 c 3.61514,3.30606 4.94686,5.08692 9.53513,9.80789 4.28931,3.76029 4.68756,4.26192 9.52387,7.8674 0,0 6.36323,5.49576 11.49827,9.12779 l 9.0774,7.97395 c 6.26513,4.66904 5.90131,5.35003 15.04673,12.85288 8.09076,6.6376 8.26613,6.70894 12.29113,10.68894 2.28667,3.155 7.19525,7.09269 9.48192,10.24769 0.42,1.68833 0.84,3.37667 1.26,5.065 -0.44333,1.86667 -0.48667,2.13333 -0.93,4 -3.105,4.355 -7.155,9.8225 -10.90875,13.6 -3.75375,3.7775 -7.61125,7.465 -11.13125,11.46 -0.18,1.8 0.05,6.01 -0.13,7.83 -0.61,4.62 -2.5,3.37 -4.18,7.79 -0.35,0.5 0.56,-0.88 -2.58,6.42 -0.4,3.99 -0.96,3.69 0.15,11.4 1.6494,9.12608 1.48117,6.52699 3.35,12.48 0,0 7.5,1.25 8.08,1.37 0,0 0.26,-0.29 5.13,3.66 3.19,5.58 -0.08,-0.21 3.31,6.09 -0.06,0.45 -1.37,8.36 -1.37,8.36 -3.47,4.73 -2.36,2 -6.21,5.94 0,0 -9.01498,5.54228 -9.89,4.79 -9.98,0.98 -9.31,1.65 -12.92,1.09 -6.41,-0.72 -0.42,0.91 -12.61,-1.34 -0.72,-0.11 -1.34,18.06 -1.65,18.74 l -3.48,14.83 c -0.25,0.49 -3.15,11.49 -3.39,11.98 -1.945,3.45 -3.995,6.925 -6.415,10.08 -2.42,3.155 -5.21,5.99 -8.635,8.16 -4.675,1.795 -9.7925,2.73 -14.865,2.62625 -5.0725,-0.10375 -10.1,-1.24625 -14.595,-3.60625 -4.575,-2.835 -8.55,-6.3925 -12.3775,-10.12625 C 453.515,663.5 447.835,658.79 443.85,655.25 c -4.94,-3.86 -5.65,-4.54 -11.24,-7.36 -2.56,-1.15 -7.92,-3.92 -10.42,-5.17 -3.70951,-1.66732 -9.94203,-4.65003 -13.72,-6.16 0,0 -6.57588,-2.87981 -13.01,-4.23 -3.22711,-0.6772 -8.67961,-2.1647 -13.32534,-2.6829 C 377.48894,629.1289 368.05,629.18 368.05,629.18 l -14.6,0.58 -12.44,1.8 -11.64,2.6 c -1.22,0.47 -9.24,3.75 -10.44,4.26 -3.12227,1.09099 -8.52239,4.05933 -11.47,5.55 -6.11,3.06 -6.37,3.77 -12.2,7.32 -5.51,2.51 -9.92,6.83 -15.36,9.45 -5.33192,3.29706 -11.16024,5.64473 -16.73,8.49 -4.33,1.71 -8.8025,3.155 -13.36375,4.07875 C 245.245,674.2325 240.595,674.635 235.91,674.26 l -8.68,-1.56 -5.4341,-2.6832 c -1.27856,-0.98774 -3.30161,-3.45946 -4.30215,-4.9318 -1.00054,-1.47234 -3.17922,-5.92563 -4.51726,-10.1975 -1.33804,-4.27188 -1.72429,-8.19876 -2.00649,-9.7275 -0.89728,-4.86084 -0.45333,-10.02667 -0.68,-15.04 -0.27,-1.83 1.41,-14.85 1.09,-16.66 l -11.1,0.97 -9.49,0.18 c -1.29,-0.48 -9.4,-1.3 -10.7,-1.71 -2.96,-1.21 -5.78,-2.74 -8.45,-4.49 -2.9,-2.31 -3.77,-2.32 -5.23,-5.75 -0.13,-2 -1.76,-3.59 -1.78,-5.57 0.43,-1.08 0.84,-5.36 1.24,-6.43 5.72,-3.77 13.18,-2.43 19.23,-5.43 1.82,-1.07 2.36,-3.25 3.28,-5.01 0.55,-6.03 0.68,-12.15 -0.06,-18.17 l -4.59,-5.52 c 0,-1.64 0.01,-4.87 0.07,-6.5 0.7,-3 1.05,-6.12 0.73,-9.18 l -7.64,-13.58 -5.66,-10.09 c -1,-2.16 -6.21,-9.59 -6.95,-11.84 -0.18,-3.21 -0.89,-3.23 0.16,-6.29 5.35,-6.97 3.69,-4.04 10.72,-8.96 6.81,-5.04 6.42133,-6.11798 13.85133,-10.18798 1.95,-1.06 11.18647,-8.7326 13.16647,-9.7326 1.8,-0.84 5.31449,-3.51845 11.6148,-7.46923 7.35696,-4.50087 4.52571,-2.23703 11.26654,-7.30492 l 9.05687,-6.96354 7.36122,-6.49853 c 7.87224,-8.72097 3.81151,-4.47146 6.79483,-7.96725 l 5.03561,-6.45092 6.75178,-9.9465 C 258.03796,423.35386 264.54,406.42 265.84,403.09 c 0.46,-1.24 3.7,-9.69 4.16,-10.92 1.51564,-6.19489 2.961,-8.79362 4.94,-14.83 1.43503,-3.8009 4.21822,-10.73808 5.89,-14.44 3.69,-9.29 2.47,-5.83 6.62,-14.92 0.24,-0.52 4.7,-11.16 4.93,-11.68 1.16,-3.08 2.57,-6.44 4.01,-9.39 0.97,-2.35 2.77,-7.48 3.77,-9.81 1.90182,-4.78666 2.57717,-6.21245 4.79,-10.86 0.88,-1.89 4.86,-10.22 5.61,-12.16 l 5.25,-11.5 5.04,-11.26 4.76,-9.85 c 1.78245,-2.73116 2.97819,-6.51683 4.56,-9.41 1.05,-2.3 3.31,-6.19 4.32,-8.51 l 3.88,-8.54 3.88,-10.13 c -0.505,0.385 -0.61756,-0.0478 -2.42468,1.07755 -1.80712,1.12535 -5.3088,3.80882 -5.8038,4.20382 l -5.22726,3.44721 -6.65294,3.92579 -6.90416,3.4992 -6.76274,3.07496 -7.60726,3.01289 -9.73432,3.09858 -10.15573,2.82426 -10.27295,2.19574 -10.82436,1.53716 -9.23196,0.98176 -7.11063,0.5575 -5.83721,0.17358 -4.13794,-0.09 -4.21074,-0.20716 -3.67313,-0.42716 -2.68319,-0.99284 -2.46603,-1.74639 -1.90034,-1.7464 -2.41272,-3.42199 -2.35591,-4.39806 -2.95,-6.35 -3.15,-7.94 -2.95,-8.12 -3.04,-9.86 -2.99,-11.91 c -0.21,-1.03 -2.02,-11.65 -2.24,-12.67 l -1.22,-12.13 0.03,-13.59 c 0.21,-1.38 0.41,-11.15 0.63,-12.53 0.53,-1.92 1.32,-11.07 1.85,-12.99 0.29,-1.35 1.6,-9.69 1.95,-11.02 0.21,-1.09 1.83,-8.37 2.04,-9.46 0.73642,-2.9327 1.87865,-8.6605 2.74,-11.56 l 3.15,-10.52 2.84,-8.21 2.27625,-5.79125 2.70086,-5.13586 c 0.8053,-1.00744 1.6106,-2.01488 2.4159,-3.02232 0.66093,-0.36114 1.32185,-0.72228 1.98278,-1.08341 0.78815,-0.0857 1.57631,-0.59567 2.36446,-0.68137 1.5645,0.13762 1.57337,-0.008 3.13787,0.13002 l 5.11777,0.69571 7.42421,1.83711 9.25853,2.49568 9.53421,2.96711 8.35716,2.63858 9.42,3.29 8.92,3.64 8.74,3.89 8.32,4.49 7.95,4.83 6.74,4.75 5.48,4.14 4.84,4.13 2.79,1.13 c 0.23,-5.96 -0.23,-3.87 0.26,-9.81 l 1,-7.96 2.7,-9.38 c 0.7,-1.63 1.77,-5.27 2.43,-6.92 l 3.86,-8.65 c 1.21966,-3.07378 2.19039,-4.22983 3.92,-7.03 l 3.37,-6.59 c 0.87,-1.5 2.98,-4.98 3.88,-6.46 3.79,-5.91 1.02,-0.73 4.62,-6.76 0.68,-1 4.56,-6.01 5.24,-7.02 1.12,-1.52 3.08,-3.82 4.21,-5.35 2.22,-2.79 1.16,-2.51 3.79,-4.92 z"
     id="path2466"
     sodipodi:nodetypes="cscssccccccccccccccsccccccccccccccccccccccccccccccccccccccccccsscccccscccccccccccccccccsccccscccccccccccccccccscscsccccsscccccccccsccszssccccccccccccccccccccccccccccccccccccccccccccccscccccccccccccccccccccccccccccccccccccccccccccccccccccccccccccccccccc"
     inkscape:connector-curvature="0"
     style="fill:#040202" />
  <path
     d="m 456.59,85.92142 9.99618,-6.23219 10.51664,-5.13179 11.12732,-3.41442 7.30894,-1.01026 4.74965,0.57013 2.94759,1.09256 2.10114,3.17536 3.26229,7.57326 4.77676,14.68652 c 1.14597,3.52337 2.35924,10.11472 4.54954,17.79451 2.1903,7.67979 3.94042,15.6349 4.58542,19.2849 1.45,7.6 2.14853,15.35 2.47853,23.03 0.63,7.66 -0.33,14.97 -0.74,22.66 -0.7,7.5 -2.07,14.91 -3.17,22.36 -1.59,7.89 -4.28,15.51 -6.87,23.12 -2.55,6.45 -4.46,13.37 -8.8,18.92 -1.43,2 -3.93,2.84 -6.3,2.98 -8.98,0.51 -17.93,-0.64 -26.85,-1.42 -6.24,-0.615 -12.425,-1.645 -18.54375,-2.98875 C 447.5975,241.6275 441.545,239.97 435.57,238.1 c -7.83,-2.43 -14.84,-6.85 -21.74,-11.16 -5.44,-3.59 -11.07,-7.33 -14.86,-12.75 -1.92,-2.79 0.26,-6.01 1.23,-8.72 1.825,-4.145 2.8375,-8.6275 2.98125,-13.13125 C 403.325,187.835 402.6,183.31 400.95,179.08 c -2.09,-4.58 -5.11,-8.64 -7.62,-12.97 2.87,-6.44 6.15,-12.71 9.82,-18.73 4.3,-6.53 7.87,-13.5 12.22,-20 5.25,-8.285 11.145,-16.3725 17.9325,-23.545 C 440.09,96.6625 447.77,90.54642 456.59,85.92142 z"
     id="path2468"
     sodipodi:nodetypes="cccccccccssccccccccsccccsccccsc"
     inkscape:connector-curvature="0"
     style="fill:#ae0000" />
  <path
     d="m 225.65137,84.42868 2.51452,-1.02437 2.48172,-0.60132 3.55492,0.0972 5.81767,1.22853 12.90812,3.72985 13.81543,5.3321 20.64125,8.87187 15.255,9.6875 c 3.19,2.61 7.76188,6.7325 12.17719,11.00328 4.41531,4.27078 8.67406,8.68984 11.23781,11.89297 5.1275,6.40625 9.875,13.14875 14.735,19.71375 1.98,3.33 5.53,6.57 4.81,10.77 -2.38,3.335 -4.81,6.755 -6.79875,10.38125 C 336.8125,179.1375 335.265,182.97 334.65,187.13 c -0.39,3.86 -0.08,8.6 0.58,12.43 1.12,4.11 3.02,6.95 4.68,10.85 -3.385,2.705 -8.6475,6.14187 -13.99687,9.45938 -5.34938,3.31749 -11.37817,6.50735 -15.31813,8.34312 L 295.77,235.12 c -4.49,1.435 -12.03796,4.38269 -16.61892,5.45625 l -10.35541,2.42683 -9.22405,1.57829 -9.68275,1.53949 c -1.38798,0.22068 -5.52886,0.73162 -8.4748,0.93644 -2.94595,0.20481 -4.98362,-0.0633 -6.13643,-0.063 -2.30562,7.8e-4 -0.65646,-0.26689 -3.46896,-0.45439 l -3.32221,-1.49091 c -1.32,-1.04125 -2.73784,-2.25483 -3.76784,-3.51483 l -3.5641,-6.68734 -3.56409,-9.23292 L 214.51,214.95 210.2225,197.99625 207.72,180.63 c -0.55,-9.32 0.05,-6.65 -0.17,-15.97 -0.1,-2.86 0.245,-10.905 0.70625,-16.14125 C 208.7175,143.2825 209.695,132.855 210.06,130.03 c 0.88,-6.25 2.13,-9.84 3.81,-15.96 l 3.14437,-10.46883 2.19461,-6.84373 2.65294,-6.2503 2.08725,-3.70471 1.7022,-2.37375 z"
     id="path2470"
     sodipodi:nodetypes="cccccccccssccscccsscsccssscscccccccsccccccc"
     inkscape:connector-curvature="0"
     style="fill:#ae0000" />
  <path
     d="m 362.19,171.1 c 6.74,-1.61 14.35,-0.68 19.74,3.96 5.375,3.935 8.29,10.355 8.62625,16.91 0.33625,6.555 -1.90625,13.245 -6.84625,17.72 -5.4,5.92 -14.3,6.63 -21.71,5.05 -5.11,-0.97 -8.88,-4.96 -12.06,-8.79 -4.54,-5.51 -4.15,-13.28 -3.24,-19.93 2.22,-7.08 7.84,-13.72 15.49,-14.92 z"
     id="path2472"
     sodipodi:nodetypes="ccsccccc"
     inkscape:connector-curvature="0"
     style="fill:#ae0000" />
  <path
     d="m 359.63,357.89 c 4.665,-0.65 9.3925,-1.13 14.11375,-1.1925 4.72125,-0.0625 9.43625,0.2925 14.07625,1.3125 6.01,1.335 12.06,2.9425 17.84125,5.17375 C 411.4425,365.415 416.955,368.27 421.89,372.1 c 4.165,3.57 8.335,7.3825 11.89,11.645 3.555,4.2625 6.495,8.975 8.2,14.345 1.98,6.79 2.93,13.93 2.41,20.99 -1.16,7.955 -4.31,15.365 -8.77125,21.94125 C 431.1575,447.5975 425.385,453.34 418.98,457.96 c -4.57,3.235 -9.5025,6 -14.6875,8.125 -5.185,2.125 -10.6225,3.61 -16.2025,4.285 -8.01,0.35 -16.09,0.45 -24.06,-0.46 -5.995,-0.955 -12.0775,-2.1025 -17.92125,-3.905 -5.84375,-1.8025 -11.44875,-4.26 -16.48875,-7.835 -4.035,-2.84 -7.9825,-5.98 -11.44125,-9.5525 C 314.72,445.045 311.75,441.04 309.67,436.47 307.1,430.85 305.0925,424.82 304.085,418.66625 303.0775,412.5125 303.07,406.235 304.5,400.12 c 1.37,-4.4 3.3175,-8.615 5.73375,-12.5475 C 312.65,383.64 315.535,379.99 318.78,376.72 c 3.57,-3.88 7.6,-7.42 12.42,-9.66 4.485,-2.18 9.115,-4.115 13.8625,-5.68375 C 349.81,359.8075 354.675,358.605 359.63,357.89 z"
     id="path2474"
     sodipodi:nodetypes="cscscsccscsccscscscsccsc"
     inkscape:connector-curvature="0"
     style="fill:#ae0000" />
  <path
     d="m 329.09,375.4 c 0.95875,-0.69375 1.95438,-1.32063 2.98063,-1.8841 1.02625,-0.56348 2.08312,-1.06356 3.16437,-1.50371 1.08125,-0.44016 2.18688,-0.82039 3.31063,-1.14418 1.12375,-0.32379 2.26562,-0.59113 3.41937,-0.80551 1.15375,-0.21438 2.31937,-0.37578 3.49062,-0.4877 1.17125,-0.11191 2.34813,-0.17433 3.52438,-0.19074 1.17625,-0.0164 2.35188,0.0132 3.52063,0.0854 1.16875,0.0722 1.5417,0.18684 2.69045,0.34059 l 1.68481,0.49021 1.57209,0.94102 c 0.24176,0.14472 1.51084,1.33195 1.51084,1.33195 l 1.10268,1.52546 0.87727,1.4691 0.56474,1.56065 0.33934,1.33525 0.20674,2.24548 -0.0187,1.85102 -0.20636,2.23689 -0.45497,2.13189 -0.84945,2.63905 -2.00105,3.33007 c -0.63622,0.76062 -1.8792,2.04686 -2.58765,2.71084 -0.70846,0.66398 -1.44591,1.26921 -2.1981,1.79484 -0.75218,0.52562 -1.73574,1.07717 -2.72112,1.77917 -0.98538,0.702 -1.74716,0.87822 -2.73203,1.32941 0,0 -1.69951,0.46664 -2.85764,0.80046 -1.15812,0.33382 -1.51021,0.34767 -2.37053,0.51076 l -2.75328,0.35051 c -0.75298,-10e-4 -1.79015,-0.0223 -2.14807,0.009 -0.35791,0.0315 -1.35916,-0.0453 -2.20253,-0.0842 -0.84337,-0.0389 -1.58521,-0.0961 -2.43865,-0.13834 -0.85344,-0.0422 -1.4511,-0.23912 -2.24448,-0.364 -0.79338,-0.12488 -1.55705,-0.29041 -2.29168,-0.49516 -0.73463,-0.20475 -1.36978,-0.51917 -2.00469,-0.84325 -0.63492,-0.32407 -1.15691,-0.71415 -1.89066,-1.1829 l -1.36612,-1.41682 -1.02801,-1.24776 -0.77442,-1.33229 -0.77443,-1.33228 -0.64456,-2.03059 -0.1374,-2.19963 0.17601,-2.65238 0.49288,-1.89341 0.54924,-1.72435 0.97186,-1.72435 1.02822,-1.55529 c 0.5734,-0.86733 1.20067,-1.68956 1.95261,-2.44381 C 327.2758,376.76819 328.13,376.0675 329.09,375.4 z"
     id="path2476"
     sodipodi:nodetypes="csssssssccsccccccccccsssssszssscssscccccccccccssc"
     inkscape:connector-curvature="0"
     style="fill:#9f969d" />
  <path
     d="m 341.62,373.01 c 1.4225,-0.305 2.95375,-0.56813 4.51344,-0.71125 1.55969,-0.14313 3.14781,-0.16625 4.68406,0.009 1.53625,0.175 3.02062,0.54812 4.37281,1.1975 1.35219,0.64938 2.57219,1.575 3.57969,2.855 0.8825,1.265 1.425,2.64562 1.68625,4.07516 0.26125,1.42953 0.24125,2.90796 -0.001,4.36859 -0.2425,1.46062 -0.7075,2.90344 -1.33625,4.26172 -0.62875,1.35828 -1.42125,2.63203 -2.31875,3.75453 -1.0675,1.2625 -2.30375,2.35563 -3.65922,3.27609 -1.35547,0.92047 -2.83015,1.66829 -4.37453,2.24016 -1.54437,0.57187 -3.15844,0.96781 -4.79266,1.18453 -1.63421,0.21672 -3.28859,0.25422 -4.91359,0.10922 -2.035,-0.185 -4.165,-0.46 -6.165,-1.06375 -2,-0.60375 -3.87,-1.53625 -5.385,-3.03625 -1.28,-1.17 -2.2225,-2.7425 -2.6625,-4.43 -0.44,-1.6875 -0.3775,-3.49 0.3525,-5.12 0.6575,-1.7325 1.56875,-3.31875 2.67672,-4.74625 1.10797,-1.4275 2.41266,-2.69625 3.85703,-3.79375 0.72219,-0.54875 1.4793,-1.05469 2.2642,-1.51625 0.7849,-0.46156 1.5976,-0.87875 2.43096,-1.25 0.83336,-0.37125 1.68738,-0.69656 2.55494,-0.97438 0.86756,-0.27781 1.74865,-0.50812 2.63615,-0.68937 z"
     id="path2478"
     sodipodi:nodetypes="cssscssscssscscscsssssc"
     inkscape:connector-curvature="0"
     style="fill:#fefefe" />
  <path
     d="m 456.6552,411.23847 c 0.87973,-2.20405 1.36614,-2.17998 4.35596,-3.89842 3.11137,-0.17816 6.88012,1.15062 6.88012,1.15062 2.39665,2.91536 2.0363,3.08086 3.45872,6.35933 0,0 1.8502,6.02152 2.75,9.04 0.64,2.33 1.32,4.65 2.05,6.96 0.93229,3.4388 1.88111,6.87247 2.66,10.35 1.16133,3.85947 2.5909,10.95763 3.74,14.82 2.9,9.01 1.87,6.12 4.03,15.34 1.1,4.3 1.8,6.59 2.71,10.94 0.77231,2.98249 2.63473,9.59173 3.2,12.62 0.46,1.89 2.42,9.81 2.88,11.71 l 3.18,12.42 c 0.61066,2.65827 2.12008,11.27795 2.97,13.87 l 2.81,15.6 1.72,13.35 c 0.87,3.9 1.16,11.16 2.08,15.06 0.3,3.38 0.5,6.76 0.75,10.15 0.8,4.28 1.03,10.25 1.44,14.56 0.47,5.33 0.475,10.2825 0.22375,15.23 -0.25125,4.9475 -0.35875,13.09 -0.91375,18.4 l -1.85,12.42 -4.73,11.44 c -1.005,1.87 -2.82946,5.56743 -5.16375,7.0225 L 492.5,669.51 l -6.62,0.18 c -0.955,-0.52 -4.79,-0.6725 -7.40875,-1.64625 C 475.8525,667.07 472.05,664.475 471.16,663.87 c -2.53,-2.21 -5.03,-4.46 -7.6,-6.61 l -0.24,-0.36 -10.77,-10.22 c -1.56,-0.77 -10.7,-7.97 -12.23,-8.75 -2.26344,-1.05484 -9.73793,-5.28609 -12.02,-6.3 -2.60672,-1.25338 -8.52019,-3.80227 -11.29,-4.61 -2.20422,-0.90527 -9.25345,-3.29286 -11.48,-4.14 -4.98,-1.41 -7.99,-1.91 -13.07,-2.88 -5.26,-1.12 -10.31,-0.95 -15.57,-2.01 -6.39,-0.03 -9.17,-0.15 -15.55,0.06 -3.98,0.63 -11.24,0.73 -15.22,1.33 -3.68,0.67 -8.58,1.69 -12.25,2.42 l -11.4,2.46 -9.61,4.31 -8.86,4.5 -9.04,5.36 c -4.15762,2.46514 -4.98,4.05 -10.46,7.18 -1.07,0.64 -6.94,4.09 -8.01,4.74 -3.15467,1.87725 -8.80692,4.78162 -12.06,6.48 -3.42019,1.34427 -5.25635,2.88517 -8.83,3.83 l -8.34,2.205 -6.34,0.605 -7.89,-1.31 -5.24,-4.03 -3.43,-4.405 -2.23,-6.405 -1.39,-7.21 -0.59,-8.01 c 0.27,-2.85 0.515,-5.605 0.415,-8.7525 -0.1,-3.1475 0.655,-8.2875 1.145,-11.1075 0.27,-2.02 1.68,-10.05 1.95,-12.07 0.42,-1.67 1.93,-10.96 2.25,-12.65 0.88,-3.55 0.7,-4.77 1.46,-8.34 0.58,-2.55 1.29,-5.47 1.64,-8.06 0.4058,-3.74015 1.93751,-7.37174 2.32,-11.09 l 2.44,-11.52 3.13,-11.55 c 0.86417,-2.57647 1.86984,-8.02068 2.58,-10.64 1.01659,-4.04119 1.55942,-5.69856 2.45,-9.77 0.82,-2.93 1.43,-5.51 2.29,-8.42 0.3463,-2.7466 1.1803,-5.37224 2.02,-8 0.47576,-3.46159 1.75898,-6.75551 2.83,-10.07 0.84,-3.09 1.97,-6.09 2.81,-9.18 1.27351,-3.21106 1.37438,-4.94423 2.52,-8.2 0.29782,-2.0735 2.01322,-7.93367 2.83,-9.84 2.19099,-5.92877 0.60034,-2.32217 3.53,-9.05 1.77781,-5.52244 1.99091,-6.09242 3.19,-9.81 0.90091,-1.92684 1.94185,-4.24794 3.18,-9.14 1.88433,-4.67095 2.37553,-5.49471 2.89,-7.55 0.88,-2.24 2.83,-6.13 3.51,-8.43 2.06,-4.23 2.03093,-8.08645 7.13093,-9.52645 2.11,-0.18 3.1634,0.0974 5.2734,0.12741 2.81,1.25 5.91567,6.36904 6.53567,9.61904 l 2.42,10.34 c 1.0975,2.1325 1.86687,6.50438 2.76672,9.01297 0.89984,2.50859 3.13015,6.3539 4.74953,9.03328 1.61938,2.67938 3.22781,5.89281 5.28391,8.43766 2.05609,2.54484 5.35984,5.62109 7.16984,7.22609 3.1325,2.6725 5.465,4.65688 7.25156,6.02344 1.78656,1.36656 4.5086,3.09015 9.17594,5.11656 l 8.8468,3.29383 8.9757,2.30617 9.655,2.06 10.855,1.26 8.485,0.625 10.485,-0.575 10.035,-1.76 7.235,-2.16 7.285,-2.5775 6.485,-3.3775 7.77,-5.555 7.52,-6.2075 7.12,-7.8075 3.84,-6.815 c 0.46,-1.08 4.93,-10.54 5.42,-11.6 l 3.46,-13.94 c 0.43,-4.97 1.8952,-10.20153 1.8952,-10.20153 z"
     id="path2480"
     sodipodi:nodetypes="cccccccccccccccccccscccsccscccccccccccccccczcccsccccccccscccccccccccccccccccccccccssscszccccccccccccccccc"
     inkscape:connector-curvature="0"
     style="fill:#fefefe" />
  <path
     d="m 511.21987,470.22703 c 2.72,-0.47 2.41456,-0.12127 8.9066,4.44596 6.86405,5.23442 5.35403,2.83721 11.07282,8.11202 8.54057,6.33462 6.47039,5.67677 13.40643,11.79394 6.15333,5.42686 6.20023,5.50788 8.80023,9.98288 l 1.19867,5.20615 -2.19307,6.42924 c -2.95,4.89 -5.94155,7.21278 -10.50155,10.73278 -1.8,1.84 -3.63,3.65 -5.57,5.33 -2.875,0.43 -5.7125,1.4725 -7.38,1.8875 -1.6675,0.415 -5.765,1.4025 -7.16,4.1225 -0.95,0.57 -3.91,5.95 -4.87,6.52 -0.76,-1.19 -3.1,-15.57 -3.83,-16.75 l -3.37,-12.71 c -1.95,-6.68 -2.88,-15.52 -4.97,-22.15 l -0.21,-6.17 c 1.35881,-2.99971 2.17708,-6.37508 3.37421,-9.44134 z"
     id="path2482"
     sodipodi:nodetypes="cccscccccscccccccc"
     inkscape:connector-curvature="0"
     style="fill:#fefefe" />
  <path
     d="m 227.75585,471.74942 c 4.70627,-2.39587 1.72246,-0.84621 1.72246,-0.84621 3.33,3.42 4.8991,7.97943 6.55776,11.96092 -0.0309,4.44337 1.13143,5.28337 0.34393,8.66587 -0.7875,3.3825 -1.99,9.925 -2.82,13.23 -1.63,5.98 -3.44,10.71 -5.2,16.66 -1.75,7.18 -1.57,7.96 -3.73,15.04 -0.78,-0.02 -2.77,9.16 -3.55,9.15 -1.24,-2.74 -2.49,-6.05 -4.51,-8.27 -0.47,-0.33 -6.2,-2.18 -6.66,-2.51 -4.51,-1.94 -6.24,-0.47 -10.97,-0.15 -1.33,0.31 -10.96,-14 -11.71,-14.86 -4.40768,-7.86433 -2.62306,-3.63384 -6.33294,-13.60702 0.1,-2.74 -0.12146,-4.8474 2.16294,-6.16298 0.3,-0.19 9.01139,-5.35817 9.31139,-5.55817 9.38638,-6.60587 0.12189,-0.7124 9.84653,-6.66519 9.01511,-6.64741 0.19583,0.29288 8.60394,-5.87578 l 8.67306,-5.30346 c 1.9264,-1.02973 8.26093,-4.89798 8.26093,-4.89798 z"
     id="path2484"
     sodipodi:nodetypes="cccsccccccccccccccc"
     inkscape:connector-curvature="0"
     style="fill:#fefefe" />
</svg>
