<svg xmlns="http://www.w3.org/2000/svg" viewBox="0 0 433.16 161.72"><defs><style>.cls-1{fill:#e41e3d;}.cls-2{fill:#1d1d1b;}.cls-3{fill:#a1b9da;}.cls-4{fill:#fff;}.cls-5{fill:#921824;}</style></defs><g id="Calque_2" data-name="Calque 2"><g id="Calque_1-2" data-name="Calque 1"><path class="cls-1" d="M199.63,92.32c13.41,0,22.33,8.19,22.33,20.33S213,133,199.63,133h-15V92.32Zm0,33.19c8.44,0,14-5,14-12.86s-5.58-12.87-14-12.87h-6.74v25.73Z"/><path class="cls-1" d="M257.53,133h-8v-2.73a12.9,12.9,0,0,1-9.52,3.64c-7.29,0-12.14-5.22-12.14-12.75V102.7h8v16.75c0,4.24,2.43,7.1,6.13,7.1,4.55,0,7.52-3,7.52-10.44V102.7h8Z"/><path class="cls-1" d="M287.57,120.66l7.4,1.88c-1.7,6.92-8,11.35-15.17,11.35-8.86,0-16.2-6.5-16.2-16s7.34-16.08,16.2-16.08A15.57,15.57,0,0,1,295,113l-7.71,2.19c-1.09-4.25-3.94-6-7.46-6-5,0-8.44,3.58-8.44,8.74s3.4,8.68,8.44,8.68C283.32,126.55,286.17,124.85,287.57,120.66Z"/><path class="cls-1" d="M330.72,114.53V133h-8V116.23c0-4.25-2.42-7.1-6.12-7.1-4.56,0-7.53,3-7.53,10.44V133h-8V89.29h8v16.14a12.89,12.89,0,0,1,9.53-3.64C325.86,101.79,330.72,107,330.72,114.53Z"/><path class="cls-1" d="M367.07,120H344c.78,4.37,3.88,7,7.58,7,2.37,0,5.34-.3,7.53-4l7.16,1.51c-2.67,6.31-8.07,9.35-14.69,9.35-8.56,0-15.53-6.5-15.53-16s7-16.08,15.65-16.08c8.07,0,15.05,6.25,15.36,15.47Zm-22.82-5.64h14.62a7,7,0,0,0-7.16-5.59A7.61,7.61,0,0,0,344.25,114.35Z"/><path class="cls-1" d="M378.66,123.33c.42,3.09,3.09,4.13,6.25,4.13,3,0,4.73-1.34,4.73-3,0-1.09-.73-2.18-3.33-2.73l-6.19-1.27c-5.47-1.16-8.56-4.25-8.56-8.62,0-5.83,4.73-10,12.38-10,7.16,0,12.14,3.7,13.17,9l-7.65,1.51c-.3-2.42-2.43-4.18-5.76-4.18s-4.13,1.57-4.13,3c0,1,.36,2,2.73,2.55l7.22,1.58c5.34,1.15,8,4.49,8,8.55,0,6.68-5.4,10.14-13.29,10.14-6.67,0-12.8-2.61-13.59-8.92Z"/><path class="cls-1" d="M408.58,123.33c.42,3.09,3.09,4.13,6.25,4.13,3,0,4.73-1.34,4.73-3,0-1.09-.73-2.18-3.34-2.73L410,120.42c-5.46-1.16-8.55-4.25-8.55-8.62,0-5.83,4.73-10,12.38-10,7.16,0,12.13,3.7,13.17,9l-7.65,1.51c-.3-2.42-2.43-4.18-5.77-4.18s-4.12,1.57-4.12,3c0,1,.36,2,2.73,2.55l7.22,1.58c5.34,1.15,7.95,4.49,7.95,8.55,0,6.68-5.4,10.14-13.29,10.14-6.67,0-12.8-2.61-13.59-8.92Z"/><path class="cls-2" d="M189.53,51.57v28h2.88a3.71,3.71,0,0,1,2.45.65,2.4,2.4,0,0,1,0,3.45,3.65,3.65,0,0,1-2.45.66h-7.64V46.81h7.61a3.56,3.56,0,0,1,2.45.67,2.36,2.36,0,0,1,0,3.43,3.61,3.61,0,0,1-2.45.66Z"/><path class="cls-2" d="M223.45,69.2H211.89l-1.16,2.9h1.16a3.65,3.65,0,0,1,2.45.66,2.23,2.23,0,0,1,.73,1.73,2.19,2.19,0,0,1-.73,1.71,3.65,3.65,0,0,1-2.45.66h-6.41A3.63,3.63,0,0,1,203,76.2a2.22,2.22,0,0,1-.73-1.73,2.19,2.19,0,0,1,.77-1.74,3.65,3.65,0,0,1,2.53-.63l7.47-18.62H210a3.65,3.65,0,0,1-2.45-.66,2.41,2.41,0,0,1,0-3.46,3.64,3.64,0,0,1,2.45-.67l10.29,0,9.47,23.38a4.44,4.44,0,0,1,2.21.37,2.39,2.39,0,0,1,1.07,2,2.21,2.21,0,0,1-.72,1.71,3.6,3.6,0,0,1-2.44.66h-6.41A3.63,3.63,0,0,1,221,76.2a2.39,2.39,0,0,1,0-3.44,3.63,3.63,0,0,1,2.45-.66h1.16Zm-2-4.76L217.65,55l-3.86,9.43Z"/><path class="cls-2" d="M259,46.74V72.1h.82a3.65,3.65,0,0,1,2.44.66,2.38,2.38,0,0,1,0,3.44,3.65,3.65,0,0,1-2.45.66h-5.58V75.7a13.84,13.84,0,0,1-7.08,1.93,12,12,0,0,1-8.64-3.1,10.21,10.21,0,0,1-3.27-7.72,11.18,11.18,0,0,1,3.44-8.25,11.45,11.45,0,0,1,8.38-3.41,11.88,11.88,0,0,1,3.64.57,14.33,14.33,0,0,1,3.53,1.71V51.5h-.81a3.63,3.63,0,0,1-2.45-.66,2.38,2.38,0,0,1,0-3.43,3.57,3.57,0,0,1,2.45-.67ZM254.24,67a6.8,6.8,0,0,0-2.06-5,7.28,7.28,0,0,0-10.11,0A6.72,6.72,0,0,0,240,66.88a5.57,5.57,0,0,0,1.86,4.31,7.52,7.52,0,0,0,5.24,1.68,7.59,7.59,0,0,0,5.25-1.68A5.44,5.44,0,0,0,254.24,67Z"/><path class="cls-2" d="M290.89,66.71A10.23,10.23,0,0,1,289.36,72a10.74,10.74,0,0,1-4.52,4.09,13.81,13.81,0,0,1-6.28,1.52,13.65,13.65,0,0,1-6.23-1.5,10.9,10.9,0,0,1-4.53-4.07,10.36,10.36,0,0,1-1.55-5.39,11.46,11.46,0,0,1,6.12-9.94,12.93,12.93,0,0,1,12.44,0,11,11,0,0,1,4.54,4.35A11.24,11.24,0,0,1,290.89,66.71Zm-4.76,0a6.38,6.38,0,0,0-1.65-4.23A8,8,0,0,0,273.17,62,6.43,6.43,0,0,0,271,66.76a5.59,5.59,0,0,0,2.18,4.17,8.42,8.42,0,0,0,10.75,0A5.59,5.59,0,0,0,286.13,66.74Z"/><path class="cls-2" d="M303.05,74.24V82h2.86a3.65,3.65,0,0,1,2.45.66,2.22,2.22,0,0,1,.73,1.73,2.19,2.19,0,0,1-.73,1.71,3.65,3.65,0,0,1-2.45.66h-8.43a3.63,3.63,0,0,1-2.45-.66,2.19,2.19,0,0,1-.73-1.71A2.22,2.22,0,0,1,295,82.7a3.65,3.65,0,0,1,2.44-.66h.81V60.54h-.81a3.63,3.63,0,0,1-2.45-.66,2.22,2.22,0,0,1-.73-1.73,2.19,2.19,0,0,1,.73-1.71,3.63,3.63,0,0,1,2.45-.66h5.57V57.4a13,13,0,0,1,3.46-1.69,12.33,12.33,0,0,1,3.67-.56,11.56,11.56,0,0,1,8.32,3.31A10.25,10.25,0,0,1,321.93,66a9.36,9.36,0,0,1-4.06,7.78,12.6,12.6,0,0,1-11.26,2A15.56,15.56,0,0,1,303.05,74.24Zm14.12-8.17a5.9,5.9,0,0,0-.79-2.55A6.55,6.55,0,0,0,314,60.94a7.17,7.17,0,0,0-3.85-1,6.78,6.78,0,0,0-5.64,2.67,5.87,5.87,0,0,0-1.42,3.53,5.08,5.08,0,0,0,2,3.71,8,8,0,0,0,10.07,0A5.08,5.08,0,0,0,317.17,66.07Z"/><path class="cls-2" d="M338.23,60.54v9.54a2.48,2.48,0,0,0,.63,2,5.83,5.83,0,0,0,3.48.77,14.75,14.75,0,0,0,6.74-1.56,4.49,4.49,0,0,1,1.85-.6,2.19,2.19,0,0,1,1.62.7,2.34,2.34,0,0,1,.68,1.69,2.1,2.1,0,0,1-.74,1.6,11.06,11.06,0,0,1-4.49,2,22.3,22.3,0,0,1-5.66.92c-3,0-5.17-.64-6.65-1.92a6,6,0,0,1-2.22-4.7V60.54h-1.72a3.65,3.65,0,0,1-2.45-.66,2.25,2.25,0,0,1-.73-1.73,2.22,2.22,0,0,1,.73-1.71,3.65,3.65,0,0,1,2.45-.66h1.72v-4.3a3.65,3.65,0,0,1,.66-2.45,2.22,2.22,0,0,1,1.73-.73,2.19,2.19,0,0,1,1.71.73,3.65,3.65,0,0,1,.66,2.45v4.3H347a3.63,3.63,0,0,1,2.45.66,2.22,2.22,0,0,1,.73,1.73,2.19,2.19,0,0,1-.73,1.71,3.63,3.63,0,0,1-2.45.66Z"/><path class="cls-2" d="M404.57,76.86V75.75a15.61,15.61,0,0,1-3.94,1.43,18.85,18.85,0,0,1-3.93.47,9.24,9.24,0,0,1-6.22-2,5.83,5.83,0,0,1-2.39-4.49c0-2,1-3.85,3.05-5.56S396,63,399.58,63a31.2,31.2,0,0,1,5,.46V62.33a2.07,2.07,0,0,0-.91-1.75,6.46,6.46,0,0,0-3.5-.67,23.75,23.75,0,0,0-5.48.84,9,9,0,0,1-1.95.3,2.15,2.15,0,0,1-1.61-.69,2.41,2.41,0,0,1-.67-1.75,2.13,2.13,0,0,1,.24-1,1.78,1.78,0,0,1,.65-.71,7.67,7.67,0,0,1,1.74-.64,30.27,30.27,0,0,1,3.6-.78,21.84,21.84,0,0,1,3.32-.29,10.89,10.89,0,0,1,6.88,1.92,6.25,6.25,0,0,1,2.45,5.23v9.8h.82a3.65,3.65,0,0,1,2.45.66,2.26,2.26,0,0,1,.73,1.73,2.22,2.22,0,0,1-.73,1.71,3.65,3.65,0,0,1-2.45.66Zm0-8.52a27.76,27.76,0,0,0-5.27-.56,8.71,8.71,0,0,0-5,1.42c-.87.6-1.3,1.22-1.3,1.83a1.28,1.28,0,0,0,.63,1.1,5.71,5.71,0,0,0,3.18.76,13.29,13.29,0,0,0,3.89-.67,14.21,14.21,0,0,0,3.86-1.84Z"/><path class="cls-2" d="M428.4,79.53v-28h-2.88a3.63,3.63,0,0,1-2.45-.66,2.38,2.38,0,0,1,0-3.43,3.57,3.57,0,0,1,2.45-.67h7.64V84.29h-7.62a3.63,3.63,0,0,1-2.45-.66,2.39,2.39,0,0,1,0-3.44,3.63,3.63,0,0,1,2.45-.66Z"/><path class="cls-3" d="M80.86,0a80.86,80.86,0,1,0,80.86,80.86A80.86,80.86,0,0,0,80.86,0Z"/><path class="cls-2" d="M118.15,116.51a30.64,30.64,0,0,0-3.21-6.31,7.63,7.63,0,0,1-1.42-4.15c1.22-2.73,2.39-6,.93-9.15-.73-1.56-3.24-5.43-11-7.51l-.58,2.15c6.81,1.83,8.93,5,9.52,6.29,1.21,2.62-.15,5.6-1.36,8.23a14.14,14.14,0,0,0-1.47,4.26c-.31,3.6,4.12,8.26,4.62,8.78a1.14,1.14,0,0,0,.8.34,1.18,1.18,0,0,0,.64-.2l2.08-1.45A1.1,1.1,0,0,0,118.15,116.51Z"/><path class="cls-2" d="M58.8,91.54c-6.8,1.83-8.92,5-9.51,6.29-1.21,2.62.15,5.6,1.35,8.23a14.14,14.14,0,0,1,1.47,4.26c.32,3.6-4.11,8.26-4.62,8.78a1.1,1.1,0,0,1-.79.34,1.15,1.15,0,0,1-.64-.2L44,117.79a1.11,1.11,0,0,1-.42-1.28,31.25,31.25,0,0,1,3.22-6.31,7.72,7.72,0,0,0,1.42-4.15c-1.22-2.74-2.4-6-.93-9.15.73-1.56,3.24-5.43,11-7.51Z"/><path class="cls-4" d="M109.74,121.3c-1.61-9.25-4.81-20-7.33-28.42l-.53-1.78H59.47c-8.37,26.6-10.86,44.22-6.81,48.61,5.7,6.18,10.8,2.18,16.71-2.47,3.68-2.89,7.48-5.87,11.45-5.87,3.66,0,7.29,2.78,11.14,5.73,6.92,5.31,11.81,8.37,16.6,2.8,1.62-1.89,2.24-5.11,2.18-9.12A70.84,70.84,0,0,0,109.74,121.3Z"/><path class="cls-2" d="M79.59,47.28C77.22,50.37,65,66.85,58.76,86c-7,21.42-14,48.38-7.73,55.2,2.6,2.83,5.15,3.9,7.64,3.9,4.27,0,8.33-3.19,12.07-6.13,3.54-2.78,6.88-5.4,10.08-5.4,2.9,0,6.25,2.56,9.79,5.28,5.84,4.48,13.12,10.06,19.63,2.48,4.23-4.93,2.88-16.4,0-28.59-1.9-8.69-4.67-18.15-7.47-26.74-6.4-19.57-19-36.33-21-38.92m26.77,92.8c-4.79,5.57-9.68,2.51-16.6-2.8-3.85-2.95-7.48-5.73-11.14-5.73-4,0-7.77,3-11.45,5.87-5.91,4.65-11,8.65-16.71,2.47-4-4.39-1.56-22,6.81-48.61h42.41l.53,1.78c2.52,8.45,5.72,19.17,7.33,28.42a70.84,70.84,0,0,1,1,9.48C110.8,134.79,110.18,138,108.56,139.9Z"/><ellipse class="cls-1" cx="80.84" cy="90.52" rx="14.28" ry="11.91"/><path class="cls-2" d="M80.08,105.77a2.32,2.32,0,0,1-1,.43,3.9,3.9,0,0,1-1.31,0,4.25,4.25,0,0,1-1.23-.46,2,2,0,0,1-.71-.74l-1.64.89a4.61,4.61,0,0,0,3.31,2.19,4.87,4.87,0,0,0,.93.08,4.48,4.48,0,0,0,2.79-.9Z"/><path class="cls-2" d="M81.48,46.71a26.92,26.92,0,0,0-.66-36.09,26.92,26.92,0,0,0-.71,36Z"/><path class="cls-1" d="M107.56,67.84A18.46,18.46,0,0,1,108.8,73a2.1,2.1,0,0,1-1.67,2.34A2,2,0,0,1,104.75,74a4,4,0,0,1,0-1.71c.28-1.48.66-2.93,1-4.49a2.21,2.21,0,0,1-1.08-1.53,2.08,2.08,0,0,1,.81-2,.8.8,0,0,0,.3-.5q0-5.82,0-11.63a1.86,1.86,0,0,0,0-.26l-4,1.56-20.44,8a2.33,2.33,0,0,1-1.74,0L53.63,51.28a1.19,1.19,0,0,1-.2-.08l-.54-.48c.2-.17.36-.41.59-.49Q61,47.55,68.56,44.89c3.65-1.29,7.29-2.56,10.93-3.86a2.51,2.51,0,0,1,1.75,0q13,4.62,26.08,9.2c.6.21.61.28.37.84a1.29,1.29,0,0,0-.06.48q0,6,0,12a.91.91,0,0,0,.24.61,2.07,2.07,0,0,1-.16,3.58Z"/><path class="cls-5" d="M79.47,52.55c-3.18-.1-6.54,3.88-9.66,9.39H91.66C87.9,55.31,85.33,52.74,79.47,52.55Z"/></g></g></svg>