<svg xmlns="http://www.w3.org/2000/svg" xmlns:xlink="http://www.w3.org/1999/xlink" viewBox="0 0 585.37 161.72"><defs><style>.cls-1,.cls-9{fill:none;}.cls-2{fill:#e41e3d;}.cls-3{fill:#1d1d1b;}.cls-4{fill:#f7bca9;}.cls-10,.cls-5,.cls-8{fill:#fff;}.cls-5,.cls-8,.cls-9{stroke:#1d1e1c;}.cls-5,.cls-8{stroke-miterlimit:10;}.cls-5,.cls-9{stroke-width:2.25px;}.cls-6{fill:#1d1e1c;}.cls-7{clip-path:url(#clip-path);}.cls-8{stroke-width:1.89px;}.cls-9{stroke-linejoin:round;}.cls-11{fill:#fafcfd;}</style><clipPath id="clip-path"><rect class="cls-1" x="31.87" y="15.36" width="101.88" height="77.68"/></clipPath></defs><g id="Calque_2" data-name="Calque 2"><g id="Calque_1-2" data-name="Calque 1"><path class="cls-2" d="M199.63,92.32c13.41,0,22.33,8.19,22.33,20.33S213,133,199.63,133h-15V92.32Zm0,33.19c8.44,0,14-5,14-12.86s-5.58-12.87-14-12.87h-6.74v25.73Z"/><path class="cls-2" d="M257.53,133h-8v-2.73a12.9,12.9,0,0,1-9.52,3.64c-7.29,0-12.14-5.22-12.14-12.75V102.7h8v16.75c0,4.24,2.43,7.09,6.13,7.09,4.55,0,7.52-3,7.52-10.43V102.7h8Z"/><path class="cls-2" d="M287.57,120.66l7.4,1.88c-1.7,6.92-8,11.35-15.17,11.35-8.86,0-16.2-6.5-16.2-16s7.34-16.08,16.2-16.08A15.57,15.57,0,0,1,295,113l-7.71,2.19c-1.09-4.25-3.94-6-7.46-6-5,0-8.44,3.58-8.44,8.74s3.4,8.67,8.44,8.67C283.32,126.54,286.17,124.85,287.57,120.66Z"/><path class="cls-2" d="M330.72,114.53V133h-8V116.23c0-4.25-2.42-7.1-6.12-7.1-4.56,0-7.53,3-7.53,10.44V133h-8V89.29h8v16.14a12.89,12.89,0,0,1,9.53-3.64C325.86,101.79,330.72,107,330.72,114.53Z"/><path class="cls-2" d="M367.07,120H344c.78,4.37,3.88,7,7.58,7,2.37,0,5.34-.3,7.53-4l7.16,1.51c-2.67,6.31-8.07,9.35-14.69,9.35-8.56,0-15.53-6.5-15.53-16s7-16.08,15.65-16.08c8.07,0,15.05,6.25,15.36,15.47Zm-22.82-5.64h14.62a7,7,0,0,0-7.16-5.59A7.6,7.6,0,0,0,344.25,114.35Z"/><path class="cls-2" d="M378.66,123.33c.42,3.09,3.09,4.12,6.25,4.12,3,0,4.73-1.33,4.73-3,0-1.09-.73-2.18-3.33-2.73l-6.19-1.27c-5.47-1.16-8.56-4.25-8.56-8.62,0-5.83,4.73-10,12.38-10,7.16,0,12.14,3.7,13.17,9l-7.65,1.51c-.3-2.42-2.43-4.18-5.76-4.18s-4.13,1.57-4.13,3c0,1,.36,2,2.73,2.55l7.22,1.58c5.34,1.15,8,4.49,8,8.55,0,6.68-5.4,10.14-13.29,10.14-6.67,0-12.8-2.61-13.59-8.92Z"/><path class="cls-2" d="M408.58,123.33c.42,3.09,3.09,4.12,6.25,4.12,3,0,4.73-1.33,4.73-3,0-1.09-.73-2.18-3.34-2.73L410,120.42c-5.46-1.16-8.55-4.25-8.55-8.62,0-5.83,4.73-10,12.38-10,7.16,0,12.13,3.7,13.17,9l-7.65,1.51c-.3-2.42-2.43-4.18-5.77-4.18s-4.12,1.57-4.12,3c0,1,.36,2,2.73,2.55l7.22,1.58c5.34,1.15,7.95,4.49,7.95,8.55,0,6.68-5.4,10.14-13.29,10.14-6.67,0-12.8-2.61-13.59-8.92Z"/><path class="cls-3" d="M189.53,51.57v28h2.88a3.71,3.71,0,0,1,2.45.65,2.4,2.4,0,0,1,0,3.45,3.65,3.65,0,0,1-2.45.66h-7.64V46.81h7.61a3.61,3.61,0,0,1,2.45.66,2.24,2.24,0,0,1,.74,1.74,2.19,2.19,0,0,1-.74,1.7,3.61,3.61,0,0,1-2.45.66Z"/><path class="cls-3" d="M223.45,69.2H211.89l-1.16,2.9h1.16a3.65,3.65,0,0,1,2.45.66,2.23,2.23,0,0,1,.73,1.73,2.19,2.19,0,0,1-.73,1.71,3.65,3.65,0,0,1-2.45.66h-6.41A3.63,3.63,0,0,1,203,76.2a2.22,2.22,0,0,1-.73-1.73,2.19,2.19,0,0,1,.77-1.74,3.65,3.65,0,0,1,2.53-.63l7.47-18.62H210a3.65,3.65,0,0,1-2.45-.66,2.41,2.41,0,0,1,0-3.46,3.64,3.64,0,0,1,2.45-.67l10.29,0,9.47,23.38a4.44,4.44,0,0,1,2.21.37,2.39,2.39,0,0,1,1.07,2,2.21,2.21,0,0,1-.72,1.71,3.6,3.6,0,0,1-2.44.66h-6.41A3.63,3.63,0,0,1,221,76.2a2.39,2.39,0,0,1,0-3.44,3.63,3.63,0,0,1,2.45-.66h1.16Zm-2-4.76L217.65,55l-3.86,9.43Z"/><path class="cls-3" d="M243.26,55.78v1.6a9,9,0,0,1,2.87-1.67,10.1,10.1,0,0,1,3.4-.56,8.72,8.72,0,0,1,6.69,2.62,7.72,7.72,0,0,1,1.95,5.48V72.1a3.23,3.23,0,0,1,2.23.66,2.26,2.26,0,0,1,.72,1.73,2.22,2.22,0,0,1-.73,1.71,3.65,3.65,0,0,1-2.45.66h-4.3a3.63,3.63,0,0,1-2.45-.66,2.4,2.4,0,0,1,0-3.44,3.21,3.21,0,0,1,2.23-.66v-9a2.85,2.85,0,0,0-.84-2.28,4.94,4.94,0,0,0-3.27-.93,6.16,6.16,0,0,0-2.89.64,12.89,12.89,0,0,0-3.15,2.7V72.1a5.14,5.14,0,0,1,2.37.35,2.26,2.26,0,0,1,1.14,2A2.2,2.2,0,0,1,246,76.2a3.61,3.61,0,0,1-2.45.66h-5.41a3.65,3.65,0,0,1-2.45-.66,2.4,2.4,0,0,1,.39-3.75,5.27,5.27,0,0,1,2.39-.35V60.54a3.16,3.16,0,0,1-2.23-.68,2.23,2.23,0,0,1-.72-1.71,2.19,2.19,0,0,1,.73-1.71,3.65,3.65,0,0,1,2.45-.66Z"/><path class="cls-3" d="M273.7,55.78v1.6a9.14,9.14,0,0,1,2.87-1.67,10.1,10.1,0,0,1,3.4-.56,8.72,8.72,0,0,1,6.69,2.62,7.72,7.72,0,0,1,1.95,5.48V72.1a3.21,3.21,0,0,1,2.23.66,2.26,2.26,0,0,1,.72,1.73,2.19,2.19,0,0,1-.73,1.71,3.65,3.65,0,0,1-2.45.66h-4.3a3.65,3.65,0,0,1-2.45-.66,2.4,2.4,0,0,1,0-3.44,3.21,3.21,0,0,1,2.23-.66v-9a2.85,2.85,0,0,0-.84-2.28,4.93,4.93,0,0,0-3.27-.93,6.19,6.19,0,0,0-2.89.64,12.89,12.89,0,0,0-3.15,2.7V72.1a5.14,5.14,0,0,1,2.37.35,2.26,2.26,0,0,1,1.14,2,2.22,2.22,0,0,1-.73,1.71,3.65,3.65,0,0,1-2.45.66h-5.41a3.61,3.61,0,0,1-2.45-.66,2.22,2.22,0,0,1-.73-1.73,2.27,2.27,0,0,1,1.11-2,5.27,5.27,0,0,1,2.39-.35V60.54a3.18,3.18,0,0,1-2.23-.68,2.38,2.38,0,0,1,0-3.42,3.65,3.65,0,0,1,2.45-.66Z"/><path class="cls-3" d="M311.32,55.78V72.1H317a3.63,3.63,0,0,1,2.45.66,2.23,2.23,0,0,1,.73,1.73,2.19,2.19,0,0,1-.73,1.71,3.63,3.63,0,0,1-2.45.66H300.85a3.61,3.61,0,0,1-2.45-.66,2.39,2.39,0,0,1,0-3.44,3.61,3.61,0,0,1,2.45-.66h5.71V60.54h-3.83a3.63,3.63,0,0,1-2.44-.66,2.38,2.38,0,0,1,0-3.44,3.63,3.63,0,0,1,2.45-.66Zm-.65-9v5H305v-5Z"/><path class="cls-3" d="M339.44,71.08l5.13-10.54a5.6,5.6,0,0,1-2.44-.33A2.3,2.3,0,0,1,341,58.15a2.22,2.22,0,0,1,.73-1.71,3.65,3.65,0,0,1,2.45-.66h6.53a3.65,3.65,0,0,1,2.45.66,2.39,2.39,0,0,1,0,3.44,3.65,3.65,0,0,1-2.45.66h-.79l-8,16.32h-5l-8-16.32h-.67a3.61,3.61,0,0,1-2.45-.66,2.24,2.24,0,0,1-.74-1.73,2.2,2.2,0,0,1,.74-1.71,3.61,3.61,0,0,1,2.45-.66h6.38a3.6,3.6,0,0,1,2.43.66,2.22,2.22,0,0,1,.73,1.73,2.25,2.25,0,0,1-1.11,2,5.62,5.62,0,0,1-2.49.35Z"/><path class="cls-3" d="M381.79,68.73H362.26a6.16,6.16,0,0,0,2.64,3A9.89,9.89,0,0,0,370,72.87a29.59,29.59,0,0,0,7-1.14,11.91,11.91,0,0,1,2.51-.46,2.14,2.14,0,0,1,1.6.67,2.36,2.36,0,0,1,.65,1.7,2.05,2.05,0,0,1-.7,1.57c-.62.58-2.13,1.12-4.53,1.64a32.63,32.63,0,0,1-6.92.78,12.8,12.8,0,0,1-9.14-3.23,10.49,10.49,0,0,1-3.42-7.94,10.19,10.19,0,0,1,3.7-8.16,12.8,12.8,0,0,1,8.54-3.15,13.65,13.65,0,0,1,5.33,1,11.39,11.39,0,0,1,3.61,2.21,13.94,13.94,0,0,1,2.76,4.25,10.35,10.35,0,0,1,.74,4.08ZM376.52,64a7.4,7.4,0,0,0-2.85-3,9.22,9.22,0,0,0-8.39,0,7.66,7.66,0,0,0-2.88,3Z"/><path class="cls-3" d="M399.3,55.78v3A26,26,0,0,1,404,55.87a8.44,8.44,0,0,1,3.24-.72,7.16,7.16,0,0,1,4.5,1.72,3.15,3.15,0,0,1,1.49,2.37,2.36,2.36,0,0,1-.71,1.73,2.33,2.33,0,0,1-1.71.71,2.84,2.84,0,0,1-1.85-.89,2.78,2.78,0,0,0-1.75-.88,6.61,6.61,0,0,0-3,1.25,47.34,47.34,0,0,0-5,3.77V72.1h6.78a3.61,3.61,0,0,1,2.45.66,2.23,2.23,0,0,1,.73,1.73,2.19,2.19,0,0,1-.73,1.71,3.61,3.61,0,0,1-2.45.66H391.71a3.63,3.63,0,0,1-2.45-.66,2.39,2.39,0,0,1,0-3.44,3.63,3.63,0,0,1,2.45-.66h2.83V60.54h-1.72a3.65,3.65,0,0,1-2.45-.66,2.26,2.26,0,0,1-.73-1.73,2.22,2.22,0,0,1,.73-1.71,3.65,3.65,0,0,1,2.45-.66Z"/><path class="cls-3" d="M435.87,61.35a9.41,9.41,0,0,0-2.43-1.08,9.89,9.89,0,0,0-2.67-.36,8.94,8.94,0,0,0-4.39.91c-.48.26-.72.55-.72.86s.32.7,1,1a12.94,12.94,0,0,0,3.32.72,38.93,38.93,0,0,1,6.6,1.3,8,8,0,0,1,3.76,2.56,5.72,5.72,0,0,1,1.32,3.57,5.18,5.18,0,0,1-2.25,4.27A13.34,13.34,0,0,1,431,77.63a19,19,0,0,1-3.82-.36A13.83,13.83,0,0,1,424,76.21a2.8,2.8,0,0,1-.74.47,2.14,2.14,0,0,1-.82.16,2.26,2.26,0,0,1-1.77-.73,3.65,3.65,0,0,1-.66-2.45v-1.6a3.61,3.61,0,0,1,.66-2.45,2.22,2.22,0,0,1,1.73-.74,2.2,2.2,0,0,1,1.44.48,3.1,3.1,0,0,1,.9,1.64,7.29,7.29,0,0,0,2.63,1.4,11.82,11.82,0,0,0,3.53.48,10.43,10.43,0,0,0,5.08-1c.58-.34.86-.7.86-1.07q0-.93-1.23-1.53a17.82,17.82,0,0,0-5.08-1c-3.83-.4-6.38-1.17-7.67-2.32a5.35,5.35,0,0,1-1.92-4.18,5.2,5.2,0,0,1,2.16-4.25,11.94,11.94,0,0,1,7.66-2.32,15.64,15.64,0,0,1,3.17.31,12.93,12.93,0,0,1,2.91,1,4.16,4.16,0,0,1,.83-.49,1.77,1.77,0,0,1,.71-.16,2.06,2.06,0,0,1,1.62.73,3.69,3.69,0,0,1,.65,2.45v1.16a4.1,4.1,0,0,1-.37,2.11,2.43,2.43,0,0,1-3.53.54A2.49,2.49,0,0,1,435.87,61.35Z"/><path class="cls-3" d="M465.46,76.86V75.75a15.68,15.68,0,0,1-3.95,1.43,18.85,18.85,0,0,1-3.93.47,9.31,9.31,0,0,1-6.22-2A5.86,5.86,0,0,1,449,71.13c0-2,1-3.85,3-5.57S456.87,63,460.46,63a31.31,31.31,0,0,1,5,.46V62.33a2.08,2.08,0,0,0-.92-1.75,6.42,6.42,0,0,0-3.49-.67,23.67,23.67,0,0,0-5.48.84,9.07,9.07,0,0,1-2,.3,2.15,2.15,0,0,1-1.61-.69,2.41,2.41,0,0,1-.66-1.75,2.32,2.32,0,0,1,.23-1,1.9,1.9,0,0,1,.65-.7,7.67,7.67,0,0,1,1.74-.64,31.16,31.16,0,0,1,3.6-.78,21.84,21.84,0,0,1,3.32-.29,10.94,10.94,0,0,1,6.89,1.92,6.28,6.28,0,0,1,2.45,5.23v9.8H471a3.63,3.63,0,0,1,2.45.66,2.23,2.23,0,0,1,.73,1.73,2.19,2.19,0,0,1-.73,1.71,3.63,3.63,0,0,1-2.45.66Zm0-8.52a27.84,27.84,0,0,0-5.27-.56,8.75,8.75,0,0,0-5,1.42c-.86.6-1.3,1.22-1.3,1.83a1.28,1.28,0,0,0,.63,1.1,5.71,5.71,0,0,0,3.18.76,13.24,13.24,0,0,0,3.89-.67,14.13,14.13,0,0,0,3.87-1.84Z"/><path class="cls-3" d="M494,55.78V72.1h5.72a3.6,3.6,0,0,1,2.44.66,2.24,2.24,0,0,1,.74,1.73,2.2,2.2,0,0,1-.74,1.71,3.6,3.6,0,0,1-2.44.66H483.5a3.63,3.63,0,0,1-2.45-.66,2.39,2.39,0,0,1,0-3.44,3.63,3.63,0,0,1,2.45-.66h5.71V60.54h-3.83a3.65,3.65,0,0,1-2.44-.66,2.24,2.24,0,0,1-.74-1.73,2.19,2.19,0,0,1,.73-1.71,3.63,3.63,0,0,1,2.45-.66Zm-.65-9v5h-5.66v-5Z"/><path class="cls-3" d="M521.07,55.78v3a26,26,0,0,1,4.73-2.88,8.43,8.43,0,0,1,3.23-.72,7.21,7.21,0,0,1,4.51,1.72A3.15,3.15,0,0,1,535,59.24a2.36,2.36,0,0,1-.71,1.73,2.33,2.33,0,0,1-1.71.71,2.86,2.86,0,0,1-1.86-.89,2.76,2.76,0,0,0-1.74-.88,6.61,6.61,0,0,0-3,1.25,46.31,46.31,0,0,0-5,3.77V72.1h6.78a3.63,3.63,0,0,1,2.45.66,2.23,2.23,0,0,1,.73,1.73,2.19,2.19,0,0,1-.73,1.71,3.63,3.63,0,0,1-2.45.66H513.48A3.61,3.61,0,0,1,511,76.2a2.37,2.37,0,0,1,0-3.44,3.61,3.61,0,0,1,2.45-.66h2.83V60.54h-1.72a3.63,3.63,0,0,1-2.45-.66,2.23,2.23,0,0,1-.73-1.73,2.19,2.19,0,0,1,.73-1.71,3.63,3.63,0,0,1,2.45-.66Z"/><path class="cls-3" d="M564.45,68.73H544.92a6.09,6.09,0,0,0,2.63,3,9.89,9.89,0,0,0,5.12,1.14,29.59,29.59,0,0,0,7-1.14,12,12,0,0,1,2.51-.46,2.13,2.13,0,0,1,1.6.67,2.36,2.36,0,0,1,.65,1.7,2.05,2.05,0,0,1-.7,1.57c-.62.58-2.13,1.12-4.53,1.64a32.55,32.55,0,0,1-6.92.78,12.78,12.78,0,0,1-9.13-3.23,10.46,10.46,0,0,1-3.43-7.94,10.2,10.2,0,0,1,3.71-8.16A12.78,12.78,0,0,1,552,55.15a13.61,13.61,0,0,1,5.33,1,11.28,11.28,0,0,1,3.61,2.21,13.76,13.76,0,0,1,2.76,4.25,10.35,10.35,0,0,1,.75,4.08ZM559.18,64a7.42,7.42,0,0,0-2.86-3,9.2,9.2,0,0,0-8.38,0,7.53,7.53,0,0,0-2.88,3Z"/><path class="cls-3" d="M580.61,79.53v-28h-2.88a3.63,3.63,0,0,1-2.45-.66,2.18,2.18,0,0,1-.73-1.7,2.24,2.24,0,0,1,.73-1.74,3.63,3.63,0,0,1,2.45-.66h7.64V84.29h-7.62a3.65,3.65,0,0,1-2.45-.66,2.39,2.39,0,0,1,0-3.44,3.65,3.65,0,0,1,2.45-.66Z"/><path class="cls-4" d="M80.86,0a80.86,80.86,0,1,0,80.86,80.86A80.86,80.86,0,0,0,80.86,0Z"/><path class="cls-5" d="M80.53,48.8c3.2,4,8.62,7.71,22.84,39.19,8.29,18.36,17.61,55.86.39,58.59-7.7,1.23-14.48-11.6-23.27-11.6-9.53,0-18.89,19.46-29.37,8.09-5.9-6.4,1-33.3,8.08-54.83S80.53,48.8,80.53,48.8Z"/><circle class="cls-6" cx="69.09" cy="90.64" r="2.4"/><circle class="cls-6" cx="93.27" cy="90.64" r="2.4"/><g class="cls-7"><path class="cls-6" d="M80.53,48.8c3.2,4,8.62,7.71,22.84,39.19,8.29,18.36,17.61,55.86.39,58.59-7.7,1.23-14.48-11.6-23.27-11.6-9.53,0-18.89,19.46-29.37,8.09-5.9-6.4,1-33.3,8.08-54.83S80.53,48.8,80.53,48.8Z"/></g><ellipse class="cls-2" cx="81.57" cy="92.46" rx="14.47" ry="12.07"/><path class="cls-8" d="M80.22,108.65a3.78,3.78,0,0,1-3,.64,3.73,3.73,0,0,1-2.68-1.74"/><path class="cls-9" d="M57.78,92.4c-7,1.89-9.56,5.23-10.38,7-2.2,4.77,2.49,10,2.77,13.23s-4.37,8-4.37,8l-2.11-1.46A30.2,30.2,0,0,1,46.8,113a8.45,8.45,0,0,0,1.64-5.1"/><ellipse class="cls-6" cx="47.26" cy="115.67" rx="4.54" ry="2.07" transform="translate(-76.14 96.03) rotate(-58.74)"/><path class="cls-9" d="M103.37,88c3.6,5.33,9.9,15.52,17.54,15.52,5.86,0,10-8.59,11.1-11.64.66-1.81,10.9-1.78,10.9-1.78s-1.16,4-8.64,4a27.65,27.65,0,0,1-3.06,0"/><path class="cls-6" d="M132.7,92.88c.27,1.11,2.47,1.52,4.9.93s4.19-2,3.92-3.09a7.33,7.33,0,0,0-4.9-.93C134.18,90.39,132.43,91.77,132.7,92.88Z"/><path class="cls-10" d="M144,66.74c-1.11-1.46-1.67-2-2.79-2s-1.62.92-2.51,2-1.16,1.63-2.61,1.71-2.24-1.41-3.15-2.57a2.4,2.4,0,0,0-2.28-1.1,2.81,2.81,0,0,0-2.23,1.59,3.82,3.82,0,0,1-1.79,1.9v1.65h19.31s-.08-.75-.09-1.67A4.54,4.54,0,0,1,144,66.74Z"/><path class="cls-2" d="M145.82,65.14a1.75,1.75,0,0,0-1.75-1.76H128.35a1.76,1.76,0,0,0-1.75,1.76v3.13a3.82,3.82,0,0,0,1.79-1.9,2.81,2.81,0,0,1,2.23-1.59,2.4,2.4,0,0,1,2.28,1.1c.91,1.16,1.69,2.65,3.15,2.57s1.73-.65,2.61-1.71,1.4-2,2.51-2,1.68.52,2.79,2a4.54,4.54,0,0,0,1.86,1.51V65.14Z"/><path class="cls-10" d="M145.46,74.38c-1.35-1.91-2-2.61-3.37-2.58s-2,1.19-3,2.58-1.4,2.11-3.16,2.22-2.71-1.83-3.8-3.34a2.82,2.82,0,0,0-2.76-1.44,3.39,3.39,0,0,0-2.7,2.07c-1.31,2.6-2.49,2.71-3.5,2.71a2.27,2.27,0,0,1-1.29-.39V78.5h28.62s-.11-1-.12-2.36a2.52,2.52,0,0,1-1.51.46C148.24,76.6,146.81,76.28,145.46,74.38Z"/><path class="cls-2" d="M121.84,72.35v3.86a2.27,2.27,0,0,0,1.29.39c1,0,2.19-.11,3.5-2.71a3.39,3.39,0,0,1,2.7-2.07,2.82,2.82,0,0,1,2.76,1.44c1.09,1.51,2,3.44,3.8,3.34s2.1-.84,3.16-2.22,1.69-2.56,3-2.58,2,.67,3.37,2.58,2.78,2.22,3.37,2.22a2.52,2.52,0,0,0,1.51-.46V72.35a2.61,2.61,0,0,0-2.09-2.55H123.93A2.61,2.61,0,0,0,121.84,72.35Z"/><path class="cls-10" d="M149.42,85.39c-.59,0-2-.32-3.37-2.22s-2-2.61-3.37-2.58-2,1.19-3,2.58-1.4,2.11-3.16,2.22-2.71-1.83-3.8-3.34a2.83,2.83,0,0,0-2.76-1.43,3.34,3.34,0,0,0-2.69,2.06c-1.32,2.6-2.5,2.71-3.51,2.71s-1.89-.53-3.52-2.81a5.31,5.31,0,0,0-2.25-2l-.41-.16a3.33,3.33,0,0,0-.36,1.51v8h37.27s-.16-1.52-.16-3.38V82a3.48,3.48,0,0,0-.18-1.07A14.4,14.4,0,0,0,152.7,83C151.28,85.12,150.29,85.39,149.42,85.39Z"/><path class="cls-2" d="M150.91,78.59H120.56a3.4,3.4,0,0,0-3,1.87l.41.16a5.31,5.31,0,0,1,2.25,2c1.63,2.28,2.51,2.81,3.52,2.81s2.19-.11,3.51-2.71a3.34,3.34,0,0,1,2.69-2.06,2.83,2.83,0,0,1,2.76,1.43c1.09,1.51,2,3.45,3.8,3.34s2.1-.84,3.16-2.22,1.69-2.56,3-2.58,2,.67,3.37,2.58,2.78,2.22,3.37,2.22c.87,0,1.86-.27,3.28-2.4a14.4,14.4,0,0,1,1.41-2.09A3.39,3.39,0,0,0,150.91,78.59Z"/><path class="cls-11" d="M139.42,51.05a3.33,3.33,0,1,1-6.66,0c0-1.84,3.33-8.43,3.33-8.43S139.42,49.21,139.42,51.05Z"/><line class="cls-5" x1="136.21" y1="63.38" x2="136.21" y2="55.64"/><ellipse class="cls-6" cx="80.38" cy="30.14" rx="7.38" ry="18.66"/><polygon class="cls-2" points="109.61 67.44 80.85 47.28 109.61 27.13 109.61 67.44"/><polygon class="cls-2" points="52.1 27.13 80.85 47.28 52.1 67.44 52.1 27.13"/></g></g></svg>