<svg xmlns="http://www.w3.org/2000/svg" xmlns:xlink="http://www.w3.org/1999/xlink" viewBox="0 0 427.39 161.72"><defs><style>.cls-1,.cls-11,.cls-5{fill:none;}.cls-2{fill:#e41e3d;}.cls-3{fill:#1d1d1b;}.cls-4{fill:#88c8ac;}.cls-11,.cls-5,.cls-6,.cls-9{stroke:#1d1e1c;}.cls-5{stroke-linejoin:round;}.cls-5,.cls-6{stroke-width:2.22px;}.cls-6,.cls-9{fill:#fff;}.cls-11,.cls-6,.cls-9{stroke-miterlimit:10;}.cls-7{fill:#1d1e1c;}.cls-8{clip-path:url(#clip-path);}.cls-11,.cls-9{stroke-width:1.87px;}.cls-10{fill:#f8c762;}</style><clipPath id="clip-path"><rect class="cls-1" x="35.55" y="15.4" width="100.63" height="76.73"/></clipPath></defs><g id="Calque_2" data-name="Calque 2"><g id="Calque_1-2" data-name="Calque 1"><path class="cls-2" d="M199.63,92.32c13.41,0,22.33,8.19,22.33,20.33S213,133,199.63,133h-15V92.32Zm0,33.19c8.44,0,14-5,14-12.86s-5.58-12.87-14-12.87h-6.74v25.73Z"/><path class="cls-2" d="M257.53,133h-8v-2.73a12.9,12.9,0,0,1-9.52,3.64c-7.29,0-12.14-5.22-12.14-12.75V102.7h8v16.75c0,4.24,2.43,7.09,6.13,7.09,4.55,0,7.52-3,7.52-10.43V102.7h8Z"/><path class="cls-2" d="M287.57,120.66l7.4,1.88c-1.7,6.92-8,11.35-15.17,11.35-8.86,0-16.2-6.5-16.2-16s7.34-16.08,16.2-16.08A15.57,15.57,0,0,1,295,113l-7.71,2.19c-1.09-4.25-3.94-6-7.46-6-5,0-8.44,3.58-8.44,8.74s3.4,8.67,8.44,8.67C283.32,126.54,286.17,124.85,287.57,120.66Z"/><path class="cls-2" d="M330.72,114.53V133h-8V116.23c0-4.25-2.42-7.1-6.12-7.1-4.56,0-7.53,3-7.53,10.44V133h-8V89.29h8v16.14a12.89,12.89,0,0,1,9.53-3.64C325.86,101.79,330.72,107,330.72,114.53Z"/><path class="cls-2" d="M367.07,120H344c.78,4.37,3.88,7,7.58,7,2.37,0,5.34-.3,7.53-4l7.16,1.51c-2.67,6.31-8.07,9.35-14.69,9.35-8.56,0-15.53-6.5-15.53-16s7-16.08,15.65-16.08c8.07,0,15.05,6.25,15.36,15.47Zm-22.82-5.64h14.62a7,7,0,0,0-7.16-5.59A7.6,7.6,0,0,0,344.25,114.35Z"/><path class="cls-2" d="M378.66,123.33c.42,3.09,3.09,4.13,6.25,4.13,3,0,4.73-1.34,4.73-3,0-1.09-.73-2.18-3.33-2.73l-6.19-1.27c-5.47-1.16-8.56-4.25-8.56-8.62,0-5.83,4.73-10,12.38-10,7.16,0,12.14,3.7,13.17,9l-7.65,1.51c-.3-2.42-2.43-4.18-5.76-4.18s-4.13,1.57-4.13,3c0,1,.36,2,2.73,2.55l7.22,1.58c5.34,1.15,8,4.49,8,8.55,0,6.68-5.4,10.14-13.29,10.14-6.67,0-12.8-2.61-13.59-8.92Z"/><path class="cls-2" d="M408.58,123.33c.42,3.09,3.09,4.13,6.25,4.13,3,0,4.73-1.34,4.73-3,0-1.09-.73-2.18-3.34-2.73L410,120.42c-5.46-1.16-8.55-4.25-8.55-8.62,0-5.83,4.73-10,12.38-10,7.16,0,12.13,3.7,13.17,9l-7.65,1.51c-.3-2.42-2.43-4.18-5.77-4.18s-4.12,1.57-4.12,3c0,1,.36,2,2.73,2.55l7.22,1.58c5.34,1.15,7.95,4.49,7.95,8.55,0,6.68-5.4,10.14-13.29,10.14-6.67,0-12.8-2.61-13.59-8.92Z"/><path class="cls-3" d="M189.53,51.57v28h2.88a3.71,3.71,0,0,1,2.45.65,2.4,2.4,0,0,1,0,3.45,3.65,3.65,0,0,1-2.45.66h-7.64V46.81h7.61a3.56,3.56,0,0,1,2.45.67,2.36,2.36,0,0,1,0,3.43,3.61,3.61,0,0,1-2.45.66Z"/><path class="cls-3" d="M223.45,69.2H211.89l-1.16,2.9h1.16a3.65,3.65,0,0,1,2.45.66,2.23,2.23,0,0,1,.73,1.73,2.19,2.19,0,0,1-.73,1.71,3.65,3.65,0,0,1-2.45.66h-6.41A3.63,3.63,0,0,1,203,76.2a2.22,2.22,0,0,1-.73-1.73,2.19,2.19,0,0,1,.77-1.74,3.65,3.65,0,0,1,2.53-.63l7.47-18.62H210a3.65,3.65,0,0,1-2.45-.66,2.41,2.41,0,0,1,0-3.46,3.64,3.64,0,0,1,2.45-.67l10.29,0,9.47,23.38a4.44,4.44,0,0,1,2.21.37,2.39,2.39,0,0,1,1.07,2,2.21,2.21,0,0,1-.72,1.71,3.58,3.58,0,0,1-2.44.66h-6.41A3.63,3.63,0,0,1,221,76.2a2.39,2.39,0,0,1,0-3.44,3.63,3.63,0,0,1,2.45-.66h1.16Zm-2-4.76L217.65,55l-3.86,9.43Z"/><path class="cls-3" d="M242.17,74.24V82H245a3.61,3.61,0,0,1,2.45.66,2.22,2.22,0,0,1,.74,1.73,2.2,2.2,0,0,1-.74,1.71,3.61,3.61,0,0,1-2.45.66H236.6a3.61,3.61,0,0,1-2.45-.66,2.36,2.36,0,0,1,0-3.44A3.62,3.62,0,0,1,236.6,82h.81V60.54h-.81a3.61,3.61,0,0,1-2.45-.66,2.22,2.22,0,0,1-.74-1.73,2.2,2.2,0,0,1,.74-1.71,3.61,3.61,0,0,1,2.45-.66h5.57V57.4a12.89,12.89,0,0,1,3.46-1.69,12.28,12.28,0,0,1,3.67-.56,11.53,11.53,0,0,1,8.31,3.31A10.26,10.26,0,0,1,261.05,66,9.37,9.37,0,0,1,257,73.82a12.6,12.6,0,0,1-11.26,2A15.49,15.49,0,0,1,242.17,74.24Zm14.12-8.18a6.05,6.05,0,0,0-.79-2.54,6.65,6.65,0,0,0-2.43-2.58,7.11,7.11,0,0,0-3.84-1,6.81,6.81,0,0,0-5.65,2.67,5.85,5.85,0,0,0-1.41,3.53,5,5,0,0,0,2,3.7,7.25,7.25,0,0,0,5,1.8,7.34,7.34,0,0,0,5-1.78A5.12,5.12,0,0,0,256.29,66.06Z"/><path class="cls-3" d="M290.47,68.73H270.94a6.09,6.09,0,0,0,2.63,3,9.93,9.93,0,0,0,5.13,1.14,29.53,29.53,0,0,0,7-1.14,12,12,0,0,1,2.51-.46,2.13,2.13,0,0,1,1.6.67,2.36,2.36,0,0,1,.65,1.7,2.05,2.05,0,0,1-.7,1.57c-.61.58-2.12,1.12-4.52,1.64a32.7,32.7,0,0,1-6.92.78,12.79,12.79,0,0,1-9.14-3.23,10.46,10.46,0,0,1-3.43-7.94,10.2,10.2,0,0,1,3.71-8.16A12.78,12.78,0,0,1,278,55.15a13.61,13.61,0,0,1,5.33,1A11.28,11.28,0,0,1,287,58.38a13.78,13.78,0,0,1,2.77,4.25,10.53,10.53,0,0,1,.74,4.08ZM285.2,64a7.39,7.39,0,0,0-2.86-3.06,9.2,9.2,0,0,0-8.38,0A7.5,7.5,0,0,0,271.08,64Zm-3.37-15.8-5.22,4.25a2.35,2.35,0,0,1-1.33.63,1.53,1.53,0,0,1-1.1-.44,1.46,1.46,0,0,1-.45-1.09,2,2,0,0,1,.92-1.49l5.25-4.25a2.35,2.35,0,0,1,1.33-.63,1.5,1.5,0,0,1,1.1.45,1.43,1.43,0,0,1,.45,1.06A2,2,0,0,1,281.83,48.18Z"/><path class="cls-3" d="M308,55.78v3a26,26,0,0,1,4.72-2.88,8.48,8.48,0,0,1,3.24-.72,7.21,7.21,0,0,1,4.51,1.72,3.14,3.14,0,0,1,1.48,2.37,2.42,2.42,0,0,1-2.41,2.44,2.86,2.86,0,0,1-1.86-.89,2.76,2.76,0,0,0-1.74-.88,6.64,6.64,0,0,0-3,1.25A47.39,47.39,0,0,0,308,64.93V72.1h6.78a3.65,3.65,0,0,1,2.45.66,2.26,2.26,0,0,1,.73,1.73,2.22,2.22,0,0,1-.73,1.71,3.65,3.65,0,0,1-2.45.66H300.38a3.65,3.65,0,0,1-2.45-.66,2.39,2.39,0,0,1,0-3.44,3.65,3.65,0,0,1,2.45-.66h2.84V60.54H301.5a3.61,3.61,0,0,1-2.45-.66,2.22,2.22,0,0,1-.73-1.73,2.19,2.19,0,0,1,.73-1.71,3.61,3.61,0,0,1,2.45-.66Z"/><path class="cls-3" d="M351.77,66.71A10.31,10.31,0,0,1,350.25,72a10.71,10.71,0,0,1-4.53,4.09,13.78,13.78,0,0,1-6.28,1.52,13.61,13.61,0,0,1-6.22-1.5,10.78,10.78,0,0,1-4.53-4.07,10.28,10.28,0,0,1-1.56-5.39,11.46,11.46,0,0,1,6.12-9.94,13,13,0,0,1,6.19-1.58,13.14,13.14,0,0,1,6.26,1.61,11.09,11.09,0,0,1,4.54,4.35A11.33,11.33,0,0,1,351.77,66.71Zm-4.76,0a6.38,6.38,0,0,0-1.65-4.23A8,8,0,0,0,334.05,62a6.43,6.43,0,0,0-2.16,4.78,5.59,5.59,0,0,0,2.18,4.17,8.43,8.43,0,0,0,10.76,0A5.61,5.61,0,0,0,347,66.74Z"/><path class="cls-3" d="M367.51,79.53v-28h-2.88a3.65,3.65,0,0,1-2.45-.66,2.38,2.38,0,0,1,0-3.43,3.59,3.59,0,0,1,2.45-.67h7.64V84.29h-7.61a3.61,3.61,0,0,1-2.45-.66,2.39,2.39,0,0,1,0-3.44,3.61,3.61,0,0,1,2.45-.66Z"/><path class="cls-4" d="M80.86,0a80.86,80.86,0,1,0,80.86,80.86A80.86,80.86,0,0,0,80.86,0Z"/><path class="cls-5" d="M64.5,88.48C59,93.11,54.87,93.29,53,93c-5.1-.9-6.7-7.65-9.17-9.7s-9-1-9-1v2.54a29.92,29.92,0,0,0,6.73.92,8.43,8.43,0,0,1,5.07,1.55"/><path class="cls-6" d="M83.61,48.43c3.16,3.9,8.52,7.6,22.56,38.7,8.19,18.13,17.39,55.18.39,57.88-7.61,1.2-14.3-11.47-23-11.47-9.42,0-18.66,19.23-29,8-5.83-6.32,1-32.9,8-54.16S83.61,48.43,83.61,48.43Z"/><circle class="cls-7" cx="72.31" cy="89.75" r="2.37"/><circle class="cls-7" cx="96.2" cy="89.75" r="2.37"/><g class="cls-8"><path class="cls-7" d="M83.61,48.43c3.16,3.9,8.52,7.6,22.56,38.7,8.19,18.13,17.39,55.18.39,57.88-7.61,1.2-14.3-11.47-23-11.47-9.42,0-18.66,19.23-29,8-5.83-6.32,1-32.9,8-54.16S83.61,48.43,83.61,48.43Z"/></g><ellipse class="cls-2" cx="88.01" cy="91.54" rx="14.29" ry="11.92"/><path class="cls-9" d="M83.31,107.54a4.06,4.06,0,0,1-5.63-1.09"/><ellipse class="cls-7" cx="39.8" cy="83.71" rx="2.04" ry="4.48" transform="translate(-50.98 102.41) rotate(-76.21)"/><path class="cls-5" d="M108.13,91.49c6.94,1.86,9.45,5.17,10.25,6.91,2.17,4.7-2.46,9.86-2.73,13.06s4.31,7.92,4.31,7.92l2.09-1.45a29.74,29.74,0,0,0-3.08-6.05,8.38,8.38,0,0,1-1.61-5"/><ellipse class="cls-7" cx="118.52" cy="114.47" rx="2.04" ry="4.48" transform="translate(-42.2 78.14) rotate(-31.26)"/><ellipse class="cls-7" cx="83.47" cy="29.99" rx="7.29" ry="18.43"/><polygon class="cls-10" points="95.09 40.56 88.19 49.13 83.02 35.42 77.36 49.13 70.95 40.56 70.58 41.2 70.58 56.11 96.04 56.11 96.04 42.74 95.09 40.56"/><line class="cls-9" x1="37.14" y1="72.32" x2="40.93" y2="94.69"/><line class="cls-9" x1="37.98" y1="95.38" x2="43.92" y2="94.25"/><path class="cls-10" d="M36.9,72.37c5-.65,8.93-8.48,10.45-12.8L23.07,61.64C25.69,65.49,32,73,36.9,72.37Z"/><path class="cls-11" d="M47.58,54.68c.62,4.74-2,16.55-10.68,17.69C28.42,73.49,22.64,62.78,22,58"/></g></g></svg>