<?xml version="1.0" encoding="UTF-8" standalone="no"?>
<svg
   xmlns:dc="http://purl.org/dc/elements/1.1/"
   xmlns:cc="http://creativecommons.org/ns#"
   xmlns:rdf="http://www.w3.org/1999/02/22-rdf-syntax-ns#"
   xmlns:svg="http://www.w3.org/2000/svg"
   xmlns="http://www.w3.org/2000/svg"
   xmlns:xlink="http://www.w3.org/1999/xlink"
   xmlns:sodipodi="http://sodipodi.sourceforge.net/DTD/sodipodi-0.dtd"
   xmlns:inkscape="http://www.inkscape.org/namespaces/inkscape"
   width="1365.0291"
   height="1101.7365"
   viewBox="0 0 1092.0231 881.38916"
   version="1.1"
   id="svg2462"
   sodipodi:version="0.32"
   inkscape:version="0.48.4 r9939"
   sodipodi:docname="logo t-shirt.svg"
   inkscape:output_extension="org.inkscape.output.svg.inkscape"
   inkscape:export-filename="/home/eric/Bureau/logo t-shirt.png"
   inkscape:export-xdpi="82.012169"
   inkscape:export-ydpi="82.012169">
  <metadata
     id="metadata2497">
    <rdf:RDF>
      <cc:Work
         rdf:about="">
        <dc:format>image/svg+xml</dc:format>
        <dc:type
           rdf:resource="http://purl.org/dc/dcmitype/StillImage" />
        <dc:title></dc:title>
      </cc:Work>
    </rdf:RDF>
  </metadata>
  <defs
     id="defs2495">
    <filter
       inkscape:collect="always"
       id="filter3894"
       color-interpolation-filters="sRGB">
      <feGaussianBlur
         inkscape:collect="always"
         stdDeviation="0.37253705"
         id="feGaussianBlur3896" />
    </filter>
    <linearGradient
       inkscape:collect="always"
       id="linearGradient3807-9">
      <stop
         style="stop-color:#bb0000;stop-opacity:1;"
         offset="0"
         id="stop3809-3" />
      <stop
         style="stop-color:#bb0000;stop-opacity:0;"
         offset="1"
         id="stop3811-9" />
    </linearGradient>
    <linearGradient
       inkscape:collect="always"
       xlink:href="#linearGradient3807-9"
       id="linearGradient3864"
       gradientUnits="userSpaceOnUse"
       gradientTransform="translate(-31.339058,24.315533)"
       x1="739.13391"
       y1="303.5314"
       x2="816.57379"
       y2="303.5314" />
  </defs>
  <sodipodi:namedview
     inkscape:window-height="1145"
     inkscape:window-width="1920"
     inkscape:pageshadow="2"
     inkscape:pageopacity="0.0"
     guidetolerance="10.0"
     gridtolerance="10.0"
     objecttolerance="10.0"
     borderopacity="1.0"
     bordercolor="#666666"
     pagecolor="#ffffff"
     id="base"
     showgrid="false"
     inkscape:zoom="0.5"
     inkscape:cx="615.0669"
     inkscape:cy="444.23037"
     inkscape:window-x="0"
     inkscape:window-y="27"
     inkscape:current-layer="svg2462"
     inkscape:snap-global="false"
     inkscape:window-maximized="1"
     units="mm"
     fit-margin-top="40"
     fit-margin-left="120"
     fit-margin-right="120"
     fit-margin-bottom="40" />
  <g
     id="g3202"
     transform="translate(207.61569,59.500946)">
    <path
       inkscape:connector-curvature="0"
       id="path2466"
       d="m 339.69998,53.89419 c -0.99875,0.0475 -2.745,1.89 -3.45,2.725 -2.63,2.41 -1.555,2.135 -3.775,4.925 -1.13,1.53 -3.105,3.83 -4.225,5.35 -0.68,1.01 -4.545,6.025 -5.225,7.025 -3.6,6.03 -0.835,0.84 -4.625,6.75 -0.9,1.48 -3.005,4.975 -3.875,6.475 l -3.375,6.575 c -1.7296,2.800168 -2.70533,3.951224 -3.925,7.02545 l -3.85,8.65 c -0.66,1.65 -1.725,5.295 -2.425,6.925 l -2.7,9.375 -1,7.975 c -0.49,5.94 -0.045,3.84 -0.275,9.8 l -2.775,-1.125 -4.84999,-4.125 -5.475,-4.15 -6.75,-4.75 -7.95,-4.825 -8.325,-4.5 -8.725,-3.875 -8.925,-3.65 -9.425,-3.275 -8.35,-2.65 -9.525,-2.975 -9.275,-2.475 -7.425,-1.85045 -5.1,-0.7 c -1.56451,-0.138024 -1.5855,0.01264 -3.15,-0.125 -0.78816,0.0857 -1.58685,0.589296 -2.375,0.675 l -1.975,1.10045 -2.4,3.025 -2.725,5.125 -2.275,5.8 -2.825,8.2 -3.15,10.525 c -0.86136,2.8995 -2.01358,8.61729 -2.75,11.55 -0.21,1.09 -1.815,8.38499 -2.025,9.47499 -0.35,1.33 -1.66,9.65 -1.95,11 -0.53,1.92 -1.32,11.08 -1.85,13 -0.22,1.38 -0.44,11.145 -0.65,12.525 l -0.025,13.6 1.225,12.125 c 0.22,1.02 2.04,11.645 2.25,12.675 l 2.975,11.9 3.05,9.875 2.95,8.1 3.15,7.95 2.95,6.35 2.35,4.4 2.425,3.425 1.9,1.75 2.45,1.75 2.7,0.975 3.65,0.425 4.225,0.225 4.125,0.075 5.85,-0.175 7.1,-0.55 9.25,-0.975 10.825,-1.55 10.275,-2.2 10.15,-2.825 9.725,-3.1 7.6,-3 6.775,-3.075 6.9,-3.5 6.64999,-3.925 5.225,-3.45 c 0.495,-0.395 3.99288,-3.07464 5.8,-4.2 1.80712,-1.12535 1.92,-0.69 2.425,-1.075 l -3.875,10.125 -3.875,8.55 c -1.01,2.32 -3.275,6.2 -4.325,8.5 -1.5818,2.89317 -2.76755,6.66884 -4.55,9.4 l -4.77499,9.85 -5.025,11.275 -5.25,11.5 c -0.75,1.94 -4.745,10.26 -5.625,12.15 -2.21284,4.64755 -2.87318,6.08834 -4.775,10.875 -1,2.33 -2.805,7.45 -3.775,9.8 -1.44,2.95 -2.84,6.32 -4,9.4 -0.23,0.52 -4.71,11.155 -4.95,11.675 -4.15,9.09 -2.91,5.635 -6.6,14.925 -1.67179,3.70192 -4.46497,10.6241 -5.9,14.425 -1.979,6.03639 -3.43436,8.63011 -4.95,14.825 -0.46,1.23 -3.69,9.685 -4.15,10.925 -1.3,3.33 -7.79649,20.26033 -5.775,14.475 l -6.75,9.95 -5.05,6.45 c -2.98332,3.49579 1.09724,-0.74597 -6.775,7.975 l -7.375,6.5 -9.05,6.95 c -6.74084,5.06789 -3.91804,2.82413 -11.275,7.325 -6.30032,3.95078 -9.8,6.61 -11.6,7.45 -1.98,1 -11.225,8.69 -13.175,9.75 -7.43,4.07 -7.04,5.135 -13.85,10.175 -7.03,4.92 -5.375,2.005 -10.725,8.975 -1.05,3.06 -0.33,3.065 -0.15,6.275 0.74,2.25 5.95,9.69 6.95,11.85 l 5.65,10.075 7.65,13.6 c 0.32,3.06 -0.05,6.175 -0.75,9.175 -0.06,1.63 -0.05,4.86 -0.05,6.5 l 4.575,5.525 c 0.74,6.02 0.625,12.12 0.075,18.15 -0.92,1.76 -1.48,3.955 -3.3,5.025 -6.05,3 -13.505,1.655 -19.225,5.425 -0.4,1.07 -0.795,5.345 -1.225,6.425 0.02,1.98 1.645,3.575 1.775,5.575 1.46,3.43 2.325,3.44 5.225,5.75 2.67,1.75 5.49,3.29 8.45,4.5 1.3,0.41 9.41,1.22 10.7,1.7 l 9.5,-0.175 11.1,-0.975 c 0.32,1.81 -1.37,14.82 -1.1,16.65 0.22667,5.01333 -0.22228,10.18916 0.675,15.05 0.2822,1.52874 0.66196,5.45312 2,9.725 1.33804,4.27187 3.52445,8.72765 4.525,10.2 1.00054,1.47234 3.02144,3.93725 4.3,4.925 l 5.45,2.7 8.675,1.55 c 4.685,0.375 9.33875,-0.0262 13.9,-0.95 4.56124,-0.92375 9.02,-2.365 13.35,-4.075 5.56976,-2.84527 11.39308,-5.20294 16.725,-8.5 5.44,-2.62 9.865,-6.94 15.375,-9.45 5.83,-3.55 6.09,-4.265 12.2,-7.325 2.9476,-1.49067 8.35272,-4.45901 11.475,-5.55 1.2,-0.51 9.20499,-3.78 10.42499,-4.25 l 11.65,-2.6 12.425,-1.8 14.6,-0.575 c 0,0 9.45428,-0.0432 14.1,0.475 4.64573,0.5182 10.09789,1.9978 13.325,2.675 6.43412,1.35019 13,4.225 13,4.225 3.77797,1.50997 10.01549,4.48268 13.725,6.15 2.5,1.25 7.865,4.025 10.425,5.175 5.59,2.82 6.285,3.515 11.225,7.375 3.985,3.54 9.6725,8.24125 13.5,11.975 3.82751,3.73375 7.8,7.29 12.375,10.125 4.495,2.36 9.5275,3.49625 14.6,3.6 5.07251,0.10375 10.2,-0.83 14.875,-2.625 3.425,-2.17 6.205,-4.995 8.625,-8.15 2.42,-3.155 4.48,-6.625 6.425,-10.075 0.24,-0.49 3.125,-11.51 3.375,-12 l 3.475,-14.82496 c 0.31,-0.68 0.93,-18.835 1.65,-18.725 12.19,2.25 6.215,0.605 12.625,1.325 3.61,0.56 2.945,-0.095 12.925,-1.075 0.87503,0.75228 9.875,-4.8 9.875,-4.8 3.85,-3.94 2.755,-1.22 6.225,-5.95 0,0 1.29,-7.9 1.35,-8.35 -3.39,-6.3 -0.11,-0.52 -3.3,-6.1 -4.87,-3.95 -5.125,-3.65 -5.125,-3.65 -0.58,-0.12 -8.075,-1.375 -8.075,-1.375 -1.86883,-5.95301 -1.7006,-3.34892 -3.35,-12.475 -1.11,-7.71 -0.55,-7.41 -0.15,-11.4 3.14,-7.3 2.225,-5.925 2.575,-6.425 1.68,-4.42 3.565,-3.155 4.175,-7.775 0.18,-1.82 -0.055,-6.05 0.125,-7.85 3.52,-3.995 7.37125,-7.6725 11.125,-11.45 3.75375,-3.7775 7.82,-9.245 10.925,-13.6 0.44333,-1.86667 0.48167,-2.13333 0.925,-4 l -1.25,-5.075 c -2.28667,-3.155 -7.21333,-7.07 -9.5,-10.225 -4.025,-3.98 -4.18424,-4.0624 -12.275,-10.7 -9.14542,-7.50285 -8.78487,-8.18096 -15.05,-12.85 l -9.075,-7.975 c -5.13504,-3.63203 -11.5,-9.125 -11.5,-9.125 -4.83631,-3.60548 -5.23569,-4.11471 -9.525,-7.875 -4.58827,-4.72097 -5.93485,-6.49393 -9.55,-9.8 l -7.325,-9.825 c 3.88869,5.39395 0.12299,-1.56048 -3.525,-6.775 l -5.25,-9.675 c -1.01,-2.99 -1.935,-6.42 -2.975,-9.4 -0.15,-0.57 -2.85,-8.09 -3,-8.65 l -3.075,-9.4 c -1.83758,-4.8616 -3.85963,-10.18141 -6.05,-14.9 l -4.375,-11.65 c -0.68,-1.69 -3.975,-9.965 -4.675,-11.625 -0.89,-2.07 -3.96,-9.55 -4.75,-11.65 -3.02616,-6.81151 -2.31544,-4.08453 -5.275,-10.925 -1.61,-3.73 -5.105,-10.025 -6.775,-13.725 -1.55,-3.18 -4.22,-8.185 -5.6,-11.425 -1.35,-3.17 -4.11,-8.135 -5.5,-11.275 -1.218,-2.23262 -4.02341,-7.28207 -5.075,-9.6 l -5.375,-9.025 -5.825,-10.075 -5.6,-9.525 -3.9,-7.25 c -1.46092,-2.72416 -4.27572,-7.14399 -4.05,-7.6 l 10.75,6.975 9.5,5.2 8.975,3.625 10.175,3.3 12.05,3.1 c 1.72,0.24 10.86,2.245 12.6,2.475 2.58,0.53 8.02,0.915 10.6,1.475 l 11,0.9 10.375,0.5 8.25,-0.025 2.575,-0.725 2.675,-1.725 2.15,-2.85 3.075,-4.625 2.55,-5.35 2.775,-6.35 2.9,-7.65 3.375,-9.675 c 1.71,-5.06 1.61,-5.815 3,-10.975 0.73,-2.97 2.265,-10.725 3.075,-13.675 0.32,-1.99 1.32,-11.225 1.6,-13.225 l 0.9,-15.775 c 0.06,-5.3 0.025,-13.565 -0.575,-18.825 l -1.875,-13.275 -2.425,-12.52499 -3.55,-13.9 -3.05,-11.35 -2.625,-9.8 -2.625,-7.75 -2.1,-7.07545 -1.875,-4.025 -1.8,-3.675 -1.75,-2.4 -1.7,-1.225 -2.075,-1 -2.625,-0.7 -3.925,-0.07496 -5.025,0.375 -4.875,0.77492 -4,0.85 -5.5,1.525 -8.975,2.9 c -0.52,0.155 -3.95685,1.518248 -7.675,3.15 -3.71812,1.631752 -6.865,3.535 -7.375,3.70045 l -7.55,4.2 -6.825,4.475 -6.35,4.925 -7.625,6.45 -9.125,9.1 -7.525,7.15 c -0.72,-3.25 -0.955,-4.09 -1.225,-7.4 -0.78,-2.59 -1.88,-7.21 -2.8,-9.75 -0.55,-1.44 -2.71,-7.66 -3.25,-9.1 -0.64,-1.66 -2.865,-7.33 -3.475,-9 -1.74,-3.95045 -2.945,-7.38045 -4.725,-11.30045 -0.83,-2.09 -4.46,-8.565 -5.25,-10.675 -2.64,-5.54 -4.105,-6.875 -6.725,-12.425 -1.975,-3.435 -3.92875,-6.1275 -4.95,-7.825 -0.51062,-0.84875 -0.79172,-1.46094 -1.325,-2.175 -0.53328,-0.71406 -1.72,-1.537499 -3.25,-2.85 -0.95,0.055 -2.80124,-0.0975 -3.8,-0.05 z m 141.075,443.72544 c 1.85248,-0.18567 2.31947,0.60367 8,4.6 6.86405,5.23442 5.35621,2.82519 11.075,8.1 8.54057,6.33462 6.48896,5.68283 13.425,11.8 6.15333,5.42686 6.2,5.5 8.8,9.975 l 1.2,5.2 -2.2,6.45 c -2.95,4.89 -5.94,7.205 -10.5,10.725 -1.8,1.84 -3.635,3.645 -5.575,5.325 -2.875,0.43 -5.70749,1.485 -7.375,1.9 -1.6675,0.415 -5.78,1.38 -7.175,4.1 -0.95,0.57 -3.89,5.955 -4.85,6.525 -0.76,-1.19 -3.12,-15.57 -3.85,-16.75 l -3.35,-12.7 c -1.95,-6.68 -2.885,-15.52 -4.975,-22.15 l -0.225,-6.175 c 1.35881,-2.99971 2.17787,-6.38374 3.375,-9.45 l 3.3,-7.325 c 0.34,-0.0587 0.63536,-0.12347 0.9,-0.15 z m -281.72499,0.35 c -0.15768,0.0879 -0.9,0.475 -0.9,0.475 3.33,3.42 4.89133,7.96851 6.55,11.95 -0.0309,4.44337 1.1375,5.2925 0.35,8.675 -0.78751,3.3825 -1.995,9.92 -2.825,13.225 -1.63,5.98 -3.44,10.7 -5.2,16.65 -1.75,7.18 -1.565,7.97 -3.725,15.05 -0.78,-0.02 -2.77,9.16 -3.55,9.15 -1.24,-2.74 -2.505,-6.055 -4.525,-8.275 -0.47,-0.33 -6.19,-2.17 -6.65,-2.5 -4.51,-1.94 -6.245,-0.47 -10.975,-0.15 -1.33,0.31 -10.95,-14.015 -11.7,-14.875 -4.40768,-7.86433 -2.64012,-3.62682 -6.35,-13.6 0.1,-2.74 -0.1094,-4.83442 2.175,-6.15 0.3,-0.19 9,-5.375 9.3,-5.575 9.38638,-6.60587 0.12536,-0.69721 9.85,-6.65 9.01511,-6.64741 0.19188,0.29366 8.6,-5.875 l 8.675,-5.3 c 1.9264,-1.02973 8.275,-4.9 8.275,-4.9 2.35313,-1.19794 2.78267,-1.41293 2.625,-1.325 z"
       style="fill:#040202" />
    <path
       style="fill:#bb0000;fill-opacity:1"
       inkscape:connector-curvature="0"
       sodipodi:nodetypes="cccccccccssccccccccsccccsccccsc"
       id="path2468"
       d="m 425.25092,113.45658 9.99618,-6.23219 10.51664,-5.13179 11.12732,-3.414868 7.30894,-1.01026 4.74965,0.57013 2.94759,1.09256 2.10114,3.175808 3.26229,7.57326 4.77676,14.68652 c 1.14597,3.52337 2.35924,10.11472 4.54954,17.79451 2.1903,7.67979 3.94042,15.6349 4.58542,19.2849 1.45,7.6 2.14853,15.35 2.47853,23.03 0.63,7.66 -0.33,14.97 -0.74,22.66 -0.7,7.5 -2.07,14.91 -3.17,22.36 -1.59,7.89 -4.28,15.51 -6.87,23.12 -2.55,6.45 -4.46,13.37 -8.8,18.92 -1.43,2 -3.93,2.84 -6.3,2.98 -8.98,0.51 -17.93,-0.64 -26.85,-1.42 -6.24,-0.615 -12.425,-1.645 -18.54375,-2.98875 -6.11875,-1.34375 -12.17125,-3.00125 -18.14625,-4.87125 -7.83,-2.43 -14.84,-6.85 -21.74,-11.16 -5.44,-3.59 -11.07,-7.33 -14.86,-12.75 -1.92,-2.79 0.26,-6.01 1.23,-8.72 1.825,-4.145 2.8375,-8.6275 2.98125,-13.13125 0.14375,-4.50375 -0.58125,-9.02875 -2.23125,-13.25875 -2.09,-4.58 -5.11,-8.64 -7.62,-12.97 2.87,-6.44 6.15,-12.71 9.82,-18.73 4.3,-6.53 7.87,-13.5 12.22,-20 5.25,-8.285 11.145,-16.3725 17.9325,-23.545 6.7875,-7.1725 14.4675,-13.28858 23.2875,-17.91358 z" />
    <path
       style="fill:#bb0000;fill-opacity:1"
       inkscape:connector-curvature="0"
       sodipodi:nodetypes="cccccccccssccscccsscsccssscscccccccsccccccc"
       id="path2470"
       d="m 194.31229,111.96384 2.51452,-1.02437 2.48172,-0.60132 3.55492,0.0972 5.81767,1.22853 12.90812,3.72985 13.81543,5.3321 20.64125,8.87187 15.255,9.6875 c 3.19,2.61 7.76188,6.7325 12.17719,11.00328 4.41531,4.27078 8.67406,8.68984 11.23781,11.89297 5.1275,6.40625 9.875,13.14875 14.735,19.71375 1.98,3.33 5.53,6.57 4.81,10.77 -2.38,3.335 -4.81,6.755 -6.79875,10.38125 -1.98875,3.62621 -3.53625,7.45871 -4.15125,11.61871 -0.39,3.86 -0.08,8.6 0.58,12.43 1.12,4.11 3.02,6.95 4.68,10.85 -3.385,2.705 -8.6475,6.14187 -13.99687,9.45938 -5.34938,3.31749 -11.37817,6.50735 -15.31813,8.34312 l -14.825,6.9075 c -4.49,1.435 -12.03796,4.38269 -16.61892,5.45625 l -10.35541,2.42683 -9.22405,1.57829 -9.68275,1.53949 c -1.38798,0.22068 -5.52886,0.73162 -8.4748,0.93644 -2.94595,0.20481 -4.98362,-0.0633 -6.13643,-0.063 -2.30562,7.8e-4 -0.65646,-0.26689 -3.46896,-0.45439 l -3.32221,-1.49091 c -1.32,-1.04125 -2.73784,-2.25483 -3.76784,-3.51483 l -3.5641,-6.68734 -3.56409,-9.23292 -3.08044,-10.66391 -4.2875,-16.95375 -2.5025,-17.36625 c -0.55,-9.32 0.05,-6.65 -0.17,-15.97 -0.1,-2.86 0.245,-10.905 0.70625,-16.14125 0.46125,-5.23625 1.43875,-15.66375 1.80375,-18.48875 0.88,-6.25 2.13,-9.84 3.81,-15.96 l 3.14437,-10.46883 2.19461,-6.84373 2.65294,-6.2503 2.08725,-3.70471 1.7022,-2.37375 z" />
    <path
       style="fill:#bb0000;fill-opacity:1"
       inkscape:connector-curvature="0"
       sodipodi:nodetypes="ccsccccc"
       id="path2472"
       d="m 330.85092,198.63516 c 6.74,-1.61 14.35,-0.68 19.74,3.96 5.375,3.935 8.29,10.355 8.62625,16.91 0.33625,6.555 -1.90625,13.245 -6.84625,17.72 -5.4,5.92 -14.3,6.63 -21.71,5.05 -5.11,-0.97 -8.88,-4.96 -12.06,-8.79 -4.54,-5.51 -4.15,-13.28 -3.24,-19.93 2.22,-7.08 7.84,-13.72 15.49,-14.92 z" />
    <path
       style="fill:#bb0000;fill-opacity:1"
       inkscape:connector-curvature="0"
       sodipodi:nodetypes="cscscsccscsccscscscsccsc"
       id="path2474"
       d="m 328.29092,385.42516 c 4.665,-0.65 9.3925,-1.13 14.11375,-1.1925 4.72125,-0.0625 9.43625,0.2925 14.07625,1.3125 6.01,1.335 12.06,2.9425 17.84125,5.17375 5.78125,2.23125 11.29375,5.08625 16.22875,8.91625 4.165,3.57 8.335,7.3825 11.89,11.645 3.555,4.2625 6.495,8.975 8.2,14.345 1.98,6.79 2.93,13.93 2.41,20.99 -1.16,7.955 -4.31,15.365 -8.77125,21.94125 -4.46125,6.57625 -10.23375,12.31875 -16.63875,16.93875 -4.57,3.235 -9.5025,6 -14.6875,8.125 -5.185,2.125 -10.6225,3.61 -16.2025,4.285 -8.01,0.35 -16.09,0.45 -24.06,-0.46 -5.995,-0.955 -12.0775,-2.1025 -17.92125,-3.905 -5.84375,-1.8025 -11.44875,-4.26 -16.48875,-7.835 -4.035,-2.84 -7.9825,-5.98 -11.44125,-9.5525 -3.45875,-3.5725 -6.42875,-7.5775 -8.50875,-12.1475 -2.57,-5.62 -4.5775,-11.65 -5.585,-17.80375 -1.0075,-6.15375 -1.015,-12.43125 0.415,-18.54625 1.37,-4.4 3.3175,-8.615 5.73375,-12.5475 2.41625,-3.9325 5.30125,-7.5825 8.54625,-10.8525 3.57,-3.88 7.6,-7.42 12.42,-9.66 4.485,-2.18 9.115,-4.115 13.8625,-5.68375 4.7475,-1.56875 9.6125,-2.77125 14.5675,-3.48625 z" />
    <path
       transform="matrix(1.0293109,0,0,1.0293109,-9.111645,-12.095013)"
       style="fill:#ffffff;fill-opacity:1;stroke:#e9e9e9;stroke-width:4;stroke-linecap:butt;stroke-linejoin:miter;stroke-miterlimit:4;stroke-opacity:1;stroke-dasharray:none;filter:url(#filter3894)"
       inkscape:connector-curvature="0"
       sodipodi:nodetypes="csssssssccsccccccccccsssssszssscssscccccccccccssc"
       id="path2476"
       d="m 297.75092,402.91552 c 0.95875,-0.69375 1.95438,-1.32063 2.98063,-1.8841 1.02625,-0.56348 2.08312,-1.06356 3.16437,-1.50371 1.08125,-0.44016 2.18688,-0.82039 3.31063,-1.14418 1.12375,-0.32379 2.26562,-0.59113 3.41937,-0.80551 1.15375,-0.21438 2.31937,-0.37578 3.49062,-0.4877 1.17125,-0.11191 2.34813,-0.17433 3.52438,-0.19074 1.17625,-0.0164 2.35188,0.0132 3.52063,0.0854 1.16875,0.0722 1.5417,0.18684 2.69045,0.34059 l 1.68481,0.49021 1.57209,0.94102 c 0.24176,0.14472 1.51084,1.33195 1.51084,1.33195 l 1.10268,1.52546 0.87727,1.4691 0.56474,1.56065 0.33934,1.33525 0.20674,2.24548 -0.0187,1.85102 -0.20636,2.23689 -0.45497,2.13189 -0.84945,2.63905 -2.00105,3.33007 c -0.63622,0.76062 -1.8792,2.04686 -2.58765,2.71084 -0.70846,0.66398 -1.44591,1.26921 -2.1981,1.79484 -0.75218,0.52562 -1.73574,1.07717 -2.72112,1.77917 -0.98538,0.702 -1.74716,0.87822 -2.73203,1.32941 0,0 -1.69951,0.46664 -2.85764,0.80046 -1.15812,0.33382 -1.51021,0.34767 -2.37053,0.51076 l -2.75328,0.35051 c -0.75298,-10e-4 -1.79015,-0.0223 -2.14807,0.009 -0.35791,0.0315 -1.35916,-0.0453 -2.20253,-0.0842 -0.84337,-0.0389 -1.58521,-0.0961 -2.43865,-0.13834 -0.85344,-0.0422 -1.4511,-0.23912 -2.24448,-0.364 -0.79338,-0.12488 -1.55705,-0.29041 -2.29168,-0.49516 -0.73463,-0.20475 -1.36978,-0.51917 -2.00469,-0.84325 -0.63492,-0.32407 -1.15691,-0.71415 -1.89066,-1.1829 l -1.36612,-1.41682 -1.02801,-1.24776 -0.77442,-1.33229 -0.77443,-1.33228 -0.64456,-2.03059 -0.1374,-2.19963 0.17601,-2.65238 0.49288,-1.89341 0.54924,-1.72435 0.97186,-1.72435 1.02822,-1.55529 c 0.5734,-0.86733 1.20067,-1.68956 1.95261,-2.44381 0.75197,-0.75408 1.60617,-1.45477 2.56617,-2.12227 z" />
    <path
       style="fill:#fefefe"
       inkscape:connector-curvature="0"
       sodipodi:nodetypes="cccccccccccccccccccscccsccscccccccccccccccczcccsccccccccscccccccccccccccccccccccccssscszccccccccccccccccc"
       id="path2480"
       d="m 425.31612,438.77363 c 0.87973,-2.20405 1.36614,-2.17998 4.35596,-3.89842 3.11137,-0.17816 6.88012,1.15062 6.88012,1.15062 2.39665,2.91536 2.0363,3.08086 3.45872,6.35933 0,0 1.8502,6.02152 2.75,9.04 0.64,2.33 1.32,4.65 2.05,6.96 0.93229,3.4388 1.88111,6.87247 2.66,10.35 1.16133,3.85947 2.5909,10.95763 3.74,14.82 2.9,9.01 1.87,6.12 4.03,15.34 1.1,4.3 1.8,6.59 2.71,10.94 0.77231,2.98249 2.63473,9.59173 3.2,12.62 0.46,1.89 2.42,9.81 2.88,11.71 l 3.18,12.42 c 0.61066,2.65827 2.12008,11.27795 2.97,13.87 l 2.81,15.6 1.72,13.35 c 0.87,3.9 1.16,11.16 2.08,15.06 0.3,3.38 0.5,6.76 0.75,10.15 0.8,4.28 1.03,10.25 1.44,14.56 0.47,5.33 0.475,10.2825 0.22375,15.23 -0.25125,4.9475 -0.35875,13.09 -0.91375,18.4 l -1.85,12.42 -4.73,11.44 c -1.005,1.87 -2.82946,5.56743 -5.16375,7.0225 l -5.38625,3.3575 -6.62,0.18 c -0.955,-0.52 -4.79,-0.6725 -7.40875,-1.64625 -2.61875,-0.97375 -6.42125,-3.56875 -7.31125,-4.17375 -2.53,-2.21 -5.03,-4.46 -7.6,-6.61 l -0.24,-0.36 -10.77,-10.22 c -1.56,-0.77 -10.7,-7.97 -12.23,-8.75 -2.26344,-1.05484 -9.73793,-5.28609 -12.02,-6.3 -2.60672,-1.25338 -8.52019,-3.80227 -11.29,-4.61 -2.20422,-0.90527 -9.25345,-3.29286 -11.48,-4.14 -4.98,-1.41 -7.99,-1.91 -13.07,-2.88 -5.26,-1.12 -10.31,-0.95 -15.57,-2.01 -6.39,-0.03 -9.17,-0.15 -15.55,0.06 -3.98,0.63 -11.24,0.73 -15.22,1.33 -3.68,0.67 -8.58,1.69 -12.25,2.42 l -11.4,2.46 -9.61,4.31 -8.86,4.5 -9.04,5.36 c -4.15762,2.46514 -4.98,4.05 -10.46,7.18 -1.07,0.64 -6.94,4.09 -8.01,4.74 -3.15467,1.87725 -8.80692,4.78162 -12.06,6.48 -3.42019,1.34427 -5.25635,2.88517 -8.83,3.83 l -8.34,2.205 -6.34,0.605 -7.89,-1.31 -5.24,-4.03 -3.43,-4.405 -2.23,-6.405 -1.39,-7.21 -0.59,-8.01 c 0.27,-2.85 0.515,-5.605 0.415,-8.7525 -0.1,-3.1475 0.655,-8.2875 1.145,-11.1075 0.27,-2.02 1.68,-10.05 1.95,-12.07 0.42,-1.67 1.93,-10.96 2.25,-12.65 0.88,-3.55 0.7,-4.77 1.46,-8.34 0.58,-2.55 1.29,-5.47 1.64,-8.06 0.4058,-3.74015 1.93751,-7.37174 2.32,-11.09 l 2.44,-11.52 3.13,-11.55 c 0.86417,-2.57647 1.86984,-8.02068 2.58,-10.64 1.01659,-4.04119 1.55942,-5.69856 2.45,-9.77 0.82,-2.93 1.43,-5.51 2.29,-8.42 0.3463,-2.7466 1.1803,-5.37224 2.02,-8 0.47576,-3.46159 1.75898,-6.75551 2.83,-10.07 0.84,-3.09 1.97,-6.09 2.81,-9.18 1.27351,-3.21106 1.37438,-4.94423 2.52,-8.2 0.29782,-2.0735 2.01322,-7.93367 2.83,-9.84 2.19099,-5.92877 0.60034,-2.32217 3.53,-9.05 1.77781,-5.52244 1.99091,-6.09242 3.19,-9.81 0.90091,-1.92684 1.94185,-4.24794 3.18,-9.14 1.88433,-4.67095 2.37553,-5.49471 2.89,-7.55 0.88,-2.24 2.83,-6.13 3.51,-8.43 2.06,-4.23 2.03093,-8.08645 7.13093,-9.52645 2.11,-0.18 3.1634,0.0974 5.2734,0.12741 2.81,1.25 5.91567,6.36904 6.53567,9.61904 l 2.42,10.34 c 1.0975,2.1325 1.86687,6.50438 2.76672,9.01297 0.89984,2.50859 3.13015,6.3539 4.74953,9.03328 1.61938,2.67938 3.22781,5.89281 5.28391,8.43766 2.05609,2.54484 5.35984,5.62109 7.16984,7.22609 3.1325,2.6725 5.465,4.65688 7.25156,6.02344 1.78656,1.36656 4.5086,3.09015 9.17594,5.11656 l 8.8468,3.29383 8.9757,2.30617 9.655,2.06 10.855,1.26 8.485,0.625 10.485,-0.575 10.035,-1.76 7.235,-2.16 7.285,-2.5775 6.485,-3.3775 7.77,-5.555 7.52,-6.2075 7.12,-7.8075 3.84,-6.815 c 0.46,-1.08 4.93,-10.54 5.42,-11.6 l 3.46,-13.94 c 0.43,-4.97 1.8952,-10.20153 1.8952,-10.20153 z" />
    <g
       id="text3064"
       style="font-size:40px;font-style:normal;font-weight:normal;line-height:125%;letter-spacing:0px;word-spacing:0px;fill:#000000;fill-opacity:1;stroke:none;font-family:Sans"
       transform="matrix(0.79999999,0,0,0.79999999,-1.1329586e-5,0.01921764)" />
  </g>
</svg>
