<?xml version="1.0" encoding="UTF-8" standalone="no"?>
<svg
   xmlns:dc="http://purl.org/dc/elements/1.1/"
   xmlns:cc="http://creativecommons.org/ns#"
   xmlns:rdf="http://www.w3.org/1999/02/22-rdf-syntax-ns#"
   xmlns:svg="http://www.w3.org/2000/svg"
   xmlns="http://www.w3.org/2000/svg"
   xmlns:xlink="http://www.w3.org/1999/xlink"
   xmlns:sodipodi="http://sodipodi.sourceforge.net/DTD/sodipodi-0.dtd"
   xmlns:inkscape="http://www.inkscape.org/namespaces/inkscape"
   width="708.66138"
   height="336.61417"
   viewBox="0 0 566.92908 269.29133"
   version="1.1"
   id="svg2462"
   sodipodi:version="0.32"
   inkscape:version="0.48.4 r9939"
   sodipodi:docname="mug.svg"
   inkscape:output_extension="org.inkscape.output.svg.inkscape"
   inkscape:export-filename="/home/eric/Bureau/mug.png"
   inkscape:export-xdpi="82.012169"
   inkscape:export-ydpi="82.012169">
  <metadata
     id="metadata2497">
    <rdf:RDF>
      <cc:Work
         rdf:about="">
        <dc:format>image/svg+xml</dc:format>
        <dc:type
           rdf:resource="http://purl.org/dc/dcmitype/StillImage" />
        <dc:title></dc:title>
      </cc:Work>
    </rdf:RDF>
  </metadata>
  <defs
     id="defs2495">
    <linearGradient
       inkscape:collect="always"
       id="linearGradient3807">
      <stop
         style="stop-color:#bb0000;stop-opacity:1;"
         offset="0"
         id="stop3809" />
      <stop
         style="stop-color:#bb0000;stop-opacity:0;"
         offset="1"
         id="stop3811" />
    </linearGradient>
    <linearGradient
       inkscape:collect="always"
       xlink:href="#linearGradient3807"
       id="linearGradient3813"
       x1="739.13391"
       y1="303.5314"
       x2="816.57379"
       y2="303.5314"
       gradientUnits="userSpaceOnUse"
       gradientTransform="matrix(0.41719485,0,0,0.41719485,57.937696,-108.02935)" />
    <filter
       inkscape:collect="always"
       id="filter3894"
       color-interpolation-filters="sRGB">
      <feGaussianBlur
         inkscape:collect="always"
         stdDeviation="0.37253705"
         id="feGaussianBlur3896" />
    </filter>
    <linearGradient
       inkscape:collect="always"
       id="linearGradient3807-9">
      <stop
         style="stop-color:#bb0000;stop-opacity:1;"
         offset="0"
         id="stop3809-3" />
      <stop
         style="stop-color:#bb0000;stop-opacity:0;"
         offset="1"
         id="stop3811-9" />
    </linearGradient>
    <linearGradient
       inkscape:collect="always"
       xlink:href="#linearGradient3807-9"
       id="linearGradient3864"
       gradientUnits="userSpaceOnUse"
       gradientTransform="translate(-31.339058,24.315533)"
       x1="739.13391"
       y1="303.5314"
       x2="816.57379"
       y2="303.5314" />
    <filter
       inkscape:collect="always"
       id="filter3996"
       color-interpolation-filters="sRGB">
      <feGaussianBlur
         inkscape:collect="always"
         stdDeviation="3.2444846"
         id="feGaussianBlur3998" />
    </filter>
    <filter
       inkscape:collect="always"
       id="filter4000"
       x="-0.040613938"
       width="1.0812279"
       y="-0.17393795"
       height="1.347876"
       color-interpolation-filters="sRGB">
      <feGaussianBlur
         inkscape:collect="always"
         stdDeviation="3.2444846"
         id="feGaussianBlur4002" />
    </filter>
    <filter
       inkscape:collect="always"
       id="filter4008"
       color-interpolation-filters="sRGB">
      <feGaussianBlur
         inkscape:collect="always"
         stdDeviation="3.2444846"
         id="feGaussianBlur4010" />
    </filter>
    <filter
       inkscape:collect="always"
       id="filter4228"
       color-interpolation-filters="sRGB">
      <feGaussianBlur
         inkscape:collect="always"
         stdDeviation="5.3316268"
         id="feGaussianBlur4230" />
    </filter>
    <linearGradient
       inkscape:collect="always"
       id="linearGradient3807-6">
      <stop
         style="stop-color:#bb0000;stop-opacity:1;"
         offset="0"
         id="stop3809-0" />
      <stop
         style="stop-color:#bb0000;stop-opacity:0;"
         offset="1"
         id="stop3811-7" />
    </linearGradient>
    <linearGradient
       inkscape:collect="always"
       xlink:href="#linearGradient3807-6"
       id="linearGradient3813-9"
       x1="739.13391"
       y1="303.5314"
       x2="816.57379"
       y2="303.5314"
       gradientUnits="userSpaceOnUse"
       gradientTransform="translate(-31.339078,24.315529)" />
    <linearGradient
       inkscape:collect="always"
       id="linearGradient3807-9-1">
      <stop
         style="stop-color:#bb0000;stop-opacity:1;"
         offset="0"
         id="stop3809-3-0" />
      <stop
         style="stop-color:#bb0000;stop-opacity:0;"
         offset="1"
         id="stop3811-9-6" />
    </linearGradient>
    <linearGradient
       inkscape:collect="always"
       xlink:href="#linearGradient3807-9-1"
       id="linearGradient3864-1"
       gradientUnits="userSpaceOnUse"
       gradientTransform="translate(-31.339058,24.315533)"
       x1="739.13391"
       y1="303.5314"
       x2="816.57379"
       y2="303.5314" />
    <linearGradient
       y2="303.5314"
       x2="816.57379"
       y1="303.5314"
       x1="739.13391"
       gradientTransform="translate(-31.339058,24.315533)"
       gradientUnits="userSpaceOnUse"
       id="linearGradient3864-6"
       xlink:href="#linearGradient3807-9-0"
       inkscape:collect="always" />
    <linearGradient
       id="linearGradient3807-9-0"
       inkscape:collect="always">
      <stop
         id="stop3809-3-4"
         offset="0"
         style="stop-color:#bb0000;stop-opacity:1;" />
      <stop
         id="stop3811-9-3"
         offset="1"
         style="stop-color:#bb0000;stop-opacity:0;" />
    </linearGradient>
    <linearGradient
       gradientTransform="translate(-31.339078,24.315529)"
       gradientUnits="userSpaceOnUse"
       y2="303.5314"
       x2="816.57379"
       y1="303.5314"
       x1="739.13391"
       id="linearGradient3813-4"
       xlink:href="#linearGradient3807-5"
       inkscape:collect="always" />
    <linearGradient
       id="linearGradient3807-5"
       inkscape:collect="always">
      <stop
         id="stop3809-30"
         offset="0"
         style="stop-color:#bb0000;stop-opacity:1;" />
      <stop
         id="stop3811-70"
         offset="1"
         style="stop-color:#bb0000;stop-opacity:0;" />
    </linearGradient>
  </defs>
  <sodipodi:namedview
     inkscape:window-height="1145"
     inkscape:window-width="1920"
     inkscape:pageshadow="2"
     inkscape:pageopacity="0.0"
     guidetolerance="10.0"
     gridtolerance="10.0"
     objecttolerance="10.0"
     borderopacity="1.0"
     bordercolor="#666666"
     pagecolor="#ffffff"
     id="base"
     showgrid="false"
     inkscape:zoom="0.25"
     inkscape:cx="2002.4345"
     inkscape:cy="-192.46993"
     inkscape:window-x="0"
     inkscape:window-y="27"
     inkscape:current-layer="svg2462"
     inkscape:snap-global="false"
     inkscape:window-maximized="1"
     units="mm"
     fit-margin-top="40"
     fit-margin-left="120"
     fit-margin-right="120"
     fit-margin-bottom="40" />
  <path
     style="font-size:64.15940857px;font-style:normal;font-variant:normal;font-weight:normal;font-stretch:normal;line-height:125%;letter-spacing:0px;word-spacing:0px;fill:#969696;fill-opacity:1;stroke:none;filter:url(#filter4000);font-family:Liberation Sans;-inkscape-font-specification:Liberation Sans"
     d="m 800.8875,311.2625 c 0,15.375 0,30.75 0,46.125 7.76251,1.43959 12.07755,-0.56829 9.96875,-9 -2.17068,-8.46234 2.33444,-10.24889 10,-8.875 4.769,-1.43933 15.97961,3.56294 14.625,-4 2.23314,-8.55606 -8.92336,-3.72248 -14,-4.96875 -6.98521,0.77688 -13.20886,0.79219 -10.625,-8 -1.95748,-8.0929 9.2835,-2.98734 14,-4.40625 6.10399,0.0206 14.13235,1.96568 11.375,-6.875 -1.89378,-4.43955 -11.83458,-0.83209 -17,-2 -6.11458,0 -12.22917,0 -18.34375,0 l 0,1 0,1 z"
     id="path3872-1"
     inkscape:connector-curvature="0"
     transform="matrix(0.41719485,0,0,0.41719485,71.012194,-118.17366)" />
  <path
     style="font-size:64.15940857px;font-style:normal;font-variant:normal;font-weight:normal;font-stretch:normal;line-height:125%;letter-spacing:0px;word-spacing:0px;fill:#969696;fill-opacity:1;stroke:none;filter:url(#filter4000);font-family:Liberation Sans;-inkscape-font-specification:Liberation Sans"
     d="m 854.41875,318.8875 c -2.18529,8e-5 -4.43254,0.68699 -6,2.25 -0.91461,-2.89767 -12.62221,-3.52585 -9.21827,3.03075 0.22229,11.07006 0.0282,22.14671 0.0933,33.21925 7.75501,1.54667 11.58955,-0.82712 9.625,-9 0.99405,-6.31662 -2.32523,-15.19266 3.25,-19.96875 2.70966,-1.99133 8.16899,2.95536 6.96875,-2.0625 0.0921,-3.43252 1.02166,-7.77961 -3.40625,-7.46875 -0.44113,0.0334 -0.87355,-0.0892 -1.3125,0 z"
     id="path3874-8"
     inkscape:connector-curvature="0"
     transform="matrix(0.41719485,0,0,0.41719485,71.012194,-118.17366)" />
  <path
     style="font-size:64.15940857px;font-style:normal;font-variant:normal;font-weight:normal;font-stretch:normal;line-height:125%;letter-spacing:0px;word-spacing:0px;fill:#969696;fill-opacity:1;stroke:none;filter:url(#filter4000);font-family:Liberation Sans;-inkscape-font-specification:Liberation Sans"
     d="m 875.2,318.8875 c -7.48254,-0.59964 -15.25616,4.90917 -14.9375,12.9375 3.84224,-0.37973 10.58215,3.29352 10.4375,-2.4375 1.63365,-3.24841 7.67183,-3.10128 9.8125,-0.40625 1.52012,2.67895 0.28479,4.95403 -3.28069,3.81666 -7.55216,-0.54518 -17.61525,2.40454 -18.15681,11.37084 -1.44428,7.30002 4.58434,14.68087 12.15625,13.84375 4.16354,0.46526 8.80804,-2.09102 11.3125,-4.15625 2.38195,5.00771 8.99132,4.15721 13.40625,2.9375 -0.009,-3.78149 1.29273,-8.93949 -3.8125,-6.875 -2.59496,-0.93048 -0.37083,-6.01931 -1.1875,-8.0625 0.28855,-7.47065 1.36395,-18.46188 -7.375,-21.71875 -2.65111,-1.04851 -5.52835,-1.35988 -8.375,-1.25 z m 6.03125,22.5625 c 0.42161,5.61073 -7.49319,11.06593 -11.875,6.96875 -2.32046,-4.04062 1.68724,-8.30611 5.875,-7.53125 1.57297,0.34637 5.94997,-1.27194 6,0.5625 z"
     id="path3876-1"
     inkscape:connector-curvature="0"
     transform="matrix(0.41719485,0,0,0.41719485,71.012194,-118.17366)" />
  <path
     style="font-size:64.15940857px;font-style:normal;font-variant:normal;font-weight:normal;font-stretch:normal;line-height:125%;letter-spacing:0px;word-spacing:0px;fill:#969696;fill-opacity:1;stroke:none;filter:url(#filter4000);font-family:Liberation Sans;-inkscape-font-specification:Liberation Sans"
     d="m 914.23125,318.8875 c -3.04751,-0.31064 -6.62565,1.56786 -8.625,2.71875 0.6657,-3.32288 -11.68025,-3.7412 -9.3125,0.4375 0.34777,11.7751 0.0649,23.5635 0.15625,35.34375 7.75501,1.54667 11.58955,-0.82712 9.625,-9 1.09756,-6.43524 -2.70175,-15.7236 3.375,-20.34375 3.17017,-1.93529 8.94145,-0.85878 8.28125,3.71875 0.23337,8.53578 0.0217,17.08457 0.0937,25.625 7.75625,1.52709 11.67869,-0.77965 9.6875,-9 -1.10692,-8.64762 2.73408,-19.4048 -3.59375,-26.59375 -2.56814,-2.41846 -6.2883,-3.0013 -9.6875,-2.90625 z"
     id="path3878-0"
     inkscape:connector-curvature="0"
     transform="matrix(0.41719485,0,0,0.41719485,71.012194,-118.17366)" />
  <path
     style="font-size:64.15940857px;font-style:normal;font-variant:normal;font-weight:normal;font-stretch:normal;line-height:125%;letter-spacing:0px;word-spacing:0px;fill:#969696;fill-opacity:1;stroke:none;filter:url(#filter4000);font-family:Liberation Sans;-inkscape-font-specification:Liberation Sans"
     d="m 945.98125,318.8875 c -9.44984,-0.22512 -15.88999,8.9376 -15.53125,17.8125 -0.99127,9.03033 3.38041,20.14121 13.53125,21.125 8.94877,1.98167 18.66443,-4.90245 18.3125,-14.375 -3.69374,0.45633 -10.33699,-2.99022 -10.1875,2.53125 -1.51275,5.76568 -11.11254,4.11973 -11.1875,-1.6875 -0.48803,-5.34265 -2.26076,-13.43909 3.21875,-16.625 4.20369,-1.72801 8.72186,1.06885 8.3125,5.875 3.36391,-1.06579 11.83144,1.60845 9.15625,-4.125 -1.6138,-6.92257 -8.72939,-11.19839 -15.625,-10.53125 z"
     id="path3880-5"
     inkscape:connector-curvature="0"
     transform="matrix(0.41719485,0,0,0.41719485,71.012194,-118.17366)" />
  <path
     style="font-size:64.15940857px;font-style:normal;font-variant:normal;font-weight:normal;font-stretch:normal;line-height:125%;letter-spacing:0px;word-spacing:0px;fill:#969696;fill-opacity:1;stroke:none;filter:url(#filter4000);font-family:Liberation Sans;-inkscape-font-specification:Liberation Sans"
     d="m 978.79375,318.8875 c -9.54196,-0.39349 -16.7369,8.70873 -16.27422,17.90471 -0.9502,8.95819 3.55059,19.89889 13.55547,20.90779 8.25131,1.74703 18.38726,-1.96929 20.28125,-11.03125 -4.01933,-0.74909 -9.06672,-4.60114 -10.375,0.78125 -4.03726,4.71014 -13.29033,2.18516 -13.28125,-4.375 1.50503,-3.47552 10.53148,-0.39312 14.8125,-1.4375 4.42384,-0.16188 11.0287,1.74757 9.0625,-4.75 0.39236,-8.98214 -6.11987,-18.42918 -15.8125,-18 -0.65565,-0.0259 -1.31332,-0.0553 -1.96875,0 z m 0.875,8.15625 c 3.68385,-0.40397 6.49862,2.78031 6.84375,6.25 -4.00621,-0.76507 -11.64717,1.47024 -13.59375,-1 0.78043,-3.16729 3.41794,-5.43408 6.75,-5.25 z"
     id="path3882-0"
     inkscape:connector-curvature="0"
     transform="matrix(0.41719485,0,0,0.41719485,71.012194,-118.17366)" />
  <path
     style="font-size:110.82358551px;font-style:normal;font-variant:normal;font-weight:bold;font-stretch:normal;line-height:125%;letter-spacing:0px;word-spacing:0px;fill:#969696;fill-opacity:1;stroke:none;filter:url(#filter3996);font-family:Liberation Sans;-inkscape-font-specification:Liberation Sans Bold"
     d="m 635.7,370.48125 c 0.61716,15.10314 -1.21114,30.416 0.84375,45.40625 1.39141,10.51711 11.98945,17.5056 22.1875,16.1875 6.03798,-0.24677 12.09497,-3.32385 15.5625,-8.15625 -0.88949,6.24235 2.25892,8.51873 8.4375,7.09375 4.03576,-0.86927 12.93812,2.77895 10.34375,-4.25 -0.63627,-19.41532 -0.10896,-38.85596 -0.28125,-58.28125 -6.39583,0 -12.79167,0 -19.1875,0 -0.68077,13.37924 1.37372,27.33813 -1.03125,40.375 -1.11558,6.64243 -10.56806,11.00422 -15.125,5.25 -4.81359,-8.18531 -1.54116,-18.68444 -2.53125,-27.78125 -0.65781,-5.62344 1.32275,-13.88525 -1,-17.84375 -6.07292,0 -12.14583,0 -18.21875,0 l 0,1 0,1 z"
     id="path3885-8"
     inkscape:connector-curvature="0"
     transform="matrix(0.41719485,0,0,0.41719485,71.012194,-118.17366)" />
  <path
     style="font-size:110.82358551px;font-style:normal;font-variant:normal;font-weight:bold;font-stretch:normal;line-height:125%;letter-spacing:0px;word-spacing:0px;fill:#969696;fill-opacity:1;stroke:none;filter:url(#filter3996);font-family:Liberation Sans;-inkscape-font-specification:Liberation Sans Bold"
     d="m 729.23125,367.41875 c -12.65711,-0.21815 -24.48494,8.88309 -27,21.375 -3.57703,14.3939 -0.63472,33.57127 14.1875,40.40625 14.07068,6.53587 34.65438,2.49538 40.84375,-13.03125 1.15317,-2.70312 1.65729,-5.62342 2.03125,-8.53125 -6.42744,-0.28321 -12.85525,-0.56116 -19.28125,-0.875 0.23517,5.80923 -4.10364,12.06865 -10.4375,10.90625 -8.17806,-1.36455 -8.60603,-11.63748 -8.6875,-18.1875 -0.0532,-6.697 0.85743,-17.68869 9.71875,-17.65625 5.59489,-0.51576 8.87403,4.89532 8.9375,9.96875 6.48925,-0.33983 12.97958,-0.65862 19.46875,-1 -1.16236,-12.09166 -11.29171,-22.27147 -23.46103,-23.15528 -2.09507,-0.22982 -4.21359,-0.29751 -6.32022,-0.21972 z"
     id="path3887-6"
     inkscape:connector-curvature="0"
     transform="matrix(0.41719485,0,0,0.41719485,71.012194,-118.17366)" />
  <path
     style="font-size:110.82358551px;font-style:normal;font-variant:normal;font-weight:bold;font-stretch:normal;line-height:125%;letter-spacing:0px;word-spacing:0px;fill:#969696;fill-opacity:1;stroke:none;filter:url(#filter3996);font-family:Liberation Sans;-inkscape-font-specification:Liberation Sans Bold"
     d="m 766.0125,348.73125 c 0,27.42708 0,54.85417 0,82.28125 6.40625,0 12.8125,0 19.21875,0 0.55806,-13.17837 -1.10003,-26.65673 0.78125,-39.65625 0.97583,-6.65994 9.90235,-11.70489 15.03125,-6.3125 5.44559,7.98803 1.81569,18.91816 2.90625,28.1875 0.65987,5.60054 -1.32603,13.84686 1,17.78125 6.05208,0 12.10417,0 18.15625,0 -0.6186,-15.76909 1.21276,-31.75413 -0.84375,-47.40625 -1.52085,-10.78184 -12.47389,-17.78016 -22.9375,-16.09375 -5.48666,0.42968 -10.79384,2.97648 -14.1875,7.375 0.20983,-9.38284 0.038,-18.77125 0.0937,-28.15625 -6.40625,0 -12.8125,0 -19.21875,0 l 0,1 0,1 z"
     id="path3889-3"
     inkscape:connector-curvature="0"
     transform="matrix(0.41719485,0,0,0.41719485,71.012194,-118.17366)" />
  <path
     style="font-size:110.82358551px;font-style:normal;font-variant:normal;font-weight:bold;font-stretch:normal;line-height:125%;letter-spacing:0px;word-spacing:0px;fill:#969696;fill-opacity:1;stroke:none;filter:url(#filter3996);font-family:Liberation Sans;-inkscape-font-specification:Liberation Sans Bold"
     d="m 858.54375,367.41875 c -12.73257,-0.29839 -24.80881,8.65676 -27.0625,21.34375 -3.01774,14.23439 -0.83705,32.98618 13.5625,40.25 13.62744,6.36171 33.78923,3.52386 40.5625,-11.34375 2.55998,-3.84608 2.21401,-6.63531 -3.39492,-5.7292 -4.23246,0.83076 -12.09706,-3.65662 -13.66758,1.1042 -2.81415,7.98231 -16.27339,5.73315 -17.28125,-2.5625 -1.93732,-4.65836 -0.26749,-7.23233 5.125,-5.8125 10.5,0 21,0 31.5,0 0.59491,-13.30233 -2.87728,-29.89596 -16.65625,-35.28125 -4.00571,-1.62961 -8.3705,-2.13344 -12.6875,-1.96875 z m 0.75,13.5625 c 5.74264,-0.66682 9.42817,5.02221 9.65625,10.15625 -5.89561,-0.33884 -13.31995,0.66074 -18.3125,-0.46875 0.30789,-4.77412 3.33335,-9.83574 8.65625,-9.6875 z"
     id="path3891-7"
     inkscape:connector-curvature="0"
     transform="matrix(0.41719485,0,0,0.41719485,71.012194,-118.17366)" />
  <path
     style="font-size:110.82358551px;font-style:normal;font-variant:normal;font-weight:bold;font-stretch:normal;line-height:125%;letter-spacing:0px;word-spacing:0px;fill:#969696;fill-opacity:1;stroke:none;filter:url(#filter3996);font-family:Liberation Sans;-inkscape-font-specification:Liberation Sans Bold"
     d="m 917.7,367.41875 c -10.43607,0.0328 -22.87257,5.86829 -23.65625,17.53125 -1.63947,9.55195 5.88828,18.12344 14.95829,19.97331 6.90546,2.90527 15.58204,1.80362 21.41671,6.68294 2.29135,4.61011 -3.88935,6.71653 -7.46875,6.375 -5.60587,0.53412 -13.70155,0.15106 -14.28999,-7.02845 -4.5758,-1.18339 -11.73536,1.48413 -17.31268,1.79521 0.61577,8.70601 8.58556,17.03245 17.69642,18.29574 12.39508,2.0848 28.31894,2.18314 36.65625,-8.8125 6.49641,-9.09503 2.61058,-23.47887 -8.1875,-27.28125 -7.84308,-3.83282 -17.40752,-3.1509 -24.875,-7.5 -2.59287,-3.01591 1.59939,-6.29405 4.625,-5.78125 4.97733,-0.84983 12.74138,-0.37323 12.93633,6.23249 4.45652,1.50424 11.85883,-0.91495 17.45699,-0.99083 -0.27682,-10.50633 -10.64455,-18.63296 -20.98707,-19.17916 -2.94542,-0.44729 -5.98474,-0.44027 -8.96875,-0.3125 z"
     id="path3893-6"
     inkscape:connector-curvature="0"
     transform="matrix(0.41719485,0,0,0.41719485,71.012194,-118.17366)" />
  <path
     style="font-size:110.82358551px;font-style:normal;font-variant:normal;font-weight:bold;font-stretch:normal;line-height:125%;letter-spacing:0px;word-spacing:0px;fill:#969696;fill-opacity:1;stroke:none;filter:url(#filter3996);font-family:Liberation Sans;-inkscape-font-specification:Liberation Sans Bold"
     d="m 979.3875,367.41875 c -10.43884,0.0312 -22.83914,5.86064 -23.65625,17.53125 -1.63649,9.54325 5.87549,18.1298 14.95829,19.97331 6.86994,2.91065 15.53455,1.79167 21.35421,6.62044 2.45498,4.58209 -3.80421,6.82997 -7.40625,6.4375 -5.62587,0.54922 -13.67372,0.12465 -14.28999,-7.02845 -4.5758,-1.18339 -11.73536,1.48413 -17.31268,1.79521 0.61577,8.70601 8.58556,17.03245 17.69642,18.29574 12.39508,2.0848 28.31894,2.18314 36.65625,-8.8125 6.494,-9.09514 2.6176,-23.47832 -8.1875,-27.28125 -7.9048,-3.86155 -17.35225,-3.17861 -24.875,-7.5 -2.58293,-3.01067 1.59448,-6.29923 4.625,-5.78125 4.99716,-0.84855 12.72178,-0.38726 12.93633,6.23249 4.45652,1.50424 11.85887,-0.91495 17.45697,-0.99083 -0.2658,-10.54378 -10.68206,-18.62055 -21.0183,-19.21041 -2.96304,-0.38224 -5.95583,-0.42669 -8.9375,-0.28125 z"
     id="path3895-5"
     inkscape:connector-curvature="0"
     transform="matrix(0.41719485,0,0,0.41719485,71.012194,-118.17366)" />
  <path
     style="fill:#969696;fill-opacity:1;stroke:none;filter:url(#filter4008)"
     d="m 493.075,300.04375 c 0,46.26042 0,92.52083 0,138.78125 12.38321,-7.24259 27.54481,-3.19175 41.075,-2.58191 14.71455,1.61011 29.70899,1.93074 44.425,0.67566 21.39462,-3.95315 35.18906,-24.01855 42.03125,-43.25 10.48521,-25.88453 5.14629,-57.30348 -12.96875,-78.46875 -10.31108,-12.25318 -26.40161,-18.84378 -42.40625,-17.15625 -21.5961,-1.64697 -43.05866,5.0589 -64.5625,1.90625 -2.71767,0.55653 -8.03813,-5.52913 -7.59375,-1.21875 l 0,1 0,0.3125 z m 51.875,16.875 c 13.80745,-0.84812 27.79064,7.43484 32.1875,20.71875 5.93906,16.20297 5.09292,34.12318 3.15625,50.96875 -1.35838,12.03828 -10.30281,22.98859 -22.65902,24.92446 -6.02268,1.34674 -12.39784,1.21656 -18.59098,1.13804 -0.0625,-32.59375 -0.125,-65.1875 -0.1875,-97.78125 2.03125,0.0104 4.0625,0.0208 6.09375,0.0312 z"
     id="rect3071-2"
     inkscape:connector-curvature="0"
     transform="matrix(0.41719485,0,0,0.41719485,71.012194,-118.17366)" />
  <g
     id="g3336"
     transform="matrix(2.4909657,0,0,2.4909657,-287.98015,-18.215351)">
    <path
       transform="matrix(0.15446315,0,0,0.15446315,100.93376,1.7250196)"
       inkscape:connector-curvature="0"
       id="path2466-0"
       d="m 341.1625,56.51875 c -6.23103,2.120746 -8.46655,9.479632 -12.9375,13.84375 -10.68606,13.924791 -19.75533,29.166382 -26.0303,45.51273 -3.37706,9.30808 -5.97781,19.15169 -5.5322,29.17477 -26.92695,-23.93352 -62.1764,-35.08255 -96.55281,-43.29514 -6.54636,-2.002711 -14.54503,-0.31751 -16.98658,6.90121 -10.18029,21.6668 -14.85202,45.59817 -18.17936,69.14393 -4.44933,30.9946 1.38179,63.01201 13.42822,91.82837 4.01343,9.78819 9.28514,23.44995 22.13294,22.75466 34.5755,0.88611 69.96045,-6.86229 99.65759,-24.95803 2.42804,-0.59124 10.28995,-8.90665 7.37027,-3.04 -8.87038,20.06024 -19.24949,39.29564 -27.85503,59.54186 -10.66799,21.64407 -18.47497,44.55699 -28.79288,66.33287 -8.89296,19.26276 -13.86416,39.94912 -22.78431,59.14869 -8.92151,14.21787 -19.89002,27.19417 -34.00055,36.51658 -11.71381,8.31171 -24.61398,14.98976 -35.5625,24.25 -7.7324,4.06711 -13.6372,10.82207 -21.28125,14.96875 -5.04008,3.60334 -6.79591,10.66516 -3.15625,15.875 6.70185,10.79525 13.10529,21.99571 18.78125,33.25 0.29612,6.65322 -3.78623,14.72399 2.77816,19.54231 2.56592,5.44465 1.25501,12.49231 0.84684,18.42644 -1.97622,6.54467 -10.58989,4.53823 -15.71875,6.46875 -4.20214,0.71251 -7.93796,3.25793 -7.375,8 -1.38334,4.14189 1.34734,8.13233 2.96875,11.75 6.06355,6.34472 14.67604,9.77555 23.34375,10.03125 6.57018,0.71399 13.31388,-0.15723 19.90625,-0.6875 -1.73062,17.62834 -2.86201,37.74293 8.0625,52.625 6.75334,8.35603 19.28181,8.75492 29.25,7.59375 17.86638,-2.6385 33.61281,-12.76599 48.5,-22.3125 16.90378,-11.00024 35.77191,-19.873 56.17711,-21.5019 20.43675,-2.24444 41.69419,-0.86786 60.4229,8.09846 13.08978,6.01636 26.84741,11.61944 37.01387,22.05744 9.91314,8.57429 19.19267,20.46603 33.51112,20.6585 9.72258,0.74478 20.44434,-1.80853 26.15625,-10.3125 9.89644,-10.77133 11.11183,-25.776 14.6875,-39.40625 0.44609,-5.42135 0.625,-10.86467 1.125,-16.28125 7.99962,1.59262 16.13958,1.25243 24.125,0 6.50949,-1.60489 12.49791,-5.86801 17.03125,-10.8125 2.02423,-4.63666 3.42039,-10.64806 0.125,-15.03125 -2.67745,-5.71663 -8.85596,-7.96405 -14.78125,-8.21875 -3.2588,-8.78435 -5.45291,-19.12143 -0.625,-27.78125 2.04919,-3.51525 5.4147,-6.63182 4.40625,-11.25 -1.44651,-6.74758 6.59058,-9.69373 9.88301,-14.42207 5.10161,-5.95293 11.91699,-11.72613 13.21074,-19.73418 -0.58175,-8.7339 -9.03644,-12.96614 -13.90625,-19.1875 C 516.68829,507.81587 499.512,492.84192 481.6,478.7375 c -8.01759,-7.47935 -15.72978,-15.34959 -20.625,-25.28125 -10.11848,-14.45144 -12.30441,-32.3847 -19.41587,-48.26683 -8.79659,-21.83758 -16.84274,-43.96244 -27.99038,-64.67067 -9.55356,-20.5374 -20.281,-40.4739 -32.21839,-59.89195 -1.27896,-3.00492 -9.32525,-13.95845 -2.45853,-8.39771 23.73005,14.12195 51.66242,19.29721 78.83085,21.07343 8.62912,-0.23646 20.57823,3.56569 25.75232,-5.78377 8.76191,-13.72866 13.8339,-29.58685 17.96875,-45.25 6.90656,-27.73153 7.71361,-57.38817 1.2469,-85.47228 -4.90157,-19.51098 -9.13585,-39.52297 -16.9723,-58.017423 -2.87183,-9.698654 -14.22748,-10.491889 -22.53065,-8.568822 -29.71133,4.839293 -56.23816,21.687445 -76.44464,43.654045 -3.59323,5.083 -3.75476,2.1744 -4.29931,-1.84552 -7.23213,-25.4943 -18.22796,-50.174391 -32.90625,-72.28125 -2.4284,-2.783289 -4.71165,-3.672933 -8.375,-3.21875 z M 234.69375,442.925 c -2.99293,4.81561 -2.60772,-2.79666 0,0 z M 482.85,504.20625 c 9.97558,6.53618 20.04011,13.30474 28.46875,22 5.68613,4.8736 14.75309,11.63635 9.88035,20.26166 -3.23114,7.06052 -10.77009,11.02555 -16.06785,16.17584 -6.08864,1.44616 -13.34659,2.64205 -16.4375,8.84375 -1.7344,0.6351 -1.67494,-7.19412 -2.84375,-9.875 -3.62177,-13.31945 -7.3277,-26.88888 -8.97057,-40.55938 0.80518,-5.69275 3.66447,-11.55897 5.97057,-16.84687 z m -283.53125,1.40625 c 5.63988,7.09207 6.87954,16.80249 3.76446,25.29141 -2.62599,12.08717 -7.31809,23.72156 -9.66633,35.732 -0.84824,1.89191 -1.71446,4.1335 -2.25438,5.85159 -2.0451,-6.06136 -9.01823,-6.93417 -14.375,-8.46875 -3.26477,-0.58356 -7.57067,2.68166 -9.21875,-1.59375 -5.65961,-8.35679 -13.93986,-16.60548 -14.21875,-27.15625 3.00306,-4.17229 9.45607,-5.29194 13.21875,-8.96875 10.59098,-7.24915 21.56238,-14.50571 32.75,-20.6875 z"
       style="fill:#969696;fill-opacity:1;filter:url(#filter4228)" />
    <path
       inkscape:connector-curvature="0"
       id="path2466"
       d="m 153.40489,10.046728 c -0.15427,0.0074 -0.424,0.291943 -0.5329,0.420919 -0.40624,0.372257 -0.24019,0.329774 -0.5831,0.760734 -0.17454,0.236316 -0.47961,0.59159 -0.6526,0.826355 -0.10504,0.156026 -0.70204,0.930643 -0.80707,1.085118 -0.55607,0.931406 -0.12898,0.129739 -0.7144,1.042611 -0.13901,0.228611 -0.46416,0.768463 -0.59854,1.000151 l -0.52131,1.01561 c -0.26716,0.432511 -0.41788,0.61032 -0.60627,1.085093 l -0.59468,1.336104 c -0.10195,0.254874 -0.26646,0.817887 -0.37458,1.069661 l -0.41705,1.448096 -0.15446,1.23184 c -0.0757,0.917524 -0.007,0.59314 -0.0425,1.51374 l -0.42864,-0.173772 -0.74914,-0.637149 -0.84569,-0.641039 -1.04262,-0.733684 -1.22798,-0.745302 -1.28591,-0.695065 -1.34769,-0.598555 -1.37858,-0.563801 -1.45582,-0.50586 -1.28977,-0.409326 -1.47126,-0.459512 -1.43264,-0.3823 -1.14689,-0.285764 -0.78777,-0.108128 c -0.24165,-0.02141 -0.2449,0.0025 -0.48656,-0.0192 -0.12174,0.01329 -0.2451,0.09102 -0.36685,0.104264 l -0.30506,0.169908 -0.37071,0.467241 -0.42091,0.791625 -0.35141,0.895888 -0.43636,1.266595 -0.48655,1.625733 c -0.13305,0.44787 -0.31103,1.331058 -0.42478,1.784048 -0.0324,0.168357 -0.28035,1.295171 -0.31279,1.463528 -0.0541,0.205451 -0.2564,1.490579 -0.3012,1.699106 -0.0819,0.296571 -0.20389,1.711438 -0.28576,2.008008 -0.034,0.213154 -0.068,1.721505 -0.1004,1.934659 l -0.004,2.100703 0.18921,1.872854 c 0.034,0.157552 0.31511,1.798717 0.34755,1.95782 l 0.45952,1.838124 0.47112,1.525309 0.45566,1.251162 0.48656,1.227976 0.45567,0.980855 0.36299,0.679632 0.37457,0.529022 0.29348,0.270332 0.37843,0.270307 0.41706,0.150587 0.56378,0.06564 0.65261,0.03475 0.63716,0.01157 0.90361,-0.02703 1.09669,-0.08494 1.42879,-0.150611 1.67206,-0.239418 1.58711,-0.339816 1.5678,-0.436351 1.50215,-0.478859 1.17392,-0.463377 1.04649,-0.47497 1.06579,-0.540614 1.02719,-0.606284 0.80706,-0.532886 c 0.0765,-0.06102 0.61676,-0.474921 0.89589,-0.648743 0.27913,-0.173846 0.29657,-0.106577 0.37457,-0.166068 l -0.59854,1.563952 -0.59854,1.320647 c -0.15601,0.358375 -0.50587,0.957693 -0.66806,1.312942 -0.24433,0.446886 -0.42748,1.030107 -0.7028,1.45196 l -0.73757,1.52147 -0.77617,1.741564 -0.81093,1.77632 c -0.11585,0.299671 -0.73293,1.5848 -0.86886,1.876743 -0.3418,0.717857 -0.4438,0.940414 -0.73756,1.679784 -0.15447,0.359901 -0.43327,1.150738 -0.5831,1.513741 -0.22243,0.455648 -0.43868,0.976202 -0.61785,1.451935 -0.0355,0.08034 -0.72752,1.723055 -0.76459,1.80337 -0.64103,1.404062 -0.44949,0.870388 -1.01946,2.305365 -0.25823,0.5718 -0.68968,1.641018 -0.91133,2.228128 -0.30569,0.93239 -0.53049,1.333027 -0.7646,2.289908 -0.071,0.189993 -0.56997,1.495969 -0.64102,1.687513 -0.2008,0.514376 -1.20427,3.12948 -0.89202,2.235856 l -1.04263,1.536902 -0.78004,0.996288 c -0.46081,0.539975 0.16948,-0.115217 -1.04649,1.23184 l -1.13916,1.004016 -1.39789,1.073525 c -1.04121,0.782789 -0.6052,0.436228 -1.74158,1.131441 -0.97316,0.610247 -1.51374,1.021 -1.79177,1.150739 -0.30584,0.154475 -1.73385,1.342306 -2.03505,1.506036 -1.14766,0.628658 -1.08742,0.793151 -2.13931,1.571657 -1.08588,0.759947 -0.83025,0.309689 -1.65662,1.386291 -0.16219,0.472681 -0.051,0.473444 -0.0232,0.969261 0.1143,0.347545 0.91905,1.496758 1.07351,1.830396 l 0.87272,1.556224 1.18164,2.100702 c 0.0494,0.472657 -0.008,0.953805 -0.11584,1.417182 -0.009,0.251773 -0.008,0.750692 -0.008,1.004016 l 0.70667,0.853405 c 0.1143,0.92988 0.0965,1.872091 0.0116,2.803521 -0.14211,0.271834 -0.2286,0.610887 -0.50973,0.776168 -0.9345,0.463377 -2.08602,0.255637 -2.96955,0.837972 -0.0618,0.165256 -0.1228,0.825592 -0.18922,0.992423 0.003,0.305825 0.25409,0.552208 0.27417,0.861134 0.22552,0.529809 0.35913,0.531335 0.80707,0.888159 0.41242,0.270312 0.848,0.508172 1.30521,0.695092 0.20081,0.0633 1.4535,0.18844 1.65276,0.26258 l 1.4674,-0.027 1.71454,-0.15061 c 0.0494,0.27959 -0.21161,2.28915 -0.16991,2.57181 0.035,0.77437 -0.0343,1.57385 0.10427,2.32466 0.0436,0.23615 0.10224,0.84233 0.30892,1.50217 0.20668,0.65985 0.5444,1.34809 0.69895,1.57553 0.15455,0.22743 0.4667,0.60815 0.66419,0.76073 l 0.84182,0.41705 1.33997,0.23942 c 0.72366,0.0579 1.44249,-0.004 2.14704,-0.14675 0.70454,-0.14268 1.39326,-0.36531 2.06208,-0.62944 0.86032,-0.43948 1.75981,-0.80366 2.5834,-1.31294 0.84028,-0.40468 1.52378,-1.07198 2.37487,-1.45967 0.90052,-0.54834 0.94068,-0.65878 1.88445,-1.13144 0.45529,-0.23026 1.29019,-0.68876 1.77246,-0.85727 0.18536,-0.0788 1.42184,-0.58388 1.61028,-0.65647 l 1.7995,-0.4016 1.9192,-0.27803 2.25516,-0.0888 c 0,0 1.46034,-0.007 2.17793,0.0734 0.7176,0.08 1.55976,0.30858 2.05823,0.41319 0.99383,0.20855 2.00802,0.65261 2.00802,0.65261 0.58355,0.23324 1.54702,0.6924 2.12,0.94994 0.38616,0.19309 1.21486,0.62171 1.61028,0.79935 0.86345,0.43559 0.9708,0.54295 1.73385,1.13917 0.61554,0.54679 1.49404,1.27297 2.08525,1.84969 0.59121,0.57673 1.20482,1.12605 1.91149,1.56395 0.69431,0.36453 1.47164,0.54003 2.25516,0.55605 0.78351,0.016 1.57552,-0.12819 2.29764,-0.40546 0.52903,-0.33519 0.95844,-0.77154 1.33224,-1.25886 0.3738,-0.48733 0.692,-1.02332 0.99243,-1.55623 0.0371,-0.0757 0.48269,-1.77787 0.52131,-1.85356 l 0.53676,-2.2899 c 0.0479,-0.10503 0.14365,-2.90931 0.25486,-2.89233 1.88291,0.34754 0.95999,0.0935 1.9501,0.20466 0.55761,0.0865 0.45489,-0.0148 1.99644,-0.16604 0.13516,0.1162 1.52532,-0.74141 1.52532,-0.74141 0.59468,-0.608603 0.42555,-0.18847 0.96153,-0.91908 0,0 0.19926,-1.220247 0.20853,-1.289756 -0.52363,-0.973126 -0.017,-0.08031 -0.50973,-0.942236 -0.75224,-0.610124 -0.79162,-0.563776 -0.79162,-0.563776 -0.0896,-0.01846 -1.24729,-0.212392 -1.24729,-0.212392 -0.28867,-0.919517 -0.26268,-0.51728 -0.51746,-1.92693 -0.17145,-1.190908 -0.0849,-1.14456 -0.0232,-1.760886 0.48502,-1.127577 0.34368,-0.915186 0.39774,-0.992423 0.2595,-0.682734 0.55067,-0.487326 0.64489,-1.20095 0.0278,-0.281113 -0.008,-0.934508 0.0193,-1.212544 0.54371,-0.617064 1.13858,-1.185098 1.7184,-1.76859 0.57982,-0.583492 1.2079,-1.428011 1.68751,-2.100703 0.0685,-0.288324 0.0744,-0.329528 0.14288,-0.617852 l -0.19308,-0.783896 c -0.35321,-0.487326 -1.11419,-1.092059 -1.4674,-1.579385 -0.62172,-0.614776 -0.64631,-0.627501 -1.89604,-1.652759 -1.41263,-1.15891 -1.35694,-1.263666 -2.32467,-1.984846 l -1.40175,-1.23184 c -0.79317,-0.56102 -1.77633,-1.409478 -1.77633,-1.409478 -0.74703,-0.556933 -0.80872,-0.635574 -1.47126,-1.216407 -0.70872,-0.729205 -0.91671,-1.003081 -1.47512,-1.513741 l -1.13144,-1.517605 c 0.60066,0.833173 0.019,-0.241017 -0.54449,-1.046474 l -0.81093,-1.494444 c -0.15601,-0.461826 -0.29888,-0.991635 -0.45952,-1.451935 -0.0232,-0.08804 -0.44022,-1.249612 -0.46339,-1.336129 l -0.47498,-1.451935 c -0.28384,-0.750939 -0.59617,-1.572666 -0.9345,-2.301501 l -0.67578,-1.799506 c -0.10503,-0.261028 -0.61399,-1.539215 -0.72211,-1.795641 -0.13747,-0.319731 -0.61168,-1.475121 -0.7337,-1.79948 -0.46743,-1.052136 -0.35765,-0.630922 -0.81479,-1.687513 -0.24869,-0.576157 -0.78854,-1.548496 -1.04649,-2.12 -0.23942,-0.491191 -0.65184,-1.264281 -0.865,-1.764751 -0.20852,-0.48964 -0.63484,-1.256552 -0.84954,-1.741565 -0.18814,-0.344862 -0.62147,-1.12482 -0.7839,-1.48285 l -0.83024,-1.394045 -0.89975,-1.556199 -0.865,-1.471257 -0.6024,-1.119873 c -0.22566,-0.42077 -0.66044,-1.10348 -0.62558,-1.173924 l 1.66048,1.077389 1.4674,0.803218 1.38631,0.559912 1.57166,0.509724 1.86128,0.478859 c 0.26568,0.03707 1.67747,0.346758 1.94624,0.382275 0.39851,0.08187 1.23879,0.141357 1.63731,0.227849 l 1.69909,0.139018 1.60256,0.07724 1.27432,-0.0039 0.39774,-0.111992 0.41319,-0.266443 0.3321,-0.44024 0.47497,-0.714387 0.39388,-0.826379 0.42864,-0.98083 0.44794,-1.181653 0.52131,-1.494419 c 0.26413,-0.781582 0.24869,-0.898202 0.46339,-1.695242 0.11276,-0.458749 0.34986,-1.656623 0.47498,-2.112271 0.0494,-0.3074 0.20389,-1.733861 0.24714,-2.042787 l 0.13901,-2.436654 c 0.009,-0.818651 0.004,-2.095288 -0.0888,-2.907761 l -0.28962,-2.050515 -0.37457,-1.934635 -0.54835,-2.14705 -0.47111,-1.753158 -0.40547,-1.51374 -0.40546,-1.197086 -0.32438,-1.092822 -0.28961,-0.621717 -0.27804,-0.56764 -0.27031,-0.370731 -0.26259,-0.189205 -0.32051,-0.154476 -0.40546,-0.108103 -0.60627,-0.01157 -0.77618,0.05792 -0.75301,0.119721 -0.61785,0.13129 -0.84954,0.235552 -1.38631,0.447945 c -0.0803,0.02388 -0.61119,0.234519 -1.18551,0.486563 -0.57431,0.252044 -1.06039,0.546029 -1.13916,0.571504 l -1.1662,0.648743 -1.05421,0.691225 -0.98084,0.760735 -1.17778,0.996287 -1.40948,1.405613 -1.16233,1.104416 c -0.11122,-0.502021 -0.14752,-0.631759 -0.18922,-1.143035 -0.12048,-0.400046 -0.29039,-1.11367 -0.4325,-1.506011 -0.0849,-0.222434 -0.41859,-1.18318 -0.502,-1.405613 -0.0989,-0.256401 -0.44254,-1.132229 -0.53676,-1.39018 -0.26877,-0.610124 -0.4549,-1.139933 -0.72984,-1.745429 -0.12821,-0.322833 -0.68891,-1.32296 -0.81093,-1.648895 -0.40779,-0.855718 -0.63407,-1.061932 -1.03877,-1.919201 -0.30506,-0.530572 -0.60685,-0.946469 -0.76459,-1.208679 -0.0789,-0.131092 -0.12229,-0.225658 -0.20466,-0.335952 -0.0824,-0.110294 -0.26568,-0.237497 -0.50201,-0.440215 -0.14674,0.0084 -0.43269,-0.01501 -0.58696,-0.0076 z m 21.79089,68.539147 c 0.28614,-0.02868 0.35827,0.09326 1.2357,0.710547 1.06025,0.80851 0.82734,0.436376 1.71068,1.251138 1.3192,0.978467 1.00231,0.877797 2.07367,1.822666 0.95046,0.838268 0.95767,0.849566 1.35928,1.540767 l 0.18535,0.803218 -0.33982,0.996287 c -0.45566,0.75532 -0.91751,1.112907 -1.62186,1.656623 -0.27803,0.284214 -0.56147,0.563013 -0.86113,0.822515 -0.44408,0.06641 -0.8816,0.229375 -1.13917,0.293469 -0.25757,0.06412 -0.8928,0.213179 -1.10827,0.633309 -0.14674,0.08804 -0.60086,0.919838 -0.74915,1.007881 -0.11739,-0.183815 -0.48192,-2.405002 -0.59468,-2.587266 l -0.51745,-1.961685 c -0.3012,-1.031805 -0.44563,-2.397272 -0.76846,-3.421349 l -0.0348,-0.953829 c 0.20989,-0.463327 0.3364,-0.986048 0.52131,-1.459664 l 0.50973,-1.131441 c 0.0525,-0.0091 0.0981,-0.0192 0.13902,-0.02314 z m -43.51613,0.05408 c -0.0243,0.01354 -0.13902,0.07337 -0.13902,0.07337 0.51436,0.528259 0.75553,1.230831 1.01173,1.845829 -0.005,0.686327 0.17571,0.817493 0.0541,1.339968 -0.12163,0.522474 -0.30815,1.532274 -0.43635,2.042786 -0.25178,0.923678 -0.53136,1.652734 -0.80321,2.571809 -0.27031,1.109042 -0.24174,1.231052 -0.57538,2.324662 -0.12048,-0.0032 -0.42786,1.414892 -0.54834,1.413342 -0.19154,-0.423232 -0.38693,-0.93527 -0.69895,-1.278188 -0.0726,-0.05098 -0.95612,-0.335189 -1.02718,-0.386164 -0.69662,-0.299647 -0.96462,-0.07259 -1.69523,-0.02314 -0.20544,0.0479 -1.69137,-2.164796 -1.80722,-2.297636 -0.68082,-1.214734 -0.4078,-0.560208 -0.98084,-2.100703 0.0155,-0.423208 -0.0169,-0.74673 0.33596,-0.94994 0.0463,-0.02934 1.39017,-0.830244 1.4365,-0.861134 1.44986,-1.020359 0.0194,-0.107685 1.52147,-1.027177 1.3925,-1.026784 0.0296,0.04536 1.32838,-0.907482 l 1.33997,-0.81865 c 0.29756,-0.159054 1.27818,-0.756871 1.27818,-0.756871 0.36347,-0.185021 0.42982,-0.218224 0.40547,-0.204662 z"
       style="fill:#040202" />
    <path
       style="fill:#bb0000;fill-opacity:1"
       inkscape:connector-curvature="0"
       sodipodi:nodetypes="cccccccccssccccccccsccccsccccsc"
       id="path2468"
       d="m 166.61936,19.24685 1.54404,-0.962641 1.62443,-0.792683 1.71876,-0.527397 1.12896,-0.156051 0.73365,0.08807 0.45529,0.168751 0.32455,0.490477 0.5039,1.169789 0.73784,2.268544 c 0.17701,0.544232 0.36441,1.562352 0.70274,2.748583 0.33832,1.186256 0.60865,2.41502 0.70827,2.97882 0.22398,1.173925 0.33187,2.37101 0.38285,3.557291 0.0973,1.183179 -0.051,2.312306 -0.11431,3.500112 -0.10812,1.158492 -0.31974,2.303052 -0.48965,3.453815 -0.24559,1.218697 -0.6611,2.395722 -1.06116,3.571172 -0.39388,0.996288 -0.6889,2.065186 -1.35927,2.922455 -0.22089,0.308926 -0.60704,0.438665 -0.97312,0.4603 -1.38708,0.07876 -2.76953,-0.09885 -4.14734,-0.219332 -0.96385,-0.09501 -1.9192,-0.254112 -2.86432,-0.461654 -0.94512,-0.207567 -1.88001,-0.463598 -2.80293,-0.75244 -1.20945,-0.375334 -2.29223,-1.058068 -3.35803,-1.723793 -0.84028,-0.554522 -1.7099,-1.132229 -2.29532,-1.969414 -0.29657,-0.430961 0.0402,-0.928329 0.18999,-1.346909 0.28189,-0.640251 0.43829,-1.332633 0.46049,-2.028314 0.0222,-0.695656 -0.0898,-1.39461 -0.34464,-2.04798 -0.32283,-0.707446 -0.78931,-1.334553 -1.17701,-2.003381 0.44331,-0.994761 0.94994,-1.963235 1.51682,-2.89309 0.6642,-1.008644 1.21563,-2.08527 1.88755,-3.089286 0.81093,-1.279714 1.72149,-2.528932 2.7699,-3.636817 1.04842,-1.107886 2.2347,-2.052608 3.59707,-2.766995 z" />
    <path
       style="fill:#bb0000;fill-opacity:1"
       inkscape:connector-curvature="0"
       sodipodi:nodetypes="cccccccccssccscccsscsccssscscccccccsccccccc"
       id="path2470"
       d="m 130.94785,19.016269 0.3884,-0.158217 0.38333,-0.09289 0.54911,0.01501 0.89861,0.189771 1.99383,0.576132 2.13398,0.823598 3.18831,1.370391 2.35633,1.496363 c 0.49274,0.403147 1.19893,1.039903 1.88093,1.699599 0.682,0.65967 1.33982,1.342257 1.73583,1.837016 0.79201,0.989543 1.52532,2.030997 2.27601,3.045055 0.30584,0.514352 0.85418,1.014822 0.74297,1.663564 -0.36762,0.51514 -0.74297,1.043398 -1.05016,1.603532 -0.30718,0.560108 -0.54622,1.152092 -0.64121,1.794656 -0.0602,0.596217 -0.0124,1.328375 0.0896,1.919965 0.173,0.63486 0.46648,1.073525 0.72289,1.675944 -0.52286,0.417817 -1.33572,0.948685 -2.16201,1.461117 -0.82628,0.512432 -1.7575,1.005148 -2.36608,1.288698 l -2.28992,1.066953 c -0.69354,0.221671 -1.85942,0.676974 -2.56701,0.842797 l -1.59953,0.374841 -1.42477,0.243798 -1.49563,0.237793 c -0.21439,0.03409 -0.85401,0.113001 -1.30905,0.144655 -0.45504,0.03163 -0.76978,-0.0098 -0.94785,-0.0098 -0.35613,1.23e-4 -0.1014,-0.04123 -0.53583,-0.0702 l -0.51315,-0.230285 c -0.2039,-0.160826 -0.4229,-0.348284 -0.582,-0.542904 l -0.55052,-1.032962 -0.55052,-1.426141 -0.47581,-1.647171 -0.66226,-2.618746 -0.38655,-2.682447 c -0.0849,-1.43958 0.008,-1.027178 -0.0263,-2.466757 -0.0154,-0.441766 0.0378,-1.684437 0.10909,-2.493242 0.0712,-0.808805 0.22223,-2.419474 0.27861,-2.855825 0.13593,-0.965398 0.32901,-1.519919 0.58851,-2.465232 l 0.48569,-1.617044 0.33899,-1.057107 0.40978,-0.965447 0.3224,-0.572243 0.26293,-0.366645 z" />
    <path
       style="fill:#bb0000;fill-opacity:1"
       inkscape:connector-curvature="0"
       sodipodi:nodetypes="ccsccccc"
       id="path2472"
       d="m 152.03803,32.403791 c 1.04109,-0.248672 2.21655,-0.105027 3.04911,0.611674 0.83024,0.607835 1.2805,1.59947 1.33243,2.611978 0.0519,1.012508 -0.29444,2.045863 -1.05749,2.737089 -0.8341,0.914422 -2.20882,1.024101 -3.35339,0.780032 -0.78931,-0.149824 -1.37164,-0.766125 -1.86283,-1.357715 -0.70126,-0.851091 -0.64102,-2.051278 -0.50046,-3.078456 0.34291,-1.09361 1.21099,-2.119237 2.39263,-2.304602 z" />
    <path
       style="fill:#bb0000;fill-opacity:1"
       inkscape:connector-curvature="0"
       sodipodi:nodetypes="cscscsccscsccscscscsccsc"
       id="path2474"
       d="m 151.64261,61.255982 c 0.72057,-0.100399 1.45079,-0.17456 2.18005,-0.184209 0.72926,-0.0096 1.45756,0.04519 2.17426,0.202743 0.92833,0.206213 1.86283,0.454491 2.75582,0.799157 0.89299,0.34464 1.74447,0.785619 2.50674,1.377233 0.64334,0.55142 1.28746,1.140326 1.83657,1.798717 0.54912,0.658391 1.00324,1.386291 1.2666,2.215772 0.30584,1.048813 0.45258,2.151678 0.37226,3.242186 -0.17918,1.228739 -0.66574,2.373324 -1.35484,3.389105 -0.6891,1.015782 -1.58074,1.902785 -2.57007,2.616409 -0.7059,0.499706 -1.46779,0.926778 -2.26868,1.255026 -0.80089,0.328223 -1.64079,0.557598 -2.50269,0.661862 -1.23725,0.05408 -2.48531,0.06951 -3.71638,-0.07104 -0.92601,-0.147534 -1.86553,-0.324777 -2.76818,-0.603182 -0.90264,-0.27843 -1.76841,-0.658022 -2.5469,-1.21023 -0.62326,-0.438664 -1.233,-0.923677 -1.76725,-1.475515 -0.53425,-0.551814 -0.99301,-1.170429 -1.31429,-1.876325 -0.39697,-0.868099 -0.70705,-1.799505 -0.86268,-2.750036 -0.15562,-0.95053 -0.15678,-1.920161 0.0641,-2.864711 0.21162,-0.679632 0.51244,-1.330688 0.88566,-1.938129 0.37322,-0.607416 0.81885,-1.171217 1.32008,-1.676314 0.55143,-0.599318 1.17392,-1.146111 1.91843,-1.492105 0.69277,-0.33674 1.40793,-0.635623 2.14125,-0.87792 0.73331,-0.242322 1.48477,-0.428057 2.25014,-0.538498 z" />
    <path
       transform="matrix(0.15899061,0,0,0.15899061,99.526345,-0.14618534)"
       style="fill:#ffffff;fill-opacity:1;stroke:#e9e9e9;stroke-width:4;stroke-linecap:butt;stroke-linejoin:miter;stroke-miterlimit:4;stroke-opacity:1;stroke-dasharray:none;filter:url(#filter3894)"
       inkscape:connector-curvature="0"
       sodipodi:nodetypes="csssssssccsccccccccccsssssszssscssscccccccccccssc"
       id="path2476"
       d="m 297.75092,402.91552 c 0.95875,-0.69375 1.95438,-1.32063 2.98063,-1.8841 1.02625,-0.56348 2.08312,-1.06356 3.16437,-1.50371 1.08125,-0.44016 2.18688,-0.82039 3.31063,-1.14418 1.12375,-0.32379 2.26562,-0.59113 3.41937,-0.80551 1.15375,-0.21438 2.31937,-0.37578 3.49062,-0.4877 1.17125,-0.11191 2.34813,-0.17433 3.52438,-0.19074 1.17625,-0.0164 2.35188,0.0132 3.52063,0.0854 1.16875,0.0722 1.5417,0.18684 2.69045,0.34059 l 1.68481,0.49021 1.57209,0.94102 c 0.24176,0.14472 1.51084,1.33195 1.51084,1.33195 l 1.10268,1.52546 0.87727,1.4691 0.56474,1.56065 0.33934,1.33525 0.20674,2.24548 -0.0187,1.85102 -0.20636,2.23689 -0.45497,2.13189 -0.84945,2.63905 -2.00105,3.33007 c -0.63622,0.76062 -1.8792,2.04686 -2.58765,2.71084 -0.70846,0.66398 -1.44591,1.26921 -2.1981,1.79484 -0.75218,0.52562 -1.73574,1.07717 -2.72112,1.77917 -0.98538,0.702 -1.74716,0.87822 -2.73203,1.32941 0,0 -1.69951,0.46664 -2.85764,0.80046 -1.15812,0.33382 -1.51021,0.34767 -2.37053,0.51076 l -2.75328,0.35051 c -0.75298,-10e-4 -1.79015,-0.0223 -2.14807,0.009 -0.35791,0.0315 -1.35916,-0.0453 -2.20253,-0.0842 -0.84337,-0.0389 -1.58521,-0.0961 -2.43865,-0.13834 -0.85344,-0.0422 -1.4511,-0.23912 -2.24448,-0.364 -0.79338,-0.12488 -1.55705,-0.29041 -2.29168,-0.49516 -0.73463,-0.20475 -1.36978,-0.51917 -2.00469,-0.84325 -0.63492,-0.32407 -1.15691,-0.71415 -1.89066,-1.1829 l -1.36612,-1.41682 -1.02801,-1.24776 -0.77442,-1.33229 -0.77443,-1.33228 -0.64456,-2.03059 -0.1374,-2.19963 0.17601,-2.65238 0.49288,-1.89341 0.54924,-1.72435 0.97186,-1.72435 1.02822,-1.55529 c 0.5734,-0.86733 1.20067,-1.68956 1.95261,-2.44381 0.75197,-0.75408 1.60617,-1.45477 2.56617,-2.12227 z" />
    <path
       style="fill:#fefefe"
       inkscape:connector-curvature="0"
       sodipodi:nodetypes="cccccccccccccccccccscccsccscccccccccccccccczcccsccccccccscccccccccccccccccccccccccssscszccccccccccccccccc"
       id="path2480"
       d="m 166.62943,69.496343 c 0.13588,-0.340432 0.21102,-0.336715 0.67283,-0.602149 0.48059,-0.02752 1.06273,0.17771 1.06273,0.17771 0.37019,0.450332 0.31453,0.475881 0.53424,0.982283 0,0 0.28579,0.930101 0.42478,1.396358 0.0988,0.359901 0.20389,0.718251 0.31664,1.075051 0.14401,0.531187 0.29057,1.061563 0.41088,1.598707 0.17938,0.596143 0.4002,1.692559 0.57769,2.289145 0.44794,1.391706 0.28884,0.945312 0.62248,2.369459 0.16992,0.6642 0.27804,1.017923 0.4186,1.689827 0.11929,0.460694 0.40697,1.481571 0.49428,1.949329 0.0711,0.291942 0.3738,1.515291 0.44486,1.80876 l 0.49119,1.918438 c 0.0943,0.410605 0.32747,1.742033 0.45875,2.142399 l 0.43405,2.409628 0.26567,2.062084 c 0.13439,0.602395 0.17918,1.723794 0.32129,2.326213 0.0463,0.522081 0.0772,1.044161 0.11585,1.567793 0.12357,0.661098 0.15909,1.583249 0.22242,2.249 0.0726,0.823278 0.0734,1.588242 0.0346,2.352472 -0.0388,0.76421 -0.0554,2.02192 -0.14114,2.84212 l -0.28576,1.91844 -0.73061,1.76704 c -0.15523,0.28884 -0.43704,0.85997 -0.79761,1.08472 l -0.83197,0.51861 -1.02255,0.0278 c -0.14751,-0.0803 -0.73988,-0.10389 -1.14438,-0.25428 -0.4045,-0.15041 -0.99184,-0.55125 -1.12932,-0.6447 -0.39079,-0.34137 -0.77695,-0.68892 -1.17391,-1.021 l -0.0371,-0.0556 -1.66356,-1.57862 c -0.24097,-0.11893 -1.65276,-1.23108 -1.88909,-1.35153 -0.34962,-0.16295 -1.50415,-0.81651 -1.85665,-0.97313 -0.40264,-0.19361 -1.31605,-0.58731 -1.74389,-0.71207 -0.34047,-0.13983 -1.42931,-0.50862 -1.77323,-0.63949 -0.76923,-0.21778 -1.23416,-0.29502 -2.01884,-0.44484 -0.81247,-0.17301 -1.59251,-0.14675 -2.40499,-0.31048 -0.98702,-0.005 -1.41643,-0.0231 -2.4019,0.009 -0.61476,0.0973 -1.73616,0.11276 -2.35093,0.20543 -0.56842,0.1035 -1.32529,0.26105 -1.89217,0.37381 l -1.76088,0.37998 -1.48439,0.66573 -1.36855,0.69509 -1.39634,0.82793 c -0.6422,0.38077 -0.76923,0.62558 -1.61569,1.10904 -0.16527,0.0988 -1.07197,0.63176 -1.23725,0.73216 -0.48728,0.28995 -1.36034,0.73858 -1.86282,1.00091 -0.5283,0.20764 -0.81192,0.44566 -1.36391,0.59159 l -1.28823,0.34061 -0.97929,0.0934 -1.21872,-0.20235 -0.80938,-0.62248 -0.52981,-0.68039 -0.34446,-0.98935 -0.2147,-1.11367 -0.0911,-1.23726 c 0.0417,-0.44021 0.0795,-0.86576 0.0641,-1.35195 -0.0155,-0.48617 0.10117,-1.28011 0.17686,-1.7157 0.0417,-0.312 0.2595,-1.552332 0.3012,-1.86436 0.0649,-0.257951 0.29812,-1.692928 0.34755,-1.953956 0.13592,-0.548343 0.10812,-0.736785 0.22551,-1.28823 0.0896,-0.393868 0.19926,-0.844913 0.25332,-1.244959 0.0627,-0.577732 0.29927,-1.138678 0.35836,-1.713013 l 0.37689,-1.779396 0.48347,-1.784072 c 0.13348,-0.397954 0.28882,-1.23888 0.39851,-1.64348 0.15703,-0.624202 0.24088,-0.880209 0.37844,-1.509113 0.12666,-0.452571 0.22088,-0.851091 0.35372,-1.300561 0.0535,-0.424266 0.18231,-0.829826 0.31201,-1.235705 0.0735,-0.534707 0.2717,-1.043496 0.43713,-1.555461 0.12975,-0.477283 0.30429,-0.94066 0.43404,-1.417969 0.19672,-0.49599 0.2123,-0.763688 0.38925,-1.266594 0.046,-0.320273 0.31097,-1.225466 0.43713,-1.519919 0.33843,-0.915776 0.0927,-0.358695 0.54526,-1.397884 0.2746,-0.853011 0.30752,-0.941054 0.49274,-1.515291 0.13915,-0.297629 0.29994,-0.656151 0.49119,-1.411791 0.29106,-0.721476 0.36693,-0.848728 0.4464,-1.166196 0.13592,-0.345994 0.43713,-0.946863 0.54216,-1.302112 0.31819,-0.653394 0.31371,-1.24907 1.10147,-1.471503 0.32592,-0.02779 0.48863,0.01501 0.81454,0.01969 0.43405,0.193094 0.91376,0.983783 1.00952,1.485804 l 0.3738,1.597131 c 0.16953,0.329405 0.28837,1.004706 0.42736,1.392174 0.13899,0.387493 0.48349,0.981445 0.73363,1.395324 0.25013,0.413854 0.49858,0.910214 0.81617,1.303294 0.31759,0.39308 0.8279,0.868247 1.10747,1.116156 0.48386,0.41282 0.84415,0.719334 1.1201,0.930421 0.27596,0.211062 0.69642,0.477308 1.41735,0.790321 l 1.3665,0.508764 1.38642,0.356209 1.49134,0.318206 1.6767,0.19462 1.31061,0.09654 1.61955,-0.08881 1.55004,-0.271857 1.11754,-0.333639 1.12527,-0.398126 1.00169,-0.521711 1.20018,-0.858033 1.16156,-0.958825 1.09978,-1.205971 0.59314,-1.052678 c 0.0711,-0.166807 0.7615,-1.628046 0.83719,-1.791776 l 0.53444,-2.153204 c 0.0664,-0.7677 0.29274,-1.575767 0.29274,-1.575767 z" />
  </g>
  <text
     xml:space="preserve"
     style="font-size:46.23503113px;font-style:normal;font-variant:normal;font-weight:bold;font-stretch:normal;line-height:125%;letter-spacing:0px;word-spacing:0px;fill:#bb0000;fill-opacity:1;stroke:none;font-family:Nimbus Sans L;-inkscape-font-specification:Nimbus Sans L Bold"
     x="332.93237"
     y="59.538311"
     id="text4049"
     sodipodi:linespacing="125%"><tspan
       sodipodi:role="line"
       id="tspan4051"
       x="332.93237"
       y="59.538311"
       style="font-style:normal;font-variant:normal;font-weight:bold;font-stretch:normal;fill:#bb0000;fill-opacity:1;font-family:Liberation Sans;-inkscape-font-specification:Liberation Sans Bold">uchess</tspan></text>
  <text
     xml:space="preserve"
     style="font-size:26.7669754px;font-style:normal;font-variant:normal;font-weight:bold;font-stretch:normal;line-height:125%;letter-spacing:0px;word-spacing:0px;fill:#bb0000;fill-opacity:1;stroke:none;font-family:Nimbus Sans L;-inkscape-font-specification:Nimbus Sans L Bold"
     x="402.51221"
     y="28.816349"
     id="text4136"
     sodipodi:linespacing="125%"><tspan
       sodipodi:role="line"
       id="tspan4138"
       x="402.51221"
       y="28.816349"
       style="font-style:normal;font-variant:normal;font-weight:normal;font-stretch:normal;fill:#bb0000;fill-opacity:1;font-family:Liberation Sans;-inkscape-font-specification:Liberation Sans">France</tspan></text>
  <rect
     style="fill:url(#linearGradient3813);fill-opacity:1"
     id="rect3805"
     width="62.985481"
     height="2.226676"
     x="335.62265"
     y="17.5725" />
  <g
     style="font-size:110.82358551px;font-style:normal;font-variant:normal;font-weight:bold;font-stretch:normal;line-height:125%;letter-spacing:0px;word-spacing:0px;fill:#bb0000;fill-opacity:1;stroke:none;font-family:Nimbus Sans L;-inkscape-font-specification:Nimbus Sans L Bold"
     id="text4049-7"
     transform="matrix(0.41719485,0,0,0.41719485,71.012194,-118.17366)">
    <path
       d="m 649.89064,367.41834 0,32.84664 c -3e-5,2.27277 0.18035,4.36514 0.54113,6.27711 0.36073,1.87594 0.95597,3.49933 1.78573,4.87018 0.82971,1.3348 1.89393,2.38099 3.19267,3.13856 1.33476,0.75759 2.95815,1.13638 4.87018,1.13637 1.83981,10e-6 3.49927,-0.39681 4.9784,-1.19048 1.51513,-0.82973 2.81384,-1.98414 3.89614,-3.46324 1.08222,-1.51515 1.91195,-3.30088 2.4892,-5.3572 0.61324,-2.09235 0.91988,-4.38313 0.91993,-6.87236 l 0,-31.38558 15.20577,0 0,45.45498 c -6e-5,1.22658 -6e-5,2.52529 0,3.89615 0.036,1.33479 0.0721,2.61547 0.10823,3.84202 0.0721,1.1905 0.1262,2.27276 0.16234,3.24679 0.0721,0.93796 0.1262,1.64143 0.16234,2.11041 l -14.50231,0 c -0.0361,-0.43291 -0.10827,-1.11834 -0.21645,-2.0563 -0.0722,-0.97403 -0.14435,-2.03825 -0.21645,-3.19267 -0.0361,-1.15441 -0.0902,-2.30882 -0.16234,-3.46324 -0.0361,-1.1544 -0.0542,-2.12843 -0.0541,-2.9221 l -0.27056,0 c -2.02027,4.43728 -4.59965,7.66602 -7.73817,9.68624 -3.10252,2.02022 -6.80024,3.03033 -11.09318,3.03033 -3.49934,0 -6.47555,-0.57721 -8.92866,-1.73162 -2.45314,-1.15441 -4.45532,-2.72369 -6.00655,-4.70784 -1.51518,-2.02021 -2.61548,-4.40118 -3.3009,-7.14292 -0.68544,-2.74172 -1.02816,-5.6999 -1.02815,-8.87455 l 0,-37.17568 15.20578,0"
       style="fill:#bb0000;font-family:Liberation Sans;-inkscape-font-specification:Liberation Sans Bold"
       id="path3885"
       inkscape:connector-curvature="0" />
    <path
       d="m 727.70524,427.05095 c -4.65375,0 -8.73027,-0.72151 -12.22955,-2.16452 -3.46326,-1.44302 -6.34929,-3.48127 -8.6581,-6.11478 -2.30883,-2.63349 -4.04045,-5.79009 -5.19485,-9.46979 -1.15442,-3.71574 -1.73163,-7.8103 -1.73162,-12.28367 -10e-6,-4.87014 0.63131,-9.19918 1.89396,-12.98714 1.26263,-3.82394 3.08443,-7.03465 5.46542,-9.63213 2.38096,-2.63344 5.30306,-4.63563 8.76632,-6.00655 3.49929,-1.3708 7.46757,-2.05623 11.90487,-2.05629 3.78788,6e-5 7.14289,0.50511 10.06504,1.51516 2.95813,1.01017 5.50145,2.39907 7.62994,4.16671 2.1284,1.73167 3.84198,3.78797 5.14074,6.16889 1.33474,2.38102 2.25466,4.94237 2.75977,7.68406 l -15.314,0.75758 c -0.43295,-2.99421 -1.51521,-5.37519 -3.24679,-7.14293 -1.73165,-1.80372 -4.18478,-2.7056 -7.35937,-2.70565 -4.07655,5e-5 -7.05277,1.67755 -8.92866,5.03252 -1.87594,3.35505 -2.8139,8.22522 -2.81388,14.61053 -2e-5,13.49221 3.9863,20.2383 11.95899,20.23829 2.88599,10e-6 5.30304,-0.90188 7.25115,-2.70565 1.94803,-1.83984 3.15655,-4.56352 3.62558,-8.17108 l 15.25988,0.70347 c -0.36081,2.70567 -1.19054,5.3031 -2.4892,7.79228 -1.26269,2.45314 -2.99431,4.6357 -5.19485,6.54769 -2.16457,1.87592 -4.79807,3.39108 -7.90051,4.5455 -3.10252,1.11833 -6.65595,1.6775 -10.66028,1.6775"
       style="fill:#bb0000;font-family:Liberation Sans;-inkscape-font-specification:Liberation Sans Bold"
       id="path3887"
       inkscape:connector-curvature="0" />
    <path
       d="m 779.97847,379.10676 c 2.05627,-4.47329 4.63566,-7.72008 7.73817,-9.74035 3.10245,-2.02016 6.80017,-3.03027 11.09318,-3.03033 3.53534,6e-5 6.51156,0.57726 8.92866,1.73161 2.45307,1.15447 4.43722,2.74179 5.95244,4.76196 1.55118,2.02027 2.66952,4.40124 3.35501,7.14292 0.68537,2.74177 1.02809,5.69995 1.02815,8.87455 l 0,37.12157 -15.15166,0 0,-32.79253 c -5e-5,-2.27271 -0.18043,-4.34704 -0.54114,-6.223 -0.36079,-1.91196 -0.95604,-3.53535 -1.78573,-4.87018 -0.82977,-1.37082 -1.91203,-2.43504 -3.24678,-3.19267 -1.33483,-0.75753 -2.95822,-1.13633 -4.87018,-1.13637 -1.83988,4e-5 -3.51738,0.41491 -5.03252,1.2446 -1.47911,0.7937 -2.75979,1.94811 -3.84202,3.46323 -1.08229,1.47914 -1.93006,3.26487 -2.54332,5.3572 -0.57723,2.05633 -0.86583,4.32908 -0.86581,6.81825 l 0,31.33147 -15.20577,0 0,-80.30381 15.20577,0 0,21.9158 c -2e-5,1.15447 -0.0181,2.32692 -0.0541,3.51735 -0.0361,1.15446 -0.0902,2.25476 -0.16234,3.30089 -0.0361,1.01017 -0.0722,1.93009 -0.10823,2.75977 -0.0361,0.82978 -0.0722,1.47914 -0.10822,1.94807 l 0.21645,0"
       style="fill:#bb0000;font-family:Liberation Sans;-inkscape-font-specification:Liberation Sans Bold"
       id="path3889"
       inkscape:connector-curvature="0" />
    <path
       d="m 856.71081,427.05095 c -4.22084,0 -8.02679,-0.61328 -11.41786,-1.83984 -3.35502,-1.26264 -6.22301,-3.1566 -8.60398,-5.68188 -2.38098,-2.56134 -4.20279,-5.75401 -5.46542,-9.57801 -1.26264,-3.86005 -1.89396,-8.36947 -1.89395,-13.52827 -10e-6,-5.59165 0.73954,-10.29948 2.21863,-14.12352 1.51516,-3.82394 3.53538,-6.90838 6.06067,-9.25333 2.56133,-2.38092 5.50147,-4.0945 8.82043,-5.14074 3.31891,-1.04613 6.81822,-1.56922 10.49794,-1.56928 4.61761,6e-5 8.54982,0.81175 11.79665,2.43508 3.28281,1.58738 5.97042,3.82405 8.06285,6.71003 2.09231,2.88607 3.62552,6.34931 4.59961,10.38971 0.97398,4.0044 1.46099,8.44167 1.46105,13.31181 l 0,0.43291 -37.55448,0 c -2e-5,2.45315 0.21644,4.74393 0.64936,6.87236 0.43288,2.09239 1.13635,3.9142 2.11041,5.46542 0.97401,1.51518 2.23665,2.7237 3.78792,3.62558 1.55121,0.86582 3.42713,1.29872 5.62776,1.29871 2.66954,1e-5 4.8521,-0.55916 6.54768,-1.6775 1.6955,-1.1544 2.90403,-2.9221 3.62558,-5.30309 l 14.33996,1.24461 c -0.64941,1.65948 -1.56933,3.42717 -2.75977,5.30308 -1.15446,1.87592 -2.7057,3.60754 -4.65372,5.19485 -1.94812,1.55125 -4.38321,2.84996 -7.30527,3.89614 -2.88607,1.01011 -6.40341,1.51517 -10.55205,1.51517 m 0,-51.13686 c -1.55127,5e-5 -3.01232,0.27062 -4.38316,0.8117 -1.33481,0.5051 -2.50726,1.33483 -3.51735,2.4892 -0.97405,1.11838 -1.76771,2.57943 -2.38097,4.38316 -0.6133,1.80381 -0.95602,3.96833 -1.02815,6.49357 l 22.72749,0 c -0.28864,-4.72584 -1.42502,-8.26122 -3.40912,-10.60617 -1.98418,-2.38092 -4.65376,-3.57141 -8.00874,-3.57146"
       style="fill:#bb0000;font-family:Liberation Sans;-inkscape-font-specification:Liberation Sans Bold"
       id="path3891"
       inkscape:connector-curvature="0" />
    <path
       d="m 943.77875,408.86896 c -6e-5,2.81389 -0.5953,5.33916 -1.78573,7.57583 -1.15447,2.23668 -2.85001,4.14867 -5.08663,5.73598 -2.23672,1.55125 -4.97845,2.75977 -8.22519,3.62558 -3.24682,0.82973 -6.94454,1.2446 -11.09318,1.2446 -3.71579,0 -7.0708,-0.27057 -10.06503,-0.8117 -2.99428,-0.54113 -5.62778,-1.42497 -7.90051,-2.65154 -2.23669,-1.26263 -4.1126,-2.88602 -5.62776,-4.87017 -1.51517,-1.98414 -2.65155,-4.43726 -3.40913,-7.35938 l 13.36594,-2.00219 c 0.43288,1.62341 1.02813,2.94016 1.78573,3.95026 0.75756,1.01012 1.69552,1.78574 2.81388,2.32686 1.11831,0.54114 2.41702,0.90189 3.89614,1.08226 1.51514,0.18039 3.22872,0.27058 5.14074,0.27057 1.73159,10e-6 3.33694,-0.0902 4.81607,-0.27057 1.51512,-0.21644 2.81384,-0.55916 3.89614,-1.02815 1.11829,-0.50504 1.9841,-1.19047 2.59742,-2.05629 0.61324,-0.90187 0.91988,-2.02021 0.91993,-3.35501 -5e-5,-1.51515 -0.45099,-2.70564 -1.35283,-3.57147 -0.86585,-0.90186 -2.07437,-1.62337 -3.62558,-2.16452 -1.5152,-0.57718 -3.31897,-1.0642 -5.4113,-1.46105 -2.05633,-0.43288 -4.25693,-0.9199 -6.6018,-1.46106 -2.45315,-0.5411 -4.8702,-1.19046 -7.25115,-1.94807 -2.38099,-0.75755 -4.50944,-1.7857 -6.38535,-3.08444 -1.87593,-1.29869 -3.39109,-2.94011 -4.54549,-4.92429 -1.15442,-2.02019 -1.73163,-4.5635 -1.73162,-7.62995 -10e-6,-2.77776 0.54112,-5.24892 1.62339,-7.41349 1.08225,-2.20055 2.66957,-4.05843 4.76195,-5.57365 2.09236,-1.55118 4.67175,-2.72363 7.73817,-3.51735 3.10246,-0.82967 6.65588,-1.24454 10.66028,-1.2446 3.1746,6e-5 6.13278,0.3067 8.87454,0.91993 2.74169,0.57726 5.19481,1.51522 7.35938,2.81388 2.16447,1.26269 3.96824,2.88608 5.41131,4.87017 1.47904,1.9842 2.50718,4.38321 3.08444,7.19704 l -13.47415,1.40694 c -0.25257,-1.40689 -0.70351,-2.56131 -1.35283,-3.46323 -0.6494,-0.93792 -1.46109,-1.67746 -2.43509,-2.21864 -0.938,-0.54108 -2.03829,-0.90184 -3.3009,-1.08226 -1.26267,-0.21641 -2.65157,-0.32463 -4.1667,-0.32468 -3.60757,5e-5 -6.31322,0.46903 -8.11696,1.40694 -1.80379,0.90193 -2.70568,2.43513 -2.70566,4.59961 -2e-5,1.33483 0.36073,2.39905 1.08226,3.19267 0.75756,0.7937 1.80375,1.46109 3.13856,2.00219 1.37084,0.50509 2.97619,0.95603 4.81607,1.35282 1.87588,0.36079 3.91414,0.81174 6.11477,1.35283 2.70562,0.57724 5.35716,1.26267 7.95463,2.0563 2.63345,0.75761 4.96031,1.82184 6.98058,3.19267 2.05625,1.33482 3.69768,3.06643 4.92429,5.19485 1.26259,2.12848 1.8939,4.83413 1.89396,8.11697"
       style="fill:#bb0000;font-family:Liberation Sans;-inkscape-font-specification:Liberation Sans Bold"
       id="path3893"
       inkscape:connector-curvature="0" />
    <path
       d="m 1005.4677,408.86896 c -1e-4,2.81389 -0.5953,5.33916 -1.7857,7.57583 -1.1545,2.23668 -2.8501,4.14867 -5.08668,5.73598 -2.23672,1.55125 -4.97844,2.75977 -8.22518,3.62558 -3.24683,0.82973 -6.94455,1.2446 -11.09318,1.2446 -3.7158,0 -7.0708,-0.27057 -10.06504,-0.8117 -2.99427,-0.54113 -5.62777,-1.42497 -7.90051,-2.65154 -2.23668,-1.26263 -4.1126,-2.88602 -5.62776,-4.87017 -1.51517,-1.98414 -2.65154,-4.43726 -3.40912,-7.35938 l 13.36593,-2.00219 c 0.43289,1.62341 1.02813,2.94016 1.78573,3.95026 0.75756,1.01012 1.69552,1.78574 2.81388,2.32686 1.11832,0.54114 2.41703,0.90189 3.89614,1.08226 1.51514,0.18039 3.22872,0.27058 5.14075,0.27057 1.73158,10e-6 3.33693,-0.0902 4.81606,-0.27057 1.51513,-0.21644 2.81384,-0.55916 3.89614,-1.02815 1.1183,-0.50504 1.98411,-1.19047 2.59743,-2.05629 0.61324,-0.90187 0.91988,-2.02021 0.91992,-3.35501 -4e-5,-1.51515 -0.45098,-2.70564 -1.35283,-3.57147 -0.86585,-0.90186 -2.07437,-1.62337 -3.62557,-2.16452 -1.5152,-0.57718 -3.31897,-1.0642 -5.41131,-1.46105 -2.05633,-0.43288 -4.25692,-0.9199 -6.6018,-1.46106 -2.45315,-0.5411 -4.87019,-1.19046 -7.25115,-1.94807 -2.38099,-0.75755 -4.50944,-1.7857 -6.38534,-3.08444 -1.87593,-1.29869 -3.3911,-2.94011 -4.5455,-4.92429 -1.15442,-2.02019 -1.73162,-4.5635 -1.73162,-7.62995 0,-2.77776 0.54113,-5.24892 1.62339,-7.41349 1.08226,-2.20055 2.66957,-4.05843 4.76195,-5.57365 2.09236,-1.55118 4.67175,-2.72363 7.73818,-3.51735 3.10245,-0.82967 6.65588,-1.24454 10.66027,-1.2446 3.1746,6e-5 6.13278,0.3067 8.87455,0.91993 2.74168,0.57726 5.19481,1.51522 7.35938,2.81388 2.16447,1.26269 3.96824,2.88608 5.41129,4.87017 1.479,1.9842 2.5072,4.38321 3.0845,7.19704 l -13.4742,1.40694 c -0.25257,-1.40689 -0.70351,-2.56131 -1.35282,-3.46323 -0.6494,-0.93792 -1.4611,-1.67746 -2.43509,-2.21864 -0.938,-0.54108 -2.0383,-0.90184 -3.3009,-1.08226 -1.26267,-0.21641 -2.65157,-0.32463 -4.16671,-0.32468 -3.60756,5e-5 -6.31322,0.46903 -8.11696,1.40694 -1.80379,0.90193 -2.70567,2.43513 -2.70565,4.59961 -2e-5,1.33483 0.36073,2.39905 1.08226,3.19267 0.75756,0.7937 1.80374,1.46109 3.13856,2.00219 1.37083,0.50509 2.97619,0.95603 4.81606,1.35282 1.87589,0.36079 3.91415,0.81174 6.11478,1.35283 2.70561,0.57724 5.35715,1.26267 7.95462,2.0563 2.63346,0.75761 4.96032,1.82184 6.98059,3.19267 2.05626,1.33482 3.69766,3.06643 4.92426,5.19485 1.2626,2.12848 1.8939,4.83413 1.894,8.11697"
       style="fill:#bb0000;font-family:Liberation Sans;-inkscape-font-specification:Liberation Sans Bold"
       id="path3895"
       inkscape:connector-curvature="0" />
  </g>
  <g
     style="font-size:64.15940857px;font-style:normal;font-variant:normal;font-weight:bold;font-stretch:normal;line-height:125%;letter-spacing:0px;word-spacing:0px;fill:#bb0000;fill-opacity:1;stroke:none;font-family:Nimbus Sans L;-inkscape-font-specification:Nimbus Sans L Bold"
     id="text4136-0"
     transform="matrix(0.41719485,0,0,0.41719485,71.012194,-118.17366)">
    <path
       d="m 805.83959,313.0756 0,16.41578 24.62368,0 0,4.9498 -24.62368,0 0,17.8882 -5.98362,0 0,-44.14093 31.35917,0 0,4.88715 -25.37555,0"
       style="font-weight:normal;fill:#bb0000;font-family:Liberation Sans;-inkscape-font-specification:Liberation Sans"
       id="path3872"
       inkscape:connector-curvature="0" />
    <path
       d="m 838.2639,352.32938 0,-26.00211 c -1e-5,-0.71007 -0.0104,-1.43061 -0.0313,-2.16162 0,-0.75184 -0.0104,-1.47238 -0.0313,-2.16162 -0.0209,-0.68918 -0.0418,-1.33662 -0.0626,-1.94233 -0.0209,-0.60563 -0.0418,-1.14865 -0.0627,-1.62904 l 5.32573,0 c 0.0209,0.48039 0.0418,1.03385 0.0627,1.66037 0.0418,0.60571 0.0731,1.23226 0.094,1.87967 0.0418,0.64747 0.0626,1.27403 0.0627,1.87967 0.0209,0.58482 0.0313,1.08606 0.0313,1.50374 l 0.12531,0 c 0.39681,-1.29486 0.81451,-2.41221 1.25311,-3.35208 0.45946,-0.96069 0.99204,-1.74388 1.59772,-2.34959 0.60566,-0.62652 1.3262,-1.08599 2.16162,-1.37842 0.83539,-0.31325 1.84833,-0.46988 3.0388,-0.46992 0.45946,4e-5 0.89805,0.0418 1.31577,0.12531 0.41769,0.0627 0.74141,0.12535 0.97116,0.18797 l 0,5.16909 c -0.37595,-0.10439 -0.81454,-0.17749 -1.31577,-0.21929 -0.50126,-0.0626 -1.06516,-0.094 -1.6917,-0.094 -1.2949,3e-5 -2.40181,0.29243 -3.32075,0.87718 -0.89808,0.58482 -1.6395,1.39934 -2.22428,2.44357 -0.56391,1.02341 -0.98161,2.25563 -1.25311,3.69669 -0.27152,1.42022 -0.40727,2.97616 -0.40726,4.66785 l 0,17.6689 -5.63901,0"
       style="font-weight:normal;fill:#bb0000;font-family:Liberation Sans;-inkscape-font-specification:Liberation Sans"
       id="path3874"
       inkscape:connector-curvature="0" />
    <path
       d="m 868.21331,352.95593 c -3.4043,0 -5.96274,-0.89806 -7.67532,-2.69419 -1.71259,-1.79613 -2.56889,-4.26058 -2.56888,-7.39337 -10e-6,-2.23471 0.4177,-4.06216 1.25311,-5.48237 0.85629,-1.44107 1.9632,-2.56887 3.32075,-3.38341 1.37842,-0.8145 2.94481,-1.3784 4.69917,-1.6917 1.75435,-0.31326 3.54003,-0.49078 5.35706,-0.53257 l 7.61267,-0.12532 0,-1.84834 c -3e-5,-1.39928 -0.14622,-2.58974 -0.43859,-3.57137 -0.29242,-0.98158 -0.74145,-1.77522 -1.3471,-2.38092 -0.60569,-0.60564 -1.368,-1.04423 -2.28693,-1.31577 -0.89808,-0.29236 -1.96323,-0.43856 -3.19544,-0.43859 -1.08605,3e-5 -2.06765,0.0836 -2.94482,0.25063 -0.87719,0.14622 -1.6395,0.42817 -2.28693,0.84585 -0.64745,0.39685 -1.16958,0.9503 -1.56639,1.66037 -0.39683,0.68924 -0.65789,1.56642 -0.7832,2.63154 l -5.88963,-0.53257 c 0.20885,-1.33663 0.60567,-2.55841 1.19046,-3.66536 0.58478,-1.12777 1.40975,-2.09893 2.4749,-2.91349 1.08602,-0.81449 2.43312,-1.44104 4.04129,-1.87967 1.62903,-0.45944 3.59224,-0.68917 5.88963,-0.68921 4.26057,4e-5 7.46644,0.98164 9.61765,2.94482 2.15115,1.94235 3.22673,4.76186 3.22677,8.45851 l 0,14.59877 c -4e-5,1.67083 0.21926,2.93438 0.65788,3.79067 0.43856,0.83542 1.27397,1.25312 2.50623,1.25312 0.31324,0 0.62652,-0.0209 0.93983,-0.0627 0.31325,-0.0418 0.61608,-0.094 0.90851,-0.15664 l 0,3.50872 c -0.71013,0.16708 -1.42023,0.29239 -2.13029,0.37593 -0.68925,0.0835 -1.43067,0.12531 -2.22428,0.12531 -1.06518,0 -1.98413,-0.13575 -2.75685,-0.40726 -0.7519,-0.29239 -1.36801,-0.72054 -1.84834,-1.28444 -0.48039,-0.58478 -0.84588,-1.29488 -1.09648,-2.13029 -0.25064,-0.85629 -0.40728,-1.84834 -0.46991,-2.97615 l -0.18797,0 c -0.6057,1.08604 -1.27402,2.06765 -2.00498,2.94482 -0.71012,0.87718 -1.54553,1.62905 -2.50623,2.2556 -0.96074,0.60568 -2.05721,1.07559 -3.28942,1.40976 -1.21136,0.33416 -2.61067,0.50124 -4.19793,0.50124 m 1.28444,-4.22925 c 1.79611,0 3.3625,-0.32372 4.69917,-0.97117 1.35752,-0.66832 2.47488,-1.51417 3.35208,-2.53755 0.89804,-1.02337 1.56637,-2.14073 2.00498,-3.35208 0.43857,-1.21133 0.65786,-2.37046 0.65789,-3.47739 l 0,-2.78818 -6.17158,0.12531 c -1.37845,0.0209 -2.69421,0.12533 -3.94731,0.31328 -1.23224,0.1671 -2.31827,0.51171 -3.2581,1.03382 -0.93984,0.52215 -1.69171,1.25313 -2.2556,2.19295 -0.54303,0.93985 -0.81453,2.17207 -0.81452,3.69668 -10e-6,1.83791 0.49079,3.2581 1.4724,4.26059 1.00248,1.00249 2.42268,1.50374 4.26059,1.50374"
       style="font-weight:normal;fill:#bb0000;font-family:Liberation Sans;-inkscape-font-specification:Liberation Sans"
       id="path3876"
       inkscape:connector-curvature="0" />
    <path
       d="m 916.80279,352.32938 0,-21.4909 c -3e-5,-1.64991 -0.12534,-3.02833 -0.37594,-4.13527 -0.22976,-1.10689 -0.61614,-1.99452 -1.15913,-2.66287 -0.54304,-0.68918 -1.26358,-1.16954 -2.16162,-1.44108 -0.8772,-0.29236 -1.97367,-0.43856 -3.28942,-0.43859 -1.33667,3e-5 -2.54802,0.24021 -3.63403,0.72054 -1.06516,0.4595 -1.98411,1.13827 -2.75685,2.03631 -0.75188,0.87721 -1.33667,1.97368 -1.75436,3.28942 -0.41771,1.29491 -0.62657,2.7882 -0.62656,4.47988 l 0,19.64256 -5.63901,0 0,-26.65999 c 0,-0.71007 -0.0104,-1.4515 -0.0313,-2.22428 -10e-6,-0.79361 -0.0104,-1.53503 -0.0313,-2.22428 -0.0209,-0.71006 -0.0418,-1.31573 -0.0627,-1.81701 -0.0209,-0.50121 -0.0418,-0.82493 -0.0627,-0.97116 l 5.32573,0 c 0.0209,0.10446 0.0418,0.38641 0.0626,0.84585 0.0209,0.45951 0.0418,0.99208 0.0627,1.59772 0.0418,0.58482 0.0731,1.19049 0.094,1.81701 0.0209,0.6057 0.0313,1.11739 0.0313,1.53507 l 0.094,0 c 0.543,-0.98158 1.13823,-1.8692 1.78568,-2.66287 0.64743,-0.79361 1.3993,-1.46193 2.25561,-2.00498 0.85628,-0.56387 1.83788,-0.99201 2.94481,-1.28444 1.1069,-0.31325 2.39134,-0.46988 3.85333,-0.46992 1.87964,4e-5 3.49825,0.22977 4.85581,0.68921 1.35751,0.45951 2.47487,1.16961 3.35208,2.1303 0.87715,0.96075 1.51415,2.20342 1.911,3.72801 0.41767,1.50376 0.62652,3.29989 0.62655,5.38839 l 0,22.58737 -5.67033,0"
       style="font-weight:normal;fill:#bb0000;font-family:Liberation Sans;-inkscape-font-specification:Liberation Sans"
       id="path3878"
       inkscape:connector-curvature="0" />
    <path
       d="m 935.28621,335.22438 c -10e-6,1.94234 0.13574,3.72802 0.40726,5.35706 0.29238,1.62906 0.77274,3.03881 1.44108,4.22926 0.66831,1.16957 1.54549,2.07808 2.63154,2.72552 1.1069,0.64744 2.46444,0.97116 4.07262,0.97116 2.00496,0 3.67577,-0.54301 5.01245,-1.62905 1.35752,-1.08602 2.19292,-2.75684 2.50623,-5.01245 l 5.70166,0.37593 c -0.188,1.39932 -0.59526,2.74642 -1.22178,4.04129 -0.62659,1.29489 -1.48288,2.43314 -2.56889,3.41474 -1.06517,0.98161 -2.37049,1.77524 -3.91598,2.38091 -1.54552,0.58479 -3.33121,0.87718 -5.35706,0.87718 -2.65243,0 -4.90804,-0.44903 -6.76681,-1.34709 -1.85879,-0.89807 -3.37297,-2.13029 -4.54253,-3.69669 -1.1487,-1.58727 -1.9841,-3.44605 -2.50623,-5.57635 -0.52213,-2.15117 -0.7832,-4.47987 -0.7832,-6.98611 0,-2.27647 0.18797,-4.28145 0.5639,-6.01495 0.37593,-1.75433 0.89806,-3.27895 1.5664,-4.57386 0.6892,-1.31574 1.49328,-2.41221 2.41224,-3.28942 0.91894,-0.89804 1.91099,-1.60813 2.97614,-2.1303 1.08602,-0.54298 2.22427,-0.92935 3.41474,-1.15913 1.19044,-0.25058 2.39134,-0.37589 3.6027,-0.37593 1.90054,4e-5 3.59224,0.2611 5.07511,0.7832 1.48283,0.52216 2.75682,1.2427 3.82199,2.16162 1.08601,0.89809 1.96319,1.96324 2.63154,3.19544 0.6683,1.23225 1.13822,2.55846 1.40976,3.97863 l -5.79565,0.43859 c -0.29242,-1.87964 -1.03385,-3.37293 -2.22428,-4.47988 -1.19048,-1.10689 -2.88218,-1.66034 -5.07511,-1.66037 -1.60818,3e-5 -2.95527,0.27153 -4.04129,0.81452 -1.06516,0.52216 -1.9319,1.32624 -2.60021,2.41224 -0.66834,1.06517 -1.1487,2.41227 -1.44108,4.04129 -0.27152,1.62907 -0.40727,3.54007 -0.40726,5.733"
       style="font-weight:normal;fill:#bb0000;font-family:Liberation Sans;-inkscape-font-specification:Liberation Sans"
       id="path3880"
       inkscape:connector-curvature="0" />
    <path
       d="m 967.39725,336.57147 c -10e-6,1.77526 0.17751,3.41475 0.53257,4.91847 0.37592,1.48287 0.93982,2.76731 1.6917,3.85333 0.77274,1.06515 1.75435,1.90056 2.94482,2.50623 1.19044,0.58479 2.62108,0.87718 4.29191,0.87718 2.44355,0 4.39632,-0.4908 5.85831,-1.47241 1.48282,-0.9816 2.48531,-2.22427 3.00747,-3.72802 l 4.9498,1.40976 c -0.35508,0.93984 -0.85633,1.89012 -1.50374,2.85083 -0.62658,0.93984 -1.47244,1.79613 -2.53755,2.56888 -1.06518,0.75187 -2.40183,1.37843 -4.00997,1.87967 -1.5873,0.48036 -3.50873,0.72054 -5.76432,0.72054 -5.01246,0 -8.83446,-1.49329 -11.46599,-4.47988 -2.61065,-2.98658 -3.91598,-7.42468 -3.91598,-13.31433 0,-3.17453 0.39682,-5.85828 1.19046,-8.05125 0.79364,-2.21381 1.87967,-4.00994 3.2581,-5.38839 1.37841,-1.37839 2.98657,-2.37044 4.82448,-2.97614 1.83789,-0.62653 3.8011,-0.9398 5.88964,-0.93984 2.84037,4e-5 5.21084,0.45951 7.11142,1.37843 1.92141,0.91898 3.45647,2.19297 4.60519,3.82199 1.16954,1.60819 1.99451,3.50874 2.4749,5.70167 0.50121,2.19297 0.75183,4.56344 0.75187,7.11142 l 0,0.75186 -24.18509,0 m 18.35811,-4.32324 c -0.31331,-3.57135 -1.22181,-6.17155 -2.72552,-7.80063 -1.50376,-1.6499 -3.66538,-2.47487 -6.48487,-2.4749 -0.93985,3e-5 -1.9319,0.15667 -2.97614,0.46992 -1.02339,0.29242 -1.97367,0.825 -2.85083,1.59772 -0.87719,0.77278 -1.61862,1.82748 -2.22428,3.16411 -0.60568,1.31579 -0.95029,2.99705 -1.03382,5.04378 l 18.29546,0"
       style="font-weight:normal;fill:#bb0000;font-family:Liberation Sans;-inkscape-font-specification:Liberation Sans"
       id="path3882"
       inkscape:connector-curvature="0" />
  </g>
  <g
     transform="matrix(0.19690934,0,0,0.19690934,89.990467,-2.2728801)"
     style="font-size:40px;font-style:normal;font-weight:normal;line-height:125%;letter-spacing:0px;word-spacing:0px;fill:#000000;fill-opacity:1;stroke:none;font-family:Sans"
     id="text3064" />
  <path
     style="fill:#bc0000;fill-opacity:1;stroke:none"
     d="m 276.29292,5.7228121 0,56.5194299 c 8.56952,-3.970255 18.21754,0 23.1543,0 l 8.46905,0 c 14.98929,0.21482 21.97852,-19.396569 22.18436,-28.254523 0,-15.598984 -9.66857,-28.2500469 -21.60026,-28.2649069 l -0.01,0 -0.01,0 -8.75069,0 c -5.36439,0 -16.28702,3.349699 -23.43591,0 z m 17.4283,6.1953049 4.7143,0.01045 c 12.0542,0 14.78961,10.351991 14.78959,21.235224 -10e-6,10.883283 -1.45268,21.353213 -14.78959,21.235228 l -4.64127,-0.02096 z"
     id="rect3071"
     inkscape:connector-curvature="0"
     sodipodi:nodetypes="ccccccccsccczccc" />
  <g
     id="g3246"
     transform="matrix(0.63756188,0,0,0.63756188,114.36587,-301.24527)"
     inkscape:export-filename="/home/eric/Bureau/mug.png"
     inkscape:export-xdpi="82"
     inkscape:export-ydpi="82">
    <text
       xml:space="preserve"
       style="font-size:59.25046921px;font-style:normal;font-weight:normal;text-align:center;line-height:125%;letter-spacing:0px;word-spacing:0px;text-anchor:middle;fill:#bb0000;fill-opacity:1;stroke:none;font-family:Sans"
       x="404.0751"
       y="678.62695"
       id="text3006"
       sodipodi:linespacing="125%"><tspan
         sodipodi:role="line"
         id="tspan3008"
         x="404.0751"
         y="678.62695"
         style="font-style:normal;font-variant:normal;font-weight:500;font-stretch:normal;font-family:Ubuntu;-inkscape-font-specification:Ubuntu Medium">I'm a developer</tspan><tspan
         sodipodi:role="line"
         x="404.0751"
         y="752.69006"
         id="tspan3010"
         style="font-style:normal;font-variant:normal;font-weight:500;font-stretch:normal;font-family:Ubuntu;-inkscape-font-specification:Ubuntu Medium">and it's a true story</tspan></text>
  </g>
  <text
     sodipodi:linespacing="125%"
     id="text3006-0"
     y="260.86279"
     x="453.12064"
     style="font-size:14.24864769px;font-style:normal;font-weight:normal;text-align:center;line-height:125%;letter-spacing:0px;word-spacing:0px;text-anchor:middle;fill:#bb0000;fill-opacity:1;stroke:none;font-family:Sans"
     xml:space="preserve"><tspan
       style="font-size:19.19999886px;font-style:normal;font-variant:normal;font-weight:500;font-stretch:normal;font-family:Ubuntu;-inkscape-font-specification:Ubuntu Medium"
       id="tspan3010-9"
       y="260.86279"
       x="453.12064"
       sodipodi:role="line">www.duchess-france.org</tspan></text>
  <text
     sodipodi:linespacing="125%"
     id="text3006-0-8"
     y="88.645294"
     x="382.05853"
     style="font-size:31.74529076px;font-style:normal;font-weight:normal;text-align:center;line-height:125%;letter-spacing:0px;word-spacing:0px;text-anchor:middle;fill:#bb0000;fill-opacity:1;stroke:none;font-family:Sans"
     xml:space="preserve"><tspan
       style="font-style:normal;font-variant:normal;font-weight:500;font-stretch:normal;font-family:Ubuntu;-inkscape-font-specification:Ubuntu Medium"
       id="tspan3010-9-2"
       y="88.645294"
       x="382.05853"
       sodipodi:role="line" /></text>
  <text
     sodipodi:linespacing="125%"
     id="text3006-0-2"
     y="240.03029"
     x="509.02774"
     style="font-size:31.74529076px;font-style:normal;font-weight:normal;text-align:center;line-height:125%;letter-spacing:0px;word-spacing:0px;text-anchor:middle;fill:#bb0000;fill-opacity:1;stroke:none;font-family:Sans"
     xml:space="preserve"><tspan
       style="font-size:19.19999886px;font-style:normal;font-variant:normal;font-weight:500;font-stretch:normal;font-family:Ubuntu;-inkscape-font-specification:Ubuntu Medium"
       id="tspan3010-9-4"
       y="240.03029"
       x="509.02774"
       sodipodi:role="line">@duchessfr</tspan></text>
</svg>
