<?xml version="1.0" encoding="UTF-8" standalone="no"?>
<svg
   xmlns:dc="http://purl.org/dc/elements/1.1/"
   xmlns:cc="http://creativecommons.org/ns#"
   xmlns:rdf="http://www.w3.org/1999/02/22-rdf-syntax-ns#"
   xmlns:svg="http://www.w3.org/2000/svg"
   xmlns="http://www.w3.org/2000/svg"
   xmlns:xlink="http://www.w3.org/1999/xlink"
   xmlns:sodipodi="http://sodipodi.sourceforge.net/DTD/sodipodi-0.dtd"
   xmlns:inkscape="http://www.inkscape.org/namespaces/inkscape"
   width="941.77216"
   height="269.349"
   viewBox="0 0 753.4177 215.4792"
   version="1.1"
   id="svg2462"
   sodipodi:version="0.32"
   inkscape:version="0.48.4 r9939"
   sodipodi:docname="nom t-shirt.svg"
   inkscape:output_extension="org.inkscape.output.svg.inkscape"
   inkscape:export-filename="/home/eric/Bureau/nom t-shirt.png"
   inkscape:export-xdpi="82.012169"
   inkscape:export-ydpi="82.012169">
  <metadata
     id="metadata2497">
    <rdf:RDF>
      <cc:Work
         rdf:about="">
        <dc:format>image/svg+xml</dc:format>
        <dc:type
           rdf:resource="http://purl.org/dc/dcmitype/StillImage" />
        <dc:title></dc:title>
      </cc:Work>
    </rdf:RDF>
  </metadata>
  <defs
     id="defs2495">
    <linearGradient
       inkscape:collect="always"
       id="linearGradient3807">
      <stop
         style="stop-color:#bb0000;stop-opacity:1;"
         offset="0"
         id="stop3809" />
      <stop
         style="stop-color:#bb0000;stop-opacity:0;"
         offset="1"
         id="stop3811" />
    </linearGradient>
    <linearGradient
       inkscape:collect="always"
       xlink:href="#linearGradient3807"
       id="linearGradient3813"
       x1="739.13391"
       y1="303.5314"
       x2="816.57379"
       y2="303.5314"
       gradientUnits="userSpaceOnUse"
       gradientTransform="translate(-31.339078,24.315529)" />
    <filter
       inkscape:collect="always"
       id="filter3894"
       color-interpolation-filters="sRGB">
      <feGaussianBlur
         inkscape:collect="always"
         stdDeviation="0.37253705"
         id="feGaussianBlur3896" />
    </filter>
    <filter
       inkscape:collect="always"
       id="filter3818"
       color-interpolation-filters="sRGB">
      <feGaussianBlur
         inkscape:collect="always"
         stdDeviation="4.658598"
         id="feGaussianBlur3820" />
    </filter>
    <linearGradient
       inkscape:collect="always"
       id="linearGradient3807-9">
      <stop
         style="stop-color:#bb0000;stop-opacity:1;"
         offset="0"
         id="stop3809-3" />
      <stop
         style="stop-color:#bb0000;stop-opacity:0;"
         offset="1"
         id="stop3811-9" />
    </linearGradient>
    <linearGradient
       inkscape:collect="always"
       xlink:href="#linearGradient3807-9"
       id="linearGradient3864"
       gradientUnits="userSpaceOnUse"
       gradientTransform="translate(-31.339058,24.315533)"
       x1="739.13391"
       y1="303.5314"
       x2="816.57379"
       y2="303.5314" />
    <filter
       inkscape:collect="always"
       id="filter3996"
       color-interpolation-filters="sRGB">
      <feGaussianBlur
         inkscape:collect="always"
         stdDeviation="3.2444846"
         id="feGaussianBlur3998" />
    </filter>
    <filter
       inkscape:collect="always"
       id="filter4000"
       x="-0.040613938"
       width="1.0812279"
       y="-0.17393795"
       height="1.347876"
       color-interpolation-filters="sRGB">
      <feGaussianBlur
         inkscape:collect="always"
         stdDeviation="3.2444846"
         id="feGaussianBlur4002" />
    </filter>
    <filter
       inkscape:collect="always"
       id="filter4008"
       color-interpolation-filters="sRGB">
      <feGaussianBlur
         inkscape:collect="always"
         stdDeviation="3.2444846"
         id="feGaussianBlur4010" />
    </filter>
    <filter
       inkscape:collect="always"
       id="filter4228"
       color-interpolation-filters="sRGB">
      <feGaussianBlur
         inkscape:collect="always"
         stdDeviation="5.3316268"
         id="feGaussianBlur4230" />
    </filter>
    <linearGradient
       inkscape:collect="always"
       xlink:href="#linearGradient3807"
       id="linearGradient3079"
       gradientUnits="userSpaceOnUse"
       gradientTransform="translate(-31.339078,24.315529)"
       x1="739.13391"
       y1="303.5314"
       x2="816.57379"
       y2="303.5314" />
  </defs>
  <sodipodi:namedview
     inkscape:window-height="1145"
     inkscape:window-width="1920"
     inkscape:pageshadow="2"
     inkscape:pageopacity="0.0"
     guidetolerance="10.0"
     gridtolerance="10.0"
     objecttolerance="10.0"
     borderopacity="1.0"
     bordercolor="#666666"
     pagecolor="#ffffff"
     id="base"
     showgrid="false"
     inkscape:zoom="0.70710678"
     inkscape:cx="224.56686"
     inkscape:cy="-24.302309"
     inkscape:window-x="0"
     inkscape:window-y="27"
     inkscape:current-layer="svg2462"
     inkscape:snap-global="false"
     inkscape:window-maximized="1"
     units="pt"
     fit-margin-top="40"
     fit-margin-left="120"
     fit-margin-right="120"
     fit-margin-bottom="40" />
  <g
     transform="matrix(0.79999999,0,0,0.79999999,-372.05,-256.975)"
     style="font-size:40px;font-style:normal;font-weight:normal;line-height:125%;letter-spacing:0px;word-spacing:0px;fill:#000000;fill-opacity:1;stroke:none;font-family:Sans"
     id="text3064" />
  <g
     id="g3057"
     transform="translate(-372.04999,-256.975)">
    <text
       sodipodi:linespacing="125%"
       id="text4049"
       y="425.96869"
       x="627.8125"
       style="font-size:110.82358551px;font-style:normal;font-variant:normal;font-weight:bold;font-stretch:normal;line-height:125%;letter-spacing:0px;word-spacing:0px;fill:#bb0000;fill-opacity:1;stroke:none;font-family:Nimbus Sans L;-inkscape-font-specification:Nimbus Sans L Bold"
       xml:space="preserve"><tspan
         style="font-style:normal;font-variant:normal;font-weight:bold;font-stretch:normal;fill:#bb0000;fill-opacity:1;font-family:Liberation Sans;-inkscape-font-specification:Liberation Sans Bold"
         y="425.96869"
         x="627.8125"
         id="tspan4051"
         sodipodi:role="line">uchess</tspan></text>
    <text
       sodipodi:linespacing="125%"
       id="text4136"
       y="352.32938"
       x="794.59283"
       style="font-size:64.15940857px;font-style:normal;font-variant:normal;font-weight:bold;font-stretch:normal;line-height:125%;letter-spacing:0px;word-spacing:0px;fill:#bb0000;fill-opacity:1;stroke:none;font-family:Nimbus Sans L;-inkscape-font-specification:Nimbus Sans L Bold"
       xml:space="preserve"><tspan
         style="font-style:normal;font-variant:normal;font-weight:normal;font-stretch:normal;fill:#bb0000;fill-opacity:1;font-family:Liberation Sans;-inkscape-font-specification:Liberation Sans"
         y="352.32938"
         x="794.59283"
         id="tspan4138"
         sodipodi:role="line">France</tspan></text>
    <rect
       y="325.3783"
       x="634.26099"
       height="5.337256"
       width="150.97375"
       id="rect3805"
       style="fill:url(#linearGradient3079);fill-opacity:1" />
    <g
       id="text4049-7"
       style="font-size:110.82358551px;font-style:normal;font-variant:normal;font-weight:bold;font-stretch:normal;line-height:125%;letter-spacing:0px;word-spacing:0px;fill:#bb0000;fill-opacity:1;stroke:none;font-family:Nimbus Sans L;-inkscape-font-specification:Nimbus Sans L Bold">
      <path
         id="path3885"
         style="fill:#bb0000;font-family:Liberation Sans;-inkscape-font-specification:Liberation Sans Bold"
         d="m 649.89064,367.41834 0,32.84664 c -3e-5,2.27277 0.18035,4.36514 0.54113,6.27711 0.36073,1.87594 0.95597,3.49933 1.78573,4.87018 0.82971,1.3348 1.89393,2.38099 3.19267,3.13856 1.33476,0.75759 2.95815,1.13638 4.87018,1.13637 1.83981,10e-6 3.49927,-0.39681 4.9784,-1.19048 1.51513,-0.82973 2.81384,-1.98414 3.89614,-3.46324 1.08222,-1.51515 1.91195,-3.30088 2.4892,-5.3572 0.61324,-2.09235 0.91988,-4.38313 0.91993,-6.87236 l 0,-31.38558 15.20577,0 0,45.45498 c -6e-5,1.22658 -6e-5,2.52529 0,3.89615 0.036,1.33479 0.0721,2.61547 0.10823,3.84202 0.0721,1.1905 0.1262,2.27276 0.16234,3.24679 0.0721,0.93796 0.1262,1.64143 0.16234,2.11041 l -14.50231,0 c -0.0361,-0.43291 -0.10827,-1.11834 -0.21645,-2.0563 -0.0722,-0.97403 -0.14435,-2.03825 -0.21645,-3.19267 -0.0361,-1.15441 -0.0902,-2.30882 -0.16234,-3.46324 -0.0361,-1.1544 -0.0542,-2.12843 -0.0541,-2.9221 l -0.27056,0 c -2.02027,4.43728 -4.59965,7.66602 -7.73817,9.68624 -3.10252,2.02022 -6.80024,3.03033 -11.09318,3.03033 -3.49934,0 -6.47555,-0.57721 -8.92866,-1.73162 -2.45314,-1.15441 -4.45532,-2.72369 -6.00655,-4.70784 -1.51518,-2.02021 -2.61548,-4.40118 -3.3009,-7.14292 -0.68544,-2.74172 -1.02816,-5.6999 -1.02815,-8.87455 l 0,-37.17568 15.20578,0"
         inkscape:connector-curvature="0" />
      <path
         id="path3887"
         style="fill:#bb0000;font-family:Liberation Sans;-inkscape-font-specification:Liberation Sans Bold"
         d="m 727.70524,427.05095 c -4.65375,0 -8.73027,-0.72151 -12.22955,-2.16452 -3.46326,-1.44302 -6.34929,-3.48127 -8.6581,-6.11478 -2.30883,-2.63349 -4.04045,-5.79009 -5.19485,-9.46979 -1.15442,-3.71574 -1.73163,-7.8103 -1.73162,-12.28367 -10e-6,-4.87014 0.63131,-9.19918 1.89396,-12.98714 1.26263,-3.82394 3.08443,-7.03465 5.46542,-9.63213 2.38096,-2.63344 5.30306,-4.63563 8.76632,-6.00655 3.49929,-1.3708 7.46757,-2.05623 11.90487,-2.05629 3.78788,6e-5 7.14289,0.50511 10.06504,1.51516 2.95813,1.01017 5.50145,2.39907 7.62994,4.16671 2.1284,1.73167 3.84198,3.78797 5.14074,6.16889 1.33474,2.38102 2.25466,4.94237 2.75977,7.68406 l -15.314,0.75758 c -0.43295,-2.99421 -1.51521,-5.37519 -3.24679,-7.14293 -1.73165,-1.80372 -4.18478,-2.7056 -7.35937,-2.70565 -4.07655,5e-5 -7.05277,1.67755 -8.92866,5.03252 -1.87594,3.35505 -2.8139,8.22522 -2.81388,14.61053 -2e-5,13.49221 3.9863,20.2383 11.95899,20.23829 2.88599,10e-6 5.30304,-0.90188 7.25115,-2.70565 1.94803,-1.83984 3.15655,-4.56352 3.62558,-8.17108 l 15.25988,0.70347 c -0.36081,2.70567 -1.19054,5.3031 -2.4892,7.79228 -1.26269,2.45314 -2.99431,4.6357 -5.19485,6.54769 -2.16457,1.87592 -4.79807,3.39108 -7.90051,4.5455 -3.10252,1.11833 -6.65595,1.6775 -10.66028,1.6775"
         inkscape:connector-curvature="0" />
      <path
         id="path3889"
         style="fill:#bb0000;font-family:Liberation Sans;-inkscape-font-specification:Liberation Sans Bold"
         d="m 779.97847,379.10676 c 2.05627,-4.47329 4.63566,-7.72008 7.73817,-9.74035 3.10245,-2.02016 6.80017,-3.03027 11.09318,-3.03033 3.53534,6e-5 6.51156,0.57726 8.92866,1.73161 2.45307,1.15447 4.43722,2.74179 5.95244,4.76196 1.55118,2.02027 2.66952,4.40124 3.35501,7.14292 0.68537,2.74177 1.02809,5.69995 1.02815,8.87455 l 0,37.12157 -15.15166,0 0,-32.79253 c -5e-5,-2.27271 -0.18043,-4.34704 -0.54114,-6.223 -0.36079,-1.91196 -0.95604,-3.53535 -1.78573,-4.87018 -0.82977,-1.37082 -1.91203,-2.43504 -3.24678,-3.19267 -1.33483,-0.75753 -2.95822,-1.13633 -4.87018,-1.13637 -1.83988,4e-5 -3.51738,0.41491 -5.03252,1.2446 -1.47911,0.7937 -2.75979,1.94811 -3.84202,3.46323 -1.08229,1.47914 -1.93006,3.26487 -2.54332,5.3572 -0.57723,2.05633 -0.86583,4.32908 -0.86581,6.81825 l 0,31.33147 -15.20577,0 0,-80.30381 15.20577,0 0,21.9158 c -2e-5,1.15447 -0.0181,2.32692 -0.0541,3.51735 -0.0361,1.15446 -0.0902,2.25476 -0.16234,3.30089 -0.0361,1.01017 -0.0722,1.93009 -0.10823,2.75977 -0.0361,0.82978 -0.0722,1.47914 -0.10822,1.94807 l 0.21645,0"
         inkscape:connector-curvature="0" />
      <path
         id="path3891"
         style="fill:#bb0000;font-family:Liberation Sans;-inkscape-font-specification:Liberation Sans Bold"
         d="m 856.71081,427.05095 c -4.22084,0 -8.02679,-0.61328 -11.41786,-1.83984 -3.35502,-1.26264 -6.22301,-3.1566 -8.60398,-5.68188 -2.38098,-2.56134 -4.20279,-5.75401 -5.46542,-9.57801 -1.26264,-3.86005 -1.89396,-8.36947 -1.89395,-13.52827 -10e-6,-5.59165 0.73954,-10.29948 2.21863,-14.12352 1.51516,-3.82394 3.53538,-6.90838 6.06067,-9.25333 2.56133,-2.38092 5.50147,-4.0945 8.82043,-5.14074 3.31891,-1.04613 6.81822,-1.56922 10.49794,-1.56928 4.61761,6e-5 8.54982,0.81175 11.79665,2.43508 3.28281,1.58738 5.97042,3.82405 8.06285,6.71003 2.09231,2.88607 3.62552,6.34931 4.59961,10.38971 0.97398,4.0044 1.46099,8.44167 1.46105,13.31181 l 0,0.43291 -37.55448,0 c -2e-5,2.45315 0.21644,4.74393 0.64936,6.87236 0.43288,2.09239 1.13635,3.9142 2.11041,5.46542 0.97401,1.51518 2.23665,2.7237 3.78792,3.62558 1.55121,0.86582 3.42713,1.29872 5.62776,1.29871 2.66954,1e-5 4.8521,-0.55916 6.54768,-1.6775 1.6955,-1.1544 2.90403,-2.9221 3.62558,-5.30309 l 14.33996,1.24461 c -0.64941,1.65948 -1.56933,3.42717 -2.75977,5.30308 -1.15446,1.87592 -2.7057,3.60754 -4.65372,5.19485 -1.94812,1.55125 -4.38321,2.84996 -7.30527,3.89614 -2.88607,1.01011 -6.40341,1.51517 -10.55205,1.51517 m 0,-51.13686 c -1.55127,5e-5 -3.01232,0.27062 -4.38316,0.8117 -1.33481,0.5051 -2.50726,1.33483 -3.51735,2.4892 -0.97405,1.11838 -1.76771,2.57943 -2.38097,4.38316 -0.6133,1.80381 -0.95602,3.96833 -1.02815,6.49357 l 22.72749,0 c -0.28864,-4.72584 -1.42502,-8.26122 -3.40912,-10.60617 -1.98418,-2.38092 -4.65376,-3.57141 -8.00874,-3.57146"
         inkscape:connector-curvature="0" />
      <path
         id="path3893"
         style="fill:#bb0000;font-family:Liberation Sans;-inkscape-font-specification:Liberation Sans Bold"
         d="m 943.77875,408.86896 c -6e-5,2.81389 -0.5953,5.33916 -1.78573,7.57583 -1.15447,2.23668 -2.85001,4.14867 -5.08663,5.73598 -2.23672,1.55125 -4.97845,2.75977 -8.22519,3.62558 -3.24682,0.82973 -6.94454,1.2446 -11.09318,1.2446 -3.71579,0 -7.0708,-0.27057 -10.06503,-0.8117 -2.99428,-0.54113 -5.62778,-1.42497 -7.90051,-2.65154 -2.23669,-1.26263 -4.1126,-2.88602 -5.62776,-4.87017 -1.51517,-1.98414 -2.65155,-4.43726 -3.40913,-7.35938 l 13.36594,-2.00219 c 0.43288,1.62341 1.02813,2.94016 1.78573,3.95026 0.75756,1.01012 1.69552,1.78574 2.81388,2.32686 1.11831,0.54114 2.41702,0.90189 3.89614,1.08226 1.51514,0.18039 3.22872,0.27058 5.14074,0.27057 1.73159,10e-6 3.33694,-0.0902 4.81607,-0.27057 1.51512,-0.21644 2.81384,-0.55916 3.89614,-1.02815 1.11829,-0.50504 1.9841,-1.19047 2.59742,-2.05629 0.61324,-0.90187 0.91988,-2.02021 0.91993,-3.35501 -5e-5,-1.51515 -0.45099,-2.70564 -1.35283,-3.57147 -0.86585,-0.90186 -2.07437,-1.62337 -3.62558,-2.16452 -1.5152,-0.57718 -3.31897,-1.0642 -5.4113,-1.46105 -2.05633,-0.43288 -4.25693,-0.9199 -6.6018,-1.46106 -2.45315,-0.5411 -4.8702,-1.19046 -7.25115,-1.94807 -2.38099,-0.75755 -4.50944,-1.7857 -6.38535,-3.08444 -1.87593,-1.29869 -3.39109,-2.94011 -4.54549,-4.92429 -1.15442,-2.02019 -1.73163,-4.5635 -1.73162,-7.62995 -10e-6,-2.77776 0.54112,-5.24892 1.62339,-7.41349 1.08225,-2.20055 2.66957,-4.05843 4.76195,-5.57365 2.09236,-1.55118 4.67175,-2.72363 7.73817,-3.51735 3.10246,-0.82967 6.65588,-1.24454 10.66028,-1.2446 3.1746,6e-5 6.13278,0.3067 8.87454,0.91993 2.74169,0.57726 5.19481,1.51522 7.35938,2.81388 2.16447,1.26269 3.96824,2.88608 5.41131,4.87017 1.47904,1.9842 2.50718,4.38321 3.08444,7.19704 l -13.47415,1.40694 c -0.25257,-1.40689 -0.70351,-2.56131 -1.35283,-3.46323 -0.6494,-0.93792 -1.46109,-1.67746 -2.43509,-2.21864 -0.938,-0.54108 -2.03829,-0.90184 -3.3009,-1.08226 -1.26267,-0.21641 -2.65157,-0.32463 -4.1667,-0.32468 -3.60757,5e-5 -6.31322,0.46903 -8.11696,1.40694 -1.80379,0.90193 -2.70568,2.43513 -2.70566,4.59961 -2e-5,1.33483 0.36073,2.39905 1.08226,3.19267 0.75756,0.7937 1.80375,1.46109 3.13856,2.00219 1.37084,0.50509 2.97619,0.95603 4.81607,1.35282 1.87588,0.36079 3.91414,0.81174 6.11477,1.35283 2.70562,0.57724 5.35716,1.26267 7.95463,2.0563 2.63345,0.75761 4.96031,1.82184 6.98058,3.19267 2.05625,1.33482 3.69768,3.06643 4.92429,5.19485 1.26259,2.12848 1.8939,4.83413 1.89396,8.11697"
         inkscape:connector-curvature="0" />
      <path
         id="path3895"
         style="fill:#bb0000;font-family:Liberation Sans;-inkscape-font-specification:Liberation Sans Bold"
         d="m 1005.4677,408.86896 c -1e-4,2.81389 -0.5953,5.33916 -1.7857,7.57583 -1.1545,2.23668 -2.8501,4.14867 -5.08668,5.73598 -2.23672,1.55125 -4.97844,2.75977 -8.22518,3.62558 -3.24683,0.82973 -6.94455,1.2446 -11.09318,1.2446 -3.7158,0 -7.0708,-0.27057 -10.06504,-0.8117 -2.99427,-0.54113 -5.62777,-1.42497 -7.90051,-2.65154 -2.23668,-1.26263 -4.1126,-2.88602 -5.62776,-4.87017 -1.51517,-1.98414 -2.65154,-4.43726 -3.40912,-7.35938 l 13.36593,-2.00219 c 0.43289,1.62341 1.02813,2.94016 1.78573,3.95026 0.75756,1.01012 1.69552,1.78574 2.81388,2.32686 1.11832,0.54114 2.41703,0.90189 3.89614,1.08226 1.51514,0.18039 3.22872,0.27058 5.14075,0.27057 1.73158,10e-6 3.33693,-0.0902 4.81606,-0.27057 1.51513,-0.21644 2.81384,-0.55916 3.89614,-1.02815 1.1183,-0.50504 1.98411,-1.19047 2.59743,-2.05629 0.61324,-0.90187 0.91988,-2.02021 0.91992,-3.35501 -4e-5,-1.51515 -0.45098,-2.70564 -1.35283,-3.57147 -0.86585,-0.90186 -2.07437,-1.62337 -3.62557,-2.16452 -1.5152,-0.57718 -3.31897,-1.0642 -5.41131,-1.46105 -2.05633,-0.43288 -4.25692,-0.9199 -6.6018,-1.46106 -2.45315,-0.5411 -4.87019,-1.19046 -7.25115,-1.94807 -2.38099,-0.75755 -4.50944,-1.7857 -6.38534,-3.08444 -1.87593,-1.29869 -3.3911,-2.94011 -4.5455,-4.92429 -1.15442,-2.02019 -1.73162,-4.5635 -1.73162,-7.62995 0,-2.77776 0.54113,-5.24892 1.62339,-7.41349 1.08226,-2.20055 2.66957,-4.05843 4.76195,-5.57365 2.09236,-1.55118 4.67175,-2.72363 7.73818,-3.51735 3.10245,-0.82967 6.65588,-1.24454 10.66027,-1.2446 3.1746,6e-5 6.13278,0.3067 8.87455,0.91993 2.74168,0.57726 5.19481,1.51522 7.35938,2.81388 2.16447,1.26269 3.96824,2.88608 5.41129,4.87017 1.479,1.9842 2.5072,4.38321 3.0845,7.19704 l -13.4742,1.40694 c -0.25257,-1.40689 -0.70351,-2.56131 -1.35282,-3.46323 -0.6494,-0.93792 -1.4611,-1.67746 -2.43509,-2.21864 -0.938,-0.54108 -2.0383,-0.90184 -3.3009,-1.08226 -1.26267,-0.21641 -2.65157,-0.32463 -4.16671,-0.32468 -3.60756,5e-5 -6.31322,0.46903 -8.11696,1.40694 -1.80379,0.90193 -2.70567,2.43513 -2.70565,4.59961 -2e-5,1.33483 0.36073,2.39905 1.08226,3.19267 0.75756,0.7937 1.80374,1.46109 3.13856,2.00219 1.37083,0.50509 2.97619,0.95603 4.81606,1.35282 1.87589,0.36079 3.91415,0.81174 6.11478,1.35283 2.70561,0.57724 5.35715,1.26267 7.95462,2.0563 2.63346,0.75761 4.96032,1.82184 6.98059,3.19267 2.05626,1.33482 3.69766,3.06643 4.92426,5.19485 1.2626,2.12848 1.8939,4.83413 1.894,8.11697"
         inkscape:connector-curvature="0" />
    </g>
    <g
       id="text4136-0"
       style="font-size:64.15940857px;font-style:normal;font-variant:normal;font-weight:bold;font-stretch:normal;line-height:125%;letter-spacing:0px;word-spacing:0px;fill:#bb0000;fill-opacity:1;stroke:none;font-family:Nimbus Sans L;-inkscape-font-specification:Nimbus Sans L Bold">
      <path
         id="path3872"
         style="font-weight:normal;fill:#bb0000;font-family:Liberation Sans;-inkscape-font-specification:Liberation Sans"
         d="m 805.83959,313.0756 0,16.41578 24.62368,0 0,4.9498 -24.62368,0 0,17.8882 -5.98362,0 0,-44.14093 31.35917,0 0,4.88715 -25.37555,0"
         inkscape:connector-curvature="0" />
      <path
         id="path3874"
         style="font-weight:normal;fill:#bb0000;font-family:Liberation Sans;-inkscape-font-specification:Liberation Sans"
         d="m 838.2639,352.32938 0,-26.00211 c -1e-5,-0.71007 -0.0104,-1.43061 -0.0313,-2.16162 0,-0.75184 -0.0104,-1.47238 -0.0313,-2.16162 -0.0209,-0.68918 -0.0418,-1.33662 -0.0626,-1.94233 -0.0209,-0.60563 -0.0418,-1.14865 -0.0627,-1.62904 l 5.32573,0 c 0.0209,0.48039 0.0418,1.03385 0.0627,1.66037 0.0418,0.60571 0.0731,1.23226 0.094,1.87967 0.0418,0.64747 0.0626,1.27403 0.0627,1.87967 0.0209,0.58482 0.0313,1.08606 0.0313,1.50374 l 0.12531,0 c 0.39681,-1.29486 0.81451,-2.41221 1.25311,-3.35208 0.45946,-0.96069 0.99204,-1.74388 1.59772,-2.34959 0.60566,-0.62652 1.3262,-1.08599 2.16162,-1.37842 0.83539,-0.31325 1.84833,-0.46988 3.0388,-0.46992 0.45946,4e-5 0.89805,0.0418 1.31577,0.12531 0.41769,0.0627 0.74141,0.12535 0.97116,0.18797 l 0,5.16909 c -0.37595,-0.10439 -0.81454,-0.17749 -1.31577,-0.21929 -0.50126,-0.0626 -1.06516,-0.094 -1.6917,-0.094 -1.2949,3e-5 -2.40181,0.29243 -3.32075,0.87718 -0.89808,0.58482 -1.6395,1.39934 -2.22428,2.44357 -0.56391,1.02341 -0.98161,2.25563 -1.25311,3.69669 -0.27152,1.42022 -0.40727,2.97616 -0.40726,4.66785 l 0,17.6689 -5.63901,0"
         inkscape:connector-curvature="0" />
      <path
         id="path3876"
         style="font-weight:normal;fill:#bb0000;font-family:Liberation Sans;-inkscape-font-specification:Liberation Sans"
         d="m 868.21331,352.95593 c -3.4043,0 -5.96274,-0.89806 -7.67532,-2.69419 -1.71259,-1.79613 -2.56889,-4.26058 -2.56888,-7.39337 -10e-6,-2.23471 0.4177,-4.06216 1.25311,-5.48237 0.85629,-1.44107 1.9632,-2.56887 3.32075,-3.38341 1.37842,-0.8145 2.94481,-1.3784 4.69917,-1.6917 1.75435,-0.31326 3.54003,-0.49078 5.35706,-0.53257 l 7.61267,-0.12532 0,-1.84834 c -3e-5,-1.39928 -0.14622,-2.58974 -0.43859,-3.57137 -0.29242,-0.98158 -0.74145,-1.77522 -1.3471,-2.38092 -0.60569,-0.60564 -1.368,-1.04423 -2.28693,-1.31577 -0.89808,-0.29236 -1.96323,-0.43856 -3.19544,-0.43859 -1.08605,3e-5 -2.06765,0.0836 -2.94482,0.25063 -0.87719,0.14622 -1.6395,0.42817 -2.28693,0.84585 -0.64745,0.39685 -1.16958,0.9503 -1.56639,1.66037 -0.39683,0.68924 -0.65789,1.56642 -0.7832,2.63154 l -5.88963,-0.53257 c 0.20885,-1.33663 0.60567,-2.55841 1.19046,-3.66536 0.58478,-1.12777 1.40975,-2.09893 2.4749,-2.91349 1.08602,-0.81449 2.43312,-1.44104 4.04129,-1.87967 1.62903,-0.45944 3.59224,-0.68917 5.88963,-0.68921 4.26057,4e-5 7.46644,0.98164 9.61765,2.94482 2.15115,1.94235 3.22673,4.76186 3.22677,8.45851 l 0,14.59877 c -4e-5,1.67083 0.21926,2.93438 0.65788,3.79067 0.43856,0.83542 1.27397,1.25312 2.50623,1.25312 0.31324,0 0.62652,-0.0209 0.93983,-0.0627 0.31325,-0.0418 0.61608,-0.094 0.90851,-0.15664 l 0,3.50872 c -0.71013,0.16708 -1.42023,0.29239 -2.13029,0.37593 -0.68925,0.0835 -1.43067,0.12531 -2.22428,0.12531 -1.06518,0 -1.98413,-0.13575 -2.75685,-0.40726 -0.7519,-0.29239 -1.36801,-0.72054 -1.84834,-1.28444 -0.48039,-0.58478 -0.84588,-1.29488 -1.09648,-2.13029 -0.25064,-0.85629 -0.40728,-1.84834 -0.46991,-2.97615 l -0.18797,0 c -0.6057,1.08604 -1.27402,2.06765 -2.00498,2.94482 -0.71012,0.87718 -1.54553,1.62905 -2.50623,2.2556 -0.96074,0.60568 -2.05721,1.07559 -3.28942,1.40976 -1.21136,0.33416 -2.61067,0.50124 -4.19793,0.50124 m 1.28444,-4.22925 c 1.79611,0 3.3625,-0.32372 4.69917,-0.97117 1.35752,-0.66832 2.47488,-1.51417 3.35208,-2.53755 0.89804,-1.02337 1.56637,-2.14073 2.00498,-3.35208 0.43857,-1.21133 0.65786,-2.37046 0.65789,-3.47739 l 0,-2.78818 -6.17158,0.12531 c -1.37845,0.0209 -2.69421,0.12533 -3.94731,0.31328 -1.23224,0.1671 -2.31827,0.51171 -3.2581,1.03382 -0.93984,0.52215 -1.69171,1.25313 -2.2556,2.19295 -0.54303,0.93985 -0.81453,2.17207 -0.81452,3.69668 -10e-6,1.83791 0.49079,3.2581 1.4724,4.26059 1.00248,1.00249 2.42268,1.50374 4.26059,1.50374"
         inkscape:connector-curvature="0" />
      <path
         id="path3878"
         style="font-weight:normal;fill:#bb0000;font-family:Liberation Sans;-inkscape-font-specification:Liberation Sans"
         d="m 916.80279,352.32938 0,-21.4909 c -3e-5,-1.64991 -0.12534,-3.02833 -0.37594,-4.13527 -0.22976,-1.10689 -0.61614,-1.99452 -1.15913,-2.66287 -0.54304,-0.68918 -1.26358,-1.16954 -2.16162,-1.44108 -0.8772,-0.29236 -1.97367,-0.43856 -3.28942,-0.43859 -1.33667,3e-5 -2.54802,0.24021 -3.63403,0.72054 -1.06516,0.4595 -1.98411,1.13827 -2.75685,2.03631 -0.75188,0.87721 -1.33667,1.97368 -1.75436,3.28942 -0.41771,1.29491 -0.62657,2.7882 -0.62656,4.47988 l 0,19.64256 -5.63901,0 0,-26.65999 c 0,-0.71007 -0.0104,-1.4515 -0.0313,-2.22428 -10e-6,-0.79361 -0.0104,-1.53503 -0.0313,-2.22428 -0.0209,-0.71006 -0.0418,-1.31573 -0.0627,-1.81701 -0.0209,-0.50121 -0.0418,-0.82493 -0.0627,-0.97116 l 5.32573,0 c 0.0209,0.10446 0.0418,0.38641 0.0626,0.84585 0.0209,0.45951 0.0418,0.99208 0.0627,1.59772 0.0418,0.58482 0.0731,1.19049 0.094,1.81701 0.0209,0.6057 0.0313,1.11739 0.0313,1.53507 l 0.094,0 c 0.543,-0.98158 1.13823,-1.8692 1.78568,-2.66287 0.64743,-0.79361 1.3993,-1.46193 2.25561,-2.00498 0.85628,-0.56387 1.83788,-0.99201 2.94481,-1.28444 1.1069,-0.31325 2.39134,-0.46988 3.85333,-0.46992 1.87964,4e-5 3.49825,0.22977 4.85581,0.68921 1.35751,0.45951 2.47487,1.16961 3.35208,2.1303 0.87715,0.96075 1.51415,2.20342 1.911,3.72801 0.41767,1.50376 0.62652,3.29989 0.62655,5.38839 l 0,22.58737 -5.67033,0"
         inkscape:connector-curvature="0" />
      <path
         id="path3880"
         style="font-weight:normal;fill:#bb0000;font-family:Liberation Sans;-inkscape-font-specification:Liberation Sans"
         d="m 935.28621,335.22438 c -10e-6,1.94234 0.13574,3.72802 0.40726,5.35706 0.29238,1.62906 0.77274,3.03881 1.44108,4.22926 0.66831,1.16957 1.54549,2.07808 2.63154,2.72552 1.1069,0.64744 2.46444,0.97116 4.07262,0.97116 2.00496,0 3.67577,-0.54301 5.01245,-1.62905 1.35752,-1.08602 2.19292,-2.75684 2.50623,-5.01245 l 5.70166,0.37593 c -0.188,1.39932 -0.59526,2.74642 -1.22178,4.04129 -0.62659,1.29489 -1.48288,2.43314 -2.56889,3.41474 -1.06517,0.98161 -2.37049,1.77524 -3.91598,2.38091 -1.54552,0.58479 -3.33121,0.87718 -5.35706,0.87718 -2.65243,0 -4.90804,-0.44903 -6.76681,-1.34709 -1.85879,-0.89807 -3.37297,-2.13029 -4.54253,-3.69669 -1.1487,-1.58727 -1.9841,-3.44605 -2.50623,-5.57635 -0.52213,-2.15117 -0.7832,-4.47987 -0.7832,-6.98611 0,-2.27647 0.18797,-4.28145 0.5639,-6.01495 0.37593,-1.75433 0.89806,-3.27895 1.5664,-4.57386 0.6892,-1.31574 1.49328,-2.41221 2.41224,-3.28942 0.91894,-0.89804 1.91099,-1.60813 2.97614,-2.1303 1.08602,-0.54298 2.22427,-0.92935 3.41474,-1.15913 1.19044,-0.25058 2.39134,-0.37589 3.6027,-0.37593 1.90054,4e-5 3.59224,0.2611 5.07511,0.7832 1.48283,0.52216 2.75682,1.2427 3.82199,2.16162 1.08601,0.89809 1.96319,1.96324 2.63154,3.19544 0.6683,1.23225 1.13822,2.55846 1.40976,3.97863 l -5.79565,0.43859 c -0.29242,-1.87964 -1.03385,-3.37293 -2.22428,-4.47988 -1.19048,-1.10689 -2.88218,-1.66034 -5.07511,-1.66037 -1.60818,3e-5 -2.95527,0.27153 -4.04129,0.81452 -1.06516,0.52216 -1.9319,1.32624 -2.60021,2.41224 -0.66834,1.06517 -1.1487,2.41227 -1.44108,4.04129 -0.27152,1.62907 -0.40727,3.54007 -0.40726,5.733"
         inkscape:connector-curvature="0" />
      <path
         id="path3882"
         style="font-weight:normal;fill:#bb0000;font-family:Liberation Sans;-inkscape-font-specification:Liberation Sans"
         d="m 967.39725,336.57147 c -10e-6,1.77526 0.17751,3.41475 0.53257,4.91847 0.37592,1.48287 0.93982,2.76731 1.6917,3.85333 0.77274,1.06515 1.75435,1.90056 2.94482,2.50623 1.19044,0.58479 2.62108,0.87718 4.29191,0.87718 2.44355,0 4.39632,-0.4908 5.85831,-1.47241 1.48282,-0.9816 2.48531,-2.22427 3.00747,-3.72802 l 4.9498,1.40976 c -0.35508,0.93984 -0.85633,1.89012 -1.50374,2.85083 -0.62658,0.93984 -1.47244,1.79613 -2.53755,2.56888 -1.06518,0.75187 -2.40183,1.37843 -4.00997,1.87967 -1.5873,0.48036 -3.50873,0.72054 -5.76432,0.72054 -5.01246,0 -8.83446,-1.49329 -11.46599,-4.47988 -2.61065,-2.98658 -3.91598,-7.42468 -3.91598,-13.31433 0,-3.17453 0.39682,-5.85828 1.19046,-8.05125 0.79364,-2.21381 1.87967,-4.00994 3.2581,-5.38839 1.37841,-1.37839 2.98657,-2.37044 4.82448,-2.97614 1.83789,-0.62653 3.8011,-0.9398 5.88964,-0.93984 2.84037,4e-5 5.21084,0.45951 7.11142,1.37843 1.92141,0.91898 3.45647,2.19297 4.60519,3.82199 1.16954,1.60819 1.99451,3.50874 2.4749,5.70167 0.50121,2.19297 0.75183,4.56344 0.75187,7.11142 l 0,0.75186 -24.18509,0 m 18.35811,-4.32324 c -0.31331,-3.57135 -1.22181,-6.17155 -2.72552,-7.80063 -1.50376,-1.6499 -3.66538,-2.47487 -6.48487,-2.4749 -0.93985,3e-5 -1.9319,0.15667 -2.97614,0.46992 -1.02339,0.29242 -1.97367,0.825 -2.85083,1.59772 -0.87719,0.77278 -1.61862,1.82748 -2.22428,3.16411 -0.60568,1.31579 -0.95029,2.99705 -1.03382,5.04378 l 18.29546,0"
         inkscape:connector-curvature="0" />
    </g>
    <path
       sodipodi:nodetypes="ccccccccsccczccc"
       inkscape:connector-curvature="0"
       id="rect3071"
       d="m 492.04998,296.975 0,135.475 c 20.5408,-9.51665 43.66672,0 55.5,0 l 20.3,0 c 35.92872,0.51491 52.6816,-46.49286 53.17496,-67.725 0,-37.39016 -23.17512,-67.71428 -51.77496,-67.75 l -0.025,0 -0.025,0 -20.97504,0 c -12.85824,0 -39.03936,8.02915 -56.17496,0 z m 41.77496,14.85 11.3,0.025 c 28.89344,0 35.45012,24.81324 35.45008,50.9 -4e-5,26.08676 -3.48199,51.18284 -35.45008,50.9 l -11.12496,-0.05 z"
       style="fill:#bc0000;fill-opacity:1;stroke:none" />
  </g>
</svg>
