<?xml version="1.0" encoding="UTF-8" standalone="no"?>
<svg
   xmlns:dc="http://purl.org/dc/elements/1.1/"
   xmlns:cc="http://creativecommons.org/ns#"
   xmlns:rdf="http://www.w3.org/1999/02/22-rdf-syntax-ns#"
   xmlns:svg="http://www.w3.org/2000/svg"
   xmlns="http://www.w3.org/2000/svg"
   xmlns:xlink="http://www.w3.org/1999/xlink"
   xmlns:sodipodi="http://sodipodi.sourceforge.net/DTD/sodipodi-0.dtd"
   xmlns:inkscape="http://www.inkscape.org/namespaces/inkscape"
   width="992.12598"
   height="992.12598"
   viewBox="0 0 793.70076 793.70075"
   version="1.1"
   id="svg2462"
   sodipodi:version="0.32"
   inkscape:version="0.48.4 r9939"
   sodipodi:docname="mug.svg"
   inkscape:output_extension="org.inkscape.output.svg.inkscape"
   inkscape:export-filename="/home/eric/Bureau/mug.png"
   inkscape:export-xdpi="22.309999"
   inkscape:export-ydpi="22.309999">
  <metadata
     id="metadata2497">
    <rdf:RDF>
      <cc:Work
         rdf:about="">
        <dc:format>image/svg+xml</dc:format>
        <dc:type
           rdf:resource="http://purl.org/dc/dcmitype/StillImage" />
        <dc:title></dc:title>
      </cc:Work>
    </rdf:RDF>
  </metadata>
  <defs
     id="defs2495">
    <linearGradient
       inkscape:collect="always"
       id="linearGradient3807">
      <stop
         style="stop-color:#bb0000;stop-opacity:1;"
         offset="0"
         id="stop3809" />
      <stop
         style="stop-color:#bb0000;stop-opacity:0;"
         offset="1"
         id="stop3811" />
    </linearGradient>
    <linearGradient
       inkscape:collect="always"
       xlink:href="#linearGradient3807"
       id="linearGradient3813"
       x1="739.13391"
       y1="303.5314"
       x2="816.57379"
       y2="303.5314"
       gradientUnits="userSpaceOnUse"
       gradientTransform="translate(-31.339078,24.315529)" />
    <linearGradient
       inkscape:collect="always"
       id="linearGradient3807-9">
      <stop
         style="stop-color:#bb0000;stop-opacity:1;"
         offset="0"
         id="stop3809-3" />
      <stop
         style="stop-color:#bb0000;stop-opacity:0;"
         offset="1"
         id="stop3811-9" />
    </linearGradient>
    <linearGradient
       inkscape:collect="always"
       xlink:href="#linearGradient3807-9"
       id="linearGradient3864"
       gradientUnits="userSpaceOnUse"
       gradientTransform="translate(-31.339058,24.315533)"
       x1="739.13391"
       y1="303.5314"
       x2="816.57379"
       y2="303.5314" />
    <linearGradient
       y2="303.5314"
       x2="816.57379"
       y1="303.5314"
       x1="739.13391"
       gradientTransform="translate(-31.339058,24.315533)"
       gradientUnits="userSpaceOnUse"
       id="linearGradient3864-1"
       xlink:href="#linearGradient3807-9-1"
       inkscape:collect="always" />
    <linearGradient
       id="linearGradient3807-9-1"
       inkscape:collect="always">
      <stop
         id="stop3809-3-0"
         offset="0"
         style="stop-color:#bb0000;stop-opacity:1;" />
      <stop
         id="stop3811-9-6"
         offset="1"
         style="stop-color:#bb0000;stop-opacity:0;" />
    </linearGradient>
    <linearGradient
       gradientTransform="translate(-31.339078,24.315529)"
       gradientUnits="userSpaceOnUse"
       y2="303.5314"
       x2="816.57379"
       y1="303.5314"
       x1="739.13391"
       id="linearGradient3813-9"
       xlink:href="#linearGradient3807-6"
       inkscape:collect="always" />
    <linearGradient
       id="linearGradient3807-6"
       inkscape:collect="always">
      <stop
         id="stop3809-0"
         offset="0"
         style="stop-color:#bb0000;stop-opacity:1;" />
      <stop
         id="stop3811-7"
         offset="1"
         style="stop-color:#bb0000;stop-opacity:0;" />
    </linearGradient>
  </defs>
  <sodipodi:namedview
     inkscape:window-height="1145"
     inkscape:window-width="1920"
     inkscape:pageshadow="2"
     inkscape:pageopacity="0.0"
     guidetolerance="10.0"
     gridtolerance="10.0"
     objecttolerance="10.0"
     borderopacity="1.0"
     bordercolor="#666666"
     pagecolor="#ffffff"
     id="base"
     showgrid="false"
     inkscape:zoom="0.35355339"
     inkscape:cx="634.83945"
     inkscape:cy="113.25266"
     inkscape:window-x="0"
     inkscape:window-y="27"
     inkscape:current-layer="svg2462"
     inkscape:snap-global="false"
     inkscape:window-maximized="1"
     units="mm"
     fit-margin-top="40"
     fit-margin-left="120"
     fit-margin-right="120"
     fit-margin-bottom="40" />
  <g
     id="g3019"
     transform="matrix(0.94505092,0,0,0.94505092,88.94422,-47.405991)">
    <text
       sodipodi:linespacing="125%"
       id="text3006"
       y="791.7829"
       x="325.04202"
       style="font-size:62.69552994px;font-style:normal;font-weight:normal;text-align:center;line-height:125%;letter-spacing:0px;word-spacing:0px;text-anchor:middle;fill:#bb0000;fill-opacity:1;stroke:none;font-family:Sans"
       xml:space="preserve"><tspan
         style="font-style:normal;font-variant:normal;font-weight:500;font-stretch:normal;font-family:Ubuntu;-inkscape-font-specification:Ubuntu Medium"
         y="791.7829"
         x="325.04202"
         id="tspan3008"
         sodipodi:role="line">I'm a developer</tspan><tspan
         style="font-style:normal;font-variant:normal;font-weight:500;font-stretch:normal;font-family:Ubuntu;-inkscape-font-specification:Ubuntu Medium"
         id="tspan3010"
         y="870.15228"
         x="325.04202"
         sodipodi:role="line">and it's a true story</tspan></text>
    <path
       style="fill:#040202"
       d="m 327.1132,58.307388 c -0.99876,0.0475 -2.745,1.89 -3.45,2.725 -2.63,2.41 -1.555,2.135 -3.775,4.925 -1.13,1.53 -3.105,3.83 -4.225,5.35 -0.68,1.01 -4.545,6.024997 -5.225,7.024997 -3.6,6.03 -0.835,0.84 -4.625,6.75 -0.9,1.48 -3.005,4.975 -3.875,6.475 l -3.375,6.575 c -1.72961,2.800165 -2.70534,3.951225 -3.925,7.025005 l -3.85,8.65 c -0.66,1.65 -1.725,5.295 -2.425,6.925 l -2.7,9.375 -1,7.975 c -0.49,5.94 -0.045,3.84 -0.275,9.8 l -2.775,-1.125 -4.85,-4.125 -5.475,-4.15 -6.75,-4.75 -7.95,-4.825 -8.325,-4.5 -8.725,-3.875 -8.925,-3.65 -9.425,-3.275 -8.35,-2.65 -9.525,-2.975 -9.275,-2.475 -7.425,-1.85 -5.1,-0.7 c -1.56451,-0.13802 -1.5855,0.0126 -3.15,-0.125 -0.78815,0.0857 -1.58685,0.5893 -2.375,0.675 l -1.975,1.1 -2.4,3.025 -2.725,5.125 -2.275,5.8 -2.825,8.2 -3.15,10.525 c -0.86135,2.8995 -2.01358,8.61729 -2.75,11.55 -0.21,1.09 -1.815,8.385 -2.025,9.475 -0.35,1.33 -1.66,9.65 -1.95,11 -0.53,1.92 -1.32,11.08 -1.85,13 -0.22,1.38 -0.44,11.145 -0.65,12.525 l -0.025,13.6 1.225,12.125 c 0.22,1.02 2.04,11.645 2.25,12.675 l 2.975,11.9 3.05,9.875 2.95,8.1 3.15,7.95 2.95,6.35 2.35,4.4 2.425,3.425 1.9,1.75 2.45,1.75 2.7,0.975 3.65,0.425 4.225,0.225 4.125,0.075 5.85,-0.175 7.1,-0.55 9.25,-0.975 10.825,-1.55 10.275,-2.2 10.15,-2.825 9.725,-3.1 7.6,-3 6.775,-3.075 6.9,-3.5 6.65,-3.925 5.225,-3.45 c 0.495,-0.395 3.99288,-3.07465 5.8,-4.2 1.80712,-1.12536 1.92,-0.69 2.425,-1.075 l -3.875,10.125 -3.875,8.55 c -1.01,2.32 -3.275,6.2 -4.325,8.5 -1.58181,2.89316 -2.76756,6.66884 -4.55,9.4 l -4.775,9.85 -5.025,11.275 -5.25,11.5 c -0.75,1.94 -4.745,10.26 -5.625,12.15 -2.21284,4.64755 -2.87318,6.08833 -4.775,10.875 -1,2.33 -2.805,7.45 -3.775,9.8 -1.44,2.95 -2.84,6.32 -4,9.4 -0.23,0.52 -4.71,11.155 -4.95,11.675 -4.15,9.09 -2.91,5.635 -6.6,14.925 -1.67179,3.70192 -4.46497,10.62409 -5.9,14.42499 -1.979,6.03639 -3.43436,8.63012 -4.95,14.825 -0.46,1.23 -3.69,9.685 -4.15,10.925 -1.3,3.33 -7.79649,20.26033 -5.775,14.475 l -6.75,9.95 -5.05,6.45 c -2.98332,3.4958 1.09724,-0.74596 -6.775,7.975 l -7.375,6.5 -9.05,6.95 c -6.74083,5.06789 -3.91804,2.82413 -11.275,7.325 -6.30031,3.95079 -9.8,6.61 -11.6,7.45 -1.98,1 -11.225,8.69 -13.175,9.75 -7.43,4.07 -7.04,5.135 -13.85,10.175 -7.03,4.92 -5.375,2.005 -10.725,8.975 -1.05,3.06 -0.33,3.065 -0.15,6.275 0.74,2.25 5.95,9.69 6.95,11.85 l 5.65,10.075 7.65,13.6 c 0.32,3.06 -0.05,6.175 -0.75,9.175 -0.06,1.63 -0.05,4.86 -0.05,6.5 l 4.575,5.525 c 0.74,6.02 0.625,12.12 0.075,18.15 -0.92,1.76 -1.48,3.955 -3.3,5.025 -6.05,3 -13.505,1.655 -19.225,5.425 -0.4,1.07 -0.795,5.345 -1.225,6.425 0.02,1.98 1.645,3.575 1.775,5.575 1.46,3.43 2.325,3.44 5.225,5.75 2.67,1.75 5.49,3.29 8.45,4.5 1.3,0.41 9.41,1.22 10.7,1.7 l 9.5,-0.175 11.1,-0.975 c 0.32,1.81 -1.37,14.82 -1.1,16.65 0.22667,5.01333 -0.22228,10.18916 0.675,15.05 0.2822,1.52875 0.66196,5.45312 2,9.725 1.33804,4.27187 3.52445,8.72766 4.525,10.2 1.00054,1.47235 3.02144,3.93726 4.3,4.925 l 5.45,2.7 8.675,1.55 c 4.685,0.375 9.33875,-0.0263 13.9,-0.95 4.56125,-0.92375 9.02,-2.365 13.35,-4.075 5.56976,-2.84527 11.39308,-5.20293 16.725,-8.5 5.44,-2.62 9.865,-6.94 15.375,-9.45 5.83,-3.55 6.09,-4.265 12.2,-7.325 2.9476,-1.49067 8.35272,-4.45901 11.475,-5.55 1.2,-0.51 9.205,-3.78 10.425,-4.25 l 11.65,-2.6 12.425,-1.8 14.6,-0.575 c 0,0 9.45428,-0.0432 14.1,0.475 4.64572,0.5182 10.09788,1.9978 13.325,2.675 6.43412,1.35019 13,4.225 13,4.225 3.77796,1.50997 10.01548,4.48268 13.725,6.15 2.5,1.25 7.865,4.025 10.42499,5.175 5.59,2.82 6.285,3.515 11.225,7.375 3.985,3.54 9.6725,8.24125 13.5,11.975 3.82751,3.73375 7.8,7.29 12.375,10.125 4.495,2.36 9.5275,3.49625 14.6,3.6 5.07251,0.10375 10.2,-0.83 14.875,-2.625 3.425,-2.17 6.205,-4.995 8.625,-8.15 2.42,-3.155 4.48,-6.625 6.425,-10.075 0.24,-0.49 3.125,-11.51 3.375,-12 l 3.475,-14.825 c 0.31,-0.68 0.93,-18.835 1.65,-18.725 12.19,2.25 6.215,0.605 12.625,1.325 3.61,0.56 2.945,-0.095 12.925,-1.075 0.87503,0.75228 9.875,-4.8 9.875,-4.8 3.85,-3.94 2.755,-1.22 6.225,-5.95 0,0 1.29,-7.9 1.35,-8.35 -3.39,-6.3 -0.11,-0.52 -3.3,-6.1 -4.87,-3.95 -5.125,-3.65 -5.125,-3.65 -0.58,-0.12 -8.075,-1.375 -8.075,-1.375 -1.86883,-5.95301 -1.7006,-3.34892 -3.35,-12.475 -1.11,-7.71 -0.55,-7.41 -0.15,-11.4 3.14,-7.3 2.225,-5.925 2.575,-6.425 1.68,-4.42 3.565,-3.155 4.175,-7.775 0.18,-1.82 -0.055,-6.05 0.125,-7.85 3.52,-3.995 7.37125,-7.67249 11.125,-11.45 3.75376,-3.7775 7.82,-9.245 10.925,-13.6 0.44333,-1.86667 0.48168,-2.13332 0.925,-4 l -1.25,-5.075 c -2.28667,-3.155 -7.21332,-7.07 -9.5,-10.225 -4.025,-3.98 -4.18424,-4.0624 -12.275,-10.7 -9.14542,-7.50284 -8.78487,-8.18096 -15.05,-12.85 l -9.075,-7.975 c -5.13504,-3.63203 -11.5,-9.125 -11.5,-9.125 -4.83631,-3.60548 -5.23568,-4.11471 -9.525,-7.875 -4.58827,-4.72096 -5.93485,-6.49393 -9.55,-9.8 l -7.325,-9.825 c 3.88869,5.39396 0.123,-1.56048 -3.525,-6.775 l -5.25,-9.675 c -1.01,-2.99 -1.935,-6.42 -2.975,-9.4 -0.15,-0.57 -2.85,-8.09 -3,-8.65 l -3.075,-9.4 c -1.83758,-4.8616 -3.85963,-10.18141 -6.05,-14.89999 l -4.375,-11.65 c -0.68,-1.69 -3.975,-9.965 -4.675,-11.625 -0.89,-2.07 -3.96,-9.55 -4.75,-11.65 -3.02616,-6.81152 -2.31544,-4.08453 -5.275,-10.925 -1.61,-3.73 -5.105,-10.025 -6.775,-13.725 -1.55,-3.18 -4.22,-8.185 -5.6,-11.425 -1.35,-3.17 -4.11,-8.135 -5.49999,-11.275 -1.218,-2.23263 -4.02342,-7.28208 -5.075,-9.6 l -5.375,-9.025 -5.825,-10.075 -5.6,-9.525 -3.9,-7.25 c -1.46093,-2.72417 -4.27572,-7.144 -4.05,-7.6 l 10.75,6.975 9.5,5.2 8.975,3.625 10.17499,3.3 12.05,3.1 c 1.72,0.24 10.86,2.245 12.6,2.475 2.58,0.53 8.02,0.915 10.6,1.475 l 11,0.9 10.375,0.5 8.25,-0.025 2.575,-0.725 2.675,-1.725 2.15,-2.85 3.075,-4.625 2.55,-5.35 2.775,-6.35 2.9,-7.65 3.375,-9.675 c 1.71,-5.06 1.61,-5.815 3,-10.975 0.73,-2.97 2.265,-10.725 3.075,-13.675 0.32,-1.99 1.32,-11.225 1.6,-13.225 l 0.9,-15.775 c 0.06,-5.3 0.025,-13.565 -0.575,-18.825 l -1.875,-13.275 -2.425,-12.525 -3.55,-13.9 -3.05,-11.35 -2.625,-9.8 -2.625,-7.75001 -2.1,-7.075 -1.875,-4.025 -1.8,-3.674995 -1.75,-2.4 -1.7,-1.225 -2.075,-1 -2.625,-0.7 -3.925,-0.075 -5.025,0.375 -4.875,0.775 -4,0.85 -5.5,1.525 -8.975,2.9 c -0.52,0.155 -3.95685,1.51825 -7.675,3.149995 -3.71812,1.63175 -6.865,3.535 -7.375,3.7 l -7.55,4.2 -6.825,4.475 -6.35,4.925 -7.62499,6.45001 -9.125,9.1 -7.525,7.15 c -0.72,-3.25 -0.955,-4.09 -1.225,-7.4 -0.78,-2.59 -1.88,-7.21 -2.8,-9.75 -0.55,-1.44 -2.71,-7.66001 -3.25,-9.10001 -0.64,-1.66 -2.865,-7.33 -3.475,-9 -1.74,-3.95 -2.945,-7.379995 -4.725,-11.299995 -0.83,-2.09 -4.46,-8.565 -5.25,-10.675 -2.64,-5.54 -4.105,-6.875 -6.725,-12.424997 -1.975,-3.435 -3.92876,-6.1275 -4.95,-7.825 -0.51063,-0.84875 -0.79172,-1.46094 -1.325,-2.175 -0.53328,-0.71406 -1.72,-1.537499 -3.25,-2.85 -0.95,0.055 -2.80125,-0.0975 -3.8,-0.05 z m 4.475,330.325002 c 4.12878,0.04 8.24,0.43249 12.3,1.325 6.01,1.335 12.06875,2.94375 17.85,5.175 5.78124,2.23124 11.29,5.095 16.225,8.925 4.165,3.56999 8.34499,7.36249 11.89999,11.62499 3.555,4.26251 6.495,8.98 8.2,14.35 1.98,6.79 2.92,13.94 2.4,21 -1.16,7.955 -4.31375,15.34876 -8.775,21.925 -4.46124,6.57625 -10.21999,12.33 -16.62499,16.95 -4.57,3.235 -9.515,6 -14.7,8.125 -5.185,2.125 -10.62,3.6 -16.2,4.275 -8.01,0.35 -16.08,0.46 -24.05,-0.45 -5.995,-0.955 -12.08125,-2.09749 -17.925,-3.9 -5.84376,-1.8025 -11.46,-4.275 -16.5,-7.85 -4.035,-2.84 -7.96625,-5.97749 -11.425,-9.55 -3.45876,-3.5725 -6.445,-7.58 -8.525,-12.15 -2.57,-5.62 -4.5675,-11.64624 -5.575,-17.8 -1.00751,-6.15375 -1.03,-12.435 0.4,-18.55 1.37,-4.4 3.33375,-8.59249 5.75,-12.525 2.41624,-3.9325 5.305,-7.605 8.55,-10.875 3.57,-3.88 7.58,-7.40999 12.4,-9.64999 4.485,-2.18 9.12749,-4.10625 13.875,-5.675 4.7475,-1.56876 9.62,-2.785 14.575,-3.5 4.665,-0.65 9.37875,-1.11252 14.1,-1.175 0.59016,-0.008 1.18517,-0.0306 1.775,-0.025 z m 85.49999,50.64999 c 3.11137,-0.17816 6.875,1.15 6.875,1.15 2.39665,2.91536 2.02758,3.09653 3.45,6.375 0,0 1.8502,6.00652 2.75,9.025 0.64,2.33 1.32,4.665 2.05,6.975 0.93229,3.4388 1.89612,6.87248 2.675,10.35 1.16133,3.85948 2.5759,10.93764 3.725,14.8 2.9,9.01 1.89,6.13 4.05,15.35 1.1,4.3 1.79,6.6 2.7,10.95 0.77232,2.98249 2.63473,9.57173 3.2,12.6 0.46,1.89 2.415,9.825 2.875,11.725 l 3.175,12.425 c 0.61067,2.65828 2.12508,11.25796 2.975,13.85 l 2.825,15.6 1.7,13.35 c 0.87,3.9 1.18,11.175 2.1,15.075 0.3,3.38 0.5,6.76 0.75,10.15 0.8,4.28 1.015,10.24 1.425,14.55 0.47,5.33 0.47625,10.2775 0.225,15.225 -0.25124,4.94751 -0.345,13.09 -0.9,18.4 l -1.85,12.425 -4.75,11.45 c -1.005,1.87 -2.81571,5.56993 -5.15,7.025 l -5.4,3.35 -6.6,0.175 c -0.955,-0.52 -4.80624,-0.67625 -7.425,-1.65 -2.61875,-0.97375 -6.41,-3.57 -7.3,-4.175 -2.53,-2.21 -5.03,-4.45 -7.6,-6.6 l -0.25,-0.35 -10.775,-10.225 c -1.56,-0.77 -10.695,-7.97 -12.225,-8.75 -2.26344,-1.05484 -9.74292,-5.28609 -12.02499,-6.3 -2.60672,-1.25338 -8.5052,-3.81727 -11.275,-4.625 -2.20423,-0.90527 -9.24845,-3.27785 -11.475,-4.125 -4.98,-1.41 -7.995,-1.905 -13.075,-2.875 -5.26,-1.12 -10.315,-0.965 -15.575,-2.025 -6.39,-0.03 -9.17,-0.135 -15.55,0.075 -3.98,0.63 -11.245,0.725 -15.225,1.325 -3.68,0.67 -8.58,1.695 -12.25,2.425 l -11.4,2.45 -9.6,4.3 -8.875,4.5 -9.025,5.375 c -4.15763,2.46515 -4.995,4.045 -10.475,7.175 -1.07,0.64 -6.93,4.1 -8,4.75 -3.15468,1.87725 -8.79692,4.77662 -12.05,6.475 -3.42019,1.34427 -5.27635,2.88017 -8.85,3.825 l -8.325,2.2 -6.35,0.6 -7.875,-1.3 -5.25,-4.025 -3.425,-4.4 -2.225,-6.425 -1.4,-7.2 -0.6,-8 c 0.27,-2.85 0.525,-5.60249 0.425,-8.75 -0.1,-3.1475 0.66,-8.305 1.15,-11.125 0.27,-2.02 1.68,-10.055 1.95,-12.075 0.42,-1.67 1.93,-10.96 2.25,-12.65 0.88,-3.55 0.69,-4.755 1.45,-8.325 0.58,-2.55 1.3,-5.485 1.65,-8.075 0.4058,-3.74015 1.94251,-7.35673 2.325,-11.075 l 2.425,-11.525 3.125,-11.55 c 0.86417,-2.57647 1.88984,-8.03068 2.6,-10.65 1.01659,-4.04119 1.55941,-5.67856 2.45,-9.75 0.82,-2.93 1.415,-5.515 2.275,-8.425 0.3463,-2.7466 1.18529,-5.37224 2.025,-8 0.47576,-3.46159 1.75397,-6.76051 2.825,-10.075 0.84,-3.09 1.985,-6.085 2.825,-9.175 1.27351,-3.21106 1.35437,-4.94423 2.5,-8.2 0.29782,-2.0735 2.03321,-7.94367 2.85,-9.85 2.19099,-5.92876 0.59533,-2.32216 3.525,-9.05 1.77781,-5.52244 1.97591,-6.08241 3.175,-9.8 0.90091,-1.92684 1.96185,-4.25793 3.2,-9.15 1.88433,-4.67095 2.36053,-5.49471 2.875,-7.55 0.88,-2.24 2.845,-6.125 3.525,-8.425 2.06,-4.23 2.025,-8.085 7.125,-9.525 2.11,-0.18 3.165,0.095 5.275,0.125 2.81,1.25 5.905,6.375 6.525,9.625 l 2.425,10.325 c 1.0975,2.13251 1.87515,6.51641 2.775,9.025 0.89984,2.5086 3.13061,6.34562 4.75,9.025 1.61938,2.67939 3.21889,5.90516 5.275,8.45 2.05608,2.54484 5.365,5.62 7.175,7.225 3.1325,2.67251 5.46344,4.65844 7.25,6.025 1.78656,1.36656 4.50765,3.0736 9.175,5.1 l 8.85,3.3 8.975,2.3 9.65,2.075 10.85,1.25 8.5,0.625 10.475,-0.575 10.025,-1.75 7.25,-2.175 7.275,-2.575 6.5,-3.375 7.75,-5.55 7.52499,-6.2 7.125,-7.825 3.85,-6.8 c 0.46,-1.08 4.91,-10.54 5.4,-11.6 l 3.475,-13.95 c 0.43,-4.97 1.9,-10.2 1.9,-10.2 0.87973,-2.20404 1.36018,-2.18156 4.35,-3.9 z m 51.75,62.725 c 1.40807,0.0813 2.37953,1.12822 7.35,4.625 6.86405,5.23443 5.35621,2.8252 11.075,8.1 8.54057,6.33463 6.48896,5.68284 13.425,11.8 6.15333,5.42687 6.2,5.5 8.8,9.975 l 1.2,5.2 -2.2,6.45 c -2.95,4.89 -5.94,7.205 -10.5,10.725 -1.8,1.84 -3.635,3.645 -5.575,5.325 -2.875,0.43 -5.70749,1.485 -7.375,1.9 -1.6675,0.415 -5.78,1.38 -7.175,4.1 -0.95,0.57 -3.89,5.955 -4.85,6.525 -0.76,-1.19 -3.12,-15.57 -3.85,-16.75 l -3.35,-12.7 c -1.95,-6.68 -2.885,-15.52 -4.975,-22.15 l -0.225,-6.175 c 1.35881,-2.99971 2.17788,-6.38373 3.375,-9.45 l 3.3,-7.325 c 0.34,-0.0588 0.63536,-0.12347 0.9,-0.15 0.23156,-0.0232 0.44885,-0.0366 0.65,-0.025 z m -282.37499,0.375 c -0.15767,0.0879 -0.9,0.475 -0.9,0.475 3.33,3.42 4.89133,7.96852 6.55,11.95 -0.0309,4.44337 1.1375,5.2925 0.35,8.675 -0.78751,3.38251 -1.995,9.92 -2.825,13.225 -1.63,5.98 -3.44,10.7 -5.2,16.65 -1.75,7.18 -1.565,7.97 -3.725,15.05 -0.78,-0.02 -2.77,9.16 -3.55,9.15 -1.24,-2.74 -2.505,-6.055 -4.525,-8.275 -0.47,-0.33 -6.19,-2.17 -6.65,-2.5 -4.51,-1.94 -6.245,-0.47 -10.975,-0.15 -1.33,0.31 -10.95,-14.015 -11.7,-14.875 -4.40768,-7.86432 -2.64012,-3.62681 -6.35,-13.6 0.1,-2.74 -0.1094,-4.83441 2.175,-6.15 0.3,-0.19 9,-5.375 9.3,-5.575 9.38638,-6.60587 0.12536,-0.6972 9.85,-6.65 9.01511,-6.6474 0.19189,0.29367 8.6,-5.875 l 8.675,-5.3 c 1.9264,-1.02972 8.275,-4.9 8.275,-4.9 2.35313,-1.19793 2.78267,-1.41292 2.625,-1.325 z"
       id="path2466"
       inkscape:connector-curvature="0" />
    <path
       style="fill:#bb0000;fill-opacity:1"
       inkscape:connector-curvature="0"
       sodipodi:nodetypes="cccccccccssccccccccsccccsccccsc"
       id="path3091"
       d="m 412.66412,117.86933 9.99618,-6.23219 10.51664,-5.13179 11.12732,-3.41442 7.30894,-1.01027 4.74965,0.57014 2.94759,1.09256 2.10114,3.17536 3.26229,7.57326 4.77676,14.68652 c 1.14597,3.52337 2.35924,10.11472 4.54954,17.79451 2.1903,7.67979 3.94042,15.6349 4.58542,19.2849 1.45,7.6 2.14853,15.35 2.47853,23.03 0.63,7.66 -0.33,14.97 -0.74,22.66 -0.7,7.5 -2.07,14.91 -3.17,22.36 -1.59,7.89 -4.28,15.51 -6.87,23.12 -2.55,6.45 -4.46,13.37 -8.8,18.92 -1.43,2 -3.93,2.84 -6.3,2.98 -8.98,0.51 -17.93,-0.64 -26.85,-1.42 -6.24,-0.615 -12.425,-1.645 -18.54375,-2.98875 -6.11875,-1.34375 -12.17125,-3.00125 -18.14625,-4.87125 -7.83,-2.43 -14.84,-6.85 -21.74,-11.16 -5.44,-3.59 -11.07,-7.33 -14.86,-12.75 -1.92,-2.79 0.26,-6.01 1.23,-8.72 1.825,-4.145 2.8375,-8.6275 2.98125,-13.13125 0.14375,-4.50375 -0.58125,-9.02875 -2.23125,-13.25875 -2.09,-4.58 -5.11,-8.64 -7.62,-12.97 2.87,-6.44 6.15,-12.71 9.82,-18.73 4.3,-6.53 7.87,-13.5 12.22,-20 5.25,-8.285 11.145,-16.3725 17.9325,-23.545 6.7875,-7.1725 14.4675,-13.28858 23.2875,-17.91358 z" />
    <path
       style="fill:#bb0000;fill-opacity:1"
       inkscape:connector-curvature="0"
       sodipodi:nodetypes="cccccccccssccscccsscsccssscscccccccsccccccc"
       id="path3093"
       d="m 181.72549,116.37659 2.51452,-1.02437 2.48172,-0.60132 3.55492,0.0972 5.81767,1.22853 12.90812,3.72985 13.81543,5.3321 20.64125,8.87187 15.255,9.6875 c 3.19,2.61 7.76188,6.7325 12.17719,11.00328 4.41531,4.27078 8.67406,8.68984 11.23781,11.89297 5.1275,6.40625 9.875,13.14875 14.735,19.71375 1.98,3.33 5.53,6.57 4.81,10.77 -2.38,3.335 -4.81,6.755 -6.79875,10.38125 -1.98875,3.62621 -3.53625,7.45871 -4.15125,11.61871 -0.39,3.86 -0.08,8.6 0.58,12.43 1.12,4.11 3.02,6.95 4.68,10.85 -3.385,2.705 -8.6475,6.14187 -13.99687,9.45938 -5.34938,3.31749 -11.37817,6.50735 -15.31813,8.34312 l -14.825,6.9075 c -4.49,1.435 -12.03796,4.38269 -16.61892,5.45625 l -10.35541,2.42683 -9.22405,1.57829 -9.68275,1.53949 c -1.38798,0.22068 -5.52886,0.73162 -8.4748,0.93644 -2.94595,0.20481 -4.98362,-0.0633 -6.13643,-0.063 -2.30562,7.8e-4 -0.65646,-0.26689 -3.46896,-0.45439 l -3.32221,-1.49091 c -1.32,-1.04125 -2.73784,-2.25483 -3.76784,-3.51483 l -3.5641,-6.68734 -3.56409,-9.23292 -3.08044,-10.66391 -4.2875,-16.95375 -2.5025,-17.36625 c -0.55,-9.32 0.05,-6.65 -0.17,-15.97 -0.1,-2.86 0.245,-10.905 0.70625,-16.14125 0.46125,-5.23625 1.43875,-15.66375 1.80375,-18.48875 0.88,-6.25 2.13,-9.84 3.81,-15.96 l 3.14437,-10.46883 2.19461,-6.84373 2.65294,-6.2503 2.08725,-3.70471 1.7022,-2.37375 z" />
    <path
       style="fill:#bb0000;fill-opacity:1"
       inkscape:connector-curvature="0"
       sodipodi:nodetypes="ccsccccc"
       id="path3095"
       d="m 318.26412,203.04791 c 6.74,-1.61 14.35,-0.68 19.74,3.96 5.375,3.935 8.29,10.355 8.62625,16.91 0.33625,6.555 -1.90625,13.245 -6.84625,17.72 -5.4,5.92 -14.3,6.63 -21.71,5.05 -5.11,-0.97 -8.88,-4.96 -12.06,-8.79 -4.54,-5.51 -4.15,-13.28 -3.24,-19.93 2.22,-7.08 7.84,-13.72 15.49,-14.92 z" />
    <path
       id="path3097"
       d="m 331.58819,388.63239 c -0.58983,-0.006 -1.18484,0.0172 -1.775,0.025 -4.72125,0.0625 -9.435,0.525 -14.1,1.175 -4.955,0.715 -9.8275,1.93124 -14.575,3.5 -4.74751,1.56875 -9.39,3.49499 -13.875,5.67499 -4.82,2.24 -8.83,5.77 -12.4,9.65 -3.245,3.27 -6.13375,6.9425 -8.55,10.875 -2.41625,3.93251 -4.38,8.125 -5.75,12.525 -1.43,6.115 -1.40751,12.39625 -0.4,18.55 1.0075,6.15376 3.005,12.18 5.575,17.8 2.08,4.57 5.06625,8.5775 8.525,12.15 3.45875,3.57251 7.39,6.71 11.425,9.55 5.04,3.575 10.65625,6.0475 16.5,7.85 5.84375,1.80251 11.93,2.945 17.925,3.9 7.97,0.91 16.04,0.8 24.05,0.45 5.58,-0.675 11.015,-2.15 16.2,-4.275 5.185,-2.125 10.13,-4.89 14.7,-8.125 6.405,-4.62 12.16375,-10.37375 16.625,-16.95 4.46124,-6.57624 7.615,-13.97 8.775,-21.925 0.52,-7.06 -0.42,-14.21 -2.4,-21 -1.705,-5.37 -4.645,-10.08749 -8.2,-14.35 -3.555,-4.2625 -7.735,-8.055 -11.9,-11.625 -4.935,-3.83 -10.44376,-6.69375 -16.225,-8.925 -5.78125,-2.23124 -11.84,-3.83999 -17.85,-5.17499 -4.06,-0.89251 -8.17122,-1.28498 -12.3,-1.325 z m -26.325,12.22499 c 1.21072,-0.0169 2.42199,6.8e-4 3.625,0.075 1.203,0.0743 1.56757,0.19175 2.75,0.35 l 1.75,0.5 1.6,0.975 c 0.24884,0.14896 1.575,1.375 1.575,1.375 l 1.125,1.575 0.9,1.5 0.575,1.625 0.35,1.375 0.225,2.3 -0.025,1.9 -0.2,2.3 -0.475,2.2 -0.875,2.725 -2.05,3.425 c -0.65488,0.78292 -1.94579,2.09156 -2.675,2.775 -0.72923,0.68344 -1.50076,1.30896 -2.275,1.85 -0.77423,0.54103 -1.78574,1.12743 -2.8,1.85 -1.01427,0.72258 -1.78627,0.88559 -2.8,1.35 0,0 -1.75793,0.4814 -2.95,0.825 -1.19207,0.34361 -1.53947,0.35713 -2.425,0.525 l -2.85,0.375 c -0.77505,-10e-4 -1.83159,-0.0322 -2.2,0 -0.3684,0.0324 -1.40691,-0.035 -2.275,-0.075 -0.86809,-0.04 -1.62155,-0.10652 -2.5,-0.15 -0.87846,-0.0434 -1.50837,-0.24645 -2.325,-0.375 -0.81663,-0.12854 -1.59384,-0.28924 -2.35,-0.5 -0.75616,-0.21075 -1.42148,-0.54142 -2.075,-0.875 -0.65353,-0.33356 -1.16975,-0.74251 -1.925,-1.225 l -1.425,-1.45 -1.05,-1.275 -0.8,-1.375 -0.8,-1.375 -0.65,-2.1 -0.15,-2.25 0.175,-2.75 0.525,-1.95 0.55,-1.775 1,-1.775 1.075,-1.6 c 0.59021,-0.89275 1.22601,-1.72364 2,-2.5 0.77401,-0.77618 1.66186,-1.51293 2.65,-2.2 0.98685,-0.71408 1.99367,-1.34501 3.05,-1.925 1.05633,-0.58 2.16205,-1.09695 3.275,-1.55 1.11294,-0.45306 2.24331,-0.84172 3.4,-1.175 1.15669,-0.33328 2.33743,-0.60433 3.525,-0.825 1.18757,-0.22066 2.36941,-0.3848 3.575,-0.5 1.20558,-0.11519 2.43927,-0.18311 3.65,-0.2 z"
       style="fill:#bb0000;fill-opacity:1"
       inkscape:connector-curvature="0" />
  </g>
</svg>
