<?xml version="1.0" encoding="UTF-8" standalone="no"?>
<svg
   xmlns:dc="http://purl.org/dc/elements/1.1/"
   xmlns:cc="http://creativecommons.org/ns#"
   xmlns:rdf="http://www.w3.org/1999/02/22-rdf-syntax-ns#"
   xmlns:svg="http://www.w3.org/2000/svg"
   xmlns="http://www.w3.org/2000/svg"
   xmlns:sodipodi="http://sodipodi.sourceforge.net/DTD/sodipodi-0.dtd"
   xmlns:inkscape="http://www.inkscape.org/namespaces/inkscape"
   width="992.12598"
   height="992.12598"
   viewBox="0 0 793.70076 793.70075"
   version="1.1"
   id="svg2462"
   sodipodi:version="0.32"
   inkscape:version="0.48.5 r10040"
   sodipodi:docname="sac.svg"
   inkscape:output_extension="org.inkscape.output.svg.inkscape"
   inkscape:export-filename="/home/eric/Bureau/mug.png"
   inkscape:export-xdpi="22.309999"
   inkscape:export-ydpi="22.309999">
  <metadata
     id="metadata2497">
    <rdf:RDF>
      <cc:Work
         rdf:about="">
        <dc:format>image/svg+xml</dc:format>
        <dc:type
           rdf:resource="http://purl.org/dc/dcmitype/StillImage" />
        <dc:title />
      </cc:Work>
    </rdf:RDF>
  </metadata>
  <defs
     id="defs2495" />
  <sodipodi:namedview
     inkscape:window-height="852"
     inkscape:window-width="1600"
     inkscape:pageshadow="2"
     inkscape:pageopacity="0.0"
     guidetolerance="10.0"
     gridtolerance="10.0"
     objecttolerance="10.0"
     borderopacity="1.0"
     bordercolor="#666666"
     pagecolor="#ffffff"
     id="base"
     showgrid="false"
     inkscape:zoom="0.35355339"
     inkscape:cx="-164.14873"
     inkscape:cy="601.4644"
     inkscape:window-x="0"
     inkscape:window-y="22"
     inkscape:current-layer="svg2462"
     inkscape:snap-global="false"
     inkscape:window-maximized="1"
     units="mm"
     fit-margin-top="40"
     fit-margin-left="120"
     fit-margin-right="120"
     fit-margin-bottom="40" />
  <text
     xml:space="preserve"
     style="font-size:88.78794098px;font-style:normal;font-weight:normal;text-align:center;line-height:125%;letter-spacing:0px;word-spacing:0px;text-anchor:middle;fill:#bb0000;fill-opacity:1;stroke:none;font-family:Sans"
     x="395.7641"
     y="79.858093"
     id="text3006"
     sodipodi:linespacing="125%"><tspan
       sodipodi:role="line"
       id="tspan3008"
       x="395.76407"
       y="79.858093"
       style="font-style:normal;font-variant:normal;font-weight:500;font-stretch:normal;font-family:Ubuntu;-inkscape-font-specification:Ubuntu Medium">I'm a developer</tspan><tspan
       sodipodi:role="line"
       x="395.7641"
       y="190.84302"
       id="tspan3010"
       style="font-style:normal;font-variant:normal;font-weight:500;font-stretch:normal;font-family:Ubuntu;-inkscape-font-specification:Ubuntu Medium">and it's a true story</tspan></text>
  <g
     id="g3467"
     transform="matrix(0.83301435,0,0,0.83301435,121.76359,197.49028)">
    <path
       style="fill:#040202"
       d="m 593.40439,330.89117 c -0.45072,0.0214 -1.23891,0.85301 -1.55704,1.22989 -1.18702,1.08769 -0.70184,0.96357 -1.70389,2.22279 -0.50999,0.69052 -1.40124,1.72858 -1.90686,2.41461 -0.30688,0.45585 -2.05129,2.71927 -2.35818,3.17059 -1.62477,2.72153 -0.3768,0.37911 -2.08734,3.04647 -0.40619,0.66797 -1.35623,2.24538 -1.74889,2.92237 l -1.52329,2.96749 c -0.78057,1.26381 -1.22099,1.7833 -1.7715,3.1706 l -1.73751,3.90401 c -0.29794,0.74468 -0.77864,2.38978 -1.0946,3.12544 l -1.21846,4.23123 -0.45143,3.59935 c -0.22112,2.68089 -0.0206,1.7331 -0.12411,4.42303 l -1.25246,-0.50775 -2.18894,-1.86173 -2.47097,-1.87302 -3.04649,-2.14382 -3.58809,-2.17766 -3.75729,-2.03098 -3.93787,-1.74891 -4.02813,-1.64735 -4.25379,-1.47811 -3.76861,-1.19602 -4.29891,-1.34271 -4.18607,-1.11704 -3.35111,-0.83496 -2.30179,-0.31593 c -0.70611,-0.0623 -0.71559,0.006 -1.42169,-0.0564 -0.35572,0.0387 -0.7162,0.26597 -1.07192,0.30464 l -0.89138,0.49648 -1.08318,1.36526 -1.22987,2.31307 -1.02678,2.61772 -1.275,3.70089 -1.4217,4.75026 c -0.38875,1.30862 -0.90879,3.88923 -1.24115,5.21286 -0.0948,0.49194 -0.81916,3.7844 -0.91395,4.27635 -0.15796,0.60026 -0.7492,4.35532 -0.88009,4.96463 -0.23921,0.86655 -0.59576,5.00073 -0.83496,5.86729 -0.0993,0.62282 -0.19858,5.03007 -0.29337,5.65289 l -0.0109,6.13809 0.55287,5.47237 c 0.0993,0.46037 0.92072,5.25573 1.01551,5.72061 l 1.34269,5.37082 1.37655,4.45688 1.33143,3.65578 1.4217,3.58806 1.33141,2.86595 1.06063,1.98585 1.09448,1.54582 0.85752,0.78981 1.10576,0.78982 1.21858,0.44006 1.64734,0.19181 1.9069,0.10149 1.86172,0.0339 2.6403,-0.079 3.20443,-0.24823 4.17478,-0.44006 4.88566,-0.69955 4.6374,-0.99293 4.58103,-1.275 4.38916,-1.39912 3.43012,-1.35399 3.05776,-1.38784 3.11422,-1.57965 3.00134,-1.77148 2.35817,-1.55709 c 0.22342,-0.17827 1.80211,-1.38768 2.61765,-1.89557 0.81565,-0.50792 0.86658,-0.31142 1.09447,-0.48519 l -1.74889,4.56972 -1.74888,3.85886 c -0.45591,1.04709 -1.47804,2.79825 -1.95198,3.8363 -0.71392,1.30578 -1.24906,3.00986 -2.05359,4.24251 l -2.15508,4.44559 -2.26793,5.08875 -2.36947,5.1903 c -0.3385,0.87557 -2.14158,4.63063 -2.53872,5.48365 -0.99875,2.09758 -1.29677,2.74785 -2.15509,4.90821 -0.45136,1.0516 -1.26601,3.3624 -1.70379,4.42303 -0.64993,1.33143 -1.28177,2.8524 -1.80532,4.2425 -0.10378,0.23469 -2.12577,5.03459 -2.23409,5.26928 -1.87303,4.10258 -1.31337,2.54324 -2.97875,6.7361 -0.75457,1.67078 -2.01521,4.79496 -2.66285,6.51042 -0.8932,2.7244 -1.55005,3.89503 -2.23408,6.69097 -0.20765,0.55512 -1.66544,4.37113 -1.87304,4.93077 -0.58674,1.50294 -3.5188,9.14409 -2.60644,6.533 l -3.04648,4.49074 -2.27921,2.91107 c -1.34647,1.57775 0.49524,-0.33668 -3.05776,3.59936 l -3.32853,2.93364 -4.08456,3.13674 c -3.04232,2.28729 -1.76832,1.27462 -5.08874,3.306 -2.84351,1.7831 -4.42304,2.98328 -5.23542,3.3624 -0.89363,0.45134 -5.06618,3.92206 -5.94627,4.40047 -3.35338,1.8369 -3.17736,2.31757 -6.25091,4.59227 -3.17286,2.22055 -2.42591,0.90492 -4.84052,4.05069 -0.47389,1.38106 -0.14894,1.38332 -0.0677,2.83209 0.33398,1.0155 2.68543,4.37339 3.13675,5.34826 l 2.55001,4.54716 3.45267,6.13807 c 0.14442,1.38108 -0.0225,2.78697 -0.3385,4.14095 -0.0271,0.73567 -0.0226,2.19347 -0.0226,2.93364 l 2.06484,2.4936 c 0.33398,2.71701 0.28207,5.47013 0.0339,8.19164 -0.41523,0.79434 -0.66797,1.78501 -1.4894,2.26794 -2.73054,1.35399 -6.0952,0.74695 -8.6768,2.44847 -0.18054,0.48292 -0.35881,2.41235 -0.55289,2.89978 0.008,0.89363 0.74244,1.6135 0.80112,2.51617 0.65893,1.54806 1.04934,1.55257 2.3582,2.59514 1.20505,0.78983 2.47779,1.48489 3.81374,2.03098 0.58671,0.18505 4.247,0.55062 4.82922,0.76727 l 4.28763,-0.079 5.00977,-0.44004 c 0.14443,0.81691 -0.61834,6.68871 -0.49646,7.51464 0.10234,2.26267 -0.10029,4.59867 0.30463,6.79251 0.12738,0.68997 0.29877,2.46116 0.90266,4.38918 0.6039,1.92803 1.59069,3.93906 2.04227,4.60356 0.45159,0.66452 1.36367,1.77701 1.94072,2.22281 l 2.45975,1.21858 3.91528,0.69957 c 2.11449,0.16925 4.21486,-0.0121 6.27347,-0.42877 2.05868,-0.41691 4.07102,-1.06738 6.0253,-1.83917 2.51379,-1.28416 5.14201,-2.34823 7.54844,-3.83629 2.45525,-1.18249 4.45241,-3.13224 6.93922,-4.26508 2.63123,-1.60221 2.74862,-1.9249 5.50622,-3.30598 1.33036,-0.67279 3.76985,-2.01249 5.17903,-2.50489 0.54156,-0.23018 4.15448,-1.70602 4.7051,-1.91816 l 5.25803,-1.17344 5.60773,-0.81239 6.58947,-0.25953 c 0,0 4.26697,-0.0195 6.36374,0.21438 2.09665,0.23388 4.55741,0.90168 6.01393,1.20731 2.90396,0.60939 5.86732,1.90688 5.86732,1.90688 1.70509,0.68149 4.52026,2.02315 6.19451,2.77567 1.12823,0.56417 3.54967,1.8166 4.70499,2.33564 2.52304,1.27274 2.8367,1.58642 5.06618,3.32856 1.7986,1.59769 4.36555,3.71951 6.09303,5.40468 1.72747,1.68515 3.52039,3.29017 5.58523,4.5697 2.02867,1.06514 4.29999,1.57796 6.58934,1.62479 2.28935,0.0468 4.60361,-0.37461 6.71357,-1.18474 1.54579,-0.97939 2.80054,-2.25439 3.89272,-3.67834 1.09217,-1.42394 2.02202,-2.99006 2.89973,-4.54715 0.10886,-0.22114 1.41043,-5.1948 1.52329,-5.41595 l 1.56841,-6.69097 c 0.13995,-0.30691 0.41974,-8.5008 0.74464,-8.45115 5.50177,1.0155 2.80502,0.27305 5.69809,0.59802 1.62925,0.25274 1.32914,-0.0429 5.83345,-0.48518 0.39482,0.33952 4.45688,-2.1664 4.45688,-2.1664 1.73752,-1.77824 1.24339,-0.55062 2.8095,-2.6854 0,0 0.58219,-3.56551 0.60928,-3.7686 -1.53006,-2.84339 -0.0496,-0.23469 -1.48942,-2.75313 -2.19789,-1.78274 -2.31305,-1.64735 -2.31305,-1.64735 -0.26176,-0.0542 -3.6445,-0.62057 -3.6445,-0.62057 -0.84336,-2.68677 -0.76751,-1.51147 -1.51192,-5.63034 -0.5009,-3.47976 -0.24821,-3.34435 -0.0677,-5.14517 1.41721,-3.29469 1.00424,-2.67412 1.16222,-2.89979 0.75819,-1.99487 1.60893,-1.42393 1.88424,-3.50908 0.0811,-0.82142 -0.0254,-2.73055 0.0569,-3.54294 1.58861,-1.80306 3.32685,-3.46282 5.02106,-5.16772 1.69408,-1.7049 3.52933,-4.17255 4.93069,-6.1381 0.20019,-0.84248 0.21749,-0.96282 0.41756,-1.80532 l -0.56417,-2.29049 c -1.03205,-1.42395 -3.2556,-3.1909 -4.28765,-4.61485 -1.81663,-1.79629 -1.88848,-1.83347 -5.54011,-4.82922 -4.12752,-3.38626 -3.96481,-3.69232 -6.79245,-5.79959 l -4.09581,-3.59936 c -2.31766,-1.63924 -5.19028,-4.11839 -5.19028,-4.11839 -2.18278,-1.62724 -2.36302,-1.85709 -4.29903,-3.55422 -2.07078,-2.1307 -2.67849,-2.93089 -4.31016,-4.42302 l -3.30593,-4.43431 c 1.75506,2.43445 0.0556,-0.7043 -1.59103,-3.05777 l -2.36942,-4.36662 c -0.45579,-1.34947 -0.87335,-2.89753 -1.34269,-4.2425 -0.0677,-0.25726 -1.28632,-3.65126 -1.35406,-3.904 l -1.38781,-4.2425 c -0.82933,-2.19419 -1.74199,-4.59517 -2.7305,-6.72481 l -1.9746,-5.25799 c -0.30689,-0.76274 -1.79401,-4.4975 -2.10996,-5.2467 -0.40172,-0.93426 -1.78723,-4.31021 -2.14383,-5.25801 -1.3658,-3.07423 -1.045,-1.84346 -2.38079,-4.93076 -0.72663,-1.68347 -2.304,-4.52459 -3.05771,-6.19452 -0.69953,-1.43522 -1.90469,-3.69412 -2.5274,-5.15644 -0.6093,-1.43071 -1.85497,-3.67157 -2.48241,-5.08875 -0.54966,-1.00764 -1.81578,-3.28661 -2.29044,-4.33276 l -2.42591,-4.07324 -2.62902,-4.54715 -2.5274,-4.29892 -1.76025,-3.27214 c -0.65926,-1.2295 -1.92973,-3.22431 -1.82788,-3.43011 l 4.85183,3.14803 4.28766,2.34691 4.05069,1.63608 4.59225,1.48938 5.4385,1.39912 c 0.77634,0.10826 4.90142,1.01323 5.68684,1.11704 1.16439,0.23922 3.61958,0.41298 4.78397,0.66572 l 4.96469,0.40619 4.6826,0.22567 3.72337,-0.0109 1.16221,-0.32722 1.20733,-0.77854 0.97037,-1.28629 1.38781,-2.0874 1.15084,-2.41461 1.25246,-2.86595 1.30893,-3.45268 1.52317,-4.36662 c 0.77187,-2.28372 0.72663,-2.62447 1.35407,-4.95333 0.32938,-1.34046 1.02226,-4.84051 1.38781,-6.17195 0.14443,-0.89813 0.59574,-5.06617 0.72214,-5.96882 l 0.4062,-7.11973 c 0.0278,-2.39205 0.0121,-6.12228 -0.25959,-8.49629 l -0.84613,-5.99139 -1.0946,-5.65291 -1.60216,-6.27349 -1.37656,-5.12259 -1.18471,-4.42303 -1.18471,-3.49781 -0.94787,-3.19315 -0.84626,-1.81661 -0.81238,-1.65864 -0.78978,-1.08319 -0.76726,-0.55288 -0.9365,-0.45134 -1.18483,-0.31593 -1.77138,-0.0339 -2.26795,0.16925 -2.20032,0.34979 -1.80525,0.38363 -2.48228,0.68828 -4.05069,1.30886 c -0.23467,0.0699 -1.7859,0.68521 -3.46402,1.42168 -1.67812,0.73645 -3.09835,1.59546 -3.32855,1.66992 l -3.40753,1.89559 -3.08033,2.01969 -2.86597,2.22281 -3.44128,2.91108 -4.11843,4.1071 -3.39628,3.22701 c -0.32491,-1.46682 -0.431,-1.84594 -0.55293,-3.33984 -0.352,-1.16896 -0.84843,-3.25409 -1.2637,-4.40048 -0.24821,-0.64991 -1.22306,-3.45718 -1.4668,-4.1071 -0.28886,-0.74921 -1.2931,-3.30825 -1.56841,-4.06197 -0.78528,-1.78275 -1.32914,-3.3308 -2.13245,-5.10002 -0.37462,-0.94328 -2.01295,-3.86564 -2.36955,-4.81795 -1.19149,-2.50035 -1.85267,-3.10288 -3.03521,-5.60777 -0.89126,-1.55032 -1.77307,-2.76552 -2.23406,-3.53166 -0.23044,-0.38305 -0.35733,-0.65935 -0.59805,-0.98164 -0.24059,-0.32226 -0.77622,-0.69392 -1.46679,-1.28628 -0.4287,0.0248 -1.26431,-0.044 -1.71502,-0.0226 z m 2.01972,149.08552 c 1.86343,0.018 3.71901,0.19518 5.55136,0.59801 2.71247,0.60253 5.44697,1.32859 8.05614,2.33564 2.6093,1.00701 5.09557,2.29952 7.32286,4.02812 1.87977,1.61124 3.76631,3.3229 5.37088,5.24669 1.60446,1.92379 2.93143,4.05294 3.70087,6.4766 0.89368,3.06452 1.3179,6.29153 1.08323,9.47791 -0.52353,3.59034 -1.9469,6.92736 -3.96045,9.89541 -2.01343,2.96805 -4.61257,5.56489 -7.50335,7.65003 -2.06267,1.46006 -4.29443,2.70799 -6.63458,3.66707 -2.34015,0.95906 -4.79317,1.62477 -7.3115,1.92943 -3.61522,0.15797 -7.25742,0.20761 -10.8545,-0.2031 -2.70571,-0.43103 -5.45266,-0.94667 -8.09014,-1.7602 -2.63736,-0.81352 -5.17213,-1.92943 -7.44685,-3.54292 -1.82122,-1.28178 -3.59539,-2.69783 -5.15648,-4.3102 -1.56103,-1.61238 -2.90883,-3.42108 -3.84761,-5.48366 -1.15987,-2.53647 -2.06144,-5.2563 -2.51612,-8.03367 -0.45475,-2.77737 -0.46487,-5.61228 0.18051,-8.37217 0.61831,-1.98585 1.50465,-3.87805 2.59513,-5.65291 1.09053,-1.77485 2.39431,-3.43236 3.85889,-4.90821 1.6112,-1.75116 3.42105,-3.34436 5.59646,-4.35532 2.0242,-0.98391 4.11952,-1.85328 6.26226,-2.56131 2.14262,-0.70802 4.34172,-1.25694 6.5781,-1.57965 2.10548,-0.29336 4.23298,-0.50211 6.36374,-0.53032 0.26636,-0.004 0.53491,-0.0138 0.80115,-0.0109 z m 38.58868,22.85985 c 1.40426,-0.0804 3.10283,0.51902 3.10283,0.51902 1.08176,1.3158 0.9152,1.39756 1.55716,2.87723 0,0 0.835,2.71092 1.24107,4.07325 0.28898,1.05161 0.59587,2.10546 0.92525,3.14803 0.42083,1.55203 0.85581,3.10175 1.20733,4.67126 0.52414,1.7419 1.16258,4.93649 1.68127,6.67969 1.30882,4.06647 0.85291,2.76665 1.82787,6.92791 0.49644,1.94072 0.8078,2.97877 1.21859,4.94206 0.34849,1.34608 1.18907,4.32001 1.4443,5.68675 0.20757,0.85302 1.08987,4.43432 1.29745,5.29185 l 1.43304,5.60777 c 0.27556,1.19976 0.95912,5.08106 1.3427,6.25091 l 1.27495,7.04075 0.76727,6.02525 c 0.39264,1.76019 0.53259,5.04361 0.94787,6.80379 0.13535,1.52551 0.22559,3.051 0.33845,4.58101 0.36107,1.93169 0.45808,4.62161 0.64316,6.56684 0.21217,2.40559 0.21495,4.63854 0.10161,6.8715 -0.11371,2.23296 -0.15568,5.90791 -0.4062,8.30447 l -0.83488,5.60778 -2.14384,5.16772 c -0.45361,0.84398 -1.27083,2.51388 -2.32442,3.17059 l -2.43704,1.51195 -2.97884,0.079 c -0.43099,-0.23469 -2.16923,-0.30521 -3.35117,-0.74469 -1.18192,-0.43948 -2.89307,-1.61126 -3.29467,-1.88431 -1.14189,-0.99744 -2.27023,-2.00841 -3.43014,-2.97878 l -0.1125,-0.15796 -4.86296,-4.61486 c -0.70413,-0.34752 -4.82704,-3.59709 -5.51761,-3.94913 -1.02154,-0.47607 -4.39726,-2.38576 -5.42713,-2.84336 -1.17661,-0.56571 -3.83865,-1.72286 -5.0888,-2.0874 -0.99481,-0.40859 -4.17407,-1.47941 -5.17904,-1.86174 -2.24761,-0.63639 -3.60833,-0.85979 -5.90106,-1.29758 -2.37402,-0.50549 -4.65551,-0.43552 -7.02953,-0.91395 -2.88401,-0.0136 -4.13863,-0.061 -7.01816,0.0339 -1.79631,0.28433 -5.07525,0.32721 -6.87156,0.59801 -1.66082,0.30239 -3.87239,0.765 -5.52874,1.09447 l -5.14516,1.10576 -4.33275,1.94072 -4.00554,2.03098 -4.07326,2.42589 c -1.87648,1.11261 -2.25438,1.82564 -4.72768,3.23829 -0.48292,0.28886 -3.12772,1.85046 -3.61064,2.14383 -1.42383,0.84726 -3.97033,2.15584 -5.43854,2.92235 -1.54361,0.60671 -2.38136,1.29992 -3.99426,1.72634 l -3.75729,0.99292 -2.86597,0.27081 -3.55423,-0.58673 -2.36947,-1.81661 -1.54581,-1.98585 -1.00421,-2.89978 -0.63187,-3.24958 -0.2708,-3.61064 c 0.12186,-1.28629 0.23696,-2.52857 0.19182,-3.94913 -0.0451,-1.42057 0.29788,-3.7483 0.51903,-5.02105 0.12186,-0.91169 0.75824,-4.53813 0.8801,-5.44981 0.18955,-0.75373 0.87106,-4.94657 1.01548,-5.70931 0.3972,-1.60222 0.31143,-2.14608 0.65442,-3.75732 0.26181,-1.1509 0.58674,-2.47556 0.74473,-3.6445 0.18313,-1.68803 0.87667,-3.32031 1.04932,-4.99848 l 1.09449,-5.20157 1.41041,-5.21286 c 0.38998,-1.16283 0.8529,-3.62449 1.17345,-4.80665 0.4588,-1.82391 0.7038,-2.56292 1.10577,-4.40048 0.37007,-1.32239 0.63861,-2.48908 1.02678,-3.80245 0.15625,-1.23963 0.53493,-2.42465 0.91393,-3.61064 0.21472,-1.56232 0.79162,-3.05123 1.27496,-4.54715 0.37915,-1.3946 0.89593,-2.74633 1.27503,-4.14096 0.5748,-1.44923 0.6113,-2.23147 1.12832,-3.7009 0.13443,-0.93582 0.91765,-3.58521 1.28628,-4.44559 0.98887,-2.67583 0.26873,-1.04807 1.59093,-4.08454 0.80243,-2.49244 0.89183,-2.74516 1.43302,-4.42303 0.40659,-0.86964 0.88541,-1.92173 1.44422,-4.12966 0.85046,-2.10814 1.06541,-2.47993 1.29761,-3.40754 0.39715,-1.01099 1.284,-2.7644 1.59093,-3.80245 0.92974,-1.90913 0.91393,-3.64901 3.21574,-4.29893 0.95228,-0.0813 1.42842,0.0428 2.38074,0.0564 1.26824,0.56417 2.66509,2.87723 2.94495,4.34406 l 1.09445,4.65998 c 0.49533,0.96246 0.8463,2.94104 1.25242,4.07324 0.40615,1.13221 1.41295,2.86397 2.14383,4.07325 0.73088,1.2093 1.45277,2.66518 2.38079,3.81374 0.92797,1.14857 2.42139,2.53647 3.23828,3.26086 1.41379,1.20618 2.4658,2.1025 3.27211,2.71926 0.80634,0.61677 2.03449,1.38721 4.14106,2.30179 l 3.9942,1.48938 4.05069,1.03806 4.35528,0.9365 4.89694,0.56418 3.83635,0.28207 4.72772,-0.25951 4.5245,-0.78984 3.27218,-0.98163 3.28342,-1.16218 2.9336,-1.52324 3.4979,-2.50487 3.39615,-2.79825 3.21568,-3.53165 1.73776,-3.06904 c 0.20757,-0.48745 2.21592,-4.75702 2.43717,-5.23543 l 1.56828,-6.29606 c 0.19415,-2.2431 0.85751,-4.60356 0.85751,-4.60356 0.39712,-0.99475 0.61401,-0.9846 1.96335,-1.76018 z m 23.35629,28.30966 c 0.63553,0.0367 1.0739,0.5092 3.31729,2.0874 3.09798,2.36245 2.41744,1.27509 4.99843,3.65577 3.85462,2.85901 2.92864,2.56484 6.05917,5.32569 2.77719,2.44931 2.79823,2.48232 3.9717,4.50201 l 0.54155,2.34692 -0.99286,2.91109 c -1.33144,2.20699 -2.68091,3.25183 -4.73898,4.84051 -0.81238,0.83044 -1.64062,1.6451 -2.51627,2.40331 -1.29745,0.19408 -2.57591,0.67023 -3.32842,0.85753 -0.75264,0.18732 -2.6087,0.62285 -3.23831,1.85046 -0.42881,0.25726 -1.75565,2.68767 -2.18894,2.94492 -0.34305,-0.53707 -1.40814,-7.02721 -1.73764,-7.55977 l -1.51204,-5.73188 c -0.88,-3.01489 -1.30205,-7.00464 -2.24531,-9.99697 l -0.10161,-2.78695 c 0.6134,-1.35385 0.98294,-2.88117 1.52329,-4.26507 l 1.48941,-3.30598 c 0.15351,-0.0265 0.28681,-0.0558 0.4062,-0.0677 0.10403,-0.0109 0.20261,-0.0166 0.29334,-0.0109 z m -127.44424,0.16925 c -0.0711,0.0397 -0.40619,0.21438 -0.40619,0.21438 1.50293,1.54355 2.20759,3.59643 2.95623,5.3934 -0.0138,2.00542 0.51338,2.38865 0.15793,3.91527 -0.35541,1.52664 -0.90036,4.47719 -1.27498,5.96884 -0.73569,2.69895 -1.55258,4.82923 -2.34692,7.51464 -0.78981,3.24055 -0.70633,3.5971 -1.68121,6.79251 -0.35203,-0.008 -1.25019,4.13418 -1.60223,4.12967 -0.55964,-1.23664 -1.13057,-2.7328 -2.04226,-3.73475 -0.21212,-0.14894 -2.79373,-0.97938 -3.00134,-1.12833 -2.03551,-0.87558 -2.81856,-0.21211 -4.95334,-0.0677 -0.60028,0.1399 -4.94207,-6.3254 -5.28056,-6.71354 -1.98932,-3.5494 -1.19157,-1.63689 -2.86595,-6.13808 0.0451,-1.23665 -0.0494,-2.18193 0.98165,-2.77569 0.13539,-0.0858 4.06196,-2.4259 4.19735,-2.51616 4.23636,-2.98143 0.0566,-0.31468 4.44561,-3.00134 4.06879,-3.00018 0.0866,0.13254 3.88144,-2.65158 l 3.91528,-2.39204 c 0.86943,-0.46474 3.73477,-2.2115 3.73477,-2.2115 1.06202,-0.54067 1.25588,-0.63769 1.18472,-0.59802 z"
       id="path2466"
       inkscape:connector-curvature="0" />
    <path
       style="fill:#bb0000;fill-opacity:1"
       inkscape:connector-curvature="0"
       sodipodi:nodetypes="cccccccccssccccccccsccccsccccsc"
       id="path3091"
       d="m 632.01532,357.77473 4.51154,-2.81275 4.74644,-2.31611 5.02212,-1.54103 3.29865,-0.45597 2.1437,0.25733 1.33034,0.4931 0.94823,1.43313 1.47247,3.41802 2.15579,6.62843 c 0.51724,1.59018 1.06484,4.56504 2.05334,8.03114 0.98851,3.4661 1.77839,7.05646 2.06955,8.70381 0.65441,3.43008 0.96963,6.92787 1.11866,10.39406 0.28426,3.45717 -0.14903,6.75637 -0.33398,10.22708 -0.31595,3.38496 -0.93431,6.72929 -1.43074,10.09167 -0.71767,3.56098 -1.93165,7.00009 -3.10063,10.43469 -1.15084,2.91106 -2.01294,6.03425 -3.97168,8.53912 -0.64534,0.90264 -1.77368,1.28177 -2.84335,1.34496 -4.05296,0.23016 -8.09226,-0.28886 -12.11814,-0.64089 -2.81624,-0.27757 -5.60769,-0.74244 -8.36927,-1.34891 -2.76157,-0.60647 -5.49326,-1.35455 -8.19,-2.19853 -3.5338,-1.09673 -6.69757,-3.09159 -9.81175,-5.0368 -2.45517,-1.62028 -4.99623,-3.30824 -6.70676,-5.75443 -0.86658,-1.25921 0.11733,-2.71248 0.55509,-3.93558 0.82376,-1.87075 1.28075,-3.89382 1.34559,-5.92649 0.0653,-2.03266 -0.26237,-4.07492 -1.00701,-5.98403 -0.94327,-2.06708 -2.30627,-3.89947 -3.43921,-5.85372 1.29539,-2.90655 2.77573,-5.73637 4.43207,-8.45336 1.94072,-2.94716 3.55194,-6.09291 5.51528,-9.02654 2.36941,-3.73926 5.02998,-7.38936 8.09336,-10.62651 3.06337,-3.23715 6.52967,-5.9975 10.5103,-8.08489 z" />
    <path
       style="fill:#bb0000;fill-opacity:1"
       inkscape:connector-curvature="0"
       sodipodi:nodetypes="cccccccccssccscccsscsccssscscccccccsccccccc"
       id="path3093"
       d="m 527.78642,357.10102 1.13488,-0.46233 1.12004,-0.27139 1.60445,0.0439 2.62567,0.55447 5.82581,1.68338 6.23524,2.40653 9.316,4.00412 6.88498,4.37222 c 1.43972,1.17797 3.50315,3.03857 5.49591,4.96609 1.99275,1.92752 3.91488,3.92196 5.07189,5.36763 2.31425,2.8913 4.45686,5.93438 6.65039,8.89734 0.89355,1.50292 2.49582,2.96523 2.17079,4.86081 -1.07414,1.50517 -2.17079,3.04871 -3.06845,4.68533 -0.89754,1.63661 -1.59598,3.36633 -1.87359,5.24384 -0.176,1.74213 -0.0363,3.88142 0.26176,5.61 0.50551,1.85496 1.36313,3.13673 2.11225,4.8969 -1.52776,1.22085 -3.90285,2.772 -6.31714,4.26928 -2.41432,1.49728 -5.13527,2.93695 -6.9135,3.76548 l -6.69093,3.11754 c -2.02647,0.64766 -5.43307,1.97803 -7.50057,2.46256 l -4.67369,1.09529 -4.16305,0.71232 -4.3701,0.69482 c -0.62642,0.0996 -2.49529,0.33019 -3.8249,0.42264 -1.3296,0.0924 -2.24925,-0.0285 -2.76952,-0.0284 -1.04062,3.5e-4 -0.29629,-0.12048 -1.56567,-0.20508 l -1.49938,-0.67289 c -0.59576,-0.46995 -1.23567,-1.01767 -1.70055,-1.58634 l -1.60857,-3.01818 -1.60857,-4.16707 -1.39028,-4.81291 -1.93507,-7.65169 -1.12945,-7.83786 c -0.24823,-4.20638 0.0226,-3.00134 -0.0767,-7.2077 -0.0451,-1.2908 0.11056,-4.92173 0.31875,-7.285 0.20817,-2.36325 0.64933,-7.06946 0.81407,-8.34447 0.39717,-2.8208 0.96133,-4.44106 1.71957,-7.20318 l 1.41913,-4.72487 0.99049,-3.08876 1.19735,-2.82093 0.94203,-1.67204 0.76824,-1.07134 z" />
    <path
       style="fill:#bb0000;fill-opacity:1"
       inkscape:connector-curvature="0"
       sodipodi:nodetypes="ccsccccc"
       id="path3095"
       d="m 589.41005,396.21815 c 3.04196,-0.72663 6.47657,-0.30689 8.90913,1.78726 2.42602,1.77597 3.74161,4.67349 3.89329,7.63194 0.15181,2.95845 -0.86028,5.97783 -3.08986,7.99753 -2.43715,2.67185 -6.45395,2.9923 -9.79832,2.2792 -2.30627,-0.43779 -4.00773,-2.23859 -5.44307,-3.96717 -2.04898,-2.48681 -1.87298,-5.99363 -1.4622,-8.99495 1.00194,-3.1954 3.5384,-6.19221 6.99103,-6.73381 z" />
    <path
       id="path3097"
       d="m 595.42358,479.9775 c -0.26624,-0.002 -0.53478,0.007 -0.80114,0.0109 -2.13087,0.0282 -4.25824,0.23695 -6.36371,0.53032 -2.23636,0.32269 -4.43545,0.87162 -6.57806,1.57963 -2.14273,0.70802 -4.23804,1.57739 -6.26223,2.56129 -2.17539,1.01096 -3.98523,2.60415 -5.59643,4.3553 -1.46457,1.47585 -2.76834,3.13335 -3.85886,4.90818 -1.09048,1.77486 -1.97681,3.66704 -2.59512,5.65288 -0.64538,2.75987 -0.63526,5.59477 -0.18051,8.37213 0.45468,2.77735 1.35619,5.49716 2.51611,8.03362 0.93877,2.06257 2.28656,3.87126 3.84759,5.48363 1.56108,1.61237 3.33524,3.0284 5.15645,4.31017 2.27458,1.6135 4.80946,2.72941 7.44681,3.54293 2.63746,0.81351 5.3844,1.32914 8.09009,1.76017 3.59706,0.4107 7.23924,0.36106 10.85444,0.2031 2.51832,-0.30465 4.97132,-0.97036 7.31146,-1.92943 2.34014,-0.95907 4.57189,-2.20699 6.63455,-3.66704 2.89076,-2.08513 5.48988,-4.68194 7.5033,-7.64999 2.01354,-2.96804 3.4369,-6.30504 3.96043,-9.89535 0.23467,-3.18637 -0.18955,-6.41336 -1.08322,-9.47787 -0.76944,-2.42363 -2.0964,-4.55276 -3.70085,-6.47655 -1.60456,-1.92379 -3.49109,-3.63544 -5.37085,-5.24669 -2.22728,-1.72857 -4.71354,-3.02107 -7.32282,-4.02809 -2.60916,-1.00702 -5.34364,-1.73309 -8.0561,-2.33561 -1.83246,-0.40281 -3.68791,-0.57995 -5.55133,-0.59801 z m -11.88118,5.51747 c 0.54639,-0.007 1.09314,3e-4 1.63602,0.0339 0.543,0.0335 0.70751,0.0865 1.2412,0.15796 l 0.78976,0.22567 0.72214,0.44004 c 0.1125,0.0673 0.71078,0.62057 0.71078,0.62057 l 0.5078,0.71085 0.40619,0.67699 0.25959,0.73341 0.15785,0.62057 0.10161,1.03805 -0.0121,0.85752 -0.0907,1.03805 -0.21434,0.99292 -0.39494,1.22987 -0.92525,1.5458 c -0.29551,0.35335 -0.87818,0.94397 -1.20732,1.25243 -0.32914,0.30845 -0.67727,0.59077 -1.02673,0.83495 -0.34946,0.24419 -0.80597,0.50884 -1.2637,0.83496 -0.45784,0.32613 -0.80621,0.3997 -1.26381,0.6093 0,0 -0.79327,0.21726 -1.33131,0.37235 -0.53804,0.15507 -0.69481,0.16117 -1.09447,0.23694 l -1.28632,0.16925 c -0.34982,-4.6e-4 -0.82665,-0.0145 -0.99286,0 -0.16632,0.0146 -0.63505,-0.0159 -1.02685,-0.0339 -0.39179,-0.018 -0.73182,-0.048 -1.12833,-0.0677 -0.39652,-0.0196 -0.68078,-0.11116 -1.04935,-0.16925 -0.36858,-0.0581 -0.71937,-0.13054 -1.0606,-0.22566 -0.34124,-0.0951 -0.64147,-0.24436 -0.93649,-0.39491 -0.29491,-0.15054 -0.52788,-0.33512 -0.86876,-0.55288 l -0.64315,-0.65443 -0.47393,-0.57544 -0.36108,-0.62057 -0.36107,-0.62058 -0.29333,-0.94779 -0.0677,-1.01548 0.0786,-1.24114 0.23697,-0.8801 0.24821,-0.8011 0.45143,-0.80111 0.48506,-0.72212 c 0.26648,-0.40293 0.55341,-0.77792 0.90275,-1.12833 0.34934,-0.3503 0.74996,-0.68282 1.19595,-0.99292 0.44539,-0.32228 0.89984,-0.60704 1.37656,-0.8688 0.47683,-0.26177 0.9758,-0.49509 1.47816,-0.69956 0.50223,-0.20447 1.01245,-0.37989 1.5344,-0.5303 0.52208,-0.15043 1.05504,-0.27276 1.59102,-0.37235 0.53599,-0.0995 1.06931,-0.17367 1.61352,-0.22566 0.54409,-0.052 1.10088,-0.0826 1.64727,-0.0902 z"
       style="fill:#bb0000;fill-opacity:1"
       inkscape:connector-curvature="0" />
  </g>
  <text
     sodipodi:linespacing="125%"
     id="text3006-0-2"
     y="782.34198"
     x="614.0647"
     style="font-size:90.51593781px;font-style:normal;font-weight:normal;text-align:center;line-height:125%;letter-spacing:0px;word-spacing:0px;text-anchor:middle;fill:#bb0000;fill-opacity:1;stroke:none;font-family:Sans"
     xml:space="preserve"><tspan
       style="font-size:54.74531555px;font-style:normal;font-variant:normal;font-weight:500;font-stretch:normal;font-family:Ubuntu;-inkscape-font-specification:Ubuntu Medium"
       id="tspan3010-9-4"
       y="782.34198"
       x="614.0647"
       sodipodi:role="line">@duchessfr</tspan></text>
</svg>
